<?xml version="1.0"?><svg viewBox="0 0 720 260" width="100%" height="260" xmlns="http://www.w3.org/2000/svg"><rect width="100%" height="100%" fill="#fff"/><line x1="40" y1="210.625" x2="710" y2="210.625" stroke="#eee"/><text x="32" y="214.625" text-anchor="end" font-size="10" fill="#666" font-family="system-ui,Arial">60</text><line x1="40" y1="183.875" x2="710" y2="183.875" stroke="#eee"/><text x="32" y="187.875" text-anchor="end" font-size="10" fill="#666" font-family="system-ui,Arial">100</text><line x1="40" y1="157.125" x2="710" y2="157.125" stroke="#eee"/><text x="32" y="161.125" text-anchor="end" font-size="10" fill="#666" font-family="system-ui,Arial">140</text><line x1="40" y1="130.375" x2="710" y2="130.375" stroke="#eee"/><text x="32" y="134.375" text-anchor="end" font-size="10" fill="#666" font-family="system-ui,Arial">180</text><line x1="40" y1="103.625" x2="710" y2="103.625" stroke="#eee"/><text x="32" y="107.625" text-anchor="end" font-size="10" fill="#666" font-family="system-ui,Arial">220</text><line x1="40" y1="76.875" x2="710" y2="76.875" stroke="#eee"/><text x="32" y="80.875" text-anchor="end" font-size="10" fill="#666" font-family="system-ui,Arial">260</text><line x1="40" y1="50.125" x2="710" y2="50.125" stroke="#eee"/><text x="32" y="54.125" text-anchor="end" font-size="10" fill="#666" font-family="system-ui,Arial">300</text><line x1="40" y1="23.375" x2="710" y2="23.375" stroke="#eee"/><text x="32" y="27.375" text-anchor="end" font-size="10" fill="#666" font-family="system-ui,Arial">340</text><line x1="208.0836236933798" y1="10" x2="208.0836236933798" y2="224" stroke="#eee"/><text x="208.0836236933798" y="238" text-anchor="middle" font-size="10" fill="#666" font-family="system-ui,Arial">6</text><line x1="292.1254355400697" y1="10" x2="292.1254355400697" y2="224" stroke="#eee"/><text x="292.1254355400697" y="238" text-anchor="middle" font-size="10" fill="#666" font-family="system-ui,Arial">9</text><line x1="376.1672473867596" y1="10" x2="376.1672473867596" y2="224" stroke="#eee"/><text x="376.1672473867596" y="238" text-anchor="middle" font-size="10" fill="#666" font-family="system-ui,Arial">12</text><line x1="460.20905923344947" y1="10" x2="460.20905923344947" y2="224" stroke="#eee"/><text x="460.20905923344947" y="238" text-anchor="middle" font-size="10" fill="#666" font-family="system-ui,Arial">15</text><line x1="544.2508710801394" y1="10" x2="544.2508710801394" y2="224" stroke="#eee"/><text x="544.2508710801394" y="238" text-anchor="middle" font-size="10" fill="#666" font-family="system-ui,Arial">18</text><line x1="628.2926829268292" y1="10" x2="628.2926829268292" y2="224" stroke="#eee"/><text x="628.2926829268292" y="238" text-anchor="middle" font-size="10" fill="#666" font-family="system-ui,Arial">21</text><rect x="40" y="130.375" width="670" height="73.5625" fill="rgba(39,174,96,0.07)"/><path d="M 40.00 10.00 L 42.33 10.00 L 44.67 10.03 L 47.00 10.00 L 49.34 10.00 L 51.67 10.00 L 54.01 10.00 L 56.34 10.00 L 58.68 10.00 L 61.01 10.00 L 63.34 10.00 L 65.68 11.20 L 68.01 10.00 L 70.35 10.00 L 72.68 10.00 L 75.02 10.00 L 77.35 10.00 L 79.69 10.00 L 82.02 10.00 L 84.36 10.00 L 86.69 10.00 L 89.02 10.00 L 91.36 10.00 L 93.69 10.00 L 96.03 10.00 L 98.36 17.36 L 100.70 10.67 L 103.03 10.00 L 105.37 10.00 L 107.70 10.00 L 110.03 10.00 L 112.37 10.00 L 114.70 10.00 L 117.04 10.00 L 119.37 10.00 L 121.71 10.00 L 124.04 10.00 L 126.38 10.00 L 128.71 10.00 L 131.05 10.00 L 133.38 10.00 L 135.71 10.00 L 138.05 10.00 L 140.38 10.00 L 142.72 10.00 L 145.05 10.00 L 147.39 10.00 L 149.72 10.00 L 152.06 10.00 L 154.39 10.00 L 156.72 10.00 L 159.06 10.00 L 161.39 10.00 L 163.73 10.00 L 166.06 10.00 L 168.40 10.00 L 170.73 10.00 L 173.07 10.00 L 175.40 10.00 L 177.74 10.00 L 180.07 16.89 L 182.40 21.23 L 184.74 25.52 L 187.07 28.32 L 189.41 21.10 L 191.74 21.90 L 194.08 30.33 L 196.41 35.45 L 198.75 38.76 L 201.08 45.18 L 203.41 47.98 L 205.75 50.79 L 208.08 56.01 L 210.42 61.59 L 212.75 66.71 L 215.09 67.45 L 217.42 70.72 L 219.76 75.17 L 222.09 82.59 L 224.43 89.92 L 226.76 93.69 L 229.09 98.91 L 231.43 107.74 L 233.76 116.90 L 236.10 122.35 L 238.43 143.48 L 240.77 148.43 L 243.10 151.78 L 245.44 150.77 L 247.77 156.89 L 250.10 151.91 L 252.44 151.11 L 254.77 149.77 L 257.11 139.07 L 259.44 131.31 L 261.78 126.20 L 264.11 122.68 L 266.45 97.61 L 268.78 76.88 L 271.11 94.20 L 273.45 94.76 L 275.78 85.74 L 278.12 80.92 L 280.45 78.68 L 282.79 81.22 L 285.12 65.81 L 287.46 57.62 L 289.79 60.83 L 292.13 60.02 L 294.46 60.83 L 296.79 56.61 L 299.13 59.89 L 301.46 46.11 L 303.80 63.50 L 306.13 52.80 L 308.47 68.75 L 310.80 77.21 L 313.14 78.55 L 315.47 78.48 L 317.80 81.56 L 320.14 80.15 L 322.47 78.21 L 324.81 87.44 L 327.14 79.55 L 329.48 82.63 L 331.81 81.56 L 334.15 81.89 L 336.48 81.89 L 338.82 81.12 L 341.15 84.87 L 343.48 76.98 L 345.82 38.76 L 348.15 74.67 L 350.49 73.87 L 352.82 76.54 L 355.16 77.91 L 357.49 83.36 L 359.83 87.24 L 362.16 92.59 L 364.49 91.69 L 366.83 103.16 L 369.16 100.18 L 371.50 97.21 L 373.83 96.67 L 376.17 82.89 L 378.50 102.49 L 380.84 113.19 L 383.17 125.02 L 385.51 120.48 L 387.84 112.99 L 390.17 102.96 L 392.51 94.93 L 394.84 79.55 L 397.18 80.22 L 399.51 81.56 L 401.85 77.54 L 404.18 72.36 L 406.52 74.60 L 408.85 74.03 L 411.18 71.96 L 413.52 74.20 L 415.85 71.69 L 418.19 69.85 L 420.52 67.61 L 422.86 61.49 L 425.19 69.72 L 427.53 67.91 L 429.86 69.18 L 432.20 69.82 L 434.53 73.56 L 436.86 71.53 L 439.20 77.78 L 441.53 82.23 L 443.87 85.23 L 446.20 81.42 L 448.54 68.52 L 450.87 69.79 L 453.21 69.65 L 455.54 64.64 L 457.87 65.77 L 460.21 65.54 L 462.54 63.43 L 464.88 62.16 L 467.21 58.82 L 469.55 63.43 L 471.88 53.94 L 474.22 52.47 L 476.55 52.80 L 478.89 59.42 L 481.22 65.71 L 483.55 73.97 L 485.89 78.55 L 488.22 78.88 L 490.56 86.57 L 492.89 86.17 L 495.23 95.60 L 497.56 104.16 L 499.90 113.19 L 502.23 114.46 L 504.56 114.46 L 506.90 105.06 L 509.23 93.73 L 511.57 87.17 L 513.90 91.05 L 516.24 95.60 L 518.57 100.95 L 520.91 104.39 L 523.24 100.65 L 525.57 103.89 L 527.91 108.77 L 530.24 108.01 L 532.58 99.24 L 534.91 100.95 L 537.25 110.18 L 539.58 109.94 L 541.92 105.83 L 544.25 105.63 L 546.59 107.30 L 548.92 103.63 L 551.25 103.63 L 553.59 109.98 L 555.92 101.62 L 558.26 103.63 L 560.59 108.57 L 562.93 103.36 L 565.26 100.82 L 567.60 104.03 L 569.93 104.19 L 572.26 105.30 L 574.60 108.98 L 576.93 108.64 L 579.27 109.38 L 581.60 103.76 L 583.94 94.26 L 586.27 93.59 L 588.61 96.34 L 590.94 98.14 L 593.28 101.62 L 595.61 103.29 L 597.94 94.30 L 600.28 92.36 L 602.61 86.91 L 604.95 84.43 L 607.28 86.57 L 609.62 85.57 L 611.95 80.25 L 614.29 79.55 L 616.62 76.21 L 618.95 72.19 L 621.29 72.19 L 623.62 71.86 L 625.96 70.46 L 628.29 69.49 L 630.63 59.99 L 632.96 42.77 L 635.30 43.44 L 637.63 48.79 L 639.97 43.44 L 642.30 32.74 L 644.63 44.11 L 646.97 33.11 L 649.30 33.64 L 651.64 43.77 L 653.97 43.44 L 656.31 50.26 L 658.64 31.40 L 660.98 33.27 L 663.31 38.92 L 665.64 60.19 L 667.98 47.62 L 670.31 40.43 L 672.65 35.08 L 674.98 35.01 L 677.32 43.44 L 679.65 38.76 L 681.99 24.18 L 684.32 22.97 L 686.66 31.80 L 688.99 26.38 L 691.32 28.12 L 693.66 19.36 L 695.99 18.46 L 698.33 11.87 L 700.66 13.95 L 703.00 10.00 L 705.33 10.00 L 707.67 13.34 L 710.00 12.01 L 710.00 189.22 L 707.67 188.22 L 705.33 175.45 L 703.00 175.85 L 700.66 174.71 L 698.33 178.26 L 695.99 189.29 L 693.66 194.88 L 691.32 206.61 L 688.99 195.58 L 686.66 196.58 L 684.32 202.30 L 681.99 203.80 L 679.65 207.62 L 677.32 206.95 L 674.98 206.38 L 672.65 206.95 L 670.31 207.95 L 667.98 209.96 L 665.64 213.30 L 663.31 212.10 L 660.98 208.35 L 658.64 206.88 L 656.31 204.47 L 653.97 206.28 L 651.64 210.29 L 649.30 214.04 L 646.97 216.68 L 644.63 218.65 L 642.30 214.47 L 639.97 219.42 L 637.63 221.33 L 635.30 224.00 L 632.96 222.66 L 630.63 218.22 L 628.29 214.64 L 625.96 211.96 L 623.62 204.61 L 621.29 203.60 L 618.95 207.41 L 616.62 201.93 L 614.29 190.30 L 611.95 190.66 L 609.62 182.54 L 607.28 181.87 L 604.95 178.79 L 602.61 176.92 L 600.28 183.88 L 597.94 182.84 L 595.61 179.53 L 593.28 184.94 L 590.94 188.42 L 588.61 193.34 L 586.27 191.23 L 583.94 191.10 L 581.60 190.03 L 579.27 192.33 L 576.93 192.90 L 574.60 189.22 L 572.26 191.90 L 569.93 187.02 L 567.60 181.07 L 565.26 179.59 L 562.93 178.12 L 560.59 178.53 L 558.26 182.84 L 555.92 183.21 L 553.59 188.56 L 551.25 184.28 L 548.92 182.54 L 546.59 185.21 L 544.25 181.87 L 541.92 184.18 L 539.58 184.71 L 537.25 186.78 L 534.91 185.55 L 532.58 190.90 L 530.24 192.57 L 527.91 203.27 L 525.57 194.14 L 523.24 198.49 L 520.91 199.32 L 518.57 196.25 L 516.24 197.92 L 513.90 201.00 L 511.57 203.27 L 509.23 209.96 L 506.90 211.29 L 504.56 207.95 L 502.23 207.28 L 499.90 205.28 L 497.56 222.66 L 495.23 217.31 L 492.89 212.87 L 490.56 206.95 L 488.22 192.64 L 485.89 190.56 L 483.55 189.83 L 481.22 187.39 L 478.89 199.92 L 476.55 185.35 L 474.22 188.36 L 471.88 190.60 L 469.55 192.57 L 467.21 181.20 L 464.88 175.58 L 462.54 170.17 L 460.21 172.17 L 457.87 174.58 L 455.54 172.77 L 453.21 172.71 L 450.87 168.76 L 448.54 174.51 L 446.20 186.55 L 443.87 183.54 L 441.53 183.88 L 439.20 189.22 L 436.86 186.05 L 434.53 219.99 L 432.20 190.56 L 429.86 187.22 L 427.53 186.25 L 425.19 194.58 L 422.86 184.54 L 420.52 168.56 L 418.19 163.14 L 415.85 159.97 L 413.52 162.91 L 411.18 168.49 L 408.85 163.68 L 406.52 165.82 L 404.18 164.01 L 401.85 163.48 L 399.51 162.47 L 397.18 165.82 L 394.84 167.16 L 392.51 162.47 L 390.17 164.48 L 387.84 164.82 L 385.51 168.49 L 383.17 168.49 L 380.84 179.26 L 378.50 190.09 L 376.17 190.16 L 373.83 199.66 L 371.50 198.49 L 369.16 199.32 L 366.83 198.99 L 364.49 193.44 L 362.16 192.23 L 359.83 188.89 L 357.49 188.76 L 355.16 188.99 L 352.82 187.55 L 350.49 186.55 L 348.15 181.10 L 345.82 183.91 L 343.48 180.87 L 341.15 179.83 L 338.82 177.02 L 336.48 175.85 L 334.15 177.52 L 331.81 180.80 L 329.48 179.06 L 327.14 180.53 L 324.81 181.87 L 322.47 182.27 L 320.14 185.01 L 317.80 186.02 L 315.47 187.22 L 313.14 187.89 L 310.80 182.20 L 308.47 178.29 L 306.13 181.53 L 303.80 183.21 L 301.46 187.02 L 299.13 195.38 L 296.79 192.54 L 294.46 198.25 L 292.13 193.67 L 289.79 189.89 L 287.46 188.29 L 285.12 191.23 L 282.79 192.57 L 280.45 193.14 L 278.12 196.48 L 275.78 197.08 L 273.45 195.71 L 271.11 196.68 L 268.78 199.26 L 266.45 197.58 L 264.11 208.62 L 261.78 201.33 L 259.44 198.85 L 257.11 207.95 L 254.77 198.59 L 252.44 202.60 L 250.10 191.90 L 247.77 205.31 L 245.44 201.26 L 243.10 193.57 L 240.77 191.90 L 238.43 194.84 L 236.10 192.97 L 233.76 192.90 L 231.43 190.86 L 229.09 195.01 L 226.76 196.15 L 224.43 198.72 L 222.09 193.20 L 219.76 193.54 L 217.42 194.58 L 215.09 193.00 L 212.75 192.44 L 210.42 198.32 L 208.08 198.59 L 205.75 193.91 L 203.41 193.77 L 201.08 193.64 L 198.75 194.58 L 196.41 196.55 L 194.08 197.12 L 191.74 197.25 L 189.41 200.19 L 187.07 201.06 L 184.74 203.60 L 182.40 198.12 L 180.07 197.25 L 177.74 195.11 L 175.40 196.58 L 173.07 196.98 L 170.73 195.11 L 168.40 196.08 L 166.06 199.26 L 163.73 199.82 L 161.39 202.60 L 159.06 198.79 L 156.72 195.48 L 154.39 194.24 L 152.06 195.64 L 149.72 212.20 L 147.39 212.46 L 145.05 192.23 L 142.72 191.70 L 140.38 195.38 L 138.05 188.56 L 135.71 189.83 L 133.38 190.96 L 131.05 191.63 L 128.71 193.91 L 126.38 194.64 L 124.04 195.54 L 121.71 196.92 L 119.37 196.21 L 117.04 195.91 L 114.70 195.08 L 112.37 197.38 L 110.03 194.84 L 107.70 193.74 L 105.37 194.47 L 103.03 194.58 L 100.70 192.57 L 98.36 193.64 L 96.03 192.77 L 93.69 195.85 L 91.36 195.91 L 89.02 198.86 L 86.69 199.16 L 84.36 199.12 L 82.02 201.80 L 79.69 215.31 L 77.35 192.94 L 75.02 192.97 L 72.68 193.17 L 70.35 192.27 L 68.01 191.63 L 65.68 190.66 L 63.34 190.40 L 61.01 189.89 L 58.68 186.55 L 56.34 183.74 L 54.01 181.20 L 51.67 180.90 L 49.34 179.43 L 47.00 178.79 L 44.67 179.03 L 42.33 180.26 L 40.00 180.13 Z" fill="rgba(231,76,60,0.06)" stroke="none"/><path d="M 40.00 53.47 L 42.33 50.13 L 44.67 55.48 L 47.00 50.79 L 49.34 50.13 L 51.67 66.17 L 54.01 64.17 L 56.34 66.17 L 58.68 84.90 L 61.01 106.97 L 63.34 81.22 L 65.68 98.44 L 68.01 107.64 L 70.35 106.97 L 72.68 101.62 L 75.02 101.95 L 77.35 108.64 L 79.69 117.00 L 82.02 119.67 L 84.36 112.99 L 86.69 98.94 L 89.02 118.34 L 91.36 119.67 L 93.69 117.67 L 96.03 123.69 L 98.36 125.02 L 100.70 132.38 L 103.03 138.73 L 105.37 141.58 L 107.70 141.08 L 110.03 144.42 L 112.37 145.92 L 114.70 143.25 L 117.04 145.76 L 119.37 148.43 L 121.71 151.11 L 124.04 143.58 L 126.38 138.40 L 128.71 157.79 L 131.05 159.80 L 133.38 158.46 L 135.71 135.56 L 138.05 144.75 L 140.38 140.41 L 142.72 117.33 L 145.05 145.09 L 147.39 147.09 L 149.72 145.76 L 152.06 146.42 L 154.39 149.77 L 156.72 152.44 L 159.06 154.28 L 161.39 155.12 L 163.73 156.46 L 166.06 160.47 L 168.40 142.25 L 170.73 157.79 L 173.07 151.78 L 175.40 149.77 L 177.74 146.42 L 180.07 141.08 L 182.40 137.73 L 184.74 119.67 L 187.07 134.39 L 189.41 133.72 L 191.74 132.38 L 194.08 133.05 L 196.41 131.88 L 198.75 137.73 L 201.08 141.08 L 203.41 147.09 L 205.75 147.09 L 208.08 160.64 L 210.42 155.12 L 212.75 156.46 L 215.09 156.12 L 217.42 162.81 L 219.76 161.81 L 222.09 157.79 L 224.43 164.65 L 226.76 163.81 L 229.09 167.16 L 231.43 171.00 L 233.76 169.83 L 236.10 167.83 L 238.43 168.49 L 240.77 172.84 L 243.10 172.51 L 245.44 167.49 L 247.77 162.47 L 250.10 160.80 L 252.44 163.65 L 254.77 165.15 L 257.11 158.30 L 259.44 157.79 L 261.78 148.77 L 264.11 149.10 L 266.45 138.57 L 268.78 142.41 L 271.11 133.05 L 273.45 137.73 L 275.78 139.07 L 278.12 143.08 L 280.45 121.68 L 282.79 127.70 L 285.12 123.19 L 287.46 129.04 L 289.79 136.39 L 292.13 133.05 L 294.46 133.72 L 296.79 125.19 L 299.13 123.69 L 301.46 117.33 L 303.80 121.01 L 306.13 118.34 L 308.47 121.85 L 310.80 127.70 L 313.14 123.02 L 315.47 121.68 L 317.80 115.66 L 320.14 113.32 L 322.47 105.63 L 324.81 117.00 L 327.14 120.34 L 329.48 124.36 L 331.81 117.67 L 334.15 122.35 L 336.48 125.02 L 338.82 126.36 L 341.15 126.36 L 343.48 130.38 L 345.82 132.38 L 348.15 135.06 L 350.49 138.40 L 352.82 138.73 L 355.16 137.06 L 357.49 137.06 L 359.83 145.09 L 362.16 145.09 L 364.49 142.91 L 366.83 151.27 L 369.16 153.45 L 371.50 156.62 L 373.83 158.46 L 376.17 157.79 L 378.50 161.81 L 380.84 152.61 L 383.17 139.07 L 385.51 129.04 L 387.84 126.36 L 390.17 128.37 L 392.51 130.38 L 394.84 111.65 L 397.18 116.33 L 399.51 112.32 L 401.85 112.99 L 404.18 96.27 L 406.52 104.29 L 408.85 94.93 L 411.18 98.94 L 413.52 108.31 L 415.85 107.64 L 418.19 104.29 L 420.52 101.62 L 422.86 89.25 L 425.19 90.75 L 427.53 97.61 L 429.86 95.60 L 432.20 92.92 L 434.53 90.92 L 436.86 86.40 L 439.20 94.26 L 441.53 94.93 L 443.87 96.27 L 446.20 96.94 L 448.54 101.62 L 450.87 104.29 L 453.21 102.12 L 455.54 101.62 L 457.87 103.63 L 460.21 104.96 L 462.54 108.98 L 464.88 110.98 L 467.21 101.28 L 469.55 116.33 L 471.88 112.99 L 474.22 112.32 L 476.55 109.64 L 478.89 109.48 L 481.22 118.34 L 483.55 128.20 L 485.89 134.39 L 488.22 135.73 L 490.56 132.38 L 492.89 132.38 L 495.23 133.72 L 497.56 129.04 L 499.90 121.35 L 502.23 140.41 L 504.56 144.42 L 506.90 128.54 L 509.23 132.88 L 511.57 129.04 L 513.90 134.39 L 516.24 127.70 L 518.57 137.06 L 520.91 137.56 L 523.24 136.39 L 525.57 122.35 L 527.91 129.87 L 530.24 117.00 L 532.58 120.34 L 534.91 131.04 L 537.25 129.54 L 539.58 131.04 L 541.92 132.38 L 544.25 129.54 L 546.59 125.02 L 548.92 126.03 L 551.25 129.71 L 553.59 128.20 L 555.92 135.73 L 558.26 134.05 L 560.59 142.41 L 562.93 142.41 L 565.26 129.71 L 567.60 130.54 L 569.93 124.36 L 572.26 121.01 L 574.60 113.32 L 576.93 117.67 L 579.27 119.67 L 581.60 117.00 L 583.94 121.68 L 586.27 110.98 L 588.61 124.19 L 590.94 123.69 L 593.28 123.69 L 595.61 118.34 L 597.94 124.36 L 600.28 119.01 L 602.61 123.02 L 604.95 113.49 L 607.28 110.31 L 609.62 120.34 L 611.95 118.84 L 614.29 114.99 L 616.62 113.66 L 618.95 110.98 L 621.29 106.30 L 623.62 116.33 L 625.96 116.33 L 628.29 118.84 L 630.63 118.34 L 632.96 109.64 L 635.30 102.29 L 637.63 109.64 L 639.97 123.69 L 642.30 127.70 L 644.63 135.06 L 646.97 132.21 L 649.30 130.38 L 651.64 127.37 L 653.97 115.66 L 656.31 119.01 L 658.64 122.35 L 660.98 122.35 L 663.31 121.01 L 665.64 119.01 L 667.98 116.33 L 670.31 112.99 L 672.65 109.64 L 674.98 109.64 L 677.32 113.66 L 679.65 112.99 L 681.99 114.66 L 684.32 117.67 L 686.66 106.30 L 688.99 105.63 L 691.32 100.95 L 693.66 106.30 L 695.99 104.96 L 698.33 104.96 L 700.66 102.96 L 703.00 91.92 L 705.33 73.53 L 707.67 62.16 L 710.00 56.81 L 710.00 171.50 L 707.67 170.83 L 705.33 162.47 L 703.00 162.64 L 700.66 166.32 L 698.33 167.83 L 695.99 169.83 L 693.66 168.16 L 691.32 172.51 L 688.99 169.50 L 686.66 168.49 L 684.32 167.16 L 681.99 169.83 L 679.65 175.85 L 677.32 177.52 L 674.98 180.70 L 672.65 185.88 L 670.31 187.22 L 667.98 187.89 L 665.64 189.22 L 663.31 187.72 L 660.98 191.23 L 658.64 195.24 L 656.31 189.22 L 653.97 200.59 L 651.64 199.26 L 649.30 201.26 L 646.97 199.42 L 644.63 204.27 L 642.30 197.92 L 639.97 205.94 L 637.63 201.26 L 635.30 195.24 L 632.96 194.91 L 630.63 193.91 L 628.29 193.74 L 625.96 179.86 L 623.62 179.19 L 621.29 185.88 L 618.95 166.49 L 616.62 172.51 L 614.29 181.20 L 611.95 163.81 L 609.62 163.81 L 607.28 163.48 L 604.95 157.79 L 602.61 155.12 L 600.28 161.14 L 597.94 159.80 L 595.61 161.14 L 593.28 161.14 L 590.94 159.13 L 588.61 168.66 L 586.27 172.51 L 583.94 172.51 L 581.60 172.51 L 579.27 165.82 L 576.93 163.81 L 574.60 161.81 L 572.26 167.49 L 569.93 163.81 L 567.60 160.47 L 565.26 165.82 L 562.93 161.81 L 560.59 163.14 L 558.26 164.48 L 555.92 163.81 L 553.59 170.00 L 551.25 177.86 L 548.92 177.19 L 546.59 176.52 L 544.25 176.52 L 541.92 175.85 L 539.58 174.51 L 537.25 175.18 L 534.91 175.85 L 532.58 179.36 L 530.24 182.70 L 527.91 182.54 L 525.57 182.20 L 523.24 180.36 L 520.91 173.84 L 518.57 178.53 L 516.24 177.86 L 513.90 175.85 L 511.57 173.17 L 509.23 172.51 L 506.90 172.51 L 504.56 173.17 L 502.23 171.17 L 499.90 169.16 L 497.56 175.85 L 495.23 183.21 L 492.89 183.37 L 490.56 176.52 L 488.22 160.47 L 485.89 169.83 L 483.55 163.14 L 481.22 151.61 L 478.89 167.16 L 476.55 168.49 L 474.22 166.15 L 471.88 175.85 L 469.55 175.01 L 467.21 163.81 L 464.88 161.14 L 462.54 154.45 L 460.21 149.94 L 457.87 157.29 L 455.54 163.14 L 453.21 160.47 L 450.87 159.80 L 448.54 159.80 L 446.20 156.46 L 443.87 157.79 L 441.53 153.11 L 439.20 146.59 L 436.86 147.09 L 434.53 141.08 L 432.20 144.92 L 429.86 135.39 L 427.53 137.06 L 425.19 131.04 L 422.86 127.03 L 420.52 131.38 L 418.19 137.73 L 415.85 141.08 L 413.52 146.59 L 411.18 141.74 L 408.85 146.42 L 406.52 155.79 L 404.18 152.78 L 401.85 145.09 L 399.51 149.77 L 397.18 145.76 L 394.84 150.44 L 392.51 151.78 L 390.17 157.13 L 387.84 161.81 L 385.51 160.47 L 383.17 162.47 L 380.84 170.50 L 378.50 174.51 L 376.17 176.52 L 373.83 175.18 L 371.50 173.51 L 369.16 175.18 L 366.83 177.19 L 364.49 177.02 L 362.16 179.19 L 359.83 178.19 L 357.49 175.35 L 355.16 177.86 L 352.82 177.19 L 350.49 175.18 L 348.15 171.34 L 345.82 168.49 L 343.48 166.99 L 341.15 166.49 L 338.82 166.49 L 336.48 168.16 L 334.15 171.84 L 331.81 170.00 L 329.48 168.49 L 327.14 165.15 L 324.81 164.48 L 322.47 165.82 L 320.14 163.81 L 317.80 158.46 L 315.47 153.11 L 313.14 175.18 L 310.80 164.48 L 308.47 153.11 L 306.13 166.82 L 303.80 173.17 L 301.46 163.65 L 299.13 170.50 L 296.79 167.16 L 294.46 176.52 L 292.13 181.87 L 289.79 179.86 L 287.46 175.85 L 285.12 177.35 L 282.79 183.88 L 280.45 173.34 L 278.12 175.68 L 275.78 178.69 L 273.45 182.87 L 271.11 178.86 L 268.78 180.53 L 266.45 176.02 L 264.11 179.86 L 261.78 179.19 L 259.44 176.52 L 257.11 173.68 L 254.77 172.51 L 252.44 180.87 L 250.10 179.86 L 247.77 188.56 L 245.44 182.20 L 243.10 182.20 L 240.77 183.21 L 238.43 184.54 L 236.10 187.72 L 233.76 188.56 L 231.43 189.22 L 229.09 186.05 L 226.76 186.72 L 224.43 186.88 L 222.09 183.88 L 219.76 184.54 L 217.42 183.21 L 215.09 181.20 L 212.75 180.53 L 210.42 181.53 L 208.08 181.70 L 205.75 187.89 L 203.41 189.22 L 201.08 191.23 L 198.75 190.56 L 196.41 189.89 L 194.08 192.23 L 191.74 187.89 L 189.41 187.89 L 187.07 182.54 L 184.74 182.54 L 182.40 181.20 L 180.07 189.22 L 177.74 188.56 L 175.40 188.22 L 173.07 186.55 L 170.73 183.88 L 168.40 183.21 L 166.06 188.56 L 163.73 189.22 L 161.39 186.55 L 159.06 188.56 L 156.72 186.22 L 154.39 185.88 L 152.06 184.54 L 149.72 184.54 L 147.39 184.54 L 145.05 171.17 L 142.72 170.50 L 140.38 180.53 L 138.05 177.86 L 135.71 175.18 L 133.38 167.16 L 131.05 165.82 L 128.71 170.50 L 126.38 171.84 L 124.04 175.18 L 121.71 179.19 L 119.37 181.20 L 117.04 180.53 L 114.70 181.03 L 112.37 174.51 L 110.03 173.84 L 107.70 173.17 L 105.37 167.16 L 103.03 171.84 L 100.70 171.84 L 98.36 166.49 L 96.03 169.16 L 93.69 179.70 L 91.36 173.51 L 89.02 176.52 L 86.69 178.53 L 84.36 185.21 L 82.02 186.55 L 79.69 188.39 L 77.35 171.17 L 75.02 167.83 L 72.68 169.83 L 70.35 170.50 L 68.01 174.51 L 65.68 173.51 L 63.34 179.53 L 61.01 176.52 L 58.68 175.18 L 56.34 173.17 L 54.01 173.17 L 51.67 171.00 L 49.34 174.51 L 47.00 171.34 L 44.67 171.84 L 42.33 172.51 L 40.00 171.17 Z" fill="rgba(230,126,34,0.22)" stroke="none"/><path d="M 40.00 143.75 L 42.33 139.07 L 44.67 146.42 L 47.00 141.08 L 49.34 149.43 L 51.67 139.07 L 54.01 133.72 L 56.34 157.13 L 58.68 147.76 L 61.01 155.79 L 63.34 152.44 L 65.68 134.39 L 68.01 133.05 L 70.35 127.37 L 72.68 134.39 L 75.02 137.06 L 77.35 134.39 L 79.69 148.10 L 82.02 135.06 L 84.36 148.43 L 86.69 143.75 L 89.02 147.76 L 91.36 142.41 L 93.69 160.47 L 96.03 135.73 L 98.36 141.74 L 100.70 150.44 L 103.03 155.79 L 105.37 154.12 L 107.70 161.14 L 110.03 162.47 L 112.37 159.47 L 114.70 163.81 L 117.04 163.14 L 119.37 159.80 L 121.71 160.47 L 124.04 161.14 L 126.38 163.14 L 128.71 163.81 L 131.05 163.14 L 133.38 161.81 L 135.71 159.80 L 138.05 164.82 L 140.38 164.48 L 142.72 164.48 L 145.05 162.47 L 147.39 169.83 L 149.72 172.17 L 152.06 171.84 L 154.39 173.84 L 156.72 173.17 L 159.06 172.51 L 161.39 175.18 L 163.73 171.50 L 166.06 165.82 L 168.40 170.50 L 170.73 171.17 L 173.07 171.17 L 175.40 173.17 L 177.74 170.50 L 180.07 172.51 L 182.40 169.83 L 184.74 166.49 L 187.07 166.49 L 189.41 164.48 L 191.74 180.53 L 194.08 181.20 L 196.41 172.51 L 198.75 173.84 L 201.08 173.84 L 203.41 179.19 L 205.75 178.53 L 208.08 175.85 L 210.42 177.86 L 212.75 175.85 L 215.09 174.51 L 217.42 179.86 L 219.76 176.52 L 222.09 172.51 L 224.43 177.86 L 226.76 172.84 L 229.09 177.86 L 231.43 181.53 L 233.76 173.84 L 236.10 173.17 L 238.43 180.53 L 240.77 179.19 L 243.10 176.52 L 245.44 173.84 L 247.77 174.85 L 250.10 173.84 L 252.44 173.17 L 254.77 167.16 L 257.11 163.14 L 259.44 160.47 L 261.78 163.81 L 264.11 162.47 L 266.45 163.14 L 268.78 151.78 L 271.11 155.12 L 273.45 157.79 L 275.78 160.47 L 278.12 159.80 L 280.45 157.79 L 282.79 160.47 L 285.12 157.79 L 287.46 155.12 L 289.79 155.12 L 292.13 151.78 L 294.46 149.77 L 296.79 143.75 L 299.13 145.09 L 301.46 145.76 L 303.80 145.42 L 306.13 140.41 L 308.47 139.07 L 310.80 144.42 L 313.14 149.10 L 315.47 150.44 L 317.80 146.42 L 320.14 146.42 L 322.47 146.42 L 324.81 145.76 L 327.14 145.76 L 329.48 147.09 L 331.81 153.78 L 334.15 156.46 L 336.48 159.80 L 338.82 161.14 L 341.15 159.13 L 343.48 159.47 L 345.82 159.13 L 348.15 160.47 L 350.49 155.79 L 352.82 156.46 L 355.16 156.79 L 357.49 155.12 L 359.83 151.11 L 362.16 159.13 L 364.49 161.81 L 366.83 165.48 L 369.16 165.15 L 371.50 164.15 L 373.83 169.83 L 376.17 170.17 L 378.50 164.48 L 380.84 161.81 L 383.17 155.79 L 385.51 155.12 L 387.84 153.78 L 390.17 144.42 L 392.51 146.42 L 394.84 141.08 L 397.18 138.73 L 399.51 138.40 L 401.85 133.72 L 404.18 124.36 L 406.52 124.69 L 408.85 128.03 L 411.18 124.69 L 413.52 118.34 L 415.85 124.02 L 418.19 118.34 L 420.52 121.01 L 422.86 118.34 L 425.19 119.01 L 427.53 112.99 L 429.86 119.01 L 432.20 117.67 L 434.53 113.66 L 436.86 106.97 L 439.20 100.95 L 441.53 103.63 L 443.87 107.64 L 446.20 120.34 L 448.54 119.01 L 450.87 108.98 L 453.21 109.98 L 455.54 117.67 L 457.87 117.00 L 460.21 121.01 L 462.54 121.68 L 464.88 115.66 L 467.21 117.00 L 469.55 129.04 L 471.88 125.69 L 474.22 123.69 L 476.55 127.70 L 478.89 135.06 L 481.22 145.09 L 483.55 151.11 L 485.89 147.09 L 488.22 149.43 L 490.56 150.44 L 492.89 158.80 L 495.23 169.16 L 497.56 166.49 L 499.90 161.14 L 502.23 165.15 L 504.56 166.49 L 506.90 165.82 L 509.23 167.16 L 511.57 155.79 L 513.90 153.11 L 516.24 149.77 L 518.57 161.81 L 520.91 168.49 L 523.24 173.17 L 525.57 160.13 L 527.91 167.16 L 530.24 165.82 L 532.58 165.48 L 534.91 165.15 L 537.25 165.82 L 539.58 153.78 L 541.92 152.78 L 544.25 163.14 L 546.59 140.41 L 548.92 141.74 L 551.25 165.82 L 553.59 160.47 L 555.92 158.80 L 558.26 154.45 L 560.59 151.78 L 562.93 147.76 L 565.26 143.08 L 567.60 148.43 L 569.93 139.40 L 572.26 145.76 L 574.60 137.73 L 576.93 130.38 L 579.27 146.42 L 581.60 147.76 L 583.94 141.74 L 586.27 146.42 L 588.61 145.42 L 590.94 147.09 L 593.28 147.76 L 595.61 140.41 L 597.94 149.10 L 600.28 149.43 L 602.61 151.11 L 604.95 152.44 L 607.28 147.09 L 609.62 152.44 L 611.95 149.10 L 614.29 151.11 L 616.62 155.79 L 618.95 142.41 L 621.29 149.10 L 623.62 148.43 L 625.96 145.76 L 628.29 142.41 L 630.63 148.43 L 632.96 160.47 L 635.30 168.49 L 637.63 169.16 L 639.97 171.17 L 642.30 174.85 L 644.63 177.19 L 646.97 173.84 L 649.30 160.13 L 651.64 155.79 L 653.97 149.10 L 656.31 140.41 L 658.64 135.06 L 660.98 137.06 L 663.31 143.75 L 665.64 155.79 L 667.98 156.46 L 670.31 151.78 L 672.65 152.44 L 674.98 153.11 L 677.32 153.78 L 679.65 151.78 L 681.99 134.05 L 684.32 128.03 L 686.66 129.37 L 688.99 123.02 L 691.32 125.02 L 693.66 117.67 L 695.99 125.36 L 698.33 110.98 L 700.66 128.37 L 703.00 124.36 L 705.33 128.37 L 707.67 133.72 L 710.00 139.07" fill="none" stroke="#2c3e50" stroke-width="2"/></svg>