<?xml version="1.0"?><svg viewBox="0 0 720 260" width="100%" height="260" xmlns="http://www.w3.org/2000/svg"><rect width="100%" height="100%" fill="#fff"/><line x1="40" y1="210.625" x2="710" y2="210.625" stroke="#eee"/><text x="32" y="214.625" text-anchor="end" font-size="10" fill="#666" font-family="system-ui,Arial">60</text><line x1="40" y1="183.875" x2="710" y2="183.875" stroke="#eee"/><text x="32" y="187.875" text-anchor="end" font-size="10" fill="#666" font-family="system-ui,Arial">100</text><line x1="40" y1="157.125" x2="710" y2="157.125" stroke="#eee"/><text x="32" y="161.125" text-anchor="end" font-size="10" fill="#666" font-family="system-ui,Arial">140</text><line x1="40" y1="130.375" x2="710" y2="130.375" stroke="#eee"/><text x="32" y="134.375" text-anchor="end" font-size="10" fill="#666" font-family="system-ui,Arial">180</text><line x1="40" y1="103.625" x2="710" y2="103.625" stroke="#eee"/><text x="32" y="107.625" text-anchor="end" font-size="10" fill="#666" font-family="system-ui,Arial">220</text><line x1="40" y1="76.875" x2="710" y2="76.875" stroke="#eee"/><text x="32" y="80.875" text-anchor="end" font-size="10" fill="#666" font-family="system-ui,Arial">260</text><line x1="40" y1="50.125" x2="710" y2="50.125" stroke="#eee"/><text x="32" y="54.125" text-anchor="end" font-size="10" fill="#666" font-family="system-ui,Arial">300</text><line x1="40" y1="23.375" x2="710" y2="23.375" stroke="#eee"/><text x="32" y="27.375" text-anchor="end" font-size="10" fill="#666" font-family="system-ui,Arial">340</text><line x1="208.0836236933798" y1="10" x2="208.0836236933798" y2="224" stroke="#eee"/><text x="208.0836236933798" y="238" text-anchor="middle" font-size="10" fill="#666" font-family="system-ui,Arial">6</text><line x1="292.1254355400697" y1="10" x2="292.1254355400697" y2="224" stroke="#eee"/><text x="292.1254355400697" y="238" text-anchor="middle" font-size="10" fill="#666" font-family="system-ui,Arial">9</text><line x1="376.1672473867596" y1="10" x2="376.1672473867596" y2="224" stroke="#eee"/><text x="376.1672473867596" y="238" text-anchor="middle" font-size="10" fill="#666" font-family="system-ui,Arial">12</text><line x1="460.20905923344947" y1="10" x2="460.20905923344947" y2="224" stroke="#eee"/><text x="460.20905923344947" y="238" text-anchor="middle" font-size="10" fill="#666" font-family="system-ui,Arial">15</text><line x1="544.2508710801394" y1="10" x2="544.2508710801394" y2="224" stroke="#eee"/><text x="544.2508710801394" y="238" text-anchor="middle" font-size="10" fill="#666" font-family="system-ui,Arial">18</text><line x1="628.2926829268292" y1="10" x2="628.2926829268292" y2="224" stroke="#eee"/><text x="628.2926829268292" y="238" text-anchor="middle" font-size="10" fill="#666" font-family="system-ui,Arial">21</text><rect x="40" y="130.375" width="670" height="73.5625" fill="rgba(39,174,96,0.07)"/><path d="M 40.00 43.37 L 42.33 47.08 L 44.67 42.77 L 47.00 35.41 L 49.34 23.38 L 51.67 28.06 L 54.01 26.05 L 56.34 28.06 L 58.68 35.41 L 61.01 39.42 L 63.34 37.42 L 65.68 34.08 L 68.01 30.06 L 70.35 27.39 L 72.68 26.72 L 75.02 26.05 L 77.35 26.05 L 79.69 20.70 L 82.02 16.69 L 84.36 13.34 L 86.69 10.00 L 89.02 13.34 L 91.36 11.34 L 93.69 10.00 L 96.03 10.00 L 98.36 17.36 L 100.70 10.67 L 103.03 10.00 L 105.37 10.00 L 107.70 10.00 L 110.03 10.00 L 112.37 10.00 L 114.70 10.00 L 117.04 10.00 L 119.37 10.00 L 121.71 10.00 L 124.04 10.00 L 126.38 10.00 L 128.71 10.00 L 131.05 10.00 L 133.38 10.00 L 135.71 10.00 L 138.05 10.00 L 140.38 10.00 L 142.72 10.00 L 145.05 10.00 L 147.39 10.00 L 149.72 10.00 L 152.06 10.00 L 154.39 10.00 L 156.72 10.00 L 159.06 10.00 L 161.39 10.00 L 163.73 10.00 L 166.06 10.00 L 168.40 10.57 L 170.73 14.55 L 173.07 18.43 L 175.40 24.71 L 177.74 27.52 L 180.07 28.93 L 182.40 28.56 L 184.74 37.29 L 187.07 40.36 L 189.41 43.10 L 191.74 45.95 L 194.08 49.46 L 196.41 45.44 L 198.75 53.30 L 201.08 57.72 L 203.41 60.29 L 205.75 66.58 L 208.08 70.46 L 210.42 74.23 L 212.75 77.21 L 215.09 76.41 L 217.42 83.43 L 219.76 87.58 L 222.09 100.35 L 224.43 101.65 L 226.76 106.57 L 229.09 116.06 L 231.43 122.82 L 233.76 130.58 L 236.10 122.35 L 238.43 139.47 L 240.77 145.82 L 243.10 150.91 L 245.44 150.77 L 247.77 156.89 L 250.10 151.51 L 252.44 151.11 L 254.77 149.77 L 257.11 139.07 L 259.44 131.51 L 261.78 126.20 L 264.11 122.68 L 266.45 97.61 L 268.78 76.88 L 271.11 94.20 L 273.45 94.76 L 275.78 85.74 L 278.12 80.92 L 280.45 78.68 L 282.79 79.52 L 285.12 65.81 L 287.46 57.62 L 289.79 60.83 L 292.13 60.02 L 294.46 60.83 L 296.79 54.54 L 299.13 59.89 L 301.46 46.11 L 303.80 63.50 L 306.13 52.80 L 308.47 68.75 L 310.80 75.57 L 313.14 76.91 L 315.47 78.48 L 317.80 83.23 L 320.14 80.15 L 322.47 78.21 L 324.81 87.04 L 327.14 79.55 L 329.48 82.63 L 331.81 81.56 L 334.15 81.89 L 336.48 81.89 L 338.82 81.12 L 341.15 84.87 L 343.48 76.98 L 345.82 38.76 L 348.15 74.67 L 350.49 69.69 L 352.82 72.49 L 355.16 73.93 L 357.49 83.36 L 359.83 87.24 L 362.16 92.59 L 364.49 87.44 L 366.83 98.94 L 369.16 100.18 L 371.50 97.21 L 373.83 98.48 L 376.17 82.89 L 378.50 102.49 L 380.84 113.19 L 383.17 125.02 L 385.51 120.48 L 387.84 112.99 L 390.17 102.96 L 392.51 94.93 L 394.84 79.55 L 397.18 80.22 L 399.51 81.56 L 401.85 77.54 L 404.18 72.36 L 406.52 74.60 L 408.85 73.87 L 411.18 71.96 L 413.52 66.17 L 415.85 71.09 L 418.19 69.85 L 420.52 67.61 L 422.86 61.49 L 425.19 69.72 L 427.53 67.91 L 429.86 69.18 L 432.20 70.52 L 434.53 73.87 L 436.86 71.53 L 439.20 77.78 L 441.53 82.23 L 443.87 84.87 L 446.20 80.35 L 448.54 69.82 L 450.87 69.79 L 453.21 69.65 L 455.54 64.64 L 457.87 65.77 L 460.21 65.54 L 462.54 63.43 L 464.88 62.83 L 467.21 58.82 L 469.55 62.16 L 471.88 53.94 L 474.22 52.47 L 476.55 52.80 L 478.89 60.16 L 481.22 64.84 L 483.55 73.97 L 485.89 78.55 L 488.22 78.88 L 490.56 87.58 L 492.89 94.26 L 495.23 99.61 L 497.56 109.11 L 499.90 113.19 L 502.23 114.46 L 504.56 114.46 L 506.90 105.06 L 509.23 92.52 L 511.57 87.17 L 513.90 91.05 L 516.24 95.60 L 518.57 100.95 L 520.91 104.39 L 523.24 100.65 L 525.57 103.89 L 527.91 108.31 L 530.24 107.97 L 532.58 99.24 L 534.91 100.95 L 537.25 110.18 L 539.58 109.94 L 541.92 105.83 L 544.25 105.63 L 546.59 108.01 L 548.92 103.63 L 551.25 103.63 L 553.59 109.64 L 555.92 101.62 L 558.26 103.63 L 560.59 108.57 L 562.93 102.89 L 565.26 100.82 L 567.60 103.76 L 569.93 104.19 L 572.26 105.30 L 574.60 108.98 L 576.93 110.81 L 579.27 113.39 L 581.60 108.31 L 583.94 94.26 L 586.27 100.48 L 588.61 107.64 L 590.94 104.16 L 593.28 101.48 L 595.61 104.29 L 597.94 104.56 L 600.28 102.02 L 602.61 97.74 L 604.95 99.14 L 607.28 99.95 L 609.62 95.47 L 611.95 92.92 L 614.29 89.58 L 616.62 92.12 L 618.95 90.25 L 621.29 91.45 L 623.62 94.60 L 625.96 92.42 L 628.29 92.92 L 630.63 85.80 L 632.96 74.84 L 635.30 77.88 L 637.63 77.41 L 639.97 74.10 L 642.30 74.00 L 644.63 78.55 L 646.97 82.56 L 649.30 92.86 L 651.64 98.27 L 653.97 95.93 L 656.31 95.30 L 658.64 97.61 L 660.98 95.60 L 663.31 91.39 L 665.64 94.13 L 667.98 93.59 L 670.31 91.25 L 672.65 85.23 L 674.98 90.92 L 677.32 94.60 L 679.65 90.25 L 681.99 79.02 L 684.32 78.15 L 686.66 71.53 L 688.99 76.74 L 691.32 64.84 L 693.66 73.73 L 695.99 69.32 L 698.33 62.33 L 700.66 58.38 L 703.00 56.24 L 705.33 54.67 L 707.67 47.45 L 710.00 43.47 L 710.00 192.84 L 707.67 193.91 L 705.33 187.55 L 703.00 185.41 L 700.66 177.62 L 698.33 178.22 L 695.99 189.29 L 693.66 194.88 L 691.32 206.61 L 688.99 196.48 L 686.66 197.25 L 684.32 202.30 L 681.99 204.34 L 679.65 207.62 L 677.32 206.95 L 674.98 206.38 L 672.65 206.95 L 670.31 207.95 L 667.98 209.96 L 665.64 213.30 L 663.31 212.10 L 660.98 208.35 L 658.64 206.75 L 656.31 204.71 L 653.97 206.28 L 651.64 210.29 L 649.30 214.04 L 646.97 216.31 L 644.63 218.65 L 642.30 214.47 L 639.97 219.42 L 637.63 221.59 L 635.30 224.00 L 632.96 222.80 L 630.63 218.22 L 628.29 214.64 L 625.96 211.63 L 623.62 204.61 L 621.29 203.27 L 618.95 207.41 L 616.62 201.93 L 614.29 190.30 L 611.95 190.23 L 609.62 183.34 L 607.28 181.87 L 604.95 178.79 L 602.61 176.92 L 600.28 183.88 L 597.94 183.27 L 595.61 179.53 L 593.28 184.94 L 590.94 187.62 L 588.61 192.23 L 586.27 192.17 L 583.94 189.83 L 581.60 190.03 L 579.27 191.77 L 576.93 191.93 L 574.60 189.22 L 572.26 191.90 L 569.93 187.02 L 567.60 181.60 L 565.26 179.59 L 562.93 178.93 L 560.59 178.53 L 558.26 182.84 L 555.92 183.21 L 553.59 188.56 L 551.25 184.28 L 548.92 182.54 L 546.59 185.21 L 544.25 181.87 L 541.92 177.82 L 539.58 177.39 L 537.25 180.53 L 534.91 182.54 L 532.58 183.91 L 530.24 184.88 L 527.91 184.54 L 525.57 186.38 L 523.24 185.88 L 520.91 190.63 L 518.57 193.24 L 516.24 193.91 L 513.90 200.59 L 511.57 203.27 L 509.23 209.96 L 506.90 211.29 L 504.56 207.95 L 502.23 208.48 L 499.90 211.29 L 497.56 222.66 L 495.23 217.31 L 492.89 214.37 L 490.56 213.97 L 488.22 204.37 L 485.89 198.92 L 483.55 195.85 L 481.22 191.57 L 478.89 199.92 L 476.55 189.39 L 474.22 188.36 L 471.88 190.60 L 469.55 192.57 L 467.21 179.53 L 464.88 169.46 L 462.54 164.68 L 460.21 167.83 L 457.87 167.56 L 455.54 171.57 L 453.21 172.71 L 450.87 166.65 L 448.54 168.43 L 446.20 186.55 L 443.87 181.63 L 441.53 181.87 L 439.20 189.22 L 436.86 188.89 L 434.53 219.99 L 432.20 187.89 L 429.86 187.22 L 427.53 186.25 L 425.19 194.58 L 422.86 184.54 L 420.52 168.56 L 418.19 163.14 L 415.85 159.97 L 413.52 162.81 L 411.18 168.49 L 408.85 163.81 L 406.52 165.82 L 404.18 164.01 L 401.85 163.48 L 399.51 162.47 L 397.18 165.82 L 394.84 167.16 L 392.51 162.47 L 390.17 164.48 L 387.84 166.82 L 385.51 168.49 L 383.17 168.49 L 380.84 179.26 L 378.50 190.09 L 376.17 191.23 L 373.83 199.29 L 371.50 198.49 L 369.16 199.32 L 366.83 199.26 L 364.49 194.31 L 362.16 192.23 L 359.83 188.89 L 357.49 186.65 L 355.16 185.35 L 352.82 183.07 L 350.49 181.70 L 348.15 178.53 L 345.82 178.06 L 343.48 176.89 L 341.15 176.52 L 338.82 177.02 L 336.48 175.85 L 334.15 177.52 L 331.81 180.80 L 329.48 179.06 L 327.14 180.53 L 324.81 181.87 L 322.47 182.27 L 320.14 185.01 L 317.80 185.95 L 315.47 187.22 L 313.14 188.02 L 310.80 182.37 L 308.47 178.53 L 306.13 182.20 L 303.80 183.21 L 301.46 187.02 L 299.13 195.38 L 296.79 193.30 L 294.46 198.25 L 292.13 193.67 L 289.79 189.89 L 287.46 188.29 L 285.12 191.23 L 282.79 192.57 L 280.45 193.14 L 278.12 196.48 L 275.78 197.08 L 273.45 195.71 L 271.11 196.68 L 268.78 199.26 L 266.45 197.58 L 264.11 208.62 L 261.78 201.33 L 259.44 197.38 L 257.11 207.95 L 254.77 196.18 L 252.44 202.60 L 250.10 191.90 L 247.77 205.31 L 245.44 201.26 L 243.10 193.67 L 240.77 191.97 L 238.43 194.84 L 236.10 192.97 L 233.76 193.57 L 231.43 190.93 L 229.09 196.15 L 226.76 197.05 L 224.43 198.99 L 222.09 193.04 L 219.76 193.91 L 217.42 194.58 L 215.09 191.90 L 212.75 190.90 L 210.42 194.41 L 208.08 190.76 L 205.75 193.24 L 203.41 193.50 L 201.08 193.61 L 198.75 194.58 L 196.41 196.55 L 194.08 197.12 L 191.74 197.25 L 189.41 200.19 L 187.07 201.06 L 184.74 203.60 L 182.40 198.42 L 180.07 197.25 L 177.74 195.11 L 175.40 196.58 L 173.07 196.98 L 170.73 195.01 L 168.40 196.08 L 166.06 199.26 L 163.73 199.59 L 161.39 202.60 L 159.06 198.79 L 156.72 195.48 L 154.39 194.24 L 152.06 195.64 L 149.72 212.20 L 147.39 212.46 L 145.05 192.23 L 142.72 191.67 L 140.38 195.11 L 138.05 188.56 L 135.71 190.53 L 133.38 193.27 L 131.05 191.87 L 128.71 194.58 L 126.38 196.45 L 124.04 197.38 L 121.71 196.85 L 119.37 197.45 L 117.04 195.88 L 114.70 194.37 L 112.37 196.85 L 110.03 194.58 L 107.70 194.88 L 105.37 195.68 L 103.03 196.05 L 100.70 196.25 L 98.36 197.25 L 96.03 196.98 L 93.69 196.21 L 91.36 196.11 L 89.02 198.86 L 86.69 199.16 L 84.36 198.59 L 82.02 201.80 L 79.69 215.31 L 77.35 192.94 L 75.02 192.97 L 72.68 193.17 L 70.35 192.27 L 68.01 191.63 L 65.68 190.90 L 63.34 190.40 L 61.01 189.89 L 58.68 186.55 L 56.34 183.74 L 54.01 181.20 L 51.67 180.90 L 49.34 179.43 L 47.00 180.30 L 44.67 181.87 L 42.33 185.88 L 40.00 185.21 Z" fill="rgba(231,76,60,0.06)" stroke="none"/><path d="M 40.00 71.19 L 42.33 87.58 L 44.67 85.57 L 47.00 58.82 L 49.34 72.70 L 51.67 84.23 L 54.01 77.54 L 56.34 72.86 L 58.68 84.90 L 61.01 106.97 L 63.34 81.22 L 65.68 90.58 L 68.01 107.64 L 70.35 106.97 L 72.68 101.62 L 75.02 101.95 L 77.35 108.64 L 79.69 117.00 L 82.02 119.67 L 84.36 106.97 L 86.69 98.94 L 89.02 118.34 L 91.36 118.00 L 93.69 117.67 L 96.03 121.01 L 98.36 122.68 L 100.70 130.38 L 103.03 138.40 L 105.37 141.08 L 107.70 140.41 L 110.03 134.72 L 112.37 142.41 L 114.70 141.74 L 117.04 140.57 L 119.37 137.90 L 121.71 149.10 L 124.04 136.06 L 126.38 138.40 L 128.71 157.79 L 131.05 159.80 L 133.38 158.46 L 135.71 135.56 L 138.05 144.75 L 140.38 142.41 L 142.72 92.26 L 145.05 145.09 L 147.39 147.09 L 149.72 145.76 L 152.06 146.42 L 154.39 149.77 L 156.72 152.44 L 159.06 154.28 L 161.39 155.12 L 163.73 123.35 L 166.06 160.47 L 168.40 142.25 L 170.73 158.80 L 173.07 151.78 L 175.40 149.77 L 177.74 146.42 L 180.07 141.08 L 182.40 137.73 L 184.74 119.67 L 187.07 134.39 L 189.41 133.72 L 191.74 113.82 L 194.08 133.05 L 196.41 131.88 L 198.75 137.73 L 201.08 134.55 L 203.41 147.09 L 205.75 147.09 L 208.08 154.28 L 210.42 155.12 L 212.75 156.46 L 215.09 153.78 L 217.42 162.47 L 219.76 161.81 L 222.09 157.79 L 224.43 163.81 L 226.76 163.81 L 229.09 167.16 L 231.43 170.67 L 233.76 168.49 L 236.10 165.15 L 238.43 167.83 L 240.77 168.49 L 243.10 169.83 L 245.44 164.48 L 247.77 162.47 L 250.10 159.80 L 252.44 163.14 L 254.77 161.14 L 257.11 158.30 L 259.44 157.79 L 261.78 148.77 L 264.11 149.10 L 266.45 138.57 L 268.78 141.24 L 271.11 133.05 L 273.45 132.38 L 275.78 137.73 L 278.12 143.08 L 280.45 121.68 L 282.79 127.70 L 285.12 123.19 L 287.46 129.04 L 289.79 136.39 L 292.13 133.05 L 294.46 133.72 L 296.79 118.67 L 299.13 123.69 L 301.46 117.33 L 303.80 121.01 L 306.13 118.34 L 308.47 121.85 L 310.80 127.70 L 313.14 123.02 L 315.47 121.68 L 317.80 115.66 L 320.14 113.32 L 322.47 105.63 L 324.81 117.00 L 327.14 120.34 L 329.48 124.36 L 331.81 117.67 L 334.15 122.35 L 336.48 125.02 L 338.82 126.36 L 341.15 126.36 L 343.48 130.38 L 345.82 132.38 L 348.15 135.06 L 350.49 138.40 L 352.82 137.23 L 355.16 134.39 L 357.49 137.06 L 359.83 145.09 L 362.16 145.09 L 364.49 140.41 L 366.83 150.10 L 369.16 153.45 L 371.50 155.95 L 373.83 156.46 L 376.17 156.46 L 378.50 159.13 L 380.84 152.61 L 383.17 139.07 L 385.51 129.04 L 387.84 126.36 L 390.17 128.37 L 392.51 130.38 L 394.84 111.65 L 397.18 116.33 L 399.51 112.32 L 401.85 103.63 L 404.18 92.92 L 406.52 98.27 L 408.85 91.59 L 411.18 80.22 L 413.52 75.87 L 415.85 74.87 L 418.19 81.56 L 420.52 86.24 L 422.86 89.25 L 425.19 90.75 L 427.53 97.61 L 429.86 95.60 L 432.20 92.92 L 434.53 90.92 L 436.86 85.90 L 439.20 94.26 L 441.53 94.93 L 443.87 96.27 L 446.20 96.94 L 448.54 101.62 L 450.87 104.29 L 453.21 102.12 L 455.54 101.62 L 457.87 103.63 L 460.21 104.96 L 462.54 108.98 L 464.88 110.98 L 467.21 101.28 L 469.55 115.66 L 471.88 112.99 L 474.22 112.32 L 476.55 109.64 L 478.89 115.33 L 481.22 118.34 L 483.55 132.38 L 485.89 135.06 L 488.22 138.40 L 490.56 142.41 L 492.89 141.74 L 495.23 143.08 L 497.56 134.39 L 499.90 137.06 L 502.23 140.41 L 504.56 144.42 L 506.90 128.54 L 509.23 129.04 L 511.57 129.04 L 513.90 134.39 L 516.24 127.70 L 518.57 130.38 L 520.91 130.54 L 523.24 131.04 L 525.57 122.35 L 527.91 126.03 L 530.24 117.00 L 532.58 120.34 L 534.91 129.04 L 537.25 129.54 L 539.58 131.04 L 541.92 132.38 L 544.25 130.71 L 546.59 125.02 L 548.92 126.03 L 551.25 129.71 L 553.59 124.02 L 555.92 135.73 L 558.26 134.05 L 560.59 142.41 L 562.93 136.06 L 565.26 129.71 L 567.60 133.05 L 569.93 137.06 L 572.26 132.38 L 574.60 120.68 L 576.93 119.01 L 579.27 124.36 L 581.60 125.02 L 583.94 127.03 L 586.27 129.20 L 588.61 119.01 L 590.94 123.69 L 593.28 123.69 L 595.61 118.34 L 597.94 124.36 L 600.28 119.01 L 602.61 123.02 L 604.95 113.49 L 607.28 110.31 L 609.62 115.33 L 611.95 114.33 L 614.29 114.99 L 616.62 118.17 L 618.95 118.34 L 621.29 119.67 L 623.62 117.67 L 625.96 119.17 L 628.29 125.69 L 630.63 122.68 L 632.96 123.19 L 635.30 123.02 L 637.63 121.35 L 639.97 125.19 L 642.30 129.04 L 644.63 132.38 L 646.97 125.69 L 649.30 122.02 L 651.64 117.67 L 653.97 112.99 L 656.31 118.50 L 658.64 114.33 L 660.98 113.66 L 663.31 114.33 L 665.64 103.63 L 667.98 107.64 L 670.31 110.31 L 672.65 109.64 L 674.98 109.64 L 677.32 113.66 L 679.65 112.99 L 681.99 113.66 L 684.32 117.67 L 686.66 106.30 L 688.99 105.63 L 691.32 100.95 L 693.66 106.30 L 695.99 104.96 L 698.33 90.42 L 700.66 102.96 L 703.00 96.60 L 705.33 82.23 L 707.67 75.87 L 710.00 90.25 L 710.00 177.86 L 707.67 176.18 L 705.33 169.83 L 703.00 168.83 L 700.66 170.17 L 698.33 166.99 L 695.99 169.83 L 693.66 168.16 L 691.32 172.51 L 688.99 170.67 L 686.66 168.49 L 684.32 167.16 L 681.99 169.83 L 679.65 175.85 L 677.32 177.52 L 674.98 180.70 L 672.65 185.88 L 670.31 187.22 L 667.98 187.89 L 665.64 189.22 L 663.31 187.72 L 660.98 191.23 L 658.64 193.57 L 656.31 191.06 L 653.97 200.59 L 651.64 199.26 L 649.30 201.26 L 646.97 196.25 L 644.63 204.27 L 642.30 197.92 L 639.97 205.94 L 637.63 201.26 L 635.30 195.24 L 632.96 195.75 L 630.63 193.91 L 628.29 192.23 L 625.96 179.86 L 623.62 179.19 L 621.29 175.85 L 618.95 166.49 L 616.62 172.51 L 614.29 181.20 L 611.95 163.81 L 609.62 163.81 L 607.28 162.47 L 604.95 157.46 L 602.61 155.12 L 600.28 158.46 L 597.94 154.45 L 595.61 161.14 L 593.28 161.14 L 590.94 159.13 L 588.61 166.15 L 586.27 172.51 L 583.94 171.84 L 581.60 172.51 L 579.27 171.17 L 576.93 165.15 L 574.60 162.81 L 572.26 167.49 L 569.93 163.81 L 567.60 160.47 L 565.26 165.82 L 562.93 162.64 L 560.59 163.14 L 558.26 164.48 L 555.92 163.81 L 553.59 170.17 L 551.25 177.86 L 548.92 177.19 L 546.59 176.52 L 544.25 169.83 L 541.92 171.84 L 539.58 169.83 L 537.25 174.68 L 534.91 174.18 L 532.58 177.86 L 530.24 180.53 L 527.91 177.19 L 525.57 179.19 L 523.24 179.19 L 520.91 170.50 L 518.57 173.17 L 516.24 170.50 L 513.90 166.49 L 511.57 171.17 L 509.23 169.83 L 506.90 172.51 L 504.56 174.51 L 502.23 185.88 L 499.90 181.20 L 497.56 204.61 L 495.23 185.88 L 492.89 185.88 L 490.56 176.52 L 488.22 170.50 L 485.89 173.17 L 483.55 169.83 L 481.22 168.49 L 478.89 173.17 L 476.55 166.15 L 474.22 168.16 L 471.88 169.83 L 469.55 163.14 L 467.21 156.79 L 464.88 151.94 L 462.54 149.77 L 460.21 146.42 L 457.87 152.95 L 455.54 145.76 L 453.21 143.08 L 450.87 154.78 L 448.54 133.72 L 446.20 133.05 L 443.87 135.73 L 441.53 141.08 L 439.20 132.55 L 436.86 133.05 L 434.53 136.39 L 432.20 139.07 L 429.86 131.04 L 427.53 137.06 L 425.19 124.36 L 422.86 127.03 L 420.52 131.38 L 418.19 131.04 L 415.85 141.08 L 413.52 138.40 L 411.18 141.74 L 408.85 135.06 L 406.52 138.40 L 404.18 133.55 L 401.85 139.74 L 399.51 145.09 L 397.18 144.42 L 394.84 145.76 L 392.51 152.44 L 390.17 157.13 L 387.84 161.81 L 385.51 160.47 L 383.17 162.47 L 380.84 170.50 L 378.50 174.51 L 376.17 176.52 L 373.83 174.85 L 371.50 173.51 L 369.16 175.18 L 366.83 177.19 L 364.49 177.86 L 362.16 179.19 L 359.83 172.51 L 357.49 163.81 L 355.16 165.82 L 352.82 167.83 L 350.49 162.81 L 348.15 166.82 L 345.82 164.15 L 343.48 166.49 L 341.15 163.14 L 338.82 165.48 L 336.48 165.15 L 334.15 163.14 L 331.81 163.31 L 329.48 163.81 L 327.14 159.80 L 324.81 156.46 L 322.47 163.81 L 320.14 159.13 L 317.80 167.83 L 315.47 170.50 L 313.14 177.19 L 310.80 178.86 L 308.47 177.86 L 306.13 177.86 L 303.80 176.52 L 301.46 173.68 L 299.13 178.53 L 296.79 173.84 L 294.46 179.19 L 292.13 183.88 L 289.79 184.54 L 287.46 183.21 L 285.12 180.36 L 282.79 183.88 L 280.45 173.01 L 278.12 174.85 L 275.78 176.52 L 273.45 178.86 L 271.11 178.86 L 268.78 177.86 L 266.45 172.17 L 264.11 171.17 L 261.78 179.19 L 259.44 165.82 L 257.11 169.50 L 254.77 168.49 L 252.44 180.87 L 250.10 179.86 L 247.77 188.56 L 245.44 182.20 L 243.10 182.37 L 240.77 183.21 L 238.43 184.54 L 236.10 187.72 L 233.76 188.56 L 231.43 189.22 L 229.09 186.38 L 226.76 185.21 L 224.43 185.88 L 222.09 183.21 L 219.76 183.88 L 217.42 182.20 L 215.09 178.53 L 212.75 179.19 L 210.42 180.03 L 208.08 180.36 L 205.75 181.87 L 203.41 183.88 L 201.08 185.71 L 198.75 188.56 L 196.41 187.89 L 194.08 190.56 L 191.74 181.87 L 189.41 182.54 L 187.07 181.87 L 184.74 182.54 L 182.40 181.20 L 180.07 189.22 L 177.74 188.56 L 175.40 188.22 L 173.07 187.22 L 170.73 186.72 L 168.40 185.21 L 166.06 188.56 L 163.73 189.22 L 161.39 190.56 L 159.06 189.89 L 156.72 188.56 L 154.39 187.89 L 152.06 186.55 L 149.72 187.89 L 147.39 186.55 L 145.05 183.88 L 142.72 184.54 L 140.38 187.22 L 138.05 177.86 L 135.71 186.55 L 133.38 185.88 L 131.05 181.20 L 128.71 182.54 L 126.38 182.54 L 124.04 181.87 L 121.71 181.20 L 119.37 181.20 L 117.04 181.37 L 114.70 186.55 L 112.37 183.54 L 110.03 179.19 L 107.70 183.21 L 105.37 178.19 L 103.03 179.86 L 100.70 177.19 L 98.36 178.02 L 96.03 174.51 L 93.69 185.21 L 91.36 182.87 L 89.02 183.21 L 86.69 185.21 L 84.36 185.21 L 82.02 186.55 L 79.69 188.39 L 77.35 176.18 L 75.02 167.83 L 72.68 169.83 L 70.35 170.50 L 68.01 174.51 L 65.68 175.85 L 63.34 179.53 L 61.01 176.52 L 58.68 175.18 L 56.34 173.17 L 54.01 173.17 L 51.67 171.00 L 49.34 174.51 L 47.00 172.34 L 44.67 171.84 L 42.33 172.51 L 40.00 173.84 Z" fill="rgba(230,126,34,0.22)" stroke="none"/><path d="M 40.00 143.75 L 42.33 143.75 L 44.67 140.41 L 47.00 141.08 L 49.34 149.43 L 51.67 139.07 L 54.01 133.72 L 56.34 149.77 L 58.68 147.76 L 61.01 151.11 L 63.34 152.44 L 65.68 134.39 L 68.01 133.05 L 70.35 127.37 L 72.68 134.39 L 75.02 137.06 L 77.35 134.39 L 79.69 148.43 L 82.02 135.06 L 84.36 135.73 L 86.69 143.75 L 89.02 147.76 L 91.36 142.41 L 93.69 163.81 L 96.03 135.73 L 98.36 141.74 L 100.70 144.42 L 103.03 142.41 L 105.37 149.10 L 107.70 157.13 L 110.03 156.46 L 112.37 155.79 L 114.70 160.47 L 117.04 157.79 L 119.37 158.46 L 121.71 160.47 L 124.04 161.14 L 126.38 163.14 L 128.71 163.81 L 131.05 164.48 L 133.38 161.47 L 135.71 159.80 L 138.05 164.82 L 140.38 164.48 L 142.72 163.14 L 145.05 162.47 L 147.39 169.83 L 149.72 172.17 L 152.06 175.18 L 154.39 173.84 L 156.72 180.87 L 159.06 179.86 L 161.39 179.19 L 163.73 171.17 L 166.06 165.82 L 168.40 175.85 L 170.73 177.86 L 173.07 177.86 L 175.40 175.18 L 177.74 170.50 L 180.07 173.84 L 182.40 169.83 L 184.74 166.49 L 187.07 166.49 L 189.41 164.48 L 191.74 172.84 L 194.08 181.20 L 196.41 171.17 L 198.75 170.83 L 201.08 170.50 L 203.41 171.17 L 205.75 174.51 L 208.08 175.85 L 210.42 176.18 L 212.75 173.17 L 215.09 171.84 L 217.42 175.52 L 219.76 171.17 L 222.09 172.51 L 224.43 173.84 L 226.76 171.84 L 229.09 178.86 L 231.43 181.87 L 233.76 173.84 L 236.10 172.51 L 238.43 180.53 L 240.77 178.86 L 243.10 174.85 L 245.44 173.84 L 247.77 174.85 L 250.10 171.84 L 252.44 170.50 L 254.77 166.49 L 257.11 161.81 L 259.44 160.47 L 261.78 163.81 L 264.11 161.81 L 266.45 152.44 L 268.78 145.09 L 271.11 147.76 L 273.45 145.76 L 275.78 154.45 L 278.12 151.78 L 280.45 157.79 L 282.79 160.47 L 285.12 157.79 L 287.46 155.12 L 289.79 155.12 L 292.13 151.78 L 294.46 149.77 L 296.79 143.75 L 299.13 145.09 L 301.46 151.44 L 303.80 152.44 L 306.13 148.43 L 308.47 147.09 L 310.80 146.42 L 313.14 150.10 L 315.47 150.44 L 317.80 146.42 L 320.14 146.42 L 322.47 146.42 L 324.81 145.09 L 327.14 145.76 L 329.48 147.09 L 331.81 153.78 L 334.15 156.46 L 336.48 157.79 L 338.82 157.79 L 341.15 157.46 L 343.48 158.80 L 345.82 158.46 L 348.15 160.47 L 350.49 155.79 L 352.82 156.12 L 355.16 155.12 L 357.49 155.12 L 359.83 151.11 L 362.16 158.46 L 364.49 158.46 L 366.83 165.15 L 369.16 165.15 L 371.50 164.15 L 373.83 169.83 L 376.17 171.17 L 378.50 164.48 L 380.84 159.80 L 383.17 155.79 L 385.51 155.12 L 387.84 157.79 L 390.17 144.42 L 392.51 146.42 L 394.84 141.08 L 397.18 134.72 L 399.51 129.37 L 401.85 127.03 L 404.18 123.02 L 406.52 122.02 L 408.85 127.70 L 411.18 120.34 L 413.52 117.00 L 415.85 117.00 L 418.19 118.34 L 420.52 115.66 L 422.86 110.31 L 425.19 110.31 L 427.53 111.32 L 429.86 107.64 L 432.20 103.63 L 434.53 106.97 L 436.86 101.62 L 439.20 100.95 L 441.53 103.63 L 443.87 106.30 L 446.20 115.66 L 448.54 119.01 L 450.87 108.98 L 453.21 109.98 L 455.54 117.67 L 457.87 117.00 L 460.21 121.01 L 462.54 121.68 L 464.88 122.35 L 467.21 117.00 L 469.55 129.04 L 471.88 125.69 L 474.22 123.69 L 476.55 125.36 L 478.89 135.06 L 481.22 145.76 L 483.55 155.12 L 485.89 155.12 L 488.22 152.44 L 490.56 156.46 L 492.89 163.81 L 495.23 170.50 L 497.56 167.83 L 499.90 167.16 L 502.23 169.83 L 504.56 169.16 L 506.90 165.82 L 509.23 167.16 L 511.57 153.78 L 513.90 150.44 L 516.24 149.10 L 518.57 159.13 L 520.91 163.14 L 523.24 163.48 L 525.57 149.43 L 527.91 141.74 L 530.24 153.78 L 532.58 149.43 L 534.91 158.46 L 537.25 149.77 L 539.58 145.76 L 541.92 144.75 L 544.25 147.09 L 546.59 145.42 L 548.92 141.74 L 551.25 149.77 L 553.59 151.11 L 555.92 158.80 L 558.26 153.78 L 560.59 151.78 L 562.93 147.76 L 565.26 150.44 L 567.60 149.77 L 569.93 144.75 L 572.26 145.76 L 574.60 145.76 L 576.93 152.44 L 579.27 153.78 L 581.60 152.44 L 583.94 144.42 L 586.27 148.43 L 588.61 147.09 L 590.94 151.11 L 593.28 148.43 L 595.61 140.41 L 597.94 147.09 L 600.28 153.11 L 602.61 146.42 L 604.95 152.44 L 607.28 147.09 L 609.62 141.74 L 611.95 145.76 L 614.29 151.11 L 616.62 145.09 L 618.95 137.06 L 621.29 131.04 L 623.62 135.39 L 625.96 137.73 L 628.29 141.08 L 630.63 141.41 L 632.96 157.79 L 635.30 167.16 L 637.63 151.78 L 639.97 149.10 L 642.30 149.77 L 644.63 153.11 L 646.97 147.76 L 649.30 150.77 L 651.64 154.45 L 653.97 149.10 L 656.31 134.05 L 658.64 133.05 L 660.98 135.06 L 663.31 140.41 L 665.64 137.73 L 667.98 133.72 L 670.31 129.71 L 672.65 127.03 L 674.98 126.36 L 677.32 151.78 L 679.65 140.41 L 681.99 131.04 L 684.32 128.03 L 686.66 121.68 L 688.99 123.02 L 691.32 125.02 L 693.66 117.67 L 695.99 125.36 L 698.33 110.98 L 700.66 128.37 L 703.00 124.36 L 705.33 128.37 L 707.67 133.72 L 710.00 139.07" fill="none" stroke="#2c3e50" stroke-width="2"/></svg>