<?xml version="1.0"?><svg viewBox="0 0 720 260" width="100%" height="260" xmlns="http://www.w3.org/2000/svg"><rect width="100%" height="100%" fill="#fff"/><line x1="40" y1="210.625" x2="710" y2="210.625" stroke="#eee"/><text x="32" y="214.625" text-anchor="end" font-size="10" fill="#666" font-family="system-ui,Arial">60</text><line x1="40" y1="183.875" x2="710" y2="183.875" stroke="#eee"/><text x="32" y="187.875" text-anchor="end" font-size="10" fill="#666" font-family="system-ui,Arial">100</text><line x1="40" y1="157.125" x2="710" y2="157.125" stroke="#eee"/><text x="32" y="161.125" text-anchor="end" font-size="10" fill="#666" font-family="system-ui,Arial">140</text><line x1="40" y1="130.375" x2="710" y2="130.375" stroke="#eee"/><text x="32" y="134.375" text-anchor="end" font-size="10" fill="#666" font-family="system-ui,Arial">180</text><line x1="40" y1="103.625" x2="710" y2="103.625" stroke="#eee"/><text x="32" y="107.625" text-anchor="end" font-size="10" fill="#666" font-family="system-ui,Arial">220</text><line x1="40" y1="76.875" x2="710" y2="76.875" stroke="#eee"/><text x="32" y="80.875" text-anchor="end" font-size="10" fill="#666" font-family="system-ui,Arial">260</text><line x1="40" y1="50.125" x2="710" y2="50.125" stroke="#eee"/><text x="32" y="54.125" text-anchor="end" font-size="10" fill="#666" font-family="system-ui,Arial">300</text><line x1="40" y1="23.375" x2="710" y2="23.375" stroke="#eee"/><text x="32" y="27.375" text-anchor="end" font-size="10" fill="#666" font-family="system-ui,Arial">340</text><line x1="208.0836236933798" y1="10" x2="208.0836236933798" y2="224" stroke="#eee"/><text x="208.0836236933798" y="238" text-anchor="middle" font-size="10" fill="#666" font-family="system-ui,Arial">6</text><line x1="292.1254355400697" y1="10" x2="292.1254355400697" y2="224" stroke="#eee"/><text x="292.1254355400697" y="238" text-anchor="middle" font-size="10" fill="#666" font-family="system-ui,Arial">9</text><line x1="376.1672473867596" y1="10" x2="376.1672473867596" y2="224" stroke="#eee"/><text x="376.1672473867596" y="238" text-anchor="middle" font-size="10" fill="#666" font-family="system-ui,Arial">12</text><line x1="460.20905923344947" y1="10" x2="460.20905923344947" y2="224" stroke="#eee"/><text x="460.20905923344947" y="238" text-anchor="middle" font-size="10" fill="#666" font-family="system-ui,Arial">15</text><line x1="544.2508710801394" y1="10" x2="544.2508710801394" y2="224" stroke="#eee"/><text x="544.2508710801394" y="238" text-anchor="middle" font-size="10" fill="#666" font-family="system-ui,Arial">18</text><line x1="628.2926829268292" y1="10" x2="628.2926829268292" y2="224" stroke="#eee"/><text x="628.2926829268292" y="238" text-anchor="middle" font-size="10" fill="#666" font-family="system-ui,Arial">21</text><rect x="40" y="130.375" width="670" height="73.5625" fill="rgba(39,174,96,0.07)"/><path d="M 40.00 76.88 L 42.33 56.14 L 44.67 74.53 L 47.00 73.70 L 49.34 49.46 L 51.67 76.57 L 54.01 71.93 L 56.34 41.43 L 58.68 75.54 L 61.01 42.77 L 63.34 43.44 L 65.68 61.83 L 68.01 44.11 L 70.35 40.76 L 72.68 39.42 L 75.02 38.76 L 77.35 51.73 L 79.69 46.78 L 82.02 46.78 L 84.36 60.49 L 86.69 59.32 L 89.02 55.74 L 91.36 54.14 L 93.69 56.95 L 96.03 54.14 L 98.36 57.48 L 100.70 75.81 L 103.03 79.02 L 105.37 74.20 L 107.70 77.81 L 110.03 69.52 L 112.37 72.86 L 114.70 75.54 L 117.04 77.54 L 119.37 76.24 L 121.71 76.21 L 124.04 76.88 L 126.38 76.21 L 128.71 82.56 L 131.05 86.84 L 133.38 85.97 L 135.71 84.90 L 138.05 90.25 L 140.38 90.18 L 142.72 92.92 L 145.05 94.26 L 147.39 96.27 L 149.72 96.94 L 152.06 100.88 L 154.39 100.28 L 156.72 108.24 L 159.06 98.94 L 161.39 113.49 L 163.73 95.60 L 166.06 120.34 L 168.40 120.21 L 170.73 102.29 L 173.07 119.88 L 175.40 124.06 L 177.74 126.86 L 180.07 120.88 L 182.40 103.63 L 184.74 121.28 L 187.07 129.54 L 189.41 117.67 L 191.74 119.67 L 194.08 132.72 L 196.41 124.36 L 198.75 127.70 L 201.08 129.71 L 203.41 142.61 L 205.75 141.74 L 208.08 144.42 L 210.42 142.41 L 212.75 145.09 L 215.09 141.74 L 217.42 145.72 L 219.76 146.59 L 222.09 141.08 L 224.43 144.75 L 226.76 143.62 L 229.09 146.76 L 231.43 143.08 L 233.76 150.44 L 236.10 147.09 L 238.43 152.11 L 240.77 152.14 L 243.10 158.86 L 245.44 159.13 L 247.77 148.43 L 250.10 143.08 L 252.44 137.73 L 254.77 137.60 L 257.11 112.32 L 259.44 110.98 L 261.78 109.64 L 264.11 122.58 L 266.45 102.29 L 268.78 96.94 L 271.11 89.58 L 273.45 88.65 L 275.78 63.50 L 278.12 80.05 L 280.45 76.21 L 282.79 60.16 L 285.12 69.69 L 287.46 49.46 L 289.79 43.44 L 292.13 44.11 L 294.46 48.12 L 296.79 43.04 L 299.13 49.29 L 301.46 38.89 L 303.80 34.71 L 306.13 37.02 L 308.47 24.71 L 310.80 23.38 L 313.14 31.73 L 315.47 30.73 L 317.80 37.55 L 320.14 40.76 L 322.47 41.43 L 324.81 44.11 L 327.14 39.42 L 329.48 41.10 L 331.81 28.06 L 334.15 33.41 L 336.48 49.46 L 338.82 52.13 L 341.15 61.29 L 343.48 64.84 L 345.82 67.51 L 348.15 71.53 L 350.49 74.20 L 352.82 78.21 L 355.16 81.56 L 357.49 85.57 L 359.83 91.59 L 362.16 96.94 L 364.49 88.24 L 366.83 95.60 L 369.16 91.42 L 371.50 89.01 L 373.83 83.90 L 376.17 75.87 L 378.50 71.32 L 380.84 65.97 L 383.17 53.74 L 385.51 48.52 L 387.84 33.14 L 390.17 41.57 L 392.51 35.08 L 394.84 36.75 L 397.18 30.06 L 399.51 28.06 L 401.85 32.47 L 404.18 34.74 L 406.52 42.13 L 408.85 29.80 L 411.18 40.63 L 413.52 21.37 L 415.85 23.78 L 418.19 10.00 L 420.52 10.00 L 422.86 10.00 L 425.19 36.35 L 427.53 39.96 L 429.86 44.67 L 432.20 54.54 L 434.53 54.27 L 436.86 71.53 L 439.20 66.17 L 441.53 75.27 L 443.87 73.53 L 446.20 70.86 L 448.54 61.49 L 450.87 66.11 L 453.21 59.49 L 455.54 61.49 L 457.87 64.17 L 460.21 66.84 L 462.54 66.17 L 464.88 64.17 L 467.21 76.07 L 469.55 77.78 L 471.88 64.17 L 474.22 89.18 L 476.55 72.86 L 478.89 98.78 L 481.22 109.58 L 483.55 120.51 L 485.89 124.62 L 488.22 123.42 L 490.56 119.01 L 492.89 121.01 L 495.23 126.36 L 497.56 130.98 L 499.90 131.58 L 502.23 123.69 L 504.56 136.39 L 506.90 123.02 L 509.23 125.02 L 511.57 115.66 L 513.90 112.79 L 516.24 106.30 L 518.57 105.16 L 520.91 101.52 L 523.24 92.26 L 525.57 90.92 L 527.91 98.64 L 530.24 61.49 L 532.58 88.68 L 534.91 85.30 L 537.25 35.41 L 539.58 24.71 L 541.92 20.70 L 544.25 88.91 L 546.59 10.00 L 548.92 57.15 L 551.25 10.00 L 553.59 10.00 L 555.92 30.73 L 558.26 51.60 L 560.59 55.98 L 562.93 49.26 L 565.26 46.28 L 567.60 62.00 L 569.93 62.83 L 572.26 66.71 L 574.60 81.09 L 576.93 10.00 L 579.27 54.14 L 581.60 72.19 L 583.94 70.19 L 586.27 83.56 L 588.61 86.77 L 590.94 94.26 L 593.28 102.96 L 595.61 96.94 L 597.94 91.59 L 600.28 85.57 L 602.61 67.51 L 604.95 73.93 L 607.28 76.71 L 609.62 54.14 L 611.95 61.49 L 614.29 64.17 L 616.62 67.51 L 618.95 75.54 L 621.29 78.21 L 623.62 70.19 L 625.96 82.23 L 628.29 95.60 L 630.63 102.96 L 632.96 99.81 L 635.30 103.63 L 637.63 106.97 L 639.97 115.93 L 642.30 112.32 L 644.63 108.31 L 646.97 104.29 L 649.30 106.63 L 651.64 92.26 L 653.97 95.53 L 656.31 91.05 L 658.64 77.54 L 660.98 74.87 L 663.31 65.51 L 665.64 63.50 L 667.98 67.51 L 670.31 69.52 L 672.65 64.84 L 674.98 70.32 L 677.32 75.17 L 679.65 62.16 L 681.99 61.49 L 684.32 66.31 L 686.66 58.15 L 688.99 63.07 L 691.32 58.15 L 693.66 60.83 L 695.99 64.84 L 698.33 69.92 L 700.66 73.70 L 703.00 73.53 L 705.33 82.96 L 707.67 85.70 L 710.00 86.91 L 710.00 158.60 L 707.67 163.01 L 705.33 184.54 L 703.00 185.88 L 700.66 178.53 L 698.33 181.20 L 695.99 182.81 L 693.66 187.22 L 691.32 189.89 L 688.99 191.70 L 686.66 201.93 L 684.32 204.61 L 681.99 185.61 L 679.65 180.90 L 677.32 211.96 L 674.98 193.50 L 672.65 205.94 L 670.31 207.01 L 667.98 207.62 L 665.64 209.96 L 663.31 209.29 L 660.98 207.95 L 658.64 197.42 L 656.31 201.66 L 653.97 207.95 L 651.64 197.92 L 649.30 192.44 L 646.97 195.24 L 644.63 195.91 L 642.30 191.90 L 639.97 184.01 L 637.63 181.87 L 635.30 185.15 L 632.96 194.58 L 630.63 213.30 L 628.29 210.63 L 625.96 215.97 L 623.62 193.37 L 621.29 193.07 L 618.95 189.22 L 616.62 210.63 L 614.29 203.27 L 611.95 195.24 L 609.62 183.21 L 607.28 185.21 L 604.95 182.54 L 602.61 188.56 L 600.28 193.24 L 597.94 189.22 L 595.61 193.24 L 593.28 197.25 L 590.94 187.22 L 588.61 183.74 L 586.27 179.86 L 583.94 174.65 L 581.60 177.45 L 579.27 181.87 L 576.93 187.89 L 574.60 182.00 L 572.26 184.14 L 569.93 186.08 L 567.60 184.04 L 565.26 191.90 L 562.93 176.52 L 560.59 172.67 L 558.26 174.65 L 555.92 185.21 L 553.59 184.38 L 551.25 194.58 L 548.92 190.06 L 546.59 197.25 L 544.25 189.39 L 541.92 189.22 L 539.58 188.52 L 537.25 191.23 L 534.91 192.57 L 532.58 183.81 L 530.24 178.19 L 527.91 180.33 L 525.57 195.38 L 523.24 201.33 L 520.91 198.85 L 518.57 197.75 L 516.24 200.33 L 513.90 201.86 L 511.57 199.02 L 509.23 187.89 L 506.90 194.17 L 504.56 201.26 L 502.23 188.89 L 499.90 197.92 L 497.56 198.59 L 495.23 201.93 L 492.89 201.70 L 490.56 201.93 L 488.22 188.59 L 485.89 183.14 L 483.55 187.89 L 481.22 195.91 L 478.89 189.06 L 476.55 190.93 L 474.22 206.61 L 471.88 193.50 L 469.55 207.95 L 467.21 201.26 L 464.88 194.31 L 462.54 192.03 L 460.21 202.60 L 457.87 184.98 L 455.54 183.21 L 453.21 173.17 L 450.87 171.10 L 448.54 168.49 L 446.20 167.16 L 443.87 162.47 L 441.53 162.47 L 439.20 173.17 L 436.86 179.86 L 434.53 180.93 L 432.20 183.34 L 429.86 197.92 L 427.53 206.61 L 425.19 185.21 L 422.86 173.54 L 420.52 163.81 L 418.19 168.49 L 415.85 179.19 L 413.52 170.53 L 411.18 181.87 L 408.85 181.20 L 406.52 177.86 L 404.18 173.17 L 401.85 169.56 L 399.51 165.15 L 397.18 167.83 L 394.84 164.48 L 392.51 161.14 L 390.17 173.17 L 387.84 169.56 L 385.51 175.58 L 383.17 177.05 L 380.84 207.28 L 378.50 208.62 L 376.17 203.94 L 373.83 203.94 L 371.50 188.96 L 369.16 196.58 L 366.83 178.93 L 364.49 175.62 L 362.16 180.53 L 359.83 176.52 L 357.49 167.83 L 355.16 167.16 L 352.82 163.81 L 350.49 162.47 L 348.15 160.47 L 345.82 158.46 L 343.48 155.79 L 341.15 155.12 L 338.82 150.44 L 336.48 149.77 L 334.15 148.43 L 331.81 147.50 L 329.48 147.43 L 327.14 149.77 L 324.81 149.10 L 322.47 150.97 L 320.14 149.43 L 317.80 147.09 L 315.47 153.05 L 313.14 166.49 L 310.80 149.43 L 308.47 150.10 L 306.13 149.77 L 303.80 146.89 L 301.46 146.96 L 299.13 147.06 L 296.79 155.12 L 294.46 154.05 L 292.13 152.38 L 289.79 167.83 L 287.46 160.74 L 285.12 179.86 L 282.79 181.87 L 280.45 183.21 L 278.12 182.54 L 275.78 175.85 L 273.45 167.83 L 271.11 163.98 L 268.78 165.28 L 266.45 171.03 L 264.11 180.83 L 261.78 196.58 L 259.44 178.02 L 257.11 179.26 L 254.77 176.65 L 252.44 185.41 L 250.10 189.76 L 247.77 193.24 L 245.44 196.28 L 243.10 203.27 L 240.77 196.75 L 238.43 200.93 L 236.10 199.92 L 233.76 199.26 L 231.43 204.61 L 229.09 203.94 L 226.76 201.26 L 224.43 201.53 L 222.09 204.61 L 219.76 198.59 L 217.42 199.29 L 215.09 200.59 L 212.75 201.26 L 210.42 199.39 L 208.08 198.59 L 205.75 196.58 L 203.41 194.84 L 201.08 194.41 L 198.75 191.16 L 196.41 188.56 L 194.08 191.23 L 191.74 189.89 L 189.41 202.60 L 187.07 191.23 L 184.74 189.09 L 182.40 190.56 L 180.07 192.03 L 177.74 192.57 L 175.40 189.89 L 173.07 188.56 L 170.73 184.54 L 168.40 182.67 L 166.06 183.21 L 163.73 189.89 L 161.39 182.54 L 159.06 181.33 L 156.72 183.88 L 154.39 185.48 L 152.06 184.54 L 149.72 179.70 L 147.39 183.21 L 145.05 179.19 L 142.72 175.52 L 140.38 181.20 L 138.05 177.19 L 135.71 174.91 L 133.38 174.78 L 131.05 187.89 L 128.71 193.91 L 126.38 195.24 L 124.04 197.25 L 121.71 198.59 L 119.37 187.05 L 117.04 199.92 L 114.70 203.94 L 112.37 189.26 L 110.03 187.89 L 107.70 185.88 L 105.37 182.60 L 103.03 176.52 L 100.70 183.88 L 98.36 187.89 L 96.03 181.07 L 93.69 179.19 L 91.36 178.53 L 89.02 182.54 L 86.69 183.21 L 84.36 181.87 L 82.02 174.51 L 79.69 178.53 L 77.35 172.64 L 75.02 172.44 L 72.68 173.34 L 70.35 168.09 L 68.01 175.85 L 65.68 175.18 L 63.34 172.24 L 61.01 169.83 L 58.68 168.63 L 56.34 171.84 L 54.01 171.84 L 51.67 171.84 L 49.34 171.17 L 47.00 170.50 L 44.67 172.51 L 42.33 163.55 L 40.00 163.88 Z" fill="rgba(231,76,60,0.06)" stroke="none"/><path d="M 40.00 86.91 L 42.33 86.91 L 44.67 86.24 L 47.00 90.25 L 49.34 112.99 L 51.67 96.94 L 54.01 100.95 L 56.34 100.95 L 58.68 110.31 L 61.01 108.31 L 63.34 110.98 L 65.68 116.00 L 68.01 113.66 L 70.35 120.34 L 72.68 120.34 L 75.02 114.66 L 77.35 114.99 L 79.69 109.64 L 82.02 88.24 L 84.36 108.31 L 86.69 104.29 L 89.02 117.00 L 91.36 123.02 L 93.69 110.31 L 96.03 106.97 L 98.36 106.97 L 100.70 117.33 L 103.03 104.29 L 105.37 98.61 L 107.70 108.98 L 110.03 110.98 L 112.37 109.64 L 114.70 108.98 L 117.04 110.98 L 119.37 112.32 L 121.71 112.99 L 124.04 114.99 L 126.38 114.33 L 128.71 114.99 L 131.05 121.68 L 133.38 126.36 L 135.71 128.37 L 138.05 120.18 L 140.38 128.37 L 142.72 127.03 L 145.05 133.72 L 147.39 136.23 L 149.72 128.37 L 152.06 136.39 L 154.39 133.72 L 156.72 132.38 L 159.06 133.72 L 161.39 135.06 L 163.73 135.06 L 166.06 137.73 L 168.40 143.08 L 170.73 139.07 L 173.07 139.74 L 175.40 141.74 L 177.74 145.09 L 180.07 162.47 L 182.40 141.74 L 184.74 154.45 L 187.07 153.11 L 189.41 152.44 L 191.74 153.28 L 194.08 154.78 L 196.41 150.10 L 198.75 153.11 L 201.08 155.12 L 203.41 159.13 L 205.75 153.78 L 208.08 153.11 L 210.42 152.44 L 212.75 154.45 L 215.09 157.13 L 217.42 159.13 L 219.76 161.81 L 222.09 166.65 L 224.43 164.48 L 226.76 163.14 L 229.09 161.14 L 231.43 159.80 L 233.76 161.30 L 236.10 161.14 L 238.43 161.14 L 240.77 159.47 L 243.10 163.14 L 245.44 161.14 L 247.77 161.14 L 250.10 154.45 L 252.44 151.78 L 254.77 149.77 L 257.11 145.92 L 259.44 137.73 L 261.78 137.73 L 264.11 137.73 L 266.45 130.38 L 268.78 123.69 L 271.11 113.66 L 273.45 111.65 L 275.78 98.94 L 278.12 106.97 L 280.45 111.82 L 282.79 110.98 L 285.12 111.15 L 287.46 95.60 L 289.79 87.58 L 292.13 78.55 L 294.46 82.89 L 296.79 112.32 L 299.13 86.91 L 301.46 78.88 L 303.80 82.23 L 306.13 79.55 L 308.47 77.54 L 310.80 79.55 L 313.14 78.21 L 315.47 75.20 L 317.80 86.24 L 320.14 81.56 L 322.47 85.23 L 324.81 64.50 L 327.14 80.89 L 329.48 84.23 L 331.81 56.14 L 334.15 90.92 L 336.48 96.27 L 338.82 104.29 L 341.15 102.62 L 343.48 102.29 L 345.82 93.26 L 348.15 105.30 L 350.49 113.32 L 352.82 108.31 L 355.16 103.12 L 357.49 114.99 L 359.83 108.31 L 362.16 107.64 L 364.49 120.34 L 366.83 125.69 L 369.16 117.00 L 371.50 131.04 L 373.83 133.72 L 376.17 131.38 L 378.50 114.33 L 380.84 101.62 L 383.17 84.90 L 385.51 78.21 L 387.84 70.86 L 390.17 62.16 L 392.51 58.15 L 394.84 54.81 L 397.18 56.14 L 399.51 62.16 L 401.85 67.51 L 404.18 55.14 L 406.52 52.47 L 408.85 50.13 L 411.18 63.83 L 413.52 56.81 L 415.85 60.16 L 418.19 61.16 L 420.52 62.83 L 422.86 64.50 L 425.19 64.17 L 427.53 69.18 L 429.86 66.17 L 432.20 66.84 L 434.53 70.86 L 436.86 78.21 L 439.20 88.24 L 441.53 96.94 L 443.87 100.95 L 446.20 112.32 L 448.54 110.98 L 450.87 108.98 L 453.21 102.45 L 455.54 106.30 L 457.87 104.29 L 460.21 110.31 L 462.54 106.97 L 464.88 107.64 L 467.21 112.32 L 469.55 105.63 L 471.88 103.63 L 474.22 120.34 L 476.55 110.98 L 478.89 111.65 L 481.22 128.37 L 483.55 125.86 L 485.89 137.73 L 488.22 143.08 L 490.56 154.45 L 492.89 159.80 L 495.23 158.46 L 497.56 160.80 L 499.90 155.79 L 502.23 154.45 L 504.56 145.76 L 506.90 145.76 L 509.23 146.26 L 511.57 128.54 L 513.90 144.42 L 516.24 149.10 L 518.57 133.72 L 520.91 132.38 L 523.24 134.39 L 525.57 136.39 L 527.91 136.39 L 530.24 139.74 L 532.58 136.39 L 534.91 131.71 L 537.25 135.06 L 539.58 135.06 L 541.92 126.36 L 544.25 125.02 L 546.59 134.89 L 548.92 137.73 L 551.25 140.41 L 553.59 135.06 L 555.92 130.38 L 558.26 132.38 L 560.59 147.09 L 562.93 140.07 L 565.26 137.06 L 567.60 139.74 L 569.93 135.39 L 572.26 135.06 L 574.60 131.71 L 576.93 120.34 L 579.27 126.70 L 581.60 126.36 L 583.94 121.68 L 586.27 119.67 L 588.61 120.34 L 590.94 112.99 L 593.28 106.97 L 595.61 104.29 L 597.94 107.64 L 600.28 105.63 L 602.61 97.10 L 604.95 93.59 L 607.28 94.26 L 609.62 90.92 L 611.95 88.58 L 614.29 89.58 L 616.62 99.95 L 618.95 121.68 L 621.29 119.67 L 623.62 94.60 L 625.96 117.00 L 628.29 117.67 L 630.63 116.33 L 632.96 112.99 L 635.30 114.49 L 637.63 122.52 L 639.97 123.69 L 642.30 125.69 L 644.63 123.02 L 646.97 117.00 L 649.30 124.02 L 651.64 115.66 L 653.97 108.98 L 656.31 109.64 L 658.64 108.31 L 660.98 97.61 L 663.31 88.24 L 665.64 91.09 L 667.98 93.59 L 670.31 82.89 L 672.65 94.26 L 674.98 86.91 L 677.32 86.07 L 679.65 84.90 L 681.99 84.23 L 684.32 85.57 L 686.66 87.74 L 688.99 94.26 L 691.32 89.75 L 693.66 98.27 L 695.99 96.27 L 698.33 93.59 L 700.66 97.61 L 703.00 98.94 L 705.33 94.60 L 707.67 89.58 L 710.00 91.59 L 710.00 145.76 L 707.67 145.76 L 705.33 145.09 L 703.00 134.39 L 700.66 146.59 L 698.33 147.09 L 695.99 149.10 L 693.66 153.78 L 691.32 139.74 L 688.99 133.72 L 686.66 134.39 L 684.32 131.04 L 681.99 135.73 L 679.65 141.74 L 677.32 150.77 L 674.98 152.44 L 672.65 153.61 L 670.31 155.79 L 667.98 170.17 L 665.64 178.36 L 663.31 173.17 L 660.98 179.86 L 658.64 184.54 L 656.31 186.55 L 653.97 190.40 L 651.64 187.89 L 649.30 187.22 L 646.97 181.20 L 644.63 170.50 L 642.30 176.52 L 639.97 171.17 L 637.63 173.34 L 635.30 170.50 L 632.96 169.16 L 630.63 171.84 L 628.29 167.83 L 625.96 173.17 L 623.62 155.79 L 621.29 152.44 L 618.95 162.47 L 616.62 168.49 L 614.29 163.14 L 611.95 165.15 L 609.62 165.99 L 607.28 165.15 L 604.95 167.83 L 602.61 158.46 L 600.28 146.42 L 597.94 147.09 L 595.61 157.79 L 593.28 160.30 L 590.94 161.14 L 588.61 152.44 L 586.27 158.80 L 583.94 163.81 L 581.60 162.47 L 579.27 162.81 L 576.93 159.47 L 574.60 166.49 L 572.26 171.17 L 569.93 166.49 L 567.60 166.49 L 565.26 171.84 L 562.93 170.83 L 560.59 167.83 L 558.26 170.50 L 555.92 172.51 L 553.59 168.49 L 551.25 181.70 L 548.92 177.19 L 546.59 174.51 L 544.25 173.17 L 541.92 179.36 L 539.58 179.86 L 537.25 175.85 L 534.91 173.84 L 532.58 173.17 L 530.24 169.66 L 527.91 167.83 L 525.57 174.51 L 523.24 176.52 L 520.91 171.84 L 518.57 172.51 L 516.24 174.51 L 513.90 174.51 L 511.57 178.53 L 509.23 177.86 L 506.90 175.85 L 504.56 176.52 L 502.23 174.68 L 499.90 181.87 L 497.56 179.86 L 495.23 179.19 L 492.89 180.87 L 490.56 178.53 L 488.22 179.03 L 485.89 181.20 L 483.55 178.53 L 481.22 173.01 L 478.89 167.83 L 476.55 159.13 L 474.22 168.49 L 471.88 171.17 L 469.55 174.18 L 467.21 168.49 L 464.88 164.48 L 462.54 144.42 L 460.21 154.45 L 457.87 148.77 L 455.54 148.10 L 453.21 145.09 L 450.87 140.41 L 448.54 147.09 L 446.20 138.40 L 443.87 134.72 L 441.53 133.05 L 439.20 127.70 L 436.86 127.70 L 434.53 127.70 L 432.20 115.66 L 429.86 139.74 L 427.53 141.08 L 425.19 143.75 L 422.86 148.43 L 420.52 143.08 L 418.19 122.35 L 415.85 126.36 L 413.52 125.69 L 411.18 122.35 L 408.85 133.72 L 406.52 141.74 L 404.18 143.75 L 401.85 117.67 L 399.51 111.65 L 397.18 107.64 L 394.84 114.99 L 392.51 102.96 L 390.17 107.64 L 387.84 121.01 L 385.51 135.73 L 383.17 131.04 L 380.84 154.45 L 378.50 155.12 L 376.17 162.14 L 373.83 166.49 L 371.50 158.96 L 369.16 157.13 L 366.83 151.11 L 364.49 149.10 L 362.16 148.43 L 359.83 146.42 L 357.49 144.08 L 355.16 149.10 L 352.82 140.41 L 350.49 136.06 L 348.15 137.73 L 345.82 139.07 L 343.48 134.39 L 341.15 137.06 L 338.82 132.38 L 336.48 135.73 L 334.15 144.42 L 331.81 128.37 L 329.48 129.04 L 327.14 136.39 L 324.81 135.06 L 322.47 130.38 L 320.14 145.76 L 317.80 142.41 L 315.47 139.07 L 313.14 136.06 L 310.80 131.71 L 308.47 137.73 L 306.13 141.08 L 303.80 139.74 L 301.46 137.06 L 299.13 142.41 L 296.79 140.41 L 294.46 139.07 L 292.13 139.40 L 289.79 144.42 L 287.46 149.77 L 285.12 150.44 L 282.79 150.44 L 280.45 147.09 L 278.12 142.41 L 275.78 151.78 L 273.45 159.47 L 271.11 157.13 L 268.78 155.79 L 266.45 157.13 L 264.11 157.63 L 261.78 159.80 L 259.44 161.14 L 257.11 166.49 L 254.77 172.51 L 252.44 180.53 L 250.10 180.53 L 247.77 183.88 L 245.44 179.19 L 243.10 189.89 L 240.77 187.05 L 238.43 183.88 L 236.10 186.55 L 233.76 187.22 L 231.43 184.54 L 229.09 185.21 L 226.76 185.21 L 224.43 178.86 L 222.09 192.40 L 219.76 177.86 L 217.42 179.19 L 215.09 177.19 L 212.75 185.88 L 210.42 195.24 L 208.08 192.57 L 205.75 185.88 L 203.41 185.21 L 201.08 185.88 L 198.75 185.21 L 196.41 181.87 L 194.08 182.54 L 191.74 175.68 L 189.41 178.53 L 187.07 181.20 L 184.74 179.86 L 182.40 175.85 L 180.07 176.52 L 177.74 181.87 L 175.40 181.20 L 173.07 173.84 L 170.73 175.85 L 168.40 175.18 L 166.06 172.51 L 163.73 171.84 L 161.39 173.84 L 159.06 175.18 L 156.72 177.19 L 154.39 173.34 L 152.06 171.17 L 149.72 174.51 L 147.39 171.84 L 145.05 170.50 L 142.72 168.49 L 140.38 164.48 L 138.05 164.48 L 135.71 165.15 L 133.38 169.83 L 131.05 168.16 L 128.71 166.49 L 126.38 168.49 L 124.04 167.16 L 121.71 167.16 L 119.37 166.49 L 117.04 165.99 L 114.70 165.15 L 112.37 166.49 L 110.03 167.83 L 107.70 165.82 L 105.37 160.47 L 103.03 161.14 L 100.70 160.80 L 98.36 159.80 L 96.03 157.63 L 93.69 157.79 L 91.36 155.12 L 89.02 157.79 L 86.69 157.79 L 84.36 157.79 L 82.02 153.78 L 79.69 162.64 L 77.35 153.11 L 75.02 151.11 L 72.68 150.44 L 70.35 151.78 L 68.01 153.78 L 65.68 154.45 L 63.34 155.12 L 61.01 155.79 L 58.68 159.13 L 56.34 154.45 L 54.01 151.11 L 51.67 152.44 L 49.34 145.76 L 47.00 144.42 L 44.67 133.72 L 42.33 137.73 L 40.00 146.42 Z" fill="rgba(230,126,34,0.22)" stroke="none"/><path d="M 40.00 114.99 L 42.33 116.33 L 44.67 118.34 L 47.00 121.68 L 49.34 126.36 L 51.67 127.03 L 54.01 127.03 L 56.34 129.04 L 58.68 129.71 L 61.01 127.03 L 63.34 131.04 L 65.68 138.40 L 68.01 136.39 L 70.35 139.07 L 72.68 141.08 L 75.02 141.08 L 77.35 145.76 L 79.69 151.11 L 82.02 149.10 L 84.36 148.77 L 86.69 151.11 L 89.02 151.11 L 91.36 152.44 L 93.69 152.44 L 96.03 150.77 L 98.36 153.11 L 100.70 151.78 L 103.03 149.77 L 105.37 153.78 L 107.70 154.45 L 110.03 159.13 L 112.37 153.78 L 114.70 153.11 L 117.04 155.12 L 119.37 153.78 L 121.71 152.44 L 124.04 155.79 L 126.38 162.47 L 128.71 161.81 L 131.05 163.81 L 133.38 161.14 L 135.71 155.12 L 138.05 157.79 L 140.38 156.46 L 142.72 159.80 L 145.05 158.46 L 147.39 159.80 L 149.72 159.13 L 152.06 161.14 L 154.39 160.13 L 156.72 159.80 L 159.06 160.47 L 161.39 161.14 L 163.73 161.14 L 166.06 159.80 L 168.40 163.14 L 170.73 163.81 L 173.07 159.13 L 175.40 163.14 L 177.74 161.81 L 180.07 163.14 L 182.40 167.16 L 184.74 167.83 L 187.07 168.49 L 189.41 171.17 L 191.74 167.16 L 194.08 166.49 L 196.41 158.46 L 198.75 159.80 L 201.08 167.16 L 203.41 174.85 L 205.75 168.49 L 208.08 171.17 L 210.42 171.84 L 212.75 173.17 L 215.09 169.16 L 217.42 169.16 L 219.76 168.49 L 222.09 171.84 L 224.43 169.83 L 226.76 174.51 L 229.09 177.19 L 231.43 177.86 L 233.76 175.85 L 236.10 170.83 L 238.43 169.83 L 240.77 173.51 L 243.10 175.85 L 245.44 170.17 L 247.77 167.16 L 250.10 163.81 L 252.44 171.84 L 254.77 156.46 L 257.11 150.44 L 259.44 152.44 L 261.78 146.42 L 264.11 140.41 L 266.45 137.73 L 268.78 145.09 L 271.11 148.43 L 273.45 144.42 L 275.78 140.41 L 278.12 134.39 L 280.45 132.38 L 282.79 126.36 L 285.12 137.73 L 287.46 132.38 L 289.79 136.06 L 292.13 133.05 L 294.46 133.05 L 296.79 135.73 L 299.13 130.38 L 301.46 130.38 L 303.80 132.38 L 306.13 121.68 L 308.47 122.35 L 310.80 122.35 L 313.14 122.35 L 315.47 121.68 L 317.80 113.66 L 320.14 110.65 L 322.47 117.67 L 324.81 112.32 L 327.14 110.31 L 329.48 111.65 L 331.81 117.00 L 334.15 119.01 L 336.48 120.34 L 338.82 123.02 L 341.15 125.69 L 343.48 125.69 L 345.82 113.66 L 348.15 116.67 L 350.49 118.34 L 352.82 132.38 L 355.16 127.03 L 357.49 132.72 L 359.83 125.69 L 362.16 128.37 L 364.49 135.06 L 366.83 135.73 L 369.16 142.41 L 371.50 148.10 L 373.83 152.44 L 376.17 153.11 L 378.50 144.08 L 380.84 130.38 L 383.17 114.33 L 385.51 113.66 L 387.84 88.91 L 390.17 91.59 L 392.51 100.28 L 394.84 98.27 L 397.18 100.95 L 399.51 96.94 L 401.85 87.58 L 404.18 80.89 L 406.52 77.54 L 408.85 72.86 L 411.18 74.87 L 413.52 70.19 L 415.85 66.84 L 418.19 74.20 L 420.52 74.53 L 422.86 78.21 L 425.19 73.53 L 427.53 86.24 L 429.86 104.29 L 432.20 87.58 L 434.53 96.94 L 436.86 107.30 L 439.20 109.64 L 441.53 119.01 L 443.87 124.36 L 446.20 130.38 L 448.54 131.71 L 450.87 134.72 L 453.21 130.38 L 455.54 131.71 L 457.87 135.73 L 460.21 133.72 L 462.54 132.38 L 464.88 130.38 L 467.21 137.73 L 469.55 142.41 L 471.88 140.41 L 474.22 141.08 L 476.55 139.07 L 478.89 133.05 L 481.22 142.41 L 483.55 153.78 L 485.89 155.79 L 488.22 155.12 L 490.56 166.49 L 492.89 172.84 L 495.23 173.17 L 497.56 173.17 L 499.90 171.17 L 502.23 166.49 L 504.56 158.80 L 506.90 165.82 L 509.23 168.49 L 511.57 167.83 L 513.90 158.46 L 516.24 155.79 L 518.57 147.76 L 520.91 142.41 L 523.24 150.10 L 525.57 151.78 L 527.91 155.12 L 530.24 158.80 L 532.58 149.43 L 534.91 146.42 L 537.25 150.44 L 539.58 149.77 L 541.92 150.44 L 544.25 153.11 L 546.59 151.44 L 548.92 154.78 L 551.25 155.79 L 553.59 152.44 L 555.92 157.79 L 558.26 158.46 L 560.59 153.78 L 562.93 157.79 L 565.26 151.11 L 567.60 142.41 L 569.93 147.09 L 572.26 143.08 L 574.60 141.74 L 576.93 139.07 L 579.27 137.73 L 581.60 142.41 L 583.94 139.74 L 586.27 136.39 L 588.61 130.38 L 590.94 124.36 L 593.28 125.02 L 595.61 131.71 L 597.94 137.73 L 600.28 141.08 L 602.61 140.41 L 604.95 147.09 L 607.28 140.41 L 609.62 153.11 L 611.95 152.11 L 614.29 142.41 L 616.62 140.41 L 618.95 137.73 L 621.29 141.08 L 623.62 145.42 L 625.96 151.78 L 628.29 155.12 L 630.63 146.42 L 632.96 157.13 L 635.30 141.41 L 637.63 136.39 L 639.97 140.41 L 642.30 157.13 L 644.63 148.43 L 646.97 145.09 L 649.30 152.44 L 651.64 148.43 L 653.97 162.47 L 656.31 141.74 L 658.64 139.07 L 660.98 137.06 L 663.31 134.39 L 665.64 132.72 L 667.98 131.71 L 670.31 132.38 L 672.65 132.38 L 674.98 125.69 L 677.32 126.03 L 679.65 121.68 L 681.99 123.69 L 684.32 122.35 L 686.66 125.02 L 688.99 121.68 L 691.32 121.01 L 693.66 110.98 L 695.99 102.96 L 698.33 125.02 L 700.66 125.02 L 703.00 115.66 L 705.33 117.67 L 707.67 117.67 L 710.00 113.66" fill="none" stroke="#2c3e50" stroke-width="2"/></svg>