<?xml version="1.0"?><svg viewBox="0 0 720 260" width="100%" height="260" xmlns="http://www.w3.org/2000/svg"><rect width="100%" height="100%" fill="#fff"/><line x1="40" y1="210.625" x2="710" y2="210.625" stroke="#eee"/><text x="32" y="214.625" text-anchor="end" font-size="10" fill="#666" font-family="system-ui,Arial">60</text><line x1="40" y1="183.875" x2="710" y2="183.875" stroke="#eee"/><text x="32" y="187.875" text-anchor="end" font-size="10" fill="#666" font-family="system-ui,Arial">100</text><line x1="40" y1="157.125" x2="710" y2="157.125" stroke="#eee"/><text x="32" y="161.125" text-anchor="end" font-size="10" fill="#666" font-family="system-ui,Arial">140</text><line x1="40" y1="130.375" x2="710" y2="130.375" stroke="#eee"/><text x="32" y="134.375" text-anchor="end" font-size="10" fill="#666" font-family="system-ui,Arial">180</text><line x1="40" y1="103.625" x2="710" y2="103.625" stroke="#eee"/><text x="32" y="107.625" text-anchor="end" font-size="10" fill="#666" font-family="system-ui,Arial">220</text><line x1="40" y1="76.875" x2="710" y2="76.875" stroke="#eee"/><text x="32" y="80.875" text-anchor="end" font-size="10" fill="#666" font-family="system-ui,Arial">260</text><line x1="40" y1="50.125" x2="710" y2="50.125" stroke="#eee"/><text x="32" y="54.125" text-anchor="end" font-size="10" fill="#666" font-family="system-ui,Arial">300</text><line x1="40" y1="23.375" x2="710" y2="23.375" stroke="#eee"/><text x="32" y="27.375" text-anchor="end" font-size="10" fill="#666" font-family="system-ui,Arial">340</text><line x1="208.0836236933798" y1="10" x2="208.0836236933798" y2="224" stroke="#eee"/><text x="208.0836236933798" y="238" text-anchor="middle" font-size="10" fill="#666" font-family="system-ui,Arial">6</text><line x1="292.1254355400697" y1="10" x2="292.1254355400697" y2="224" stroke="#eee"/><text x="292.1254355400697" y="238" text-anchor="middle" font-size="10" fill="#666" font-family="system-ui,Arial">9</text><line x1="376.1672473867596" y1="10" x2="376.1672473867596" y2="224" stroke="#eee"/><text x="376.1672473867596" y="238" text-anchor="middle" font-size="10" fill="#666" font-family="system-ui,Arial">12</text><line x1="460.20905923344947" y1="10" x2="460.20905923344947" y2="224" stroke="#eee"/><text x="460.20905923344947" y="238" text-anchor="middle" font-size="10" fill="#666" font-family="system-ui,Arial">15</text><line x1="544.2508710801394" y1="10" x2="544.2508710801394" y2="224" stroke="#eee"/><text x="544.2508710801394" y="238" text-anchor="middle" font-size="10" fill="#666" font-family="system-ui,Arial">18</text><line x1="628.2926829268292" y1="10" x2="628.2926829268292" y2="224" stroke="#eee"/><text x="628.2926829268292" y="238" text-anchor="middle" font-size="10" fill="#666" font-family="system-ui,Arial">21</text><rect x="40" y="130.375" width="670" height="73.5625" fill="rgba(39,174,96,0.07)"/><path d="M 40.00 13.04 L 42.33 10.00 L 44.67 10.00 L 47.00 13.34 L 49.34 10.00 L 51.67 10.00 L 54.01 18.36 L 56.34 10.00 L 58.68 11.10 L 61.01 16.42 L 63.34 17.49 L 65.68 18.83 L 68.01 28.09 L 70.35 24.71 L 72.68 24.18 L 75.02 18.36 L 77.35 32.74 L 79.69 31.40 L 82.02 15.78 L 84.36 14.85 L 86.69 19.36 L 89.02 18.59 L 91.36 39.16 L 93.69 32.07 L 96.03 77.54 L 98.36 88.65 L 100.70 92.89 L 103.03 90.25 L 105.37 88.41 L 107.70 98.68 L 110.03 98.98 L 112.37 88.24 L 114.70 111.55 L 117.04 106.97 L 119.37 114.39 L 121.71 121.01 L 124.04 45.24 L 126.38 29.83 L 128.71 38.62 L 131.05 26.05 L 133.38 37.42 L 135.71 38.09 L 138.05 33.21 L 140.38 16.15 L 142.72 32.30 L 145.05 18.83 L 147.39 22.84 L 149.72 28.99 L 152.06 26.89 L 154.39 21.77 L 156.72 49.76 L 159.06 25.78 L 161.39 26.32 L 163.73 26.05 L 166.06 29.59 L 168.40 38.76 L 170.73 10.00 L 173.07 10.00 L 175.40 39.63 L 177.74 38.49 L 180.07 12.67 L 182.40 58.15 L 184.74 55.07 L 187.07 63.23 L 189.41 58.02 L 191.74 53.47 L 194.08 56.31 L 196.41 71.59 L 198.75 71.79 L 201.08 77.81 L 203.41 80.62 L 205.75 109.11 L 208.08 93.46 L 210.42 96.84 L 212.75 107.64 L 215.09 104.46 L 217.42 104.29 L 219.76 101.38 L 222.09 114.33 L 224.43 93.59 L 226.76 96.27 L 229.09 101.62 L 231.43 126.70 L 233.76 119.01 L 236.10 131.31 L 238.43 134.72 L 240.77 136.39 L 243.10 140.71 L 245.44 142.41 L 247.77 143.45 L 250.10 135.86 L 252.44 131.58 L 254.77 127.57 L 257.11 127.20 L 259.44 110.98 L 261.78 124.89 L 264.11 119.68 L 266.45 100.95 L 268.78 105.53 L 271.11 95.50 L 273.45 91.59 L 275.78 83.93 L 278.12 73.40 L 280.45 70.59 L 282.79 68.42 L 285.12 64.34 L 287.46 61.86 L 289.79 57.15 L 292.13 55.88 L 294.46 62.16 L 296.79 59.76 L 299.13 54.81 L 301.46 60.96 L 303.80 65.17 L 306.13 64.17 L 308.47 69.79 L 310.80 75.87 L 313.14 79.05 L 315.47 82.33 L 317.80 86.10 L 320.14 86.37 L 322.47 90.58 L 324.81 85.57 L 327.14 96.67 L 329.48 101.89 L 331.81 103.39 L 334.15 106.57 L 336.48 107.47 L 338.82 109.11 L 341.15 108.31 L 343.48 110.85 L 345.82 108.98 L 348.15 111.65 L 350.49 112.32 L 352.82 113.69 L 355.16 106.37 L 357.49 96.34 L 359.83 94.00 L 362.16 92.32 L 364.49 92.92 L 366.83 108.27 L 369.16 109.11 L 371.50 98.94 L 373.83 113.59 L 376.17 99.61 L 378.50 107.04 L 380.84 83.56 L 383.17 91.59 L 385.51 74.20 L 387.84 71.19 L 390.17 65.11 L 392.51 56.81 L 394.84 64.04 L 397.18 64.17 L 399.51 61.90 L 401.85 62.03 L 404.18 42.10 L 406.52 57.08 L 408.85 63.97 L 411.18 60.16 L 413.52 28.73 L 415.85 58.18 L 418.19 63.30 L 420.52 23.38 L 422.86 62.23 L 425.19 63.50 L 427.53 50.39 L 429.86 54.94 L 432.20 51.06 L 434.53 49.29 L 436.86 55.21 L 439.20 46.92 L 441.53 43.71 L 443.87 49.12 L 446.20 50.13 L 448.54 47.12 L 450.87 54.94 L 453.21 58.55 L 455.54 55.14 L 457.87 51.86 L 460.21 52.77 L 462.54 51.80 L 464.88 49.46 L 467.21 47.18 L 469.55 50.99 L 471.88 50.46 L 474.22 50.13 L 476.55 58.02 L 478.89 56.55 L 481.22 73.87 L 483.55 89.25 L 485.89 97.27 L 488.22 96.77 L 490.56 86.64 L 492.89 76.74 L 495.23 76.34 L 497.56 54.14 L 499.90 81.72 L 502.23 68.85 L 504.56 69.55 L 506.90 76.81 L 509.23 64.37 L 511.57 60.02 L 513.90 66.17 L 516.24 56.95 L 518.57 61.43 L 520.91 69.18 L 523.24 39.42 L 525.57 56.81 L 527.91 85.97 L 530.24 98.41 L 532.58 105.77 L 534.91 107.10 L 537.25 98.27 L 539.58 101.62 L 541.92 103.63 L 544.25 99.61 L 546.59 96.94 L 548.92 103.66 L 551.25 97.27 L 553.59 88.24 L 555.92 88.91 L 558.26 84.23 L 560.59 94.93 L 562.93 104.13 L 565.26 96.94 L 567.60 89.45 L 569.93 85.94 L 572.26 82.96 L 574.60 72.86 L 576.93 87.31 L 579.27 87.58 L 581.60 84.90 L 583.94 89.58 L 586.27 90.92 L 588.61 91.82 L 590.94 91.35 L 593.28 94.70 L 595.61 86.24 L 597.94 76.88 L 600.28 73.87 L 602.61 69.62 L 604.95 68.18 L 607.28 73.56 L 609.62 78.61 L 611.95 74.23 L 614.29 71.53 L 616.62 62.83 L 618.95 46.78 L 621.29 53.60 L 623.62 29.39 L 625.96 36.15 L 628.29 34.18 L 630.63 25.38 L 632.96 13.08 L 635.30 16.96 L 637.63 24.14 L 639.97 35.08 L 642.30 32.74 L 644.63 29.39 L 646.97 27.99 L 649.30 39.39 L 651.64 37.75 L 653.97 27.66 L 656.31 35.08 L 658.64 21.50 L 660.98 25.08 L 663.31 19.66 L 665.64 23.38 L 667.98 27.72 L 670.31 25.08 L 672.65 18.56 L 674.98 23.27 L 677.32 22.04 L 679.65 29.06 L 681.99 16.96 L 684.32 15.08 L 686.66 20.70 L 688.99 16.35 L 691.32 14.55 L 693.66 17.02 L 695.99 10.00 L 698.33 13.34 L 700.66 10.00 L 703.00 10.03 L 705.33 13.01 L 707.67 18.19 L 710.00 11.84 L 710.00 171.94 L 707.67 170.63 L 705.33 170.50 L 703.00 175.85 L 700.66 172.77 L 698.33 173.17 L 695.99 180.73 L 693.66 180.53 L 691.32 182.54 L 688.99 182.94 L 686.66 184.21 L 684.32 187.09 L 681.99 188.56 L 679.65 187.55 L 677.32 198.45 L 674.98 204.57 L 672.65 207.15 L 670.31 207.95 L 667.98 209.96 L 665.64 213.30 L 663.31 208.22 L 660.98 206.21 L 658.64 201.80 L 656.31 202.27 L 653.97 204.20 L 651.64 210.29 L 649.30 213.90 L 646.97 216.68 L 644.63 218.65 L 642.30 214.30 L 639.97 216.64 L 637.63 215.57 L 635.30 211.06 L 632.96 211.69 L 630.63 209.96 L 628.29 214.64 L 625.96 203.80 L 623.62 196.25 L 621.29 196.85 L 618.95 206.95 L 616.62 204.61 L 614.29 199.26 L 611.95 201.76 L 609.62 200.06 L 607.28 196.88 L 604.95 187.89 L 602.61 184.34 L 600.28 185.88 L 597.94 195.91 L 595.61 206.61 L 593.28 208.62 L 590.94 193.24 L 588.61 192.97 L 586.27 194.58 L 583.94 177.66 L 581.60 178.53 L 579.27 184.54 L 576.93 180.26 L 574.60 186.05 L 572.26 194.14 L 569.93 194.21 L 567.60 186.95 L 565.26 186.15 L 562.93 190.06 L 560.59 193.91 L 558.26 192.90 L 555.92 193.24 L 553.59 194.04 L 551.25 198.59 L 548.92 194.21 L 546.59 197.65 L 544.25 206.85 L 541.92 210.29 L 539.58 212.63 L 537.25 204.27 L 534.91 208.08 L 532.58 206.61 L 530.24 196.31 L 527.91 203.27 L 525.57 197.92 L 523.24 202.33 L 520.91 204.27 L 518.57 202.57 L 516.24 201.80 L 513.90 209.29 L 511.57 204.87 L 509.23 198.09 L 506.90 190.70 L 504.56 188.22 L 502.23 192.44 L 499.90 200.59 L 497.56 200.76 L 495.23 202.67 L 492.89 199.66 L 490.56 191.23 L 488.22 186.35 L 485.89 186.88 L 483.55 184.54 L 481.22 180.90 L 478.89 179.53 L 476.55 177.49 L 474.22 181.73 L 471.88 184.54 L 469.55 179.63 L 467.21 176.52 L 464.88 174.51 L 462.54 176.85 L 460.21 175.62 L 457.87 177.86 L 455.54 173.84 L 453.21 172.37 L 450.87 170.63 L 448.54 176.52 L 446.20 171.50 L 443.87 173.84 L 441.53 175.58 L 439.20 174.11 L 436.86 180.53 L 434.53 183.88 L 432.20 183.07 L 429.86 187.75 L 427.53 193.37 L 425.19 189.56 L 422.86 189.06 L 420.52 185.68 L 418.19 176.45 L 415.85 173.68 L 413.52 171.84 L 411.18 176.52 L 408.85 187.82 L 406.52 194.71 L 404.18 190.56 L 401.85 189.96 L 399.51 191.50 L 397.18 186.55 L 394.84 185.78 L 392.51 188.46 L 390.17 193.10 L 387.84 192.90 L 385.51 189.66 L 383.17 189.76 L 380.84 188.22 L 378.50 186.12 L 376.17 181.87 L 373.83 182.70 L 371.50 192.57 L 369.16 185.88 L 366.83 178.12 L 364.49 184.88 L 362.16 193.91 L 359.83 193.91 L 357.49 193.50 L 355.16 191.37 L 352.82 188.32 L 350.49 188.66 L 348.15 187.55 L 345.82 191.23 L 343.48 188.69 L 341.15 189.56 L 338.82 185.61 L 336.48 185.38 L 334.15 186.55 L 331.81 191.90 L 329.48 189.33 L 327.14 189.46 L 324.81 194.64 L 322.47 205.94 L 320.14 197.25 L 317.80 195.78 L 315.47 192.27 L 313.14 193.47 L 310.80 201.26 L 308.47 209.69 L 306.13 211.69 L 303.80 207.95 L 301.46 208.62 L 299.13 209.29 L 296.79 203.54 L 294.46 201.93 L 292.13 198.05 L 289.79 197.25 L 287.46 195.91 L 285.12 197.92 L 282.79 203.97 L 280.45 201.23 L 278.12 195.91 L 275.78 194.37 L 273.45 195.11 L 271.11 193.97 L 268.78 199.26 L 266.45 199.59 L 264.11 208.62 L 261.78 203.44 L 259.44 202.20 L 257.11 207.95 L 254.77 199.36 L 252.44 202.60 L 250.10 187.89 L 247.77 183.41 L 245.44 182.97 L 243.10 183.27 L 240.77 185.21 L 238.43 185.28 L 236.10 187.35 L 233.76 188.29 L 231.43 187.49 L 229.09 184.74 L 226.76 189.56 L 224.43 190.90 L 222.09 188.89 L 219.76 187.19 L 217.42 187.62 L 215.09 191.90 L 212.75 185.88 L 210.42 191.63 L 208.08 195.41 L 205.75 193.91 L 203.41 188.42 L 201.08 189.63 L 198.75 189.76 L 196.41 189.89 L 194.08 189.22 L 191.74 189.76 L 189.41 188.26 L 187.07 189.89 L 184.74 182.94 L 182.40 180.87 L 180.07 179.26 L 177.74 176.65 L 175.40 176.22 L 173.07 179.86 L 170.73 181.20 L 168.40 185.55 L 166.06 179.93 L 163.73 175.85 L 161.39 177.72 L 159.06 185.88 L 156.72 185.21 L 154.39 181.47 L 152.06 183.34 L 149.72 182.37 L 147.39 183.07 L 145.05 180.70 L 142.72 182.00 L 140.38 179.13 L 138.05 195.11 L 135.71 194.58 L 133.38 187.89 L 131.05 184.81 L 128.71 188.32 L 126.38 192.67 L 124.04 191.33 L 121.71 192.70 L 119.37 197.05 L 117.04 202.06 L 114.70 202.47 L 112.37 192.17 L 110.03 190.63 L 107.70 189.29 L 105.37 191.40 L 103.03 192.40 L 100.70 189.49 L 98.36 187.22 L 96.03 192.00 L 93.69 188.56 L 91.36 189.22 L 89.02 186.08 L 86.69 192.30 L 84.36 195.85 L 82.02 194.24 L 79.69 192.90 L 77.35 195.91 L 75.02 193.14 L 72.68 194.58 L 70.35 190.70 L 68.01 187.15 L 65.68 187.35 L 63.34 187.22 L 61.01 185.21 L 58.68 184.61 L 56.34 182.60 L 54.01 178.53 L 51.67 181.33 L 49.34 180.93 L 47.00 177.96 L 44.67 174.48 L 42.33 174.91 L 40.00 172.64 Z" fill="rgba(231,76,60,0.06)" stroke="none"/><path d="M 40.00 56.14 L 42.33 53.47 L 44.67 56.81 L 47.00 67.51 L 49.34 70.86 L 51.67 76.88 L 54.01 69.18 L 56.34 79.55 L 58.68 84.90 L 61.01 108.31 L 63.34 106.30 L 65.68 102.96 L 68.01 100.95 L 70.35 102.96 L 72.68 102.29 L 75.02 101.62 L 77.35 112.65 L 79.69 104.29 L 82.02 101.62 L 84.36 102.29 L 86.69 95.60 L 89.02 101.62 L 91.36 113.32 L 93.69 110.65 L 96.03 112.65 L 98.36 112.32 L 100.70 124.36 L 103.03 135.06 L 105.37 135.73 L 107.70 135.73 L 110.03 125.02 L 112.37 121.01 L 114.70 138.73 L 117.04 126.36 L 119.37 134.39 L 121.71 137.73 L 124.04 131.04 L 126.38 127.70 L 128.71 126.20 L 131.05 126.36 L 133.38 139.07 L 135.71 131.04 L 138.05 131.04 L 140.38 125.69 L 142.72 130.38 L 145.05 136.39 L 147.39 139.07 L 149.72 140.24 L 152.06 134.89 L 154.39 132.38 L 156.72 140.41 L 159.06 146.42 L 161.39 142.41 L 163.73 148.43 L 166.06 151.94 L 168.40 138.73 L 170.73 153.11 L 173.07 151.78 L 175.40 149.77 L 177.74 146.42 L 180.07 141.08 L 182.40 147.76 L 184.74 143.75 L 187.07 144.75 L 189.41 144.59 L 191.74 137.73 L 194.08 142.41 L 196.41 145.42 L 198.75 145.76 L 201.08 156.46 L 203.41 159.13 L 205.75 156.96 L 208.08 152.95 L 210.42 155.12 L 212.75 158.46 L 215.09 163.31 L 217.42 162.47 L 219.76 161.81 L 222.09 157.79 L 224.43 158.13 L 226.76 160.47 L 229.09 163.81 L 231.43 163.81 L 233.76 157.79 L 236.10 155.79 L 238.43 155.79 L 240.77 157.13 L 243.10 158.13 L 245.44 157.13 L 247.77 147.76 L 250.10 149.77 L 252.44 152.61 L 254.77 153.45 L 257.11 157.79 L 259.44 156.46 L 261.78 151.11 L 264.11 149.10 L 266.45 144.42 L 268.78 137.06 L 271.11 133.38 L 273.45 132.38 L 275.78 127.70 L 278.12 112.99 L 280.45 117.00 L 282.79 121.18 L 285.12 116.67 L 287.46 117.67 L 289.79 117.67 L 292.13 108.98 L 294.46 105.63 L 296.79 106.97 L 299.13 110.98 L 301.46 117.00 L 303.80 110.98 L 306.13 109.31 L 308.47 106.30 L 310.80 102.96 L 313.14 107.64 L 315.47 108.98 L 317.80 111.65 L 320.14 120.34 L 322.47 127.70 L 324.81 127.03 L 327.14 127.87 L 329.48 124.36 L 331.81 121.68 L 334.15 125.02 L 336.48 130.38 L 338.82 136.39 L 341.15 139.07 L 343.48 142.41 L 345.82 142.41 L 348.15 145.42 L 350.49 144.42 L 352.82 140.74 L 355.16 141.74 L 357.49 129.71 L 359.83 131.04 L 362.16 142.08 L 364.49 140.41 L 366.83 148.43 L 369.16 146.42 L 371.50 147.76 L 373.83 147.76 L 376.17 145.76 L 378.50 144.42 L 380.84 135.06 L 383.17 110.98 L 385.51 104.80 L 387.84 104.96 L 390.17 107.64 L 392.51 104.29 L 394.84 108.31 L 397.18 130.38 L 399.51 124.36 L 401.85 129.71 L 404.18 131.71 L 406.52 126.36 L 408.85 126.36 L 411.18 123.69 L 413.52 114.33 L 415.85 114.33 L 418.19 107.64 L 420.52 102.79 L 422.86 103.63 L 425.19 97.27 L 427.53 97.61 L 429.86 95.60 L 432.20 92.92 L 434.53 90.92 L 436.86 90.25 L 439.20 94.26 L 441.53 94.26 L 443.87 97.94 L 446.20 98.61 L 448.54 100.95 L 450.87 101.62 L 453.21 101.62 L 455.54 101.62 L 457.87 98.94 L 460.21 96.94 L 462.54 92.92 L 464.88 89.58 L 467.21 89.58 L 469.55 91.59 L 471.88 97.61 L 474.22 103.63 L 476.55 114.99 L 478.89 121.01 L 481.22 131.55 L 483.55 110.65 L 485.89 121.68 L 488.22 110.31 L 490.56 116.67 L 492.89 119.67 L 495.23 121.85 L 497.56 119.67 L 499.90 119.01 L 502.23 119.67 L 504.56 129.71 L 506.90 131.71 L 509.23 125.69 L 511.57 122.35 L 513.90 126.36 L 516.24 134.39 L 518.57 126.70 L 520.91 108.31 L 523.24 113.15 L 525.57 120.34 L 527.91 124.36 L 530.24 130.38 L 532.58 133.22 L 534.91 133.72 L 537.25 130.71 L 539.58 135.06 L 541.92 138.40 L 544.25 132.38 L 546.59 123.69 L 548.92 129.20 L 551.25 137.06 L 553.59 139.07 L 555.92 138.40 L 558.26 134.39 L 560.59 137.06 L 562.93 126.36 L 565.26 133.05 L 567.60 133.05 L 569.93 133.89 L 572.26 121.01 L 574.60 113.15 L 576.93 121.68 L 579.27 124.36 L 581.60 122.35 L 583.94 121.68 L 586.27 105.63 L 588.61 115.33 L 590.94 116.33 L 593.28 115.66 L 595.61 116.67 L 597.94 125.02 L 600.28 128.37 L 602.61 127.70 L 604.95 139.74 L 607.28 143.75 L 609.62 139.07 L 611.95 145.09 L 614.29 146.42 L 616.62 141.41 L 618.95 139.74 L 621.29 140.91 L 623.62 127.70 L 625.96 123.02 L 628.29 123.02 L 630.63 129.71 L 632.96 123.69 L 635.30 125.69 L 637.63 119.67 L 639.97 108.31 L 642.30 119.67 L 644.63 114.99 L 646.97 105.63 L 649.30 98.27 L 651.64 96.94 L 653.97 103.63 L 656.31 118.34 L 658.64 129.71 L 660.98 136.39 L 663.31 135.73 L 665.64 135.39 L 667.98 134.39 L 670.31 131.21 L 672.65 127.03 L 674.98 120.34 L 677.32 117.00 L 679.65 114.33 L 681.99 110.31 L 684.32 102.96 L 686.66 96.94 L 688.99 94.93 L 691.32 88.91 L 693.66 80.89 L 695.99 76.88 L 698.33 74.87 L 700.66 78.21 L 703.00 92.59 L 705.33 75.54 L 707.67 51.46 L 710.00 65.17 L 710.00 164.48 L 707.67 163.14 L 705.33 162.47 L 703.00 161.14 L 700.66 160.47 L 698.33 154.45 L 695.99 151.11 L 693.66 144.42 L 691.32 152.44 L 688.99 145.09 L 686.66 144.42 L 684.32 147.09 L 681.99 140.41 L 679.65 162.47 L 677.32 164.48 L 674.98 169.16 L 672.65 169.16 L 670.31 170.50 L 667.98 176.18 L 665.64 175.52 L 663.31 171.84 L 660.98 170.67 L 658.64 178.53 L 656.31 185.88 L 653.97 188.56 L 651.64 183.88 L 649.30 182.04 L 646.97 189.39 L 644.63 199.26 L 642.30 184.21 L 639.97 185.21 L 637.63 189.56 L 635.30 192.57 L 632.96 185.88 L 630.63 184.54 L 628.29 184.54 L 625.96 178.19 L 623.62 176.85 L 621.29 179.86 L 618.95 192.57 L 616.62 193.91 L 614.29 193.57 L 611.95 183.88 L 609.62 174.35 L 607.28 181.87 L 604.95 171.50 L 602.61 173.84 L 600.28 169.16 L 597.94 177.19 L 595.61 175.85 L 593.28 168.49 L 590.94 166.49 L 588.61 166.99 L 586.27 167.83 L 583.94 160.80 L 581.60 163.81 L 579.27 159.13 L 576.93 165.82 L 574.60 155.45 L 572.26 155.62 L 569.93 161.14 L 567.60 156.46 L 565.26 170.50 L 562.93 162.47 L 560.59 168.49 L 558.26 165.15 L 555.92 163.81 L 553.59 170.50 L 551.25 177.86 L 548.92 177.69 L 546.59 176.52 L 544.25 180.53 L 541.92 186.55 L 539.58 185.21 L 537.25 187.22 L 534.91 188.56 L 532.58 191.90 L 530.24 190.56 L 527.91 187.22 L 525.57 186.22 L 523.24 181.87 L 520.91 183.54 L 518.57 181.53 L 516.24 179.19 L 513.90 178.53 L 511.57 177.86 L 509.23 177.52 L 506.90 175.85 L 504.56 174.18 L 502.23 171.17 L 499.90 170.67 L 497.56 173.17 L 495.23 173.84 L 492.89 175.85 L 490.56 166.49 L 488.22 166.49 L 485.89 167.83 L 483.55 166.49 L 481.22 157.13 L 478.89 165.82 L 476.55 168.49 L 474.22 165.15 L 471.88 159.13 L 469.55 161.14 L 467.21 161.81 L 464.88 161.14 L 462.54 155.12 L 460.21 157.13 L 457.87 161.81 L 455.54 161.81 L 453.21 160.47 L 450.87 163.14 L 448.54 163.14 L 446.20 160.47 L 443.87 162.47 L 441.53 159.80 L 439.20 158.46 L 436.86 157.13 L 434.53 153.11 L 432.20 150.44 L 429.86 147.09 L 427.53 149.77 L 425.19 155.79 L 422.86 151.94 L 420.52 157.46 L 418.19 163.81 L 415.85 166.49 L 413.52 161.81 L 411.18 164.48 L 408.85 158.13 L 406.52 167.83 L 404.18 173.84 L 401.85 173.17 L 399.51 177.19 L 397.18 172.51 L 394.84 168.83 L 392.51 165.48 L 390.17 165.82 L 387.84 166.49 L 385.51 172.51 L 383.17 166.15 L 380.84 170.83 L 378.50 166.49 L 376.17 169.16 L 373.83 175.18 L 371.50 168.49 L 369.16 165.82 L 366.83 165.82 L 364.49 166.49 L 362.16 173.17 L 359.83 180.53 L 357.49 177.86 L 355.16 174.51 L 352.82 176.52 L 350.49 169.83 L 348.15 172.51 L 345.82 169.16 L 343.48 166.49 L 341.15 163.14 L 338.82 162.47 L 336.48 165.48 L 334.15 169.16 L 331.81 171.84 L 329.48 166.82 L 327.14 168.16 L 324.81 167.49 L 322.47 170.50 L 320.14 171.84 L 317.80 171.84 L 315.47 170.17 L 313.14 170.83 L 310.80 170.83 L 308.47 177.86 L 306.13 176.85 L 303.80 182.54 L 301.46 183.21 L 299.13 189.89 L 296.79 183.88 L 294.46 180.20 L 292.13 183.21 L 289.79 185.21 L 287.46 188.39 L 285.12 191.23 L 282.79 193.57 L 280.45 194.24 L 278.12 183.88 L 275.78 182.54 L 273.45 182.20 L 271.11 179.70 L 268.78 179.19 L 266.45 181.20 L 264.11 182.20 L 261.78 183.88 L 259.44 181.20 L 257.11 179.19 L 254.77 179.53 L 252.44 179.19 L 250.10 173.84 L 247.77 176.52 L 245.44 178.53 L 243.10 177.19 L 240.77 181.20 L 238.43 179.70 L 236.10 175.85 L 233.76 171.84 L 231.43 176.52 L 229.09 177.19 L 226.76 171.84 L 224.43 172.84 L 222.09 173.51 L 219.76 177.86 L 217.42 176.52 L 215.09 174.51 L 212.75 177.86 L 210.42 177.86 L 208.08 177.19 L 205.75 178.53 L 203.41 176.52 L 201.08 179.19 L 198.75 181.20 L 196.41 181.20 L 194.08 183.88 L 191.74 181.20 L 189.41 177.69 L 187.07 182.37 L 184.74 181.20 L 182.40 179.19 L 180.07 175.85 L 177.74 174.51 L 175.40 172.51 L 173.07 173.84 L 170.73 173.84 L 168.40 171.84 L 166.06 172.17 L 163.73 171.84 L 161.39 172.51 L 159.06 173.17 L 156.72 176.02 L 154.39 176.52 L 152.06 174.35 L 149.72 173.84 L 147.39 174.51 L 145.05 171.17 L 142.72 170.50 L 140.38 163.81 L 138.05 169.16 L 135.71 165.48 L 133.38 165.82 L 131.05 165.15 L 128.71 167.16 L 126.38 170.50 L 124.04 169.83 L 121.71 171.17 L 119.37 168.49 L 117.04 167.16 L 114.70 172.17 L 112.37 167.16 L 110.03 167.83 L 107.70 169.83 L 105.37 167.16 L 103.03 167.16 L 100.70 167.83 L 98.36 162.47 L 96.03 169.16 L 93.69 173.17 L 91.36 169.16 L 89.02 165.15 L 86.69 163.14 L 84.36 161.81 L 82.02 160.47 L 79.69 161.81 L 77.35 170.50 L 75.02 167.83 L 72.68 169.16 L 70.35 167.16 L 68.01 163.48 L 65.68 161.14 L 63.34 158.46 L 61.01 157.79 L 58.68 159.13 L 56.34 158.46 L 54.01 159.13 L 51.67 158.46 L 49.34 158.46 L 47.00 157.46 L 44.67 159.80 L 42.33 161.81 L 40.00 163.14 Z" fill="rgba(230,126,34,0.22)" stroke="none"/><path d="M 40.00 126.70 L 42.33 119.01 L 44.67 121.01 L 47.00 113.66 L 49.34 135.06 L 51.67 113.66 L 54.01 113.66 L 56.34 124.02 L 58.68 128.03 L 61.01 115.66 L 63.34 117.67 L 65.68 140.41 L 68.01 130.04 L 70.35 123.02 L 72.68 144.42 L 75.02 139.74 L 77.35 144.42 L 79.69 133.72 L 82.02 134.39 L 84.36 136.39 L 86.69 134.39 L 89.02 138.40 L 91.36 142.41 L 93.69 144.42 L 96.03 142.41 L 98.36 140.41 L 100.70 146.42 L 103.03 149.77 L 105.37 151.78 L 107.70 146.42 L 110.03 150.44 L 112.37 149.77 L 114.70 156.12 L 117.04 153.11 L 119.37 151.78 L 121.71 151.11 L 124.04 153.78 L 126.38 156.46 L 128.71 157.79 L 131.05 160.47 L 133.38 159.13 L 135.71 150.44 L 138.05 152.44 L 140.38 151.78 L 142.72 154.78 L 145.05 158.13 L 147.39 159.80 L 149.72 162.47 L 152.06 165.82 L 154.39 167.16 L 156.72 164.48 L 159.06 169.16 L 161.39 171.84 L 163.73 168.49 L 166.06 166.82 L 168.40 163.81 L 170.73 161.81 L 173.07 163.14 L 175.40 167.83 L 177.74 167.16 L 180.07 167.83 L 182.40 167.16 L 184.74 161.81 L 187.07 163.81 L 189.41 165.15 L 191.74 166.49 L 194.08 164.48 L 196.41 164.15 L 198.75 163.81 L 201.08 167.16 L 203.41 167.83 L 205.75 168.49 L 208.08 169.16 L 210.42 168.49 L 212.75 167.83 L 215.09 167.83 L 217.42 169.16 L 219.76 167.83 L 222.09 167.83 L 224.43 167.16 L 226.76 169.83 L 229.09 170.83 L 231.43 171.17 L 233.76 167.16 L 236.10 167.16 L 238.43 166.49 L 240.77 173.17 L 243.10 171.84 L 245.44 166.15 L 247.77 162.47 L 250.10 161.81 L 252.44 162.81 L 254.77 166.15 L 257.11 169.50 L 259.44 167.83 L 261.78 165.48 L 264.11 170.50 L 266.45 175.18 L 268.78 173.17 L 271.11 153.78 L 273.45 163.48 L 275.78 165.15 L 278.12 149.77 L 280.45 143.08 L 282.79 168.49 L 285.12 169.83 L 287.46 145.76 L 289.79 147.09 L 292.13 152.11 L 294.46 155.12 L 296.79 149.10 L 299.13 139.74 L 301.46 146.42 L 303.80 154.45 L 306.13 140.41 L 308.47 153.11 L 310.80 144.42 L 313.14 149.10 L 315.47 151.11 L 317.80 146.42 L 320.14 149.77 L 322.47 165.15 L 324.81 156.46 L 327.14 156.79 L 329.48 154.78 L 331.81 155.45 L 334.15 153.11 L 336.48 154.12 L 338.82 145.76 L 341.15 158.46 L 343.48 159.80 L 345.82 155.12 L 348.15 150.44 L 350.49 157.13 L 352.82 155.79 L 355.16 154.45 L 357.49 150.77 L 359.83 155.79 L 362.16 158.46 L 364.49 150.44 L 366.83 152.44 L 369.16 157.79 L 371.50 158.46 L 373.83 160.80 L 376.17 161.81 L 378.50 161.14 L 380.84 163.81 L 383.17 155.79 L 385.51 158.46 L 387.84 157.79 L 390.17 157.13 L 392.51 151.78 L 394.84 153.11 L 397.18 159.13 L 399.51 155.12 L 401.85 152.78 L 404.18 133.72 L 406.52 153.78 L 408.85 141.74 L 411.18 136.39 L 413.52 129.04 L 415.85 131.04 L 418.19 127.70 L 420.52 124.36 L 422.86 126.03 L 425.19 124.36 L 427.53 122.35 L 429.86 119.67 L 432.20 118.34 L 434.53 112.65 L 436.86 111.65 L 439.20 102.96 L 441.53 105.63 L 443.87 117.67 L 446.20 112.99 L 448.54 113.66 L 450.87 108.98 L 453.21 111.65 L 455.54 114.33 L 457.87 117.00 L 460.21 119.01 L 462.54 119.01 L 464.88 129.04 L 467.21 128.37 L 469.55 130.38 L 471.88 132.72 L 474.22 136.39 L 476.55 123.02 L 478.89 132.72 L 481.22 140.74 L 483.55 131.71 L 485.89 134.39 L 488.22 137.73 L 490.56 149.43 L 492.89 154.45 L 495.23 159.13 L 497.56 166.49 L 499.90 158.46 L 502.23 154.45 L 504.56 162.47 L 506.90 164.48 L 509.23 155.79 L 511.57 151.78 L 513.90 164.48 L 516.24 165.15 L 518.57 166.49 L 520.91 168.49 L 523.24 169.16 L 525.57 168.49 L 527.91 168.49 L 530.24 171.17 L 532.58 172.51 L 534.91 158.46 L 537.25 150.44 L 539.58 160.13 L 541.92 153.78 L 544.25 155.12 L 546.59 146.42 L 548.92 146.42 L 551.25 165.82 L 553.59 157.79 L 555.92 156.46 L 558.26 154.45 L 560.59 147.09 L 562.93 147.76 L 565.26 141.08 L 567.60 141.08 L 569.93 145.09 L 572.26 146.76 L 574.60 149.77 L 576.93 152.44 L 579.27 146.42 L 581.60 150.44 L 583.94 141.74 L 586.27 132.38 L 588.61 140.41 L 590.94 145.42 L 593.28 143.08 L 595.61 146.76 L 597.94 155.12 L 600.28 161.14 L 602.61 155.12 L 604.95 155.79 L 607.28 158.13 L 609.62 159.13 L 611.95 162.14 L 614.29 163.81 L 616.62 161.14 L 618.95 152.44 L 621.29 159.47 L 623.62 151.78 L 625.96 151.11 L 628.29 157.13 L 630.63 170.50 L 632.96 162.47 L 635.30 166.49 L 637.63 159.13 L 639.97 154.45 L 642.30 153.78 L 644.63 155.12 L 646.97 154.45 L 649.30 154.45 L 651.64 155.12 L 653.97 164.48 L 656.31 161.14 L 658.64 159.80 L 660.98 154.45 L 663.31 153.11 L 665.64 161.14 L 667.98 153.78 L 670.31 148.77 L 672.65 151.78 L 674.98 142.08 L 677.32 134.39 L 679.65 136.39 L 681.99 131.04 L 684.32 125.69 L 686.66 127.70 L 688.99 128.37 L 691.32 124.02 L 693.66 117.67 L 695.99 116.00 L 698.33 119.67 L 700.66 118.34 L 703.00 124.36 L 705.33 127.70 L 707.67 129.04 L 710.00 128.03" fill="none" stroke="#2c3e50" stroke-width="2"/></svg>