<?xml version="1.0"?><svg viewBox="0 0 720 260" width="100%" height="260" xmlns="http://www.w3.org/2000/svg"><rect width="100%" height="100%" fill="#fff"/><line x1="40" y1="210.625" x2="710" y2="210.625" stroke="#eee"/><text x="32" y="214.625" text-anchor="end" font-size="10" fill="#666" font-family="system-ui,Arial">60</text><line x1="40" y1="183.875" x2="710" y2="183.875" stroke="#eee"/><text x="32" y="187.875" text-anchor="end" font-size="10" fill="#666" font-family="system-ui,Arial">100</text><line x1="40" y1="157.125" x2="710" y2="157.125" stroke="#eee"/><text x="32" y="161.125" text-anchor="end" font-size="10" fill="#666" font-family="system-ui,Arial">140</text><line x1="40" y1="130.375" x2="710" y2="130.375" stroke="#eee"/><text x="32" y="134.375" text-anchor="end" font-size="10" fill="#666" font-family="system-ui,Arial">180</text><line x1="40" y1="103.625" x2="710" y2="103.625" stroke="#eee"/><text x="32" y="107.625" text-anchor="end" font-size="10" fill="#666" font-family="system-ui,Arial">220</text><line x1="40" y1="76.875" x2="710" y2="76.875" stroke="#eee"/><text x="32" y="80.875" text-anchor="end" font-size="10" fill="#666" font-family="system-ui,Arial">260</text><line x1="40" y1="50.125" x2="710" y2="50.125" stroke="#eee"/><text x="32" y="54.125" text-anchor="end" font-size="10" fill="#666" font-family="system-ui,Arial">300</text><line x1="40" y1="23.375" x2="710" y2="23.375" stroke="#eee"/><text x="32" y="27.375" text-anchor="end" font-size="10" fill="#666" font-family="system-ui,Arial">340</text><line x1="208.0836236933798" y1="10" x2="208.0836236933798" y2="224" stroke="#eee"/><text x="208.0836236933798" y="238" text-anchor="middle" font-size="10" fill="#666" font-family="system-ui,Arial">6</text><line x1="292.1254355400697" y1="10" x2="292.1254355400697" y2="224" stroke="#eee"/><text x="292.1254355400697" y="238" text-anchor="middle" font-size="10" fill="#666" font-family="system-ui,Arial">9</text><line x1="376.1672473867596" y1="10" x2="376.1672473867596" y2="224" stroke="#eee"/><text x="376.1672473867596" y="238" text-anchor="middle" font-size="10" fill="#666" font-family="system-ui,Arial">12</text><line x1="460.20905923344947" y1="10" x2="460.20905923344947" y2="224" stroke="#eee"/><text x="460.20905923344947" y="238" text-anchor="middle" font-size="10" fill="#666" font-family="system-ui,Arial">15</text><line x1="544.2508710801394" y1="10" x2="544.2508710801394" y2="224" stroke="#eee"/><text x="544.2508710801394" y="238" text-anchor="middle" font-size="10" fill="#666" font-family="system-ui,Arial">18</text><line x1="628.2926829268292" y1="10" x2="628.2926829268292" y2="224" stroke="#eee"/><text x="628.2926829268292" y="238" text-anchor="middle" font-size="10" fill="#666" font-family="system-ui,Arial">21</text><rect x="40" y="130.375" width="670" height="73.5625" fill="rgba(39,174,96,0.07)"/><path d="M 40.00 13.95 L 42.33 14.25 L 44.67 10.00 L 47.00 10.00 L 49.34 12.41 L 51.67 17.56 L 54.01 14.85 L 56.34 10.00 L 58.68 15.08 L 61.01 16.42 L 63.34 17.49 L 65.68 18.83 L 68.01 28.09 L 70.35 24.71 L 72.68 24.18 L 75.02 18.36 L 77.35 32.74 L 79.69 31.40 L 82.02 15.78 L 84.36 14.85 L 86.69 14.85 L 89.02 18.59 L 91.36 34.08 L 93.69 32.07 L 96.03 77.54 L 98.36 88.65 L 100.70 92.89 L 103.03 90.25 L 105.37 88.41 L 107.70 99.41 L 110.03 98.21 L 112.37 88.24 L 114.70 111.55 L 117.04 106.97 L 119.37 114.39 L 121.71 122.62 L 124.04 46.15 L 126.38 29.83 L 128.71 38.62 L 131.05 26.05 L 133.38 42.84 L 135.71 34.11 L 138.05 34.71 L 140.38 17.76 L 142.72 28.99 L 145.05 22.81 L 147.39 29.80 L 149.72 35.91 L 152.06 33.51 L 154.39 32.60 L 156.72 55.84 L 159.06 29.53 L 161.39 30.30 L 163.73 33.34 L 166.06 59.49 L 168.40 58.15 L 170.73 10.00 L 173.07 10.00 L 175.40 45.18 L 177.74 50.53 L 180.07 12.67 L 182.40 78.88 L 184.74 62.26 L 187.07 74.07 L 189.41 68.25 L 191.74 63.37 L 194.08 62.63 L 196.41 77.31 L 198.75 75.54 L 201.08 76.31 L 203.41 85.70 L 205.75 111.28 L 208.08 93.46 L 210.42 92.66 L 212.75 104.83 L 215.09 104.46 L 217.42 104.29 L 219.76 101.38 L 222.09 114.33 L 224.43 93.59 L 226.76 96.27 L 229.09 101.62 L 231.43 126.70 L 233.76 119.01 L 236.10 131.31 L 238.43 134.72 L 240.77 136.39 L 243.10 140.67 L 245.44 142.41 L 247.77 143.45 L 250.10 135.86 L 252.44 130.78 L 254.77 127.57 L 257.11 126.03 L 259.44 110.98 L 261.78 124.89 L 264.11 118.34 L 266.45 100.95 L 268.78 103.96 L 271.11 95.50 L 273.45 91.59 L 275.78 83.93 L 278.12 73.40 L 280.45 73.53 L 282.79 68.42 L 285.12 55.81 L 287.46 61.86 L 289.79 57.15 L 292.13 55.88 L 294.46 62.16 L 296.79 59.76 L 299.13 54.81 L 301.46 60.52 L 303.80 65.17 L 306.13 64.17 L 308.47 69.79 L 310.80 75.87 L 313.14 79.05 L 315.47 81.42 L 317.80 86.10 L 320.14 86.37 L 322.47 89.75 L 324.81 85.57 L 327.14 95.73 L 329.48 101.89 L 331.81 103.39 L 334.15 106.57 L 336.48 106.97 L 338.82 109.64 L 341.15 108.31 L 343.48 110.78 L 345.82 108.98 L 348.15 111.65 L 350.49 112.32 L 352.82 113.69 L 355.16 107.24 L 357.49 97.21 L 359.83 94.00 L 362.16 92.32 L 364.49 92.92 L 366.83 107.50 L 369.16 109.11 L 371.50 98.94 L 373.83 113.59 L 376.17 99.61 L 378.50 107.04 L 380.84 83.56 L 383.17 91.59 L 385.51 74.20 L 387.84 70.42 L 390.17 64.57 L 392.51 56.81 L 394.84 64.04 L 397.18 64.04 L 399.51 61.43 L 401.85 60.83 L 404.18 42.10 L 406.52 57.08 L 408.85 62.13 L 411.18 50.43 L 413.52 28.73 L 415.85 43.44 L 418.19 43.77 L 420.52 23.38 L 422.86 45.38 L 425.19 42.10 L 427.53 33.81 L 429.86 35.41 L 432.20 31.80 L 434.53 29.13 L 436.86 30.56 L 439.20 33.54 L 441.53 26.32 L 443.87 30.06 L 446.20 31.73 L 448.54 24.04 L 450.87 27.55 L 453.21 22.31 L 455.54 23.38 L 457.87 20.30 L 460.21 20.57 L 462.54 24.38 L 464.88 22.71 L 467.21 16.42 L 469.55 16.99 L 471.88 10.00 L 474.22 15.22 L 476.55 28.89 L 478.89 21.24 L 481.22 42.07 L 483.55 60.62 L 485.89 73.53 L 488.22 85.00 L 490.56 84.77 L 492.89 76.74 L 495.23 75.14 L 497.56 54.14 L 499.90 78.55 L 502.23 65.00 L 504.56 65.24 L 506.90 72.86 L 509.23 61.66 L 511.57 60.02 L 513.90 66.17 L 516.24 56.95 L 518.57 58.02 L 520.91 65.61 L 523.24 39.42 L 525.57 56.81 L 527.91 85.97 L 530.24 98.41 L 532.58 105.77 L 534.91 107.10 L 537.25 98.27 L 539.58 101.62 L 541.92 103.63 L 544.25 99.61 L 546.59 96.94 L 548.92 103.66 L 551.25 97.77 L 553.59 88.24 L 555.92 90.65 L 558.26 84.23 L 560.59 97.47 L 562.93 107.80 L 565.26 96.94 L 567.60 89.45 L 569.93 85.94 L 572.26 81.02 L 574.60 72.86 L 576.93 86.84 L 579.27 87.24 L 581.60 84.90 L 583.94 89.58 L 586.27 90.92 L 588.61 91.82 L 590.94 91.25 L 593.28 94.70 L 595.61 86.24 L 597.94 76.88 L 600.28 73.87 L 602.61 69.18 L 604.95 68.18 L 607.28 73.87 L 609.62 78.61 L 611.95 73.93 L 614.29 71.53 L 616.62 62.96 L 618.95 46.78 L 621.29 52.67 L 623.62 29.39 L 625.96 36.15 L 628.29 31.27 L 630.63 25.38 L 632.96 15.55 L 635.30 16.96 L 637.63 24.14 L 639.97 35.08 L 642.30 32.74 L 644.63 27.99 L 646.97 27.99 L 649.30 39.39 L 651.64 37.75 L 653.97 22.10 L 656.31 40.26 L 658.64 21.50 L 660.98 25.08 L 663.31 19.66 L 665.64 23.38 L 667.98 23.27 L 670.31 20.43 L 672.65 14.15 L 674.98 23.27 L 677.32 22.04 L 679.65 24.48 L 681.99 21.17 L 684.32 11.10 L 686.66 24.45 L 688.99 16.35 L 691.32 14.55 L 693.66 13.64 L 695.99 10.00 L 698.33 13.34 L 700.66 10.00 L 703.00 10.03 L 705.33 13.01 L 707.67 15.02 L 710.00 13.34 L 710.00 175.25 L 707.67 175.52 L 705.33 174.51 L 703.00 175.85 L 700.66 172.77 L 698.33 173.17 L 695.99 180.73 L 693.66 180.53 L 691.32 182.54 L 688.99 182.94 L 686.66 183.57 L 684.32 188.02 L 681.99 187.39 L 679.65 188.99 L 677.32 191.77 L 674.98 191.03 L 672.65 194.61 L 670.31 197.25 L 667.98 195.61 L 665.64 192.57 L 663.31 196.25 L 660.98 197.85 L 658.64 196.05 L 656.31 199.29 L 653.97 204.51 L 651.64 210.29 L 649.30 213.90 L 646.97 210.52 L 644.63 213.90 L 642.30 209.29 L 639.97 207.95 L 637.63 203.47 L 635.30 195.24 L 632.96 192.03 L 630.63 191.57 L 628.29 191.23 L 625.96 187.85 L 623.62 193.91 L 621.29 191.37 L 618.95 200.59 L 616.62 201.26 L 614.29 199.26 L 611.95 201.93 L 609.62 200.06 L 607.28 196.25 L 604.95 187.89 L 602.61 184.54 L 600.28 185.88 L 597.94 195.91 L 595.61 206.61 L 593.28 208.62 L 590.94 194.58 L 588.61 192.97 L 586.27 194.58 L 583.94 177.66 L 581.60 178.53 L 579.27 184.54 L 576.93 180.63 L 574.60 186.55 L 572.26 195.38 L 569.93 199.36 L 567.60 195.38 L 565.26 194.98 L 562.93 194.74 L 560.59 194.84 L 558.26 190.03 L 555.92 189.89 L 553.59 191.83 L 551.25 198.59 L 548.92 194.21 L 546.59 198.12 L 544.25 206.85 L 541.92 210.29 L 539.58 212.63 L 537.25 204.27 L 534.91 208.08 L 532.58 206.61 L 530.24 196.31 L 527.91 203.27 L 525.57 197.92 L 523.24 202.60 L 520.91 204.44 L 518.57 202.87 L 516.24 201.80 L 513.90 209.29 L 511.57 204.87 L 509.23 198.09 L 506.90 191.90 L 504.56 189.22 L 502.23 192.87 L 499.90 200.59 L 497.56 200.93 L 495.23 202.73 L 492.89 199.66 L 490.56 191.77 L 488.22 186.35 L 485.89 188.19 L 483.55 182.10 L 481.22 180.90 L 478.89 179.19 L 476.55 177.49 L 474.22 181.73 L 471.88 184.54 L 469.55 179.63 L 467.21 176.52 L 464.88 174.51 L 462.54 176.85 L 460.21 175.72 L 457.87 177.86 L 455.54 173.84 L 453.21 172.37 L 450.87 171.07 L 448.54 176.52 L 446.20 171.50 L 443.87 173.84 L 441.53 175.58 L 439.20 174.11 L 436.86 180.53 L 434.53 183.88 L 432.20 183.07 L 429.86 187.75 L 427.53 193.37 L 425.19 189.56 L 422.86 189.06 L 420.52 185.68 L 418.19 177.19 L 415.85 173.68 L 413.52 171.84 L 411.18 176.79 L 408.85 187.82 L 406.52 194.71 L 404.18 190.56 L 401.85 191.23 L 399.51 192.64 L 397.18 187.49 L 394.84 185.78 L 392.51 188.89 L 390.17 193.37 L 387.84 193.20 L 385.51 189.66 L 383.17 190.30 L 380.84 188.22 L 378.50 186.12 L 376.17 181.53 L 373.83 182.70 L 371.50 192.57 L 369.16 185.88 L 366.83 178.26 L 364.49 184.88 L 362.16 193.91 L 359.83 193.91 L 357.49 192.97 L 355.16 191.10 L 352.82 188.32 L 350.49 188.42 L 348.15 187.55 L 345.82 191.23 L 343.48 189.09 L 341.15 190.26 L 338.82 184.54 L 336.48 186.55 L 334.15 186.55 L 331.81 188.62 L 329.48 189.33 L 327.14 190.70 L 324.81 195.54 L 322.47 205.94 L 320.14 197.25 L 317.80 195.78 L 315.47 193.64 L 313.14 193.47 L 310.80 201.26 L 308.47 209.69 L 306.13 211.69 L 303.80 207.95 L 301.46 209.62 L 299.13 209.29 L 296.79 203.54 L 294.46 201.93 L 292.13 198.05 L 289.79 197.25 L 287.46 195.91 L 285.12 197.92 L 282.79 203.97 L 280.45 200.93 L 278.12 190.03 L 275.78 187.42 L 273.45 186.82 L 271.11 184.08 L 268.78 182.20 L 266.45 186.32 L 264.11 185.68 L 261.78 190.46 L 259.44 186.55 L 257.11 189.89 L 254.77 185.11 L 252.44 184.14 L 250.10 181.33 L 247.77 178.46 L 245.44 182.07 L 243.10 183.34 L 240.77 185.35 L 238.43 185.28 L 236.10 187.35 L 233.76 188.29 L 231.43 187.49 L 229.09 184.74 L 226.76 189.59 L 224.43 190.53 L 222.09 188.89 L 219.76 187.19 L 217.42 188.96 L 215.09 191.90 L 212.75 186.48 L 210.42 192.70 L 208.08 195.41 L 205.75 193.91 L 203.41 188.42 L 201.08 189.83 L 198.75 189.76 L 196.41 189.89 L 194.08 189.22 L 191.74 189.76 L 189.41 188.26 L 187.07 189.89 L 184.74 182.97 L 182.40 180.87 L 180.07 179.26 L 177.74 176.65 L 175.40 176.25 L 173.07 179.86 L 170.73 181.20 L 168.40 185.55 L 166.06 179.86 L 163.73 176.02 L 161.39 177.82 L 159.06 185.88 L 156.72 185.21 L 154.39 181.33 L 152.06 183.34 L 149.72 182.37 L 147.39 183.07 L 145.05 180.70 L 142.72 182.14 L 140.38 179.13 L 138.05 195.11 L 135.71 195.24 L 133.38 187.75 L 131.05 184.81 L 128.71 188.32 L 126.38 192.67 L 124.04 191.33 L 121.71 192.70 L 119.37 197.05 L 117.04 202.06 L 114.70 202.47 L 112.37 195.04 L 110.03 195.31 L 107.70 191.20 L 105.37 191.40 L 103.03 192.40 L 100.70 191.83 L 98.36 192.57 L 96.03 196.45 L 93.69 195.24 L 91.36 190.23 L 89.02 191.00 L 86.69 194.71 L 84.36 196.31 L 82.02 195.64 L 79.69 195.24 L 77.35 195.91 L 75.02 195.01 L 72.68 194.58 L 70.35 191.77 L 68.01 188.96 L 65.68 187.62 L 63.34 187.75 L 61.01 187.09 L 58.68 185.21 L 56.34 184.01 L 54.01 181.33 L 51.67 183.77 L 49.34 183.34 L 47.00 180.80 L 44.67 177.79 L 42.33 177.86 L 40.00 174.58 Z" fill="rgba(231,76,60,0.06)" stroke="none"/><path d="M 40.00 91.59 L 42.33 92.92 L 44.67 92.92 L 47.00 96.94 L 49.34 93.59 L 51.67 97.27 L 54.01 90.25 L 56.34 100.28 L 58.68 108.31 L 61.01 108.31 L 63.34 106.30 L 65.68 102.96 L 68.01 100.95 L 70.35 102.96 L 72.68 102.29 L 75.02 101.62 L 77.35 112.65 L 79.69 104.29 L 82.02 101.62 L 84.36 102.29 L 86.69 100.95 L 89.02 101.62 L 91.36 117.00 L 93.69 116.67 L 96.03 122.68 L 98.36 112.32 L 100.70 132.38 L 103.03 135.06 L 105.37 135.73 L 107.70 140.41 L 110.03 144.42 L 112.37 131.38 L 114.70 145.25 L 117.04 139.07 L 119.37 139.07 L 121.71 142.41 L 124.04 133.72 L 126.38 135.73 L 128.71 141.74 L 131.05 143.75 L 133.38 147.93 L 135.71 149.10 L 138.05 143.08 L 140.38 133.05 L 142.72 142.41 L 145.05 145.09 L 147.39 147.09 L 149.72 145.76 L 152.06 150.27 L 154.39 152.61 L 156.72 152.44 L 159.06 153.11 L 161.39 155.12 L 163.73 156.46 L 166.06 162.14 L 168.40 155.79 L 170.73 157.79 L 173.07 154.45 L 175.40 155.79 L 177.74 156.46 L 180.07 156.46 L 182.40 155.12 L 184.74 154.45 L 187.07 155.29 L 189.41 154.28 L 191.74 151.11 L 194.08 156.46 L 196.41 156.46 L 198.75 153.11 L 201.08 163.81 L 203.41 167.16 L 205.75 167.16 L 208.08 160.47 L 210.42 158.46 L 212.75 158.46 L 215.09 163.81 L 217.42 163.81 L 219.76 161.81 L 222.09 164.48 L 224.43 160.64 L 226.76 160.47 L 229.09 163.81 L 231.43 163.81 L 233.76 157.79 L 236.10 155.79 L 238.43 155.79 L 240.77 156.46 L 243.10 157.79 L 245.44 157.13 L 247.77 147.76 L 250.10 149.77 L 252.44 151.11 L 254.77 153.45 L 257.11 157.79 L 259.44 156.46 L 261.78 151.11 L 264.11 149.10 L 266.45 144.42 L 268.78 137.06 L 271.11 133.38 L 273.45 132.38 L 275.78 127.70 L 278.12 112.99 L 280.45 117.00 L 282.79 121.18 L 285.12 115.66 L 287.46 117.67 L 289.79 117.67 L 292.13 108.98 L 294.46 105.63 L 296.79 106.97 L 299.13 110.98 L 301.46 117.00 L 303.80 110.98 L 306.13 109.31 L 308.47 106.30 L 310.80 102.96 L 313.14 107.64 L 315.47 108.98 L 317.80 111.65 L 320.14 120.34 L 322.47 122.18 L 324.81 127.03 L 327.14 125.69 L 329.48 124.36 L 331.81 121.68 L 334.15 125.02 L 336.48 130.38 L 338.82 136.39 L 341.15 139.07 L 343.48 138.40 L 345.82 140.07 L 348.15 141.08 L 350.49 139.74 L 352.82 138.73 L 355.16 133.72 L 357.49 129.71 L 359.83 127.70 L 362.16 132.38 L 364.49 126.36 L 366.83 128.37 L 369.16 135.73 L 371.50 145.76 L 373.83 145.09 L 376.17 145.76 L 378.50 144.42 L 380.84 135.06 L 383.17 110.98 L 385.51 104.80 L 387.84 104.96 L 390.17 107.64 L 392.51 104.29 L 394.84 108.31 L 397.18 124.69 L 399.51 124.36 L 401.85 110.31 L 404.18 100.95 L 406.52 97.61 L 408.85 120.01 L 411.18 120.34 L 413.52 111.65 L 415.85 107.64 L 418.19 104.29 L 420.52 98.61 L 422.86 99.61 L 425.19 94.26 L 427.53 97.61 L 429.86 92.92 L 432.20 91.59 L 434.53 90.92 L 436.86 89.41 L 439.20 94.26 L 441.53 90.92 L 443.87 93.59 L 446.20 91.25 L 448.54 90.25 L 450.87 71.53 L 453.21 64.84 L 455.54 64.17 L 457.87 67.51 L 460.21 73.53 L 462.54 80.22 L 464.88 86.24 L 467.21 84.23 L 469.55 82.23 L 471.88 78.21 L 474.22 76.21 L 476.55 80.89 L 478.89 79.55 L 481.22 121.01 L 483.55 102.29 L 485.89 110.31 L 488.22 108.31 L 490.56 96.94 L 492.89 97.61 L 495.23 111.65 L 497.56 113.66 L 499.90 117.33 L 502.23 118.34 L 504.56 122.35 L 506.90 121.68 L 509.23 122.35 L 511.57 117.00 L 513.90 110.31 L 516.24 109.64 L 518.57 108.98 L 520.91 108.31 L 523.24 109.98 L 525.57 120.34 L 527.91 124.36 L 530.24 130.38 L 532.58 133.22 L 534.91 133.72 L 537.25 130.71 L 539.58 135.06 L 541.92 138.40 L 544.25 133.05 L 546.59 130.38 L 548.92 131.71 L 551.25 138.90 L 553.59 139.07 L 555.92 138.40 L 558.26 134.39 L 560.59 137.06 L 562.93 126.36 L 565.26 137.06 L 567.60 135.06 L 569.93 139.07 L 572.26 135.73 L 574.60 133.72 L 576.93 130.38 L 579.27 133.05 L 581.60 128.37 L 583.94 123.69 L 586.27 121.01 L 588.61 125.19 L 590.94 121.68 L 593.28 118.17 L 595.61 126.36 L 597.94 125.02 L 600.28 131.04 L 602.61 134.05 L 604.95 134.39 L 607.28 129.71 L 609.62 136.73 L 611.95 130.38 L 614.29 137.40 L 616.62 124.36 L 618.95 127.03 L 621.29 122.35 L 623.62 110.31 L 625.96 118.00 L 628.29 117.67 L 630.63 127.03 L 632.96 111.82 L 635.30 112.32 L 637.63 109.64 L 639.97 108.31 L 642.30 112.99 L 644.63 113.99 L 646.97 105.63 L 649.30 98.27 L 651.64 96.94 L 653.97 103.63 L 656.31 111.65 L 658.64 112.32 L 660.98 120.51 L 663.31 112.32 L 665.64 108.98 L 667.98 117.67 L 670.31 114.99 L 672.65 120.34 L 674.98 120.34 L 677.32 117.00 L 679.65 114.33 L 681.99 111.15 L 684.32 102.96 L 686.66 96.94 L 688.99 94.93 L 691.32 88.91 L 693.66 80.89 L 695.99 76.88 L 698.33 74.87 L 700.66 78.21 L 703.00 96.60 L 705.33 90.25 L 707.67 100.62 L 710.00 90.25 L 710.00 165.15 L 707.67 164.48 L 705.33 164.48 L 703.00 165.82 L 700.66 164.48 L 698.33 163.14 L 695.99 162.47 L 693.66 159.13 L 691.32 159.13 L 688.99 149.10 L 686.66 147.76 L 684.32 147.09 L 681.99 140.41 L 679.65 151.78 L 677.32 161.81 L 674.98 156.46 L 672.65 169.16 L 670.31 168.49 L 667.98 167.16 L 665.64 163.81 L 663.31 163.81 L 660.98 163.98 L 658.64 163.14 L 656.31 165.82 L 653.97 170.50 L 651.64 173.51 L 649.30 166.49 L 646.97 179.86 L 644.63 184.54 L 642.30 177.19 L 639.97 173.17 L 637.63 179.19 L 635.30 173.84 L 632.96 177.52 L 630.63 183.21 L 628.29 182.54 L 625.96 172.00 L 623.62 168.66 L 621.29 175.85 L 618.95 168.49 L 616.62 177.86 L 614.29 193.57 L 611.95 188.56 L 609.62 174.35 L 607.28 181.87 L 604.95 171.50 L 602.61 173.84 L 600.28 169.16 L 597.94 177.19 L 595.61 175.85 L 593.28 168.49 L 590.94 166.49 L 588.61 166.99 L 586.27 167.83 L 583.94 167.49 L 581.60 166.49 L 579.27 167.16 L 576.93 169.83 L 574.60 168.49 L 572.26 167.16 L 569.93 170.50 L 567.60 171.17 L 565.26 171.17 L 562.93 168.49 L 560.59 174.51 L 558.26 166.49 L 555.92 171.84 L 553.59 169.16 L 551.25 177.86 L 548.92 177.69 L 546.59 177.02 L 544.25 180.53 L 541.92 186.55 L 539.58 185.21 L 537.25 187.22 L 534.91 188.56 L 532.58 191.90 L 530.24 190.56 L 527.91 187.22 L 525.57 186.22 L 523.24 182.54 L 520.91 187.39 L 518.57 182.54 L 516.24 179.19 L 513.90 178.53 L 511.57 177.86 L 509.23 177.52 L 506.90 175.85 L 504.56 174.51 L 502.23 170.50 L 499.90 171.50 L 497.56 173.84 L 495.23 169.16 L 492.89 164.48 L 490.56 156.46 L 488.22 149.77 L 485.89 154.62 L 483.55 151.11 L 481.22 147.09 L 478.89 148.43 L 476.55 145.76 L 474.22 150.44 L 471.88 158.46 L 469.55 161.14 L 467.21 157.79 L 464.88 153.11 L 462.54 151.11 L 460.21 155.12 L 457.87 156.46 L 455.54 158.46 L 453.21 156.46 L 450.87 163.14 L 448.54 163.14 L 446.20 157.79 L 443.87 162.14 L 441.53 159.80 L 439.20 153.78 L 436.86 147.09 L 434.53 141.08 L 432.20 136.39 L 429.86 128.37 L 427.53 128.37 L 425.19 131.04 L 422.86 132.72 L 420.52 144.25 L 418.19 163.81 L 415.85 166.49 L 413.52 152.44 L 411.18 154.12 L 408.85 155.79 L 406.52 167.83 L 404.18 173.84 L 401.85 173.17 L 399.51 177.19 L 397.18 172.51 L 394.84 168.83 L 392.51 166.49 L 390.17 165.82 L 387.84 166.82 L 385.51 172.51 L 383.17 167.16 L 380.84 170.83 L 378.50 166.49 L 376.17 169.16 L 373.83 175.18 L 371.50 168.49 L 369.16 165.82 L 366.83 165.82 L 364.49 166.49 L 362.16 173.17 L 359.83 180.53 L 357.49 177.86 L 355.16 173.17 L 352.82 176.52 L 350.49 169.83 L 348.15 172.51 L 345.82 169.16 L 343.48 164.48 L 341.15 161.30 L 338.82 161.81 L 336.48 165.82 L 334.15 163.14 L 331.81 159.80 L 329.48 161.81 L 327.14 169.16 L 324.81 167.66 L 322.47 170.50 L 320.14 171.84 L 317.80 171.84 L 315.47 170.50 L 313.14 170.83 L 310.80 170.83 L 308.47 177.86 L 306.13 176.85 L 303.80 182.54 L 301.46 183.21 L 299.13 189.89 L 296.79 183.88 L 294.46 177.52 L 292.13 183.21 L 289.79 185.21 L 287.46 187.89 L 285.12 190.90 L 282.79 191.90 L 280.45 191.90 L 278.12 181.20 L 275.78 182.54 L 273.45 181.03 L 271.11 178.86 L 268.78 177.86 L 266.45 178.19 L 264.11 180.53 L 261.78 176.52 L 259.44 177.69 L 257.11 177.19 L 254.77 173.51 L 252.44 179.19 L 250.10 173.84 L 247.77 175.01 L 245.44 174.51 L 243.10 176.52 L 240.77 181.20 L 238.43 178.86 L 236.10 175.85 L 233.76 175.18 L 231.43 176.52 L 229.09 177.19 L 226.76 171.84 L 224.43 172.84 L 222.09 175.18 L 219.76 177.86 L 217.42 179.86 L 215.09 181.20 L 212.75 177.86 L 210.42 177.86 L 208.08 177.19 L 205.75 178.53 L 203.41 176.52 L 201.08 179.19 L 198.75 181.20 L 196.41 181.20 L 194.08 183.88 L 191.74 181.20 L 189.41 177.69 L 187.07 182.37 L 184.74 181.20 L 182.40 179.19 L 180.07 175.85 L 177.74 174.51 L 175.40 172.51 L 173.07 173.84 L 170.73 173.84 L 168.40 171.84 L 166.06 171.84 L 163.73 171.84 L 161.39 172.51 L 159.06 173.17 L 156.72 176.02 L 154.39 176.52 L 152.06 174.35 L 149.72 173.84 L 147.39 174.51 L 145.05 171.17 L 142.72 170.50 L 140.38 165.82 L 138.05 169.16 L 135.71 168.16 L 133.38 169.83 L 131.05 169.83 L 128.71 170.50 L 126.38 171.84 L 124.04 174.18 L 121.71 177.86 L 119.37 179.86 L 117.04 178.53 L 114.70 180.70 L 112.37 180.53 L 110.03 182.54 L 107.70 181.70 L 105.37 181.87 L 103.03 179.86 L 100.70 177.19 L 98.36 175.85 L 96.03 174.51 L 93.69 175.52 L 91.36 177.19 L 89.02 176.52 L 86.69 175.85 L 84.36 175.18 L 82.02 173.84 L 79.69 171.17 L 77.35 180.20 L 75.02 171.17 L 72.68 169.83 L 70.35 170.50 L 68.01 169.83 L 65.68 180.53 L 63.34 181.87 L 61.01 176.52 L 58.68 175.18 L 56.34 173.17 L 54.01 169.16 L 51.67 164.48 L 49.34 166.49 L 47.00 171.84 L 44.67 171.84 L 42.33 169.83 L 40.00 167.83 Z" fill="rgba(230,126,34,0.22)" stroke="none"/><path d="M 40.00 136.06 L 42.33 136.06 L 44.67 137.40 L 47.00 132.38 L 49.34 149.10 L 51.67 143.08 L 54.01 142.75 L 56.34 140.74 L 58.68 146.42 L 61.01 141.74 L 63.34 143.75 L 65.68 141.74 L 68.01 143.08 L 70.35 140.41 L 72.68 145.76 L 75.02 143.42 L 77.35 144.42 L 79.69 141.74 L 82.02 141.74 L 84.36 140.41 L 86.69 145.42 L 89.02 145.09 L 91.36 143.75 L 93.69 144.42 L 96.03 148.77 L 98.36 145.09 L 100.70 148.43 L 103.03 152.44 L 105.37 155.12 L 107.70 153.11 L 110.03 155.79 L 112.37 163.14 L 114.70 165.48 L 117.04 163.14 L 119.37 161.14 L 121.71 160.47 L 124.04 158.13 L 126.38 160.80 L 128.71 161.14 L 131.05 163.14 L 133.38 159.13 L 135.71 151.78 L 138.05 157.13 L 140.38 153.11 L 142.72 163.81 L 145.05 162.81 L 147.39 159.80 L 149.72 162.47 L 152.06 165.82 L 154.39 165.48 L 156.72 164.48 L 159.06 169.16 L 161.39 171.84 L 163.73 169.16 L 166.06 165.82 L 168.40 167.83 L 170.73 164.48 L 173.07 163.14 L 175.40 167.83 L 177.74 167.16 L 180.07 167.83 L 182.40 167.16 L 184.74 163.48 L 187.07 163.81 L 189.41 165.15 L 191.74 166.49 L 194.08 164.48 L 196.41 166.82 L 198.75 167.16 L 201.08 169.16 L 203.41 167.83 L 205.75 169.83 L 208.08 170.50 L 210.42 171.17 L 212.75 171.50 L 215.09 169.83 L 217.42 175.85 L 219.76 171.84 L 222.09 171.84 L 224.43 169.16 L 226.76 169.83 L 229.09 171.17 L 231.43 171.17 L 233.76 167.16 L 236.10 167.83 L 238.43 166.49 L 240.77 172.51 L 243.10 171.84 L 245.44 166.15 L 247.77 162.47 L 250.10 161.81 L 252.44 161.14 L 254.77 166.15 L 257.11 166.49 L 259.44 164.48 L 261.78 163.81 L 264.11 158.46 L 266.45 153.78 L 268.78 157.79 L 271.11 153.78 L 273.45 155.45 L 275.78 164.82 L 278.12 149.77 L 280.45 143.08 L 282.79 168.49 L 285.12 150.44 L 287.46 145.76 L 289.79 147.09 L 292.13 152.11 L 294.46 155.12 L 296.79 149.10 L 299.13 139.74 L 301.46 144.42 L 303.80 154.45 L 306.13 140.41 L 308.47 148.43 L 310.80 144.42 L 313.14 146.42 L 315.47 138.40 L 317.80 139.07 L 320.14 143.08 L 322.47 165.15 L 324.81 145.09 L 327.14 145.76 L 329.48 148.77 L 331.81 153.45 L 334.15 151.11 L 336.48 145.09 L 338.82 145.09 L 341.15 154.12 L 343.48 155.79 L 345.82 152.44 L 348.15 149.77 L 350.49 157.13 L 352.82 155.12 L 355.16 154.45 L 357.49 149.77 L 359.83 155.79 L 362.16 158.46 L 364.49 150.44 L 366.83 150.44 L 369.16 157.79 L 371.50 158.46 L 373.83 159.47 L 376.17 157.79 L 378.50 159.80 L 380.84 163.81 L 383.17 159.80 L 385.51 158.46 L 387.84 157.46 L 390.17 156.79 L 392.51 151.78 L 394.84 153.11 L 397.18 148.10 L 399.51 147.43 L 401.85 139.74 L 404.18 133.72 L 406.52 139.07 L 408.85 137.06 L 411.18 132.05 L 413.52 129.04 L 415.85 129.71 L 418.19 118.34 L 420.52 112.99 L 422.86 117.67 L 425.19 110.31 L 427.53 109.64 L 429.86 114.99 L 432.20 113.66 L 434.53 104.29 L 436.86 100.62 L 439.20 98.94 L 441.53 101.62 L 443.87 110.31 L 446.20 111.65 L 448.54 104.96 L 450.87 106.30 L 453.21 106.97 L 455.54 107.64 L 457.87 114.33 L 460.21 112.32 L 462.54 113.66 L 464.88 121.01 L 467.21 125.69 L 469.55 123.02 L 471.88 125.69 L 474.22 127.03 L 476.55 122.35 L 478.89 130.38 L 481.22 137.40 L 483.55 128.37 L 485.89 134.05 L 488.22 135.73 L 490.56 132.38 L 492.89 132.38 L 495.23 159.13 L 497.56 151.78 L 499.90 153.11 L 502.23 144.42 L 504.56 144.42 L 506.90 147.09 L 509.23 150.44 L 511.57 150.44 L 513.90 157.13 L 516.24 163.14 L 518.57 151.11 L 520.91 159.80 L 523.24 142.41 L 525.57 147.09 L 527.91 167.16 L 530.24 165.82 L 532.58 167.16 L 534.91 158.46 L 537.25 150.44 L 539.58 154.12 L 541.92 153.78 L 544.25 155.79 L 546.59 154.45 L 548.92 161.14 L 551.25 164.48 L 553.59 157.79 L 555.92 157.79 L 558.26 154.45 L 560.59 159.13 L 562.93 149.10 L 565.26 151.78 L 567.60 153.11 L 569.93 151.78 L 572.26 147.76 L 574.60 151.11 L 576.93 152.78 L 579.27 154.45 L 581.60 152.44 L 583.94 143.08 L 586.27 143.42 L 588.61 143.08 L 590.94 146.42 L 593.28 143.08 L 595.61 153.11 L 597.94 155.12 L 600.28 161.14 L 602.61 155.12 L 604.95 155.79 L 607.28 156.46 L 609.62 157.79 L 611.95 155.12 L 614.29 151.78 L 616.62 155.79 L 618.95 150.44 L 621.29 157.13 L 623.62 148.43 L 625.96 146.42 L 628.29 153.78 L 630.63 161.14 L 632.96 146.42 L 635.30 160.13 L 637.63 156.79 L 639.97 145.76 L 642.30 133.05 L 644.63 148.10 L 646.97 139.74 L 649.30 134.39 L 651.64 137.06 L 653.97 152.11 L 656.31 151.78 L 658.64 159.80 L 660.98 143.75 L 663.31 151.78 L 665.64 153.78 L 667.98 150.44 L 670.31 140.41 L 672.65 133.72 L 674.98 131.38 L 677.32 130.38 L 679.65 132.38 L 681.99 131.04 L 684.32 122.02 L 686.66 127.70 L 688.99 128.37 L 691.32 128.70 L 693.66 124.36 L 695.99 123.35 L 698.33 127.03 L 700.66 127.03 L 703.00 127.70 L 705.33 127.70 L 707.67 133.72 L 710.00 133.72" fill="none" stroke="#2c3e50" stroke-width="2"/></svg>