<?xml version="1.0"?><svg viewBox="0 0 720 260" width="100%" height="260" xmlns="http://www.w3.org/2000/svg"><rect width="100%" height="100%" fill="#fff"/><line x1="40" y1="210.625" x2="710" y2="210.625" stroke="#eee"/><text x="32" y="214.625" text-anchor="end" font-size="10" fill="#666" font-family="system-ui,Arial">60</text><line x1="40" y1="183.875" x2="710" y2="183.875" stroke="#eee"/><text x="32" y="187.875" text-anchor="end" font-size="10" fill="#666" font-family="system-ui,Arial">100</text><line x1="40" y1="157.125" x2="710" y2="157.125" stroke="#eee"/><text x="32" y="161.125" text-anchor="end" font-size="10" fill="#666" font-family="system-ui,Arial">140</text><line x1="40" y1="130.375" x2="710" y2="130.375" stroke="#eee"/><text x="32" y="134.375" text-anchor="end" font-size="10" fill="#666" font-family="system-ui,Arial">180</text><line x1="40" y1="103.625" x2="710" y2="103.625" stroke="#eee"/><text x="32" y="107.625" text-anchor="end" font-size="10" fill="#666" font-family="system-ui,Arial">220</text><line x1="40" y1="76.875" x2="710" y2="76.875" stroke="#eee"/><text x="32" y="80.875" text-anchor="end" font-size="10" fill="#666" font-family="system-ui,Arial">260</text><line x1="40" y1="50.125" x2="710" y2="50.125" stroke="#eee"/><text x="32" y="54.125" text-anchor="end" font-size="10" fill="#666" font-family="system-ui,Arial">300</text><line x1="40" y1="23.375" x2="710" y2="23.375" stroke="#eee"/><text x="32" y="27.375" text-anchor="end" font-size="10" fill="#666" font-family="system-ui,Arial">340</text><line x1="208.0836236933798" y1="10" x2="208.0836236933798" y2="224" stroke="#eee"/><text x="208.0836236933798" y="238" text-anchor="middle" font-size="10" fill="#666" font-family="system-ui,Arial">6</text><line x1="292.1254355400697" y1="10" x2="292.1254355400697" y2="224" stroke="#eee"/><text x="292.1254355400697" y="238" text-anchor="middle" font-size="10" fill="#666" font-family="system-ui,Arial">9</text><line x1="376.1672473867596" y1="10" x2="376.1672473867596" y2="224" stroke="#eee"/><text x="376.1672473867596" y="238" text-anchor="middle" font-size="10" fill="#666" font-family="system-ui,Arial">12</text><line x1="460.20905923344947" y1="10" x2="460.20905923344947" y2="224" stroke="#eee"/><text x="460.20905923344947" y="238" text-anchor="middle" font-size="10" fill="#666" font-family="system-ui,Arial">15</text><line x1="544.2508710801394" y1="10" x2="544.2508710801394" y2="224" stroke="#eee"/><text x="544.2508710801394" y="238" text-anchor="middle" font-size="10" fill="#666" font-family="system-ui,Arial">18</text><line x1="628.2926829268292" y1="10" x2="628.2926829268292" y2="224" stroke="#eee"/><text x="628.2926829268292" y="238" text-anchor="middle" font-size="10" fill="#666" font-family="system-ui,Arial">21</text><rect x="40" y="130.375" width="670" height="73.5625" fill="rgba(39,174,96,0.07)"/><path d="M 40.00 10.00 L 42.33 10.00 L 44.67 10.00 L 47.00 10.00 L 49.34 10.00 L 51.67 13.75 L 54.01 21.87 L 56.34 13.21 L 58.68 15.08 L 61.01 16.42 L 63.34 21.77 L 65.68 23.27 L 68.01 28.09 L 70.35 29.90 L 72.68 24.18 L 75.02 18.36 L 77.35 27.79 L 79.69 36.22 L 82.02 25.08 L 84.36 14.85 L 86.69 14.85 L 89.02 18.59 L 91.36 23.91 L 93.69 22.31 L 96.03 77.54 L 98.36 86.04 L 100.70 89.25 L 103.03 87.84 L 105.37 85.67 L 107.70 97.21 L 110.03 98.98 L 112.37 88.24 L 114.70 107.94 L 117.04 106.97 L 119.37 110.98 L 121.71 114.33 L 124.04 36.75 L 126.38 29.83 L 128.71 38.62 L 131.05 26.05 L 133.38 26.59 L 135.71 34.11 L 138.05 34.71 L 140.38 29.26 L 142.72 28.99 L 145.05 22.81 L 147.39 29.80 L 149.72 30.06 L 152.06 39.09 L 154.39 43.57 L 156.72 44.67 L 159.06 35.31 L 161.39 43.74 L 163.73 40.50 L 166.06 67.11 L 168.40 78.61 L 170.73 10.00 L 173.07 10.00 L 175.40 45.18 L 177.74 32.07 L 180.07 12.67 L 182.40 74.20 L 184.74 52.97 L 187.07 65.67 L 189.41 71.86 L 191.74 59.49 L 194.08 65.91 L 196.41 91.49 L 198.75 78.75 L 201.08 81.69 L 203.41 84.80 L 205.75 100.62 L 208.08 98.27 L 210.42 101.62 L 212.75 104.83 L 215.09 96.10 L 217.42 95.60 L 219.76 101.38 L 222.09 111.12 L 224.43 93.59 L 226.76 96.27 L 229.09 101.62 L 231.43 128.37 L 233.76 119.01 L 236.10 130.61 L 238.43 134.39 L 240.77 136.39 L 243.10 140.64 L 245.44 142.41 L 247.77 143.38 L 250.10 135.26 L 252.44 130.78 L 254.77 127.83 L 257.11 126.03 L 259.44 110.98 L 261.78 121.38 L 264.11 118.34 L 266.45 100.95 L 268.78 102.39 L 271.11 95.50 L 273.45 91.59 L 275.78 83.93 L 278.12 73.40 L 280.45 73.53 L 282.79 68.42 L 285.12 58.65 L 287.46 61.86 L 289.79 59.99 L 292.13 55.88 L 294.46 62.16 L 296.79 59.76 L 299.13 54.81 L 301.46 60.52 L 303.80 64.87 L 306.13 64.17 L 308.47 69.79 L 310.80 76.31 L 313.14 79.05 L 315.47 81.42 L 317.80 85.37 L 320.14 86.37 L 322.47 90.58 L 324.81 85.57 L 327.14 95.73 L 329.48 101.89 L 331.81 103.39 L 334.15 106.20 L 336.48 106.94 L 338.82 118.27 L 341.15 114.93 L 343.48 112.72 L 345.82 110.71 L 348.15 111.65 L 350.49 112.32 L 352.82 114.49 L 355.16 106.37 L 357.49 95.47 L 359.83 92.39 L 362.16 91.59 L 364.49 92.92 L 366.83 107.50 L 369.16 107.50 L 371.50 98.94 L 373.83 113.59 L 376.17 99.61 L 378.50 108.98 L 380.84 83.56 L 383.17 91.59 L 385.51 74.20 L 387.84 69.65 L 390.17 63.50 L 392.51 56.81 L 394.84 63.50 L 397.18 64.04 L 399.51 62.36 L 401.85 60.83 L 404.18 42.10 L 406.52 59.29 L 408.85 57.51 L 411.18 48.39 L 413.52 28.73 L 415.85 43.44 L 418.19 41.53 L 420.52 23.38 L 422.86 45.38 L 425.19 42.97 L 427.53 33.81 L 429.86 35.41 L 432.20 31.94 L 434.53 29.39 L 436.86 30.56 L 439.20 33.64 L 441.53 26.32 L 443.87 29.59 L 446.20 30.63 L 448.54 24.04 L 450.87 25.72 L 453.21 10.00 L 455.54 23.38 L 457.87 20.30 L 460.21 15.75 L 462.54 24.38 L 464.88 22.71 L 467.21 18.89 L 469.55 10.00 L 471.88 10.00 L 474.22 15.22 L 476.55 24.55 L 478.89 21.24 L 481.22 39.76 L 483.55 62.16 L 485.89 72.19 L 488.22 82.79 L 490.56 84.63 L 492.89 82.12 L 495.23 77.44 L 497.56 54.14 L 499.90 75.37 L 502.23 65.00 L 504.56 65.24 L 506.90 76.81 L 509.23 61.66 L 511.57 60.02 L 513.90 63.30 L 516.24 53.84 L 518.57 58.02 L 520.91 65.61 L 523.24 39.42 L 525.57 56.81 L 527.91 83.06 L 530.24 97.97 L 532.58 105.77 L 534.91 107.10 L 537.25 98.27 L 539.58 101.62 L 541.92 103.63 L 544.25 99.61 L 546.59 96.94 L 548.92 104.23 L 551.25 97.77 L 553.59 88.24 L 555.92 91.52 L 558.26 84.23 L 560.59 98.74 L 562.93 113.82 L 565.26 98.28 L 567.60 90.89 L 569.93 82.76 L 572.26 82.96 L 574.60 72.86 L 576.93 86.84 L 579.27 86.57 L 581.60 84.90 L 583.94 89.58 L 586.27 90.92 L 588.61 91.92 L 590.94 91.25 L 593.28 95.47 L 595.61 86.24 L 597.94 76.88 L 600.28 73.16 L 602.61 70.05 L 604.95 68.18 L 607.28 73.56 L 609.62 79.02 L 611.95 74.23 L 614.29 71.53 L 616.62 62.96 L 618.95 46.78 L 621.29 51.73 L 623.62 29.39 L 625.96 36.15 L 628.29 31.27 L 630.63 22.97 L 632.96 20.50 L 635.30 14.55 L 637.63 24.14 L 639.97 35.91 L 642.30 32.74 L 644.63 25.18 L 646.97 27.99 L 649.30 34.08 L 651.64 31.40 L 653.97 12.51 L 656.31 22.24 L 658.64 10.00 L 660.98 12.14 L 663.31 15.35 L 665.64 13.04 L 667.98 13.64 L 670.31 12.94 L 672.65 10.00 L 674.98 18.83 L 677.32 13.21 L 679.65 20.37 L 681.99 16.65 L 684.32 11.10 L 686.66 13.21 L 688.99 10.00 L 691.32 11.07 L 693.66 10.00 L 695.99 10.00 L 698.33 16.35 L 700.66 11.24 L 703.00 10.03 L 705.33 10.00 L 707.67 10.00 L 710.00 10.00 L 710.00 171.70 L 707.67 171.47 L 705.33 169.97 L 703.00 197.92 L 700.66 192.33 L 698.33 198.02 L 695.99 197.92 L 693.66 195.31 L 691.32 205.01 L 688.99 199.12 L 686.66 199.92 L 684.32 205.98 L 681.99 204.24 L 679.65 207.28 L 677.32 196.58 L 674.98 191.23 L 672.65 184.88 L 670.31 183.34 L 667.98 180.23 L 665.64 183.01 L 663.31 177.86 L 660.98 183.47 L 658.64 188.29 L 656.31 205.28 L 653.97 196.58 L 651.64 192.90 L 649.30 200.93 L 646.97 203.80 L 644.63 198.89 L 642.30 187.55 L 639.97 183.88 L 637.63 185.11 L 635.30 188.69 L 632.96 189.36 L 630.63 195.58 L 628.29 198.19 L 625.96 190.26 L 623.62 193.91 L 621.29 191.97 L 618.95 200.59 L 616.62 201.26 L 614.29 199.26 L 611.95 201.76 L 609.62 199.52 L 607.28 196.88 L 604.95 192.54 L 602.61 192.97 L 600.28 202.43 L 597.94 213.30 L 595.61 212.63 L 593.28 212.63 L 590.94 215.31 L 588.61 221.99 L 586.27 223.33 L 583.94 211.53 L 581.60 210.96 L 579.27 211.86 L 576.93 215.34 L 574.60 214.64 L 572.26 215.57 L 569.93 222.66 L 567.60 217.31 L 565.26 203.27 L 562.93 200.26 L 560.59 195.21 L 558.26 191.20 L 555.92 191.70 L 553.59 190.73 L 551.25 198.59 L 548.92 196.31 L 546.59 202.93 L 544.25 209.56 L 541.92 210.76 L 539.58 212.63 L 537.25 210.49 L 534.91 212.10 L 532.58 207.72 L 530.24 196.35 L 527.91 195.08 L 525.57 195.48 L 523.24 201.26 L 520.91 207.38 L 518.57 204.20 L 516.24 204.77 L 513.90 209.29 L 511.57 209.42 L 509.23 211.56 L 506.90 209.05 L 504.56 206.48 L 502.23 206.58 L 499.90 200.59 L 497.56 200.93 L 495.23 202.80 L 492.89 201.06 L 490.56 199.26 L 488.22 194.84 L 485.89 193.50 L 483.55 187.22 L 481.22 181.53 L 478.89 179.19 L 476.55 179.80 L 474.22 186.02 L 471.88 182.67 L 469.55 179.19 L 467.21 182.27 L 464.88 185.21 L 462.54 191.23 L 460.21 170.70 L 457.87 184.68 L 455.54 176.85 L 453.21 171.07 L 450.87 171.50 L 448.54 176.52 L 446.20 171.07 L 443.87 173.84 L 441.53 175.58 L 439.20 173.81 L 436.86 180.53 L 434.53 183.88 L 432.20 182.97 L 429.86 187.75 L 427.53 193.37 L 425.19 189.12 L 422.86 189.06 L 420.52 184.54 L 418.19 177.92 L 415.85 173.68 L 413.52 171.84 L 411.18 177.05 L 408.85 189.29 L 406.52 193.64 L 404.18 192.90 L 401.85 191.23 L 399.51 195.18 L 397.18 199.26 L 394.84 200.59 L 392.51 204.64 L 390.17 193.91 L 387.84 201.53 L 385.51 192.87 L 383.17 194.58 L 380.84 195.58 L 378.50 192.57 L 376.17 196.92 L 373.83 204.71 L 371.50 203.00 L 369.16 206.85 L 366.83 193.24 L 364.49 194.34 L 362.16 196.25 L 359.83 198.65 L 357.49 196.85 L 355.16 201.93 L 352.82 197.48 L 350.49 197.25 L 348.15 196.58 L 345.82 203.94 L 343.48 207.95 L 341.15 205.41 L 338.82 215.97 L 336.48 205.04 L 334.15 201.56 L 331.81 199.19 L 329.48 200.73 L 327.14 200.33 L 324.81 199.19 L 322.47 205.94 L 320.14 197.25 L 317.80 197.38 L 315.47 193.64 L 313.14 193.47 L 310.80 200.66 L 308.47 209.69 L 306.13 211.69 L 303.80 209.02 L 301.46 208.92 L 299.13 203.37 L 296.79 203.54 L 294.46 200.26 L 292.13 197.58 L 289.79 197.25 L 287.46 195.91 L 285.12 199.92 L 282.79 204.57 L 280.45 203.94 L 278.12 202.73 L 275.78 201.73 L 273.45 201.00 L 271.11 201.73 L 268.78 195.98 L 266.45 189.63 L 264.11 189.63 L 261.78 190.93 L 259.44 188.29 L 257.11 190.36 L 254.77 190.23 L 252.44 188.02 L 250.10 188.72 L 247.77 190.16 L 245.44 187.22 L 243.10 191.40 L 240.77 197.25 L 238.43 196.58 L 236.10 192.87 L 233.76 192.84 L 231.43 193.24 L 229.09 189.26 L 226.76 190.70 L 224.43 189.43 L 222.09 190.56 L 219.76 188.02 L 217.42 187.02 L 215.09 198.49 L 212.75 193.61 L 210.42 187.55 L 208.08 188.56 L 205.75 188.56 L 203.41 190.43 L 201.08 193.87 L 198.75 191.10 L 196.41 187.32 L 194.08 188.29 L 191.74 189.63 L 189.41 188.56 L 187.07 189.89 L 184.74 192.74 L 182.40 198.35 L 180.07 192.97 L 177.74 176.85 L 175.40 179.33 L 173.07 184.81 L 170.73 187.89 L 168.40 191.90 L 166.06 192.57 L 163.73 182.81 L 161.39 182.57 L 159.06 184.81 L 156.72 185.98 L 154.39 185.25 L 152.06 186.55 L 149.72 185.88 L 147.39 185.08 L 145.05 184.08 L 142.72 184.01 L 140.38 185.88 L 138.05 195.11 L 135.71 195.24 L 133.38 188.16 L 131.05 184.81 L 128.71 188.32 L 126.38 192.67 L 124.04 191.77 L 121.71 192.17 L 119.37 197.65 L 117.04 202.06 L 114.70 201.96 L 112.37 195.04 L 110.03 195.21 L 107.70 191.50 L 105.37 192.13 L 103.03 192.74 L 100.70 192.23 L 98.36 192.57 L 96.03 203.94 L 93.69 195.91 L 91.36 190.43 L 89.02 191.00 L 86.69 194.71 L 84.36 196.31 L 82.02 195.38 L 79.69 195.18 L 77.35 195.91 L 75.02 195.01 L 72.68 194.58 L 70.35 191.93 L 68.01 191.67 L 65.68 197.92 L 63.34 191.37 L 61.01 191.63 L 58.68 191.10 L 56.34 190.30 L 54.01 197.25 L 51.67 195.91 L 49.34 184.04 L 47.00 187.09 L 44.67 178.19 L 42.33 177.86 L 40.00 172.84 Z" fill="rgba(231,76,60,0.06)" stroke="none"/><path d="M 40.00 72.70 L 42.33 71.53 L 44.67 82.23 L 47.00 82.23 L 49.34 84.90 L 51.67 84.23 L 54.01 84.90 L 56.34 86.24 L 58.68 87.58 L 61.01 96.27 L 63.34 99.78 L 65.68 93.43 L 68.01 96.94 L 70.35 102.96 L 72.68 102.29 L 75.02 101.62 L 77.35 102.79 L 79.69 104.29 L 82.02 104.46 L 84.36 102.29 L 86.69 100.95 L 89.02 101.62 L 91.36 104.29 L 93.69 106.30 L 96.03 109.64 L 98.36 108.64 L 100.70 110.98 L 103.03 117.33 L 105.37 116.33 L 107.70 116.33 L 110.03 113.66 L 112.37 114.33 L 114.70 120.34 L 117.04 113.66 L 119.37 122.35 L 121.71 131.04 L 124.04 123.02 L 126.38 119.67 L 128.71 121.18 L 131.05 123.02 L 133.38 125.02 L 135.71 126.36 L 138.05 129.54 L 140.38 133.72 L 142.72 130.38 L 145.05 136.39 L 147.39 139.07 L 149.72 138.40 L 152.06 139.40 L 154.39 140.41 L 156.72 147.43 L 159.06 153.78 L 161.39 153.11 L 163.73 151.11 L 166.06 155.12 L 168.40 160.47 L 170.73 161.81 L 173.07 157.79 L 175.40 158.46 L 177.74 158.46 L 180.07 157.79 L 182.40 158.46 L 184.74 159.13 L 187.07 159.80 L 189.41 158.46 L 191.74 158.46 L 194.08 158.46 L 196.41 157.13 L 198.75 159.80 L 201.08 165.82 L 203.41 167.16 L 205.75 167.83 L 208.08 167.83 L 210.42 166.82 L 212.75 165.15 L 215.09 163.81 L 217.42 166.49 L 219.76 161.81 L 222.09 163.48 L 224.43 160.64 L 226.76 160.47 L 229.09 163.81 L 231.43 163.81 L 233.76 153.78 L 236.10 155.79 L 238.43 155.79 L 240.77 155.79 L 243.10 157.79 L 245.44 157.13 L 247.77 147.76 L 250.10 149.77 L 252.44 151.11 L 254.77 159.47 L 257.11 161.81 L 259.44 151.78 L 261.78 151.11 L 264.11 147.76 L 266.45 137.06 L 268.78 133.05 L 271.11 131.38 L 273.45 128.37 L 275.78 127.70 L 278.12 125.02 L 280.45 120.34 L 282.79 122.18 L 285.12 119.01 L 287.46 114.33 L 289.79 119.01 L 292.13 115.66 L 294.46 117.67 L 296.79 118.34 L 299.13 116.33 L 301.46 117.00 L 303.80 114.99 L 306.13 109.31 L 308.47 109.64 L 310.80 110.31 L 313.14 113.66 L 315.47 112.32 L 317.80 113.66 L 320.14 121.01 L 322.47 129.37 L 324.81 127.03 L 327.14 128.37 L 329.48 133.05 L 331.81 137.06 L 334.15 136.39 L 336.48 139.74 L 338.82 136.39 L 341.15 143.75 L 343.48 142.41 L 345.82 142.41 L 348.15 142.75 L 350.49 144.42 L 352.82 139.74 L 355.16 133.72 L 357.49 134.39 L 359.83 126.70 L 362.16 134.39 L 364.49 126.36 L 366.83 128.37 L 369.16 135.73 L 371.50 145.76 L 373.83 145.09 L 376.17 145.76 L 378.50 144.42 L 380.84 135.06 L 383.17 109.31 L 385.51 104.96 L 387.84 104.96 L 390.17 98.27 L 392.51 94.93 L 394.84 101.95 L 397.18 103.46 L 399.51 103.29 L 401.85 107.64 L 404.18 97.27 L 406.52 104.13 L 408.85 114.16 L 411.18 111.65 L 413.52 104.29 L 415.85 99.78 L 418.19 97.61 L 420.52 94.60 L 422.86 90.42 L 425.19 85.57 L 427.53 85.57 L 429.86 82.89 L 432.20 81.89 L 434.53 81.89 L 436.86 85.90 L 439.20 74.70 L 441.53 66.17 L 443.87 77.38 L 446.20 76.04 L 448.54 75.54 L 450.87 69.52 L 453.21 64.84 L 455.54 64.17 L 457.87 67.51 L 460.21 65.17 L 462.54 80.22 L 464.88 86.24 L 467.21 85.57 L 469.55 82.23 L 471.88 78.21 L 474.22 76.21 L 476.55 80.89 L 478.89 79.55 L 481.22 102.29 L 483.55 102.29 L 485.89 110.31 L 488.22 108.31 L 490.56 112.99 L 492.89 114.16 L 495.23 120.34 L 497.56 119.67 L 499.90 116.67 L 502.23 118.34 L 504.56 122.35 L 506.90 121.68 L 509.23 110.31 L 511.57 117.00 L 513.90 110.31 L 516.24 109.64 L 518.57 108.98 L 520.91 108.31 L 523.24 116.33 L 525.57 120.68 L 527.91 124.36 L 530.24 131.71 L 532.58 136.90 L 534.91 135.06 L 537.25 132.38 L 539.58 141.74 L 541.92 138.40 L 544.25 145.09 L 546.59 146.42 L 548.92 143.75 L 551.25 145.09 L 553.59 148.93 L 555.92 150.27 L 558.26 147.76 L 560.59 139.40 L 562.93 135.06 L 565.26 139.07 L 567.60 139.74 L 569.93 143.08 L 572.26 147.26 L 574.60 149.77 L 576.93 149.10 L 579.27 133.72 L 581.60 129.04 L 583.94 126.36 L 586.27 110.31 L 588.61 117.67 L 590.94 117.67 L 593.28 115.66 L 595.61 124.36 L 597.94 128.37 L 600.28 133.55 L 602.61 141.08 L 604.95 139.74 L 607.28 140.41 L 609.62 139.07 L 611.95 138.73 L 614.29 138.73 L 616.62 139.07 L 618.95 139.07 L 621.29 138.07 L 623.62 121.01 L 625.96 116.00 L 628.29 107.64 L 630.63 110.31 L 632.96 106.13 L 635.30 98.94 L 637.63 94.26 L 639.97 98.11 L 642.30 103.63 L 644.63 100.28 L 646.97 98.27 L 649.30 97.61 L 651.64 93.59 L 653.97 96.94 L 656.31 94.26 L 658.64 94.93 L 660.98 99.11 L 663.31 90.25 L 665.64 91.92 L 667.98 89.25 L 670.31 81.56 L 672.65 120.34 L 674.98 120.34 L 677.32 86.91 L 679.65 105.30 L 681.99 98.78 L 684.32 94.93 L 686.66 95.60 L 688.99 81.22 L 691.32 77.54 L 693.66 73.53 L 695.99 75.54 L 698.33 74.87 L 700.66 78.71 L 703.00 83.23 L 705.33 81.56 L 707.67 79.55 L 710.00 78.21 L 710.00 161.14 L 707.67 161.64 L 705.33 163.14 L 703.00 167.83 L 700.66 166.49 L 698.33 164.48 L 695.99 162.81 L 693.66 161.14 L 691.32 161.14 L 688.99 150.44 L 686.66 147.76 L 684.32 161.14 L 681.99 156.79 L 679.65 167.83 L 677.32 164.48 L 674.98 169.16 L 672.65 169.16 L 670.31 168.49 L 667.98 166.49 L 665.64 163.14 L 663.31 156.79 L 660.98 159.97 L 658.64 159.80 L 656.31 161.14 L 653.97 165.82 L 651.64 160.47 L 649.30 159.80 L 646.97 157.96 L 644.63 155.12 L 642.30 157.79 L 639.97 166.99 L 637.63 169.16 L 635.30 167.83 L 632.96 173.01 L 630.63 182.70 L 628.29 175.18 L 625.96 166.49 L 623.62 169.83 L 621.29 175.18 L 618.95 186.55 L 616.62 193.40 L 614.29 195.24 L 611.95 183.21 L 609.62 181.20 L 607.28 180.70 L 604.95 167.32 L 602.61 173.84 L 600.28 169.16 L 597.94 179.03 L 595.61 178.86 L 593.28 168.49 L 590.94 168.49 L 588.61 171.17 L 586.27 183.54 L 583.94 169.16 L 581.60 166.82 L 579.27 174.68 L 576.93 175.85 L 574.60 190.56 L 572.26 194.58 L 569.93 191.23 L 567.60 189.22 L 565.26 187.55 L 562.93 183.71 L 560.59 180.03 L 558.26 173.84 L 555.92 176.35 L 553.59 175.85 L 551.25 181.87 L 548.92 177.86 L 546.59 187.22 L 544.25 187.22 L 541.92 186.55 L 539.58 190.56 L 537.25 190.90 L 534.91 193.91 L 532.58 191.90 L 530.24 191.90 L 527.91 187.22 L 525.57 186.05 L 523.24 188.56 L 520.91 185.88 L 518.57 188.56 L 516.24 184.54 L 513.90 186.55 L 511.57 184.54 L 509.23 181.87 L 506.90 179.86 L 504.56 177.86 L 502.23 187.22 L 499.90 196.75 L 497.56 193.24 L 495.23 183.04 L 492.89 183.71 L 490.56 171.17 L 488.22 167.99 L 485.89 167.83 L 483.55 158.80 L 481.22 157.13 L 478.89 162.47 L 476.55 170.50 L 474.22 171.84 L 471.88 166.49 L 469.55 161.14 L 467.21 157.79 L 464.88 153.11 L 462.54 151.11 L 460.21 147.76 L 457.87 156.46 L 455.54 158.46 L 453.21 145.76 L 450.87 141.74 L 448.54 151.78 L 446.20 141.74 L 443.87 133.72 L 441.53 120.34 L 439.20 118.67 L 436.86 119.67 L 434.53 121.68 L 432.20 120.85 L 429.86 125.69 L 427.53 129.04 L 425.19 127.03 L 422.86 132.88 L 420.52 141.08 L 418.19 163.81 L 415.85 166.49 L 413.52 152.44 L 411.18 158.46 L 408.85 155.79 L 406.52 164.98 L 404.18 173.84 L 401.85 175.85 L 399.51 177.19 L 397.18 173.17 L 394.84 176.18 L 392.51 180.87 L 390.17 177.19 L 387.84 181.87 L 385.51 184.54 L 383.17 175.18 L 380.84 174.51 L 378.50 179.86 L 376.17 175.18 L 373.83 180.53 L 371.50 185.21 L 369.16 185.88 L 366.83 165.82 L 364.49 164.48 L 362.16 181.87 L 359.83 181.20 L 357.49 177.86 L 355.16 173.17 L 352.82 176.52 L 350.49 169.83 L 348.15 173.17 L 345.82 174.68 L 343.48 164.48 L 341.15 161.47 L 338.82 162.47 L 336.48 167.83 L 334.15 169.16 L 331.81 173.84 L 329.48 173.34 L 327.14 173.84 L 324.81 178.53 L 322.47 173.84 L 320.14 172.51 L 317.80 172.51 L 315.47 170.50 L 313.14 166.99 L 310.80 160.13 L 308.47 165.15 L 306.13 163.98 L 303.80 159.80 L 301.46 159.13 L 299.13 159.80 L 296.79 161.81 L 294.46 171.17 L 292.13 178.53 L 289.79 185.21 L 287.46 188.89 L 285.12 194.41 L 282.79 197.25 L 280.45 193.91 L 278.12 183.88 L 275.78 185.21 L 273.45 182.20 L 271.11 181.37 L 268.78 178.19 L 266.45 177.19 L 264.11 180.53 L 261.78 184.54 L 259.44 181.87 L 257.11 179.19 L 254.77 179.86 L 252.44 181.87 L 250.10 181.87 L 247.77 178.53 L 245.44 179.86 L 243.10 177.19 L 240.77 183.88 L 238.43 183.21 L 236.10 175.85 L 233.76 175.85 L 231.43 179.86 L 229.09 181.70 L 226.76 184.54 L 224.43 183.88 L 222.09 178.02 L 219.76 180.53 L 217.42 179.86 L 215.09 181.87 L 212.75 179.19 L 210.42 179.86 L 208.08 180.53 L 205.75 179.19 L 203.41 179.53 L 201.08 181.87 L 198.75 183.88 L 196.41 181.20 L 194.08 180.53 L 191.74 181.20 L 189.41 181.70 L 187.07 182.54 L 184.74 176.52 L 182.40 179.86 L 180.07 174.51 L 177.74 173.84 L 175.40 175.85 L 173.07 174.51 L 170.73 179.19 L 168.40 177.35 L 166.06 175.85 L 163.73 173.17 L 161.39 172.51 L 159.06 172.51 L 156.72 175.52 L 154.39 177.19 L 152.06 179.19 L 149.72 180.53 L 147.39 181.20 L 145.05 178.53 L 142.72 180.53 L 140.38 171.17 L 138.05 177.19 L 135.71 169.50 L 133.38 169.83 L 131.05 170.50 L 128.71 172.51 L 126.38 177.19 L 124.04 175.18 L 121.71 177.86 L 119.37 179.86 L 117.04 178.53 L 114.70 180.70 L 112.37 180.53 L 110.03 182.54 L 107.70 183.21 L 105.37 183.88 L 103.03 180.36 L 100.70 182.54 L 98.36 152.44 L 96.03 178.53 L 93.69 152.44 L 91.36 143.75 L 89.02 176.52 L 86.69 175.85 L 84.36 175.18 L 82.02 173.84 L 79.69 171.17 L 77.35 170.50 L 75.02 171.17 L 72.68 169.16 L 70.35 162.81 L 68.01 163.14 L 65.68 161.14 L 63.34 161.14 L 61.01 161.81 L 58.68 159.13 L 56.34 163.81 L 54.01 163.81 L 51.67 165.15 L 49.34 153.11 L 47.00 161.14 L 44.67 159.80 L 42.33 162.64 L 40.00 164.31 Z" fill="rgba(230,126,34,0.22)" stroke="none"/><path d="M 40.00 125.69 L 42.33 122.35 L 44.67 121.01 L 47.00 120.34 L 49.34 121.01 L 51.67 136.39 L 54.01 127.03 L 56.34 134.39 L 58.68 141.08 L 61.01 115.66 L 63.34 130.71 L 65.68 130.04 L 68.01 130.04 L 70.35 131.71 L 72.68 144.42 L 75.02 135.73 L 77.35 141.74 L 79.69 140.41 L 82.02 133.72 L 84.36 136.39 L 86.69 137.40 L 89.02 139.40 L 91.36 136.39 L 93.69 138.40 L 96.03 145.09 L 98.36 140.41 L 100.70 146.42 L 103.03 151.11 L 105.37 153.45 L 107.70 153.11 L 110.03 150.44 L 112.37 149.77 L 114.70 152.78 L 117.04 153.11 L 119.37 151.78 L 121.71 151.11 L 124.04 147.09 L 126.38 151.44 L 128.71 151.78 L 131.05 156.46 L 133.38 159.13 L 135.71 150.44 L 138.05 157.79 L 140.38 153.11 L 142.72 163.81 L 145.05 162.81 L 147.39 159.80 L 149.72 162.47 L 152.06 165.82 L 154.39 163.81 L 156.72 163.81 L 159.06 166.82 L 161.39 164.48 L 163.73 168.49 L 166.06 166.49 L 168.40 167.83 L 170.73 164.48 L 173.07 169.16 L 175.40 169.16 L 177.74 169.83 L 180.07 172.51 L 182.40 173.17 L 184.74 171.17 L 187.07 170.50 L 189.41 167.16 L 191.74 168.83 L 194.08 170.50 L 196.41 175.18 L 198.75 173.17 L 201.08 173.17 L 203.41 174.18 L 205.75 174.51 L 208.08 173.84 L 210.42 174.51 L 212.75 172.51 L 215.09 173.84 L 217.42 175.85 L 219.76 176.52 L 222.09 173.51 L 224.43 172.17 L 226.76 171.84 L 229.09 172.51 L 231.43 171.17 L 233.76 167.16 L 236.10 166.82 L 238.43 166.49 L 240.77 168.49 L 243.10 166.15 L 245.44 169.16 L 247.77 166.49 L 250.10 173.17 L 252.44 169.16 L 254.77 169.83 L 257.11 166.49 L 259.44 162.14 L 261.78 157.13 L 264.11 158.46 L 266.45 153.78 L 268.78 155.79 L 271.11 153.78 L 273.45 155.45 L 275.78 162.14 L 278.12 144.42 L 280.45 139.07 L 282.79 183.88 L 285.12 154.12 L 287.46 134.39 L 289.79 139.40 L 292.13 136.73 L 294.46 131.71 L 296.79 133.72 L 299.13 138.40 L 301.46 141.74 L 303.80 144.42 L 306.13 145.09 L 308.47 148.43 L 310.80 149.77 L 313.14 149.77 L 315.47 138.40 L 317.80 150.10 L 320.14 142.41 L 322.47 165.15 L 324.81 147.76 L 327.14 144.42 L 329.48 148.43 L 331.81 154.45 L 334.15 152.11 L 336.48 148.10 L 338.82 145.76 L 341.15 154.45 L 343.48 159.13 L 345.82 152.44 L 348.15 149.77 L 350.49 157.13 L 352.82 152.44 L 355.16 153.78 L 357.49 151.78 L 359.83 156.46 L 362.16 159.13 L 364.49 154.45 L 366.83 153.11 L 369.16 157.79 L 371.50 167.16 L 373.83 166.15 L 376.17 161.81 L 378.50 159.80 L 380.84 165.15 L 383.17 160.47 L 385.51 166.49 L 387.84 157.13 L 390.17 156.46 L 392.51 161.81 L 394.84 160.47 L 397.18 168.49 L 399.51 155.79 L 401.85 141.08 L 404.18 133.72 L 406.52 139.07 L 408.85 129.04 L 411.18 130.38 L 413.52 120.34 L 415.85 129.71 L 418.19 110.65 L 420.52 106.30 L 422.86 104.29 L 425.19 100.28 L 427.53 97.61 L 429.86 94.93 L 432.20 99.61 L 434.53 101.62 L 436.86 99.61 L 439.20 106.97 L 441.53 108.98 L 443.87 114.33 L 446.20 112.99 L 448.54 104.96 L 450.87 102.96 L 453.21 102.96 L 455.54 104.29 L 457.87 114.33 L 460.21 103.63 L 462.54 107.64 L 464.88 121.01 L 467.21 117.33 L 469.55 107.64 L 471.88 123.35 L 474.22 136.39 L 476.55 125.02 L 478.89 127.70 L 481.22 131.71 L 483.55 135.73 L 485.89 151.78 L 488.22 147.09 L 490.56 153.11 L 492.89 157.79 L 495.23 163.48 L 497.56 172.51 L 499.90 167.16 L 502.23 160.13 L 504.56 158.46 L 506.90 164.48 L 509.23 155.79 L 511.57 150.44 L 513.90 161.47 L 516.24 163.14 L 518.57 167.16 L 520.91 170.17 L 523.24 165.15 L 525.57 165.82 L 527.91 160.47 L 530.24 165.82 L 532.58 163.14 L 534.91 148.43 L 537.25 151.44 L 539.58 155.12 L 541.92 153.78 L 544.25 157.13 L 546.59 159.80 L 548.92 164.48 L 551.25 166.49 L 553.59 160.47 L 555.92 163.81 L 558.26 161.47 L 560.59 160.47 L 562.93 156.46 L 565.26 161.14 L 567.60 155.12 L 569.93 157.79 L 572.26 162.47 L 574.60 155.79 L 576.93 162.47 L 579.27 159.13 L 581.60 163.81 L 583.94 151.11 L 586.27 159.80 L 588.61 153.78 L 590.94 154.45 L 593.28 137.06 L 595.61 153.11 L 597.94 155.12 L 600.28 155.79 L 602.61 151.78 L 604.95 155.79 L 607.28 153.78 L 609.62 163.81 L 611.95 158.46 L 614.29 151.78 L 616.62 155.79 L 618.95 150.44 L 621.29 157.13 L 623.62 146.42 L 625.96 146.42 L 628.29 146.42 L 630.63 147.09 L 632.96 136.39 L 635.30 141.08 L 637.63 146.09 L 639.97 139.07 L 642.30 130.38 L 644.63 120.34 L 646.97 124.36 L 649.30 127.70 L 651.64 137.06 L 653.97 144.42 L 656.31 146.42 L 658.64 143.08 L 660.98 142.08 L 663.31 135.73 L 665.64 141.41 L 667.98 146.42 L 670.31 137.73 L 672.65 130.38 L 674.98 127.03 L 677.32 127.70 L 679.65 135.06 L 681.99 131.71 L 684.32 127.37 L 686.66 127.70 L 688.99 129.71 L 691.32 133.72 L 693.66 127.70 L 695.99 125.69 L 698.33 132.38 L 700.66 132.05 L 703.00 136.39 L 705.33 127.70 L 707.67 130.71 L 710.00 128.37" fill="none" stroke="#2c3e50" stroke-width="2"/></svg>