<?xml version="1.0"?><svg viewBox="0 0 720 260" width="100%" height="260" xmlns="http://www.w3.org/2000/svg"><rect width="100%" height="100%" fill="#fff"/><line x1="40" y1="210.625" x2="710" y2="210.625" stroke="#eee"/><text x="32" y="214.625" text-anchor="end" font-size="10" fill="#666" font-family="system-ui,Arial">60</text><line x1="40" y1="183.875" x2="710" y2="183.875" stroke="#eee"/><text x="32" y="187.875" text-anchor="end" font-size="10" fill="#666" font-family="system-ui,Arial">100</text><line x1="40" y1="157.125" x2="710" y2="157.125" stroke="#eee"/><text x="32" y="161.125" text-anchor="end" font-size="10" fill="#666" font-family="system-ui,Arial">140</text><line x1="40" y1="130.375" x2="710" y2="130.375" stroke="#eee"/><text x="32" y="134.375" text-anchor="end" font-size="10" fill="#666" font-family="system-ui,Arial">180</text><line x1="40" y1="103.625" x2="710" y2="103.625" stroke="#eee"/><text x="32" y="107.625" text-anchor="end" font-size="10" fill="#666" font-family="system-ui,Arial">220</text><line x1="40" y1="76.875" x2="710" y2="76.875" stroke="#eee"/><text x="32" y="80.875" text-anchor="end" font-size="10" fill="#666" font-family="system-ui,Arial">260</text><line x1="40" y1="50.125" x2="710" y2="50.125" stroke="#eee"/><text x="32" y="54.125" text-anchor="end" font-size="10" fill="#666" font-family="system-ui,Arial">300</text><line x1="40" y1="23.375" x2="710" y2="23.375" stroke="#eee"/><text x="32" y="27.375" text-anchor="end" font-size="10" fill="#666" font-family="system-ui,Arial">340</text><line x1="208.0836236933798" y1="10" x2="208.0836236933798" y2="224" stroke="#eee"/><text x="208.0836236933798" y="238" text-anchor="middle" font-size="10" fill="#666" font-family="system-ui,Arial">6</text><line x1="292.1254355400697" y1="10" x2="292.1254355400697" y2="224" stroke="#eee"/><text x="292.1254355400697" y="238" text-anchor="middle" font-size="10" fill="#666" font-family="system-ui,Arial">9</text><line x1="376.1672473867596" y1="10" x2="376.1672473867596" y2="224" stroke="#eee"/><text x="376.1672473867596" y="238" text-anchor="middle" font-size="10" fill="#666" font-family="system-ui,Arial">12</text><line x1="460.20905923344947" y1="10" x2="460.20905923344947" y2="224" stroke="#eee"/><text x="460.20905923344947" y="238" text-anchor="middle" font-size="10" fill="#666" font-family="system-ui,Arial">15</text><line x1="544.2508710801394" y1="10" x2="544.2508710801394" y2="224" stroke="#eee"/><text x="544.2508710801394" y="238" text-anchor="middle" font-size="10" fill="#666" font-family="system-ui,Arial">18</text><line x1="628.2926829268292" y1="10" x2="628.2926829268292" y2="224" stroke="#eee"/><text x="628.2926829268292" y="238" text-anchor="middle" font-size="10" fill="#666" font-family="system-ui,Arial">21</text><rect x="40" y="130.375" width="670" height="73.5625" fill="rgba(39,174,96,0.07)"/><path d="M 40.00 78.71 L 42.33 82.33 L 44.67 85.57 L 47.00 85.60 L 49.34 84.90 L 51.67 84.93 L 54.01 83.56 L 56.34 79.28 L 58.68 77.14 L 61.01 76.24 L 63.34 73.40 L 65.68 75.14 L 68.01 74.97 L 70.35 68.18 L 72.68 62.20 L 75.02 57.62 L 77.35 53.47 L 79.69 51.86 L 82.02 51.80 L 84.36 50.13 L 86.69 47.18 L 89.02 45.58 L 91.36 46.11 L 93.69 44.24 L 96.03 41.30 L 98.36 42.43 L 100.70 39.09 L 103.03 33.94 L 105.37 34.34 L 107.70 38.29 L 110.03 38.76 L 112.37 36.08 L 114.70 38.32 L 117.04 25.38 L 119.37 35.55 L 121.71 35.51 L 124.04 35.18 L 126.38 33.01 L 128.71 31.67 L 131.05 31.67 L 133.38 35.75 L 135.71 37.02 L 138.05 32.07 L 140.38 33.01 L 142.72 10.00 L 145.05 30.60 L 147.39 29.19 L 149.72 26.59 L 152.06 38.76 L 154.39 39.09 L 156.72 27.42 L 159.06 37.82 L 161.39 38.76 L 163.73 12.67 L 166.06 55.91 L 168.40 64.84 L 170.73 64.50 L 173.07 64.47 L 175.40 64.30 L 177.74 70.76 L 180.07 75.20 L 182.40 76.11 L 184.74 70.32 L 187.07 66.17 L 189.41 77.74 L 191.74 63.50 L 194.08 86.51 L 196.41 92.52 L 198.75 83.83 L 201.08 66.17 L 203.41 106.10 L 205.75 95.63 L 208.08 103.89 L 210.42 106.57 L 212.75 112.39 L 215.09 114.59 L 217.42 121.61 L 219.76 125.73 L 222.09 134.25 L 224.43 135.73 L 226.76 140.71 L 229.09 147.39 L 231.43 154.12 L 233.76 155.25 L 236.10 157.26 L 238.43 159.13 L 240.77 147.76 L 243.10 149.27 L 245.44 162.21 L 247.77 160.70 L 250.10 154.62 L 252.44 134.92 L 254.77 117.87 L 257.11 109.58 L 259.44 97.07 L 261.78 84.47 L 264.11 66.17 L 266.45 67.51 L 268.78 62.76 L 271.11 56.95 L 273.45 57.45 L 275.78 44.11 L 278.12 37.42 L 280.45 38.09 L 282.79 40.90 L 285.12 33.47 L 287.46 28.73 L 289.79 27.49 L 292.13 25.28 L 294.46 10.00 L 296.79 33.91 L 299.13 31.47 L 301.46 37.42 L 303.80 38.62 L 306.13 26.72 L 308.47 58.28 L 310.80 61.49 L 313.14 58.08 L 315.47 64.84 L 317.80 71.53 L 320.14 70.32 L 322.47 65.91 L 324.81 77.88 L 327.14 72.23 L 329.48 70.96 L 331.81 64.50 L 334.15 62.83 L 336.48 66.31 L 338.82 59.96 L 341.15 63.50 L 343.48 67.98 L 345.82 72.86 L 348.15 79.52 L 350.49 87.01 L 352.82 70.19 L 355.16 86.20 L 357.49 88.24 L 359.83 87.61 L 362.16 81.02 L 364.49 80.22 L 366.83 84.63 L 369.16 68.18 L 371.50 66.28 L 373.83 68.65 L 376.17 52.13 L 378.50 70.89 L 380.84 70.62 L 383.17 65.37 L 385.51 64.30 L 387.84 62.70 L 390.17 53.47 L 392.51 43.44 L 394.84 56.28 L 397.18 60.86 L 399.51 57.72 L 401.85 52.13 L 404.18 54.27 L 406.52 51.50 L 408.85 51.46 L 411.18 41.10 L 413.52 38.09 L 415.85 33.27 L 418.19 32.60 L 420.52 36.65 L 422.86 23.38 L 425.19 27.82 L 427.53 22.41 L 429.86 11.34 L 432.20 33.87 L 434.53 38.62 L 436.86 40.23 L 439.20 49.19 L 441.53 42.90 L 443.87 46.48 L 446.20 49.49 L 448.54 46.85 L 450.87 50.46 L 453.21 57.62 L 455.54 63.83 L 457.87 64.17 L 460.21 71.53 L 462.54 63.50 L 464.88 44.77 L 467.21 52.13 L 469.55 55.78 L 471.88 53.47 L 474.22 53.34 L 476.55 58.28 L 478.89 53.80 L 481.22 50.13 L 483.55 58.05 L 485.89 63.50 L 488.22 66.17 L 490.56 62.16 L 492.89 88.24 L 495.23 95.93 L 497.56 109.64 L 499.90 115.13 L 502.23 112.19 L 504.56 110.48 L 506.90 115.66 L 509.23 109.64 L 511.57 109.24 L 513.90 108.31 L 516.24 104.29 L 518.57 94.00 L 520.91 83.23 L 523.24 88.61 L 525.57 77.54 L 527.91 73.50 L 530.24 68.85 L 532.58 66.84 L 534.91 65.21 L 537.25 57.48 L 539.58 65.84 L 541.92 75.54 L 544.25 74.17 L 546.59 60.16 L 548.92 62.30 L 551.25 62.56 L 553.59 76.88 L 555.92 87.58 L 558.26 92.26 L 560.59 94.26 L 562.93 84.47 L 565.26 75.54 L 567.60 75.14 L 569.93 66.91 L 572.26 59.02 L 574.60 30.06 L 576.93 56.68 L 579.27 68.18 L 581.60 59.15 L 583.94 47.32 L 586.27 47.99 L 588.61 66.18 L 590.94 63.73 L 593.28 59.39 L 595.61 42.57 L 597.94 77.54 L 600.28 44.57 L 602.61 50.13 L 604.95 37.42 L 607.28 39.42 L 609.62 21.37 L 611.95 11.34 L 614.29 25.11 L 616.62 23.64 L 618.95 11.34 L 621.29 64.20 L 623.62 68.85 L 625.96 67.31 L 628.29 56.48 L 630.63 59.89 L 632.96 59.49 L 635.30 60.49 L 637.63 53.23 L 639.97 50.89 L 642.30 50.43 L 644.63 34.74 L 646.97 32.74 L 649.30 51.46 L 651.64 65.77 L 653.97 55.48 L 656.31 53.47 L 658.64 68.38 L 660.98 67.91 L 663.31 58.15 L 665.64 50.79 L 667.98 64.30 L 670.31 61.83 L 672.65 58.32 L 674.98 57.48 L 677.32 58.42 L 679.65 59.15 L 681.99 54.14 L 684.32 57.62 L 686.66 57.75 L 688.99 57.58 L 691.32 61.09 L 693.66 61.49 L 695.99 70.86 L 698.33 64.50 L 700.66 59.09 L 703.00 65.47 L 705.33 67.18 L 707.67 73.53 L 710.00 67.51 L 710.00 206.34 L 707.67 206.68 L 705.33 210.83 L 703.00 221.99 L 700.66 204.61 L 698.33 198.59 L 695.99 198.25 L 693.66 197.52 L 691.32 196.18 L 688.99 201.20 L 686.66 201.46 L 684.32 198.85 L 681.99 194.21 L 679.65 193.91 L 677.32 188.09 L 674.98 185.75 L 672.65 182.87 L 670.31 181.87 L 667.98 180.66 L 665.64 189.22 L 663.31 185.61 L 660.98 184.64 L 658.64 182.54 L 656.31 179.59 L 653.97 176.12 L 651.64 180.66 L 649.30 185.51 L 646.97 189.89 L 644.63 183.81 L 642.30 181.30 L 639.97 177.49 L 637.63 186.55 L 635.30 179.86 L 632.96 187.22 L 630.63 180.03 L 628.29 185.21 L 625.96 167.16 L 623.62 163.11 L 621.29 158.56 L 618.95 150.97 L 616.62 143.75 L 614.29 142.14 L 611.95 141.48 L 609.62 149.20 L 607.28 155.15 L 604.95 161.27 L 602.61 164.08 L 600.28 178.66 L 597.94 179.80 L 595.61 177.52 L 593.28 182.50 L 590.94 189.53 L 588.61 195.91 L 586.27 201.80 L 583.94 207.28 L 581.60 205.94 L 579.27 199.26 L 576.93 210.22 L 574.60 217.18 L 572.26 212.77 L 569.93 209.56 L 567.60 223.33 L 565.26 200.93 L 562.93 196.68 L 560.59 200.59 L 558.26 187.22 L 555.92 183.21 L 553.59 188.56 L 551.25 181.73 L 548.92 180.80 L 546.59 188.56 L 544.25 191.60 L 541.92 213.30 L 539.58 192.90 L 537.25 197.25 L 534.91 197.99 L 532.58 201.93 L 530.24 200.93 L 527.91 206.41 L 525.57 214.10 L 523.24 205.98 L 520.91 207.62 L 518.57 206.21 L 516.24 199.96 L 513.90 205.01 L 511.57 212.63 L 509.23 201.03 L 506.90 193.91 L 504.56 194.88 L 502.23 201.26 L 499.90 211.29 L 497.56 207.82 L 495.23 209.02 L 492.89 204.94 L 490.56 204.61 L 488.22 201.60 L 485.89 195.64 L 483.55 194.58 L 481.22 186.82 L 478.89 183.21 L 476.55 181.50 L 474.22 176.38 L 471.88 171.17 L 469.55 166.82 L 467.21 158.60 L 464.88 156.46 L 462.54 154.45 L 460.21 151.44 L 457.87 155.45 L 455.54 147.43 L 453.21 153.78 L 450.87 151.78 L 448.54 150.64 L 446.20 147.19 L 443.87 151.54 L 441.53 148.80 L 439.20 141.48 L 436.86 136.66 L 434.53 132.75 L 432.20 121.92 L 429.86 119.01 L 427.53 113.05 L 425.19 115.60 L 422.86 114.73 L 420.52 118.07 L 418.19 117.30 L 415.85 119.81 L 413.52 119.01 L 411.18 121.01 L 408.85 124.16 L 406.52 129.04 L 404.18 126.36 L 401.85 123.72 L 399.51 128.07 L 397.18 129.20 L 394.84 142.41 L 392.51 149.13 L 390.17 156.79 L 387.84 165.12 L 385.51 164.88 L 383.17 167.42 L 380.84 177.79 L 378.50 190.09 L 376.17 196.51 L 373.83 200.49 L 371.50 199.99 L 369.16 198.72 L 366.83 194.98 L 364.49 190.23 L 362.16 189.43 L 359.83 184.91 L 357.49 186.02 L 355.16 183.27 L 352.82 182.54 L 350.49 181.37 L 348.15 178.53 L 345.82 177.86 L 343.48 176.82 L 341.15 176.52 L 338.82 177.02 L 336.48 175.78 L 334.15 177.52 L 331.81 177.52 L 329.48 178.96 L 327.14 180.53 L 324.81 181.87 L 322.47 182.24 L 320.14 184.81 L 317.80 185.88 L 315.47 186.88 L 313.14 188.02 L 310.80 182.20 L 308.47 178.53 L 306.13 180.46 L 303.80 180.40 L 301.46 178.39 L 299.13 179.63 L 296.79 182.24 L 294.46 185.18 L 292.13 192.57 L 289.79 189.22 L 287.46 183.21 L 285.12 177.39 L 282.79 172.24 L 280.45 168.39 L 278.12 159.47 L 275.78 154.32 L 273.45 153.11 L 271.11 155.12 L 268.78 152.71 L 266.45 162.81 L 264.11 163.65 L 261.78 169.97 L 259.44 177.32 L 257.11 179.86 L 254.77 183.21 L 252.44 191.10 L 250.10 197.92 L 247.77 201.80 L 245.44 201.00 L 243.10 194.91 L 240.77 190.56 L 238.43 196.58 L 236.10 189.49 L 233.76 186.38 L 231.43 186.88 L 229.09 184.24 L 226.76 183.27 L 224.43 181.33 L 222.09 184.14 L 219.76 183.27 L 217.42 192.20 L 215.09 194.04 L 212.75 193.97 L 210.42 194.04 L 208.08 187.09 L 205.75 191.83 L 203.41 189.39 L 201.08 188.16 L 198.75 187.95 L 196.41 186.38 L 194.08 186.68 L 191.74 187.35 L 189.41 189.02 L 187.07 190.40 L 184.74 189.09 L 182.40 187.62 L 180.07 187.22 L 177.74 189.49 L 175.40 191.23 L 173.07 193.47 L 170.73 191.57 L 168.40 192.90 L 166.06 193.34 L 163.73 197.25 L 161.39 194.91 L 159.06 193.91 L 156.72 194.71 L 154.39 202.60 L 152.06 205.94 L 149.72 211.29 L 147.39 190.26 L 145.05 190.36 L 142.72 190.53 L 140.38 189.22 L 138.05 188.29 L 135.71 194.54 L 133.38 197.68 L 131.05 196.18 L 128.71 196.72 L 126.38 196.35 L 124.04 197.68 L 121.71 199.62 L 119.37 203.30 L 117.04 206.95 L 114.70 194.37 L 112.37 191.80 L 110.03 192.23 L 107.70 193.10 L 105.37 192.97 L 103.03 193.10 L 100.70 195.91 L 98.36 197.25 L 96.03 191.53 L 93.69 191.63 L 91.36 190.16 L 89.02 188.02 L 86.69 185.61 L 84.36 183.11 L 82.02 182.20 L 79.69 183.21 L 77.35 182.54 L 75.02 183.81 L 72.68 184.18 L 70.35 184.71 L 68.01 186.52 L 65.68 186.45 L 63.34 187.95 L 61.01 191.23 L 58.68 195.78 L 56.34 208.62 L 54.01 195.58 L 51.67 200.79 L 49.34 201.26 L 47.00 203.90 L 44.67 215.97 L 42.33 201.70 L 40.00 203.40 Z" fill="rgba(231,76,60,0.06)" stroke="none"/><path d="M 40.00 97.61 L 42.33 96.94 L 44.67 100.28 L 47.00 104.29 L 49.34 103.63 L 51.67 103.63 L 54.01 106.30 L 56.34 112.99 L 58.68 114.33 L 61.01 117.00 L 63.34 119.67 L 65.68 119.01 L 68.01 118.34 L 70.35 113.49 L 72.68 111.48 L 75.02 112.65 L 77.35 112.99 L 79.69 111.65 L 82.02 109.64 L 84.36 107.64 L 86.69 107.64 L 89.02 117.00 L 91.36 117.67 L 93.69 117.00 L 96.03 122.85 L 98.36 126.36 L 100.70 132.38 L 103.03 127.70 L 105.37 127.70 L 107.70 131.38 L 110.03 132.72 L 112.37 122.85 L 114.70 124.36 L 117.04 118.34 L 119.37 129.04 L 121.71 127.03 L 124.04 123.69 L 126.38 128.54 L 128.71 125.69 L 131.05 126.36 L 133.38 129.71 L 135.71 129.04 L 138.05 129.04 L 140.38 129.71 L 142.72 129.87 L 145.05 133.05 L 147.39 132.38 L 149.72 136.39 L 152.06 138.07 L 154.39 136.39 L 156.72 135.06 L 159.06 136.39 L 161.39 139.07 L 163.73 145.76 L 166.06 145.09 L 168.40 146.42 L 170.73 149.77 L 173.07 153.11 L 175.40 153.11 L 177.74 153.95 L 180.07 149.77 L 182.40 154.95 L 184.74 155.12 L 187.07 154.45 L 189.41 143.08 L 191.74 121.68 L 194.08 151.78 L 196.41 152.44 L 198.75 151.78 L 201.08 151.78 L 203.41 151.78 L 205.75 152.44 L 208.08 152.44 L 210.42 153.78 L 212.75 156.46 L 215.09 153.78 L 217.42 162.98 L 219.76 157.13 L 222.09 161.14 L 224.43 159.13 L 226.76 161.14 L 229.09 161.14 L 231.43 164.15 L 233.76 168.49 L 236.10 169.83 L 238.43 168.16 L 240.77 165.82 L 243.10 169.16 L 245.44 168.49 L 247.77 169.33 L 250.10 168.49 L 252.44 153.78 L 254.77 147.09 L 257.11 161.14 L 259.44 136.39 L 261.78 116.33 L 264.11 106.30 L 266.45 111.65 L 268.78 113.66 L 271.11 116.33 L 273.45 100.28 L 275.78 85.74 L 278.12 86.24 L 280.45 86.24 L 282.79 85.57 L 285.12 88.91 L 287.46 91.59 L 289.79 94.26 L 292.13 102.96 L 294.46 105.63 L 296.79 102.29 L 299.13 103.46 L 301.46 88.24 L 303.80 76.88 L 306.13 86.07 L 308.47 87.58 L 310.80 96.27 L 313.14 91.59 L 315.47 99.28 L 317.80 92.92 L 320.14 89.58 L 322.47 95.10 L 324.81 105.63 L 327.14 100.95 L 329.48 105.97 L 331.81 112.99 L 334.15 118.34 L 336.48 113.32 L 338.82 124.86 L 341.15 129.71 L 343.48 127.70 L 345.82 120.68 L 348.15 121.01 L 350.49 114.99 L 352.82 119.01 L 355.16 122.35 L 357.49 121.68 L 359.83 128.70 L 362.16 105.46 L 364.49 107.64 L 366.83 107.80 L 369.16 108.31 L 371.50 123.35 L 373.83 130.71 L 376.17 131.71 L 378.50 121.35 L 380.84 104.29 L 383.17 94.93 L 385.51 80.39 L 387.84 78.71 L 390.17 76.21 L 392.51 80.89 L 394.84 99.78 L 397.18 100.28 L 399.51 66.17 L 401.85 67.51 L 404.18 65.51 L 406.52 68.18 L 408.85 60.83 L 411.18 65.17 L 413.52 60.83 L 415.85 63.50 L 418.19 60.16 L 420.52 54.14 L 422.86 56.14 L 425.19 57.48 L 427.53 57.48 L 429.86 62.83 L 432.20 62.16 L 434.53 64.84 L 436.86 70.86 L 439.20 80.89 L 441.53 82.89 L 443.87 82.89 L 446.20 88.91 L 448.54 94.93 L 450.87 95.93 L 453.21 95.93 L 455.54 98.94 L 457.87 93.59 L 460.21 97.61 L 462.54 100.95 L 464.88 99.61 L 467.21 89.58 L 469.55 98.11 L 471.88 101.95 L 474.22 100.95 L 476.55 102.29 L 478.89 108.64 L 481.22 101.62 L 483.55 109.14 L 485.89 110.98 L 488.22 113.66 L 490.56 115.66 L 492.89 119.67 L 495.23 114.99 L 497.56 117.00 L 499.90 120.34 L 502.23 123.02 L 504.56 124.36 L 506.90 131.04 L 509.23 127.37 L 511.57 133.72 L 513.90 134.39 L 516.24 145.76 L 518.57 149.77 L 520.91 148.10 L 523.24 143.08 L 525.57 141.74 L 527.91 140.41 L 530.24 137.06 L 532.58 135.06 L 534.91 130.21 L 537.25 129.71 L 539.58 123.02 L 541.92 114.99 L 544.25 114.83 L 546.59 111.98 L 548.92 114.33 L 551.25 114.33 L 553.59 116.33 L 555.92 129.04 L 558.26 130.04 L 560.59 128.70 L 562.93 130.38 L 565.26 127.70 L 567.60 127.70 L 569.93 120.51 L 572.26 103.63 L 574.60 104.29 L 576.93 113.66 L 579.27 104.29 L 581.60 101.62 L 583.94 106.97 L 586.27 81.56 L 588.61 101.62 L 590.94 91.59 L 593.28 89.58 L 595.61 94.26 L 597.94 86.24 L 600.28 80.22 L 602.61 79.55 L 604.95 86.91 L 607.28 82.23 L 609.62 82.39 L 611.95 84.23 L 614.29 100.28 L 616.62 109.64 L 618.95 110.98 L 621.29 119.01 L 623.62 117.67 L 625.96 114.33 L 628.29 105.63 L 630.63 84.90 L 632.96 73.53 L 635.30 77.71 L 637.63 86.40 L 639.97 87.58 L 642.30 78.21 L 644.63 90.92 L 646.97 84.23 L 649.30 88.58 L 651.64 82.23 L 653.97 90.92 L 656.31 95.60 L 658.64 97.61 L 660.98 95.60 L 663.31 89.58 L 665.64 87.58 L 667.98 86.91 L 670.31 87.58 L 672.65 91.59 L 674.98 84.90 L 677.32 85.57 L 679.65 86.24 L 681.99 86.24 L 684.32 86.24 L 686.66 86.24 L 688.99 88.24 L 691.32 89.25 L 693.66 80.89 L 695.99 79.22 L 698.33 82.89 L 700.66 86.91 L 703.00 87.58 L 705.33 90.92 L 707.67 95.60 L 710.00 94.93 L 710.00 178.53 L 707.67 165.99 L 705.33 169.83 L 703.00 167.16 L 700.66 167.16 L 698.33 153.45 L 695.99 163.14 L 693.66 156.79 L 691.32 159.80 L 688.99 157.13 L 686.66 155.79 L 684.32 153.11 L 681.99 147.76 L 679.65 140.41 L 677.32 133.05 L 674.98 135.06 L 672.65 131.04 L 670.31 147.76 L 667.98 141.08 L 665.64 139.07 L 663.31 142.41 L 660.98 143.08 L 658.64 149.10 L 656.31 143.08 L 653.97 149.10 L 651.64 153.11 L 649.30 151.27 L 646.97 153.11 L 644.63 153.11 L 642.30 167.32 L 639.97 162.47 L 637.63 153.78 L 635.30 149.77 L 632.96 151.78 L 630.63 147.76 L 628.29 141.41 L 625.96 137.73 L 623.62 133.05 L 621.29 133.05 L 618.95 132.38 L 616.62 126.36 L 614.29 126.36 L 611.95 126.36 L 609.62 135.73 L 607.28 139.74 L 604.95 145.09 L 602.61 146.42 L 600.28 153.11 L 597.94 135.06 L 595.61 145.76 L 593.28 154.95 L 590.94 158.46 L 588.61 144.42 L 586.27 164.48 L 583.94 169.83 L 581.60 171.17 L 579.27 171.17 L 576.93 169.16 L 574.60 163.81 L 572.26 170.83 L 569.93 163.81 L 567.60 165.82 L 565.26 166.82 L 562.93 165.82 L 560.59 158.46 L 558.26 161.81 L 555.92 156.46 L 553.59 163.81 L 551.25 164.48 L 548.92 153.78 L 546.59 155.12 L 544.25 159.63 L 541.92 161.81 L 539.58 151.78 L 537.25 164.48 L 534.91 161.14 L 532.58 167.49 L 530.24 178.53 L 527.91 184.54 L 525.57 184.21 L 523.24 185.88 L 520.91 179.19 L 518.57 173.17 L 516.24 170.17 L 513.90 166.49 L 511.57 163.81 L 509.23 167.49 L 506.90 166.15 L 504.56 167.83 L 502.23 173.17 L 499.90 178.53 L 497.56 183.88 L 495.23 179.03 L 492.89 172.84 L 490.56 175.18 L 488.22 187.89 L 485.89 172.51 L 483.55 163.14 L 481.22 177.19 L 478.89 175.85 L 476.55 144.42 L 474.22 161.81 L 471.88 153.11 L 469.55 153.78 L 467.21 149.77 L 464.88 143.08 L 462.54 137.73 L 460.21 134.39 L 457.87 135.73 L 455.54 127.70 L 453.21 128.37 L 450.87 123.02 L 448.54 119.01 L 446.20 119.84 L 443.87 111.15 L 441.53 107.14 L 439.20 106.97 L 436.86 101.62 L 434.53 102.12 L 432.20 100.95 L 429.86 100.95 L 427.53 102.29 L 425.19 98.27 L 422.86 93.43 L 420.52 94.43 L 418.19 91.09 L 415.85 86.91 L 413.52 88.24 L 411.18 93.59 L 408.85 100.95 L 406.52 108.98 L 404.18 107.64 L 401.85 116.33 L 399.51 117.67 L 397.18 119.84 L 394.84 125.02 L 392.51 127.70 L 390.17 132.38 L 387.84 137.73 L 385.51 137.06 L 383.17 140.41 L 380.84 157.96 L 378.50 170.00 L 376.17 177.86 L 373.83 174.51 L 371.50 172.67 L 369.16 173.84 L 366.83 173.84 L 364.49 169.50 L 362.16 165.65 L 359.83 169.16 L 357.49 166.49 L 355.16 160.47 L 352.82 156.46 L 350.49 157.13 L 348.15 149.77 L 345.82 153.45 L 343.48 157.79 L 341.15 152.44 L 338.82 151.78 L 336.48 155.29 L 334.15 157.79 L 331.81 157.79 L 329.48 154.62 L 327.14 151.11 L 324.81 145.09 L 322.47 137.23 L 320.14 140.41 L 317.80 143.08 L 315.47 135.06 L 313.14 138.40 L 310.80 134.72 L 308.47 131.38 L 306.13 133.72 L 303.80 133.72 L 301.46 138.40 L 299.13 133.72 L 296.79 137.73 L 294.46 130.21 L 292.13 147.76 L 289.79 145.09 L 287.46 145.09 L 285.12 141.91 L 282.79 149.10 L 280.45 141.41 L 278.12 143.08 L 275.78 137.73 L 273.45 137.23 L 271.11 135.73 L 268.78 142.41 L 266.45 151.78 L 264.11 152.44 L 261.78 159.63 L 259.44 165.15 L 257.11 169.16 L 254.77 169.83 L 252.44 175.85 L 250.10 185.21 L 247.77 185.55 L 245.44 184.54 L 243.10 183.88 L 240.77 181.53 L 238.43 180.53 L 236.10 176.52 L 233.76 179.36 L 231.43 180.20 L 229.09 181.53 L 226.76 177.86 L 224.43 176.52 L 222.09 175.18 L 219.76 173.17 L 217.42 176.52 L 215.09 175.85 L 212.75 175.52 L 210.42 179.86 L 208.08 177.86 L 205.75 178.53 L 203.41 183.21 L 201.08 179.19 L 198.75 177.19 L 196.41 176.52 L 194.08 179.19 L 191.74 177.19 L 189.41 177.86 L 187.07 177.19 L 184.74 179.19 L 182.40 181.03 L 180.07 178.53 L 177.74 180.03 L 175.40 179.19 L 173.07 178.53 L 170.73 184.21 L 168.40 179.86 L 166.06 177.52 L 163.73 177.19 L 161.39 176.52 L 159.06 181.20 L 156.72 184.21 L 154.39 184.21 L 152.06 183.88 L 149.72 183.88 L 147.39 181.87 L 145.05 182.54 L 142.72 182.54 L 140.38 181.87 L 138.05 181.87 L 135.71 179.53 L 133.38 179.19 L 131.05 180.53 L 128.71 190.56 L 126.38 193.24 L 124.04 183.04 L 121.71 179.19 L 119.37 178.86 L 117.04 183.21 L 114.70 179.86 L 112.37 178.53 L 110.03 177.19 L 107.70 174.51 L 105.37 168.49 L 103.03 165.82 L 100.70 169.16 L 98.36 172.51 L 96.03 176.85 L 93.69 173.84 L 91.36 165.15 L 89.02 162.47 L 86.69 159.80 L 84.36 159.80 L 82.02 158.46 L 79.69 167.16 L 77.35 165.82 L 75.02 165.82 L 72.68 165.82 L 70.35 160.30 L 68.01 156.46 L 65.68 155.12 L 63.34 154.45 L 61.01 158.13 L 58.68 150.44 L 56.34 149.77 L 54.01 149.10 L 51.67 147.76 L 49.34 164.48 L 47.00 175.85 L 44.67 177.19 L 42.33 179.86 L 40.00 170.00 Z" fill="rgba(230,126,34,0.22)" stroke="none"/><path d="M 40.00 122.02 L 42.33 122.68 L 44.67 129.04 L 47.00 126.03 L 49.34 123.69 L 51.67 127.70 L 54.01 127.70 L 56.34 135.73 L 58.68 134.39 L 61.01 132.72 L 63.34 136.39 L 65.68 133.05 L 68.01 132.38 L 70.35 133.05 L 72.68 135.73 L 75.02 137.40 L 77.35 136.39 L 79.69 143.08 L 82.02 138.40 L 84.36 143.42 L 86.69 145.76 L 89.02 149.77 L 91.36 145.09 L 93.69 151.11 L 96.03 145.76 L 98.36 151.11 L 100.70 153.78 L 103.03 151.11 L 105.37 157.79 L 107.70 160.47 L 110.03 160.47 L 112.37 153.78 L 114.70 156.12 L 117.04 157.13 L 119.37 158.13 L 121.71 156.46 L 124.04 156.12 L 126.38 154.45 L 128.71 154.45 L 131.05 154.45 L 133.38 153.78 L 135.71 153.78 L 138.05 154.45 L 140.38 153.11 L 142.72 146.42 L 145.05 141.74 L 147.39 144.42 L 149.72 151.11 L 152.06 153.78 L 154.39 151.78 L 156.72 146.42 L 159.06 148.43 L 161.39 149.77 L 163.73 150.44 L 166.06 154.45 L 168.40 149.77 L 170.73 159.13 L 173.07 160.13 L 175.40 160.47 L 177.74 162.81 L 180.07 161.81 L 182.40 165.82 L 184.74 163.14 L 187.07 164.48 L 189.41 160.47 L 191.74 164.48 L 194.08 167.16 L 196.41 167.16 L 198.75 167.16 L 201.08 167.83 L 203.41 168.49 L 205.75 167.49 L 208.08 169.16 L 210.42 169.16 L 212.75 167.83 L 215.09 167.83 L 217.42 166.49 L 219.76 169.83 L 222.09 172.51 L 224.43 173.84 L 226.76 174.18 L 229.09 176.52 L 231.43 178.53 L 233.76 175.85 L 236.10 174.51 L 238.43 175.85 L 240.77 173.51 L 243.10 174.51 L 245.44 177.86 L 247.77 173.51 L 250.10 173.51 L 252.44 169.16 L 254.77 164.48 L 257.11 163.81 L 259.44 158.46 L 261.78 153.45 L 264.11 143.42 L 266.45 137.73 L 268.78 137.73 L 271.11 125.69 L 273.45 118.34 L 275.78 114.99 L 278.12 112.99 L 280.45 115.66 L 282.79 112.32 L 285.12 105.63 L 287.46 107.64 L 289.79 105.63 L 292.13 112.99 L 294.46 116.67 L 296.79 118.34 L 299.13 116.33 L 301.46 116.33 L 303.80 112.32 L 306.13 117.33 L 308.47 119.34 L 310.80 124.36 L 313.14 126.36 L 315.47 121.01 L 317.80 126.36 L 320.14 119.01 L 322.47 125.69 L 324.81 128.37 L 327.14 137.06 L 329.48 143.75 L 331.81 136.39 L 334.15 144.42 L 336.48 139.07 L 338.82 142.41 L 341.15 137.06 L 343.48 135.73 L 345.82 139.74 L 348.15 147.09 L 350.49 148.43 L 352.82 149.10 L 355.16 147.76 L 357.49 147.76 L 359.83 144.42 L 362.16 141.08 L 364.49 135.73 L 366.83 138.73 L 369.16 136.39 L 371.50 143.42 L 373.83 148.43 L 376.17 139.74 L 378.50 134.72 L 380.84 118.34 L 383.17 125.02 L 385.51 121.01 L 387.84 116.67 L 390.17 115.66 L 392.51 114.99 L 394.84 111.32 L 397.18 110.31 L 399.51 105.63 L 401.85 103.63 L 404.18 94.26 L 406.52 92.92 L 408.85 87.24 L 411.18 81.56 L 413.52 81.56 L 415.85 75.54 L 418.19 73.53 L 420.52 82.23 L 422.86 69.52 L 425.19 63.50 L 427.53 68.85 L 429.86 84.90 L 432.20 89.58 L 434.53 80.22 L 436.86 79.55 L 439.20 89.58 L 441.53 94.26 L 443.87 92.26 L 446.20 98.27 L 448.54 108.98 L 450.87 108.98 L 453.21 112.99 L 455.54 114.99 L 457.87 124.36 L 460.21 123.02 L 462.54 129.04 L 464.88 108.98 L 467.21 114.33 L 469.55 135.06 L 471.88 129.71 L 474.22 125.69 L 476.55 131.71 L 478.89 133.72 L 481.22 139.07 L 483.55 149.10 L 485.89 148.43 L 488.22 138.40 L 490.56 133.05 L 492.89 138.40 L 495.23 150.77 L 497.56 164.48 L 499.90 161.14 L 502.23 146.42 L 504.56 158.13 L 506.90 159.80 L 509.23 151.11 L 511.57 154.12 L 513.90 153.45 L 516.24 157.79 L 518.57 161.81 L 520.91 157.13 L 523.24 169.50 L 525.57 163.81 L 527.91 157.79 L 530.24 158.46 L 532.58 159.47 L 534.91 154.45 L 537.25 149.10 L 539.58 137.06 L 541.92 127.70 L 544.25 128.37 L 546.59 126.36 L 548.92 139.07 L 551.25 145.42 L 553.59 141.74 L 555.92 142.41 L 558.26 147.09 L 560.59 154.45 L 562.93 153.78 L 565.26 150.44 L 567.60 152.44 L 569.93 157.13 L 572.26 149.77 L 574.60 137.06 L 576.93 139.07 L 579.27 123.69 L 581.60 126.36 L 583.94 135.06 L 586.27 112.32 L 588.61 113.66 L 590.94 104.96 L 593.28 102.96 L 595.61 105.63 L 597.94 110.98 L 600.28 119.67 L 602.61 117.00 L 604.95 116.33 L 607.28 116.00 L 609.62 117.67 L 611.95 117.00 L 614.29 114.99 L 616.62 118.34 L 618.95 122.35 L 621.29 123.02 L 623.62 128.37 L 625.96 127.70 L 628.29 125.69 L 630.63 127.37 L 632.96 133.72 L 635.30 132.05 L 637.63 131.38 L 639.97 131.71 L 642.30 135.06 L 644.63 135.39 L 646.97 125.69 L 649.30 126.36 L 651.64 107.64 L 653.97 98.27 L 656.31 99.61 L 658.64 111.65 L 660.98 114.66 L 663.31 119.01 L 665.64 107.64 L 667.98 113.66 L 670.31 112.99 L 672.65 117.67 L 674.98 121.01 L 677.32 120.34 L 679.65 120.34 L 681.99 119.34 L 684.32 123.69 L 686.66 124.69 L 688.99 120.68 L 691.32 123.02 L 693.66 122.35 L 695.99 123.02 L 698.33 122.35 L 700.66 120.34 L 703.00 118.67 L 705.33 116.33 L 707.67 110.31 L 710.00 118.34" fill="none" stroke="#2c3e50" stroke-width="2"/></svg>