<?xml version="1.0"?><svg viewBox="0 0 720 260" width="100%" height="260" xmlns="http://www.w3.org/2000/svg"><rect width="100%" height="100%" fill="#fff"/><line x1="40" y1="210.625" x2="710" y2="210.625" stroke="#eee"/><text x="32" y="214.625" text-anchor="end" font-size="10" fill="#666" font-family="system-ui,Arial">60</text><line x1="40" y1="183.875" x2="710" y2="183.875" stroke="#eee"/><text x="32" y="187.875" text-anchor="end" font-size="10" fill="#666" font-family="system-ui,Arial">100</text><line x1="40" y1="157.125" x2="710" y2="157.125" stroke="#eee"/><text x="32" y="161.125" text-anchor="end" font-size="10" fill="#666" font-family="system-ui,Arial">140</text><line x1="40" y1="130.375" x2="710" y2="130.375" stroke="#eee"/><text x="32" y="134.375" text-anchor="end" font-size="10" fill="#666" font-family="system-ui,Arial">180</text><line x1="40" y1="103.625" x2="710" y2="103.625" stroke="#eee"/><text x="32" y="107.625" text-anchor="end" font-size="10" fill="#666" font-family="system-ui,Arial">220</text><line x1="40" y1="76.875" x2="710" y2="76.875" stroke="#eee"/><text x="32" y="80.875" text-anchor="end" font-size="10" fill="#666" font-family="system-ui,Arial">260</text><line x1="40" y1="50.125" x2="710" y2="50.125" stroke="#eee"/><text x="32" y="54.125" text-anchor="end" font-size="10" fill="#666" font-family="system-ui,Arial">300</text><line x1="40" y1="23.375" x2="710" y2="23.375" stroke="#eee"/><text x="32" y="27.375" text-anchor="end" font-size="10" fill="#666" font-family="system-ui,Arial">340</text><line x1="208.0836236933798" y1="10" x2="208.0836236933798" y2="224" stroke="#eee"/><text x="208.0836236933798" y="238" text-anchor="middle" font-size="10" fill="#666" font-family="system-ui,Arial">6</text><line x1="292.1254355400697" y1="10" x2="292.1254355400697" y2="224" stroke="#eee"/><text x="292.1254355400697" y="238" text-anchor="middle" font-size="10" fill="#666" font-family="system-ui,Arial">9</text><line x1="376.1672473867596" y1="10" x2="376.1672473867596" y2="224" stroke="#eee"/><text x="376.1672473867596" y="238" text-anchor="middle" font-size="10" fill="#666" font-family="system-ui,Arial">12</text><line x1="460.20905923344947" y1="10" x2="460.20905923344947" y2="224" stroke="#eee"/><text x="460.20905923344947" y="238" text-anchor="middle" font-size="10" fill="#666" font-family="system-ui,Arial">15</text><line x1="544.2508710801394" y1="10" x2="544.2508710801394" y2="224" stroke="#eee"/><text x="544.2508710801394" y="238" text-anchor="middle" font-size="10" fill="#666" font-family="system-ui,Arial">18</text><line x1="628.2926829268292" y1="10" x2="628.2926829268292" y2="224" stroke="#eee"/><text x="628.2926829268292" y="238" text-anchor="middle" font-size="10" fill="#666" font-family="system-ui,Arial">21</text><rect x="40" y="130.375" width="670" height="73.5625" fill="rgba(39,174,96,0.07)"/><path d="M 40.00 79.22 L 42.33 82.33 L 44.67 85.57 L 47.00 85.60 L 49.34 84.43 L 51.67 85.03 L 54.01 83.56 L 56.34 79.48 L 58.68 77.34 L 61.01 75.87 L 63.34 73.40 L 65.68 75.14 L 68.01 75.20 L 70.35 68.18 L 72.68 62.20 L 75.02 58.15 L 77.35 53.47 L 79.69 51.86 L 82.02 52.16 L 84.36 50.13 L 86.69 47.18 L 89.02 45.58 L 91.36 46.11 L 93.69 44.14 L 96.03 41.43 L 98.36 42.43 L 100.70 39.09 L 103.03 33.94 L 105.37 34.34 L 107.70 37.42 L 110.03 39.63 L 112.37 36.08 L 114.70 38.32 L 117.04 25.38 L 119.37 35.55 L 121.71 35.51 L 124.04 37.75 L 126.38 33.01 L 128.71 31.67 L 131.05 31.67 L 133.38 35.75 L 135.71 40.76 L 138.05 32.07 L 140.38 37.05 L 142.72 10.00 L 145.05 30.60 L 147.39 29.19 L 149.72 26.59 L 152.06 38.76 L 154.39 44.47 L 156.72 27.42 L 159.06 37.82 L 161.39 38.76 L 163.73 12.67 L 166.06 55.91 L 168.40 68.92 L 170.73 64.50 L 173.07 64.47 L 175.40 64.30 L 177.74 70.76 L 180.07 75.20 L 182.40 79.88 L 184.74 73.80 L 187.07 66.17 L 189.41 71.66 L 191.74 63.50 L 194.08 86.51 L 196.41 92.52 L 198.75 83.83 L 201.08 66.17 L 203.41 109.24 L 205.75 95.63 L 208.08 103.89 L 210.42 109.28 L 212.75 112.39 L 215.09 116.97 L 217.42 124.09 L 219.76 127.17 L 222.09 132.68 L 224.43 135.73 L 226.76 140.71 L 229.09 148.10 L 231.43 154.12 L 233.76 155.25 L 236.10 157.73 L 238.43 159.13 L 240.77 147.76 L 243.10 149.27 L 245.44 161.67 L 247.77 160.10 L 250.10 154.62 L 252.44 134.92 L 254.77 118.47 L 257.11 109.58 L 259.44 98.01 L 261.78 84.47 L 264.11 66.17 L 266.45 67.51 L 268.78 62.76 L 271.11 58.05 L 273.45 56.88 L 275.78 44.11 L 278.12 37.42 L 280.45 38.09 L 282.79 40.90 L 285.12 33.47 L 287.46 28.73 L 289.79 27.49 L 292.13 25.28 L 294.46 10.00 L 296.79 35.75 L 299.13 31.47 L 301.46 37.42 L 303.80 38.62 L 306.13 26.72 L 308.47 59.09 L 310.80 61.49 L 313.14 56.68 L 315.47 64.90 L 317.80 71.53 L 320.14 70.32 L 322.47 68.18 L 324.81 77.88 L 327.14 72.23 L 329.48 70.96 L 331.81 64.50 L 334.15 62.83 L 336.48 69.79 L 338.82 59.65 L 341.15 63.50 L 343.48 71.12 L 345.82 72.86 L 348.15 79.52 L 350.49 87.01 L 352.82 70.19 L 355.16 87.17 L 357.49 88.24 L 359.83 87.61 L 362.16 81.02 L 364.49 80.22 L 366.83 86.10 L 369.16 68.18 L 371.50 66.28 L 373.83 68.65 L 376.17 52.13 L 378.50 72.53 L 380.84 72.06 L 383.17 65.37 L 385.51 64.30 L 387.84 62.83 L 390.17 53.47 L 392.51 43.44 L 394.84 56.28 L 397.18 61.43 L 399.51 57.72 L 401.85 52.13 L 404.18 54.27 L 406.52 51.50 L 408.85 51.46 L 411.18 41.10 L 413.52 38.09 L 415.85 33.27 L 418.19 32.60 L 420.52 35.08 L 422.86 23.38 L 425.19 23.91 L 427.53 18.79 L 429.86 11.34 L 432.20 28.12 L 434.53 31.90 L 436.86 37.29 L 439.20 35.55 L 441.53 44.11 L 443.87 47.78 L 446.20 46.38 L 448.54 43.04 L 450.87 51.50 L 453.21 57.62 L 455.54 64.07 L 457.87 64.17 L 460.21 71.53 L 462.54 64.30 L 464.88 44.77 L 467.21 52.13 L 469.55 53.67 L 471.88 53.94 L 474.22 53.57 L 476.55 58.15 L 478.89 53.80 L 481.22 50.13 L 483.55 58.05 L 485.89 63.50 L 488.22 64.90 L 490.56 62.16 L 492.89 86.44 L 495.23 94.93 L 497.56 109.64 L 499.90 114.59 L 502.23 111.72 L 504.56 109.48 L 506.90 114.73 L 509.23 109.64 L 511.57 108.98 L 513.90 108.31 L 516.24 104.29 L 518.57 93.39 L 520.91 83.26 L 523.24 84.93 L 525.57 77.54 L 527.91 73.50 L 530.24 68.85 L 532.58 66.84 L 534.91 61.29 L 537.25 54.27 L 539.58 65.84 L 541.92 75.54 L 544.25 72.06 L 546.59 60.16 L 548.92 59.89 L 551.25 54.14 L 553.59 55.14 L 555.92 66.51 L 558.26 66.94 L 560.59 66.51 L 562.93 78.91 L 565.26 52.13 L 567.60 33.81 L 569.93 43.14 L 572.26 56.41 L 574.60 30.06 L 576.93 56.68 L 579.27 68.18 L 581.60 59.15 L 583.94 47.32 L 586.27 47.99 L 588.61 66.18 L 590.94 63.73 L 593.28 59.39 L 595.61 42.57 L 597.94 77.54 L 600.28 44.57 L 602.61 50.13 L 604.95 37.42 L 607.28 39.42 L 609.62 21.37 L 611.95 11.34 L 614.29 25.11 L 616.62 23.64 L 618.95 11.34 L 621.29 64.20 L 623.62 68.85 L 625.96 68.05 L 628.29 56.48 L 630.63 60.42 L 632.96 59.49 L 635.30 60.49 L 637.63 53.23 L 639.97 52.00 L 642.30 50.43 L 644.63 34.74 L 646.97 32.74 L 649.30 51.46 L 651.64 65.77 L 653.97 55.48 L 656.31 53.47 L 658.64 68.38 L 660.98 67.91 L 663.31 59.15 L 665.64 50.79 L 667.98 64.30 L 670.31 62.93 L 672.65 58.32 L 674.98 57.48 L 677.32 58.42 L 679.65 59.15 L 681.99 54.14 L 684.32 57.62 L 686.66 58.55 L 688.99 57.58 L 691.32 62.16 L 693.66 61.49 L 695.99 70.86 L 698.33 64.50 L 700.66 59.09 L 703.00 65.47 L 705.33 67.18 L 707.67 73.53 L 710.00 67.51 L 710.00 204.97 L 707.67 206.68 L 705.33 210.83 L 703.00 221.99 L 700.66 204.61 L 698.33 198.59 L 695.99 198.25 L 693.66 197.52 L 691.32 194.58 L 688.99 200.26 L 686.66 197.92 L 684.32 195.38 L 681.99 184.68 L 679.65 184.54 L 677.32 179.49 L 674.98 173.84 L 672.65 168.96 L 670.31 176.52 L 667.98 175.85 L 665.64 168.93 L 663.31 172.47 L 660.98 172.04 L 658.64 175.18 L 656.31 167.56 L 653.97 173.17 L 651.64 172.24 L 649.30 179.86 L 646.97 180.53 L 644.63 182.50 L 642.30 181.30 L 639.97 177.19 L 637.63 186.55 L 635.30 179.86 L 632.96 187.22 L 630.63 178.53 L 628.29 185.21 L 625.96 166.49 L 623.62 163.11 L 621.29 158.56 L 618.95 150.97 L 616.62 143.75 L 614.29 142.14 L 611.95 141.48 L 609.62 149.50 L 607.28 154.78 L 604.95 161.00 L 602.61 163.55 L 600.28 162.88 L 597.94 162.64 L 595.61 162.41 L 593.28 161.94 L 590.94 171.90 L 588.61 175.18 L 586.27 188.16 L 583.94 207.28 L 581.60 205.94 L 579.27 199.26 L 576.93 209.42 L 574.60 217.18 L 572.26 214.37 L 569.93 209.56 L 567.60 223.33 L 565.26 200.93 L 562.93 198.89 L 560.59 200.59 L 558.26 187.22 L 555.92 180.20 L 553.59 179.19 L 551.25 181.33 L 548.92 180.80 L 546.59 188.56 L 544.25 191.60 L 541.92 213.30 L 539.58 192.90 L 537.25 202.27 L 534.91 202.20 L 532.58 202.03 L 530.24 200.86 L 527.91 206.41 L 525.57 214.10 L 523.24 205.98 L 520.91 207.05 L 518.57 208.15 L 516.24 204.71 L 513.90 208.22 L 511.57 215.31 L 509.23 203.50 L 506.90 195.24 L 504.56 195.75 L 502.23 203.27 L 499.90 211.29 L 497.56 208.02 L 495.23 210.22 L 492.89 205.64 L 490.56 204.61 L 488.22 201.76 L 485.89 195.64 L 483.55 194.58 L 481.22 186.82 L 478.89 183.21 L 476.55 181.53 L 474.22 175.95 L 471.88 171.03 L 469.55 167.83 L 467.21 158.60 L 464.88 156.46 L 462.54 154.45 L 460.21 151.44 L 457.87 155.22 L 455.54 147.06 L 453.21 153.78 L 450.87 143.21 L 448.54 151.84 L 446.20 147.63 L 443.87 143.42 L 441.53 133.72 L 439.20 123.42 L 436.86 126.76 L 434.53 118.84 L 432.20 108.74 L 429.86 109.31 L 427.53 112.15 L 425.19 114.39 L 422.86 110.81 L 420.52 110.98 L 418.19 112.18 L 415.85 113.12 L 413.52 102.96 L 411.18 110.31 L 408.85 119.94 L 406.52 129.04 L 404.18 126.36 L 401.85 119.67 L 399.51 119.74 L 397.18 124.29 L 394.84 138.00 L 392.51 148.70 L 390.17 153.25 L 387.84 160.80 L 385.51 158.06 L 383.17 163.14 L 380.84 163.95 L 378.50 179.19 L 376.17 189.29 L 373.83 194.91 L 371.50 195.34 L 369.16 196.35 L 366.83 191.23 L 364.49 178.53 L 362.16 176.55 L 359.83 175.88 L 357.49 174.11 L 355.16 169.43 L 352.82 173.17 L 350.49 170.30 L 348.15 166.75 L 345.82 167.83 L 343.48 165.95 L 341.15 166.82 L 338.82 169.20 L 336.48 166.49 L 334.15 169.16 L 331.81 169.50 L 329.48 170.83 L 327.14 180.53 L 324.81 181.87 L 322.47 167.83 L 320.14 169.30 L 317.80 176.52 L 315.47 177.12 L 313.14 184.41 L 310.80 181.87 L 308.47 178.53 L 306.13 180.40 L 303.80 180.40 L 301.46 178.39 L 299.13 179.63 L 296.79 182.20 L 294.46 184.81 L 292.13 192.57 L 289.79 189.22 L 287.46 183.21 L 285.12 177.39 L 282.79 172.24 L 280.45 168.39 L 278.12 159.47 L 275.78 154.32 L 273.45 153.78 L 271.11 155.12 L 268.78 152.71 L 266.45 162.81 L 264.11 163.65 L 261.78 169.97 L 259.44 177.25 L 257.11 179.86 L 254.77 182.54 L 252.44 190.56 L 250.10 197.25 L 247.77 202.33 L 245.44 201.80 L 243.10 195.75 L 240.77 190.56 L 238.43 196.58 L 236.10 190.96 L 233.76 189.36 L 231.43 190.23 L 229.09 189.89 L 226.76 189.76 L 224.43 185.88 L 222.09 186.08 L 219.76 185.48 L 217.42 191.77 L 215.09 193.64 L 212.75 193.97 L 210.42 193.30 L 208.08 187.09 L 205.75 191.83 L 203.41 189.22 L 201.08 188.16 L 198.75 187.95 L 196.41 186.98 L 194.08 185.61 L 191.74 185.95 L 189.41 186.68 L 187.07 193.40 L 184.74 188.56 L 182.40 185.21 L 180.07 184.88 L 177.74 185.35 L 175.40 188.82 L 173.07 189.79 L 170.73 188.89 L 168.40 189.89 L 166.06 189.29 L 163.73 191.06 L 161.39 188.69 L 159.06 188.29 L 156.72 190.53 L 154.39 198.55 L 152.06 205.94 L 149.72 211.29 L 147.39 186.98 L 145.05 184.81 L 142.72 188.05 L 140.38 189.22 L 138.05 188.29 L 135.71 193.24 L 133.38 194.98 L 131.05 193.77 L 128.71 194.84 L 126.38 195.24 L 124.04 195.58 L 121.71 197.22 L 119.37 201.50 L 117.04 203.87 L 114.70 187.42 L 112.37 184.84 L 110.03 183.88 L 107.70 185.21 L 105.37 185.75 L 103.03 184.28 L 100.70 195.91 L 98.36 197.25 L 96.03 190.90 L 93.69 189.59 L 91.36 183.37 L 89.02 184.01 L 86.69 182.14 L 84.36 175.42 L 82.02 173.44 L 79.69 174.04 L 77.35 175.85 L 75.02 172.51 L 72.68 177.19 L 70.35 178.59 L 68.01 181.20 L 65.68 180.20 L 63.34 183.54 L 61.01 191.23 L 58.68 192.30 L 56.34 208.62 L 54.01 194.91 L 51.67 199.39 L 49.34 202.73 L 47.00 203.90 L 44.67 215.97 L 42.33 201.70 L 40.00 201.93 Z" fill="rgba(231,76,60,0.06)" stroke="none"/><path d="M 40.00 97.61 L 42.33 96.94 L 44.67 97.44 L 47.00 104.29 L 49.34 103.63 L 51.67 103.63 L 54.01 106.30 L 56.34 113.49 L 58.68 115.33 L 61.01 117.00 L 63.34 119.67 L 65.68 119.01 L 68.01 118.34 L 70.35 113.49 L 72.68 111.48 L 75.02 113.66 L 77.35 112.99 L 79.69 111.65 L 82.02 109.64 L 84.36 107.64 L 86.69 107.64 L 89.02 117.00 L 91.36 120.85 L 93.69 117.00 L 96.03 124.69 L 98.36 126.36 L 100.70 132.38 L 103.03 127.70 L 105.37 127.70 L 107.70 129.71 L 110.03 135.56 L 112.37 122.85 L 114.70 124.36 L 117.04 121.01 L 119.37 129.04 L 121.71 127.03 L 124.04 123.69 L 126.38 128.54 L 128.71 125.69 L 131.05 126.36 L 133.38 129.71 L 135.71 132.38 L 138.05 129.04 L 140.38 129.71 L 142.72 129.87 L 145.05 133.05 L 147.39 132.38 L 149.72 136.39 L 152.06 138.07 L 154.39 136.39 L 156.72 135.06 L 159.06 136.39 L 161.39 139.07 L 163.73 145.76 L 166.06 145.09 L 168.40 146.42 L 170.73 149.77 L 173.07 153.11 L 175.40 153.11 L 177.74 153.95 L 180.07 149.77 L 182.40 156.12 L 184.74 155.12 L 187.07 154.45 L 189.41 133.05 L 191.74 129.71 L 194.08 151.78 L 196.41 152.44 L 198.75 151.78 L 201.08 151.78 L 203.41 151.78 L 205.75 152.44 L 208.08 152.44 L 210.42 155.45 L 212.75 156.46 L 215.09 155.79 L 217.42 165.15 L 219.76 157.13 L 222.09 159.80 L 224.43 159.13 L 226.76 161.14 L 229.09 161.14 L 231.43 164.15 L 233.76 168.49 L 236.10 169.83 L 238.43 168.16 L 240.77 165.82 L 243.10 169.16 L 245.44 168.16 L 247.77 168.33 L 250.10 168.49 L 252.44 153.78 L 254.77 140.41 L 257.11 130.38 L 259.44 123.02 L 261.78 110.98 L 264.11 104.96 L 266.45 105.63 L 268.78 102.29 L 271.11 99.11 L 273.45 97.61 L 275.78 85.74 L 278.12 86.24 L 280.45 86.24 L 282.79 85.57 L 285.12 88.91 L 287.46 91.59 L 289.79 94.26 L 292.13 102.96 L 294.46 105.63 L 296.79 102.29 L 299.13 103.46 L 301.46 88.24 L 303.80 76.88 L 306.13 89.58 L 308.47 87.58 L 310.80 96.27 L 313.14 85.57 L 315.47 103.46 L 317.80 92.92 L 320.14 89.58 L 322.47 95.27 L 324.81 104.63 L 327.14 100.95 L 329.48 102.29 L 331.81 102.96 L 334.15 102.96 L 336.48 103.63 L 338.82 107.47 L 341.15 110.98 L 343.48 113.66 L 345.82 115.33 L 348.15 118.00 L 350.49 114.99 L 352.82 119.01 L 355.16 122.35 L 357.49 121.68 L 359.83 123.69 L 362.16 105.46 L 364.49 107.64 L 366.83 109.98 L 369.16 108.31 L 371.50 123.35 L 373.83 130.71 L 376.17 131.71 L 378.50 121.68 L 380.84 104.29 L 383.17 94.93 L 385.51 80.39 L 387.84 70.86 L 390.17 76.21 L 392.51 80.89 L 394.84 86.24 L 397.18 98.94 L 399.51 66.17 L 401.85 69.52 L 404.18 65.51 L 406.52 59.99 L 408.85 58.15 L 411.18 60.16 L 413.52 56.14 L 415.85 55.48 L 418.19 52.13 L 420.52 53.47 L 422.86 50.79 L 425.19 52.30 L 427.53 55.48 L 429.86 58.82 L 432.20 58.82 L 434.53 62.33 L 436.86 69.52 L 439.20 65.51 L 441.53 70.86 L 443.87 80.22 L 446.20 88.91 L 448.54 92.92 L 450.87 96.10 L 453.21 95.93 L 455.54 99.95 L 457.87 93.59 L 460.21 97.61 L 462.54 104.63 L 464.88 99.61 L 467.21 89.58 L 469.55 96.27 L 471.88 104.46 L 474.22 92.92 L 476.55 95.60 L 478.89 100.28 L 481.22 101.62 L 483.55 105.30 L 485.89 107.64 L 488.22 113.66 L 490.56 115.66 L 492.89 119.67 L 495.23 114.99 L 497.56 117.00 L 499.90 120.34 L 502.23 123.02 L 504.56 124.36 L 506.90 131.04 L 509.23 124.02 L 511.57 133.72 L 513.90 134.39 L 516.24 142.58 L 518.57 149.77 L 520.91 128.37 L 523.24 127.03 L 525.57 125.69 L 527.91 125.69 L 530.24 131.04 L 532.58 133.22 L 534.91 129.71 L 537.25 126.36 L 539.58 110.65 L 541.92 90.25 L 544.25 103.63 L 546.59 89.58 L 548.92 111.65 L 551.25 111.65 L 553.59 114.99 L 555.92 124.36 L 558.26 125.02 L 560.59 126.03 L 562.93 127.70 L 565.26 118.34 L 567.60 110.31 L 569.93 108.98 L 572.26 103.63 L 574.60 99.95 L 576.93 100.95 L 579.27 104.29 L 581.60 101.62 L 583.94 96.94 L 586.27 81.56 L 588.61 101.62 L 590.94 91.59 L 593.28 89.58 L 595.61 94.26 L 597.94 86.24 L 600.28 80.22 L 602.61 79.55 L 604.95 86.91 L 607.28 82.23 L 609.62 81.56 L 611.95 84.23 L 614.29 100.28 L 616.62 109.64 L 618.95 113.66 L 621.29 121.68 L 623.62 126.36 L 625.96 114.33 L 628.29 105.63 L 630.63 84.90 L 632.96 73.53 L 635.30 77.71 L 637.63 86.40 L 639.97 87.58 L 642.30 78.21 L 644.63 90.92 L 646.97 84.23 L 649.30 92.26 L 651.64 82.23 L 653.97 90.92 L 656.31 95.60 L 658.64 97.61 L 660.98 95.60 L 663.31 90.58 L 665.64 87.58 L 667.98 86.91 L 670.31 87.58 L 672.65 91.59 L 674.98 84.90 L 677.32 85.57 L 679.65 86.24 L 681.99 86.24 L 684.32 86.24 L 686.66 86.24 L 688.99 88.24 L 691.32 89.58 L 693.66 80.89 L 695.99 79.22 L 698.33 82.89 L 700.66 86.91 L 703.00 87.58 L 705.33 90.92 L 707.67 95.60 L 710.00 94.93 L 710.00 157.79 L 707.67 154.45 L 705.33 162.47 L 703.00 164.48 L 700.66 163.14 L 698.33 151.78 L 695.99 157.79 L 693.66 154.28 L 691.32 152.44 L 688.99 151.11 L 686.66 154.45 L 684.32 153.11 L 681.99 147.76 L 679.65 140.41 L 677.32 133.05 L 674.98 135.06 L 672.65 131.04 L 670.31 157.79 L 667.98 141.08 L 665.64 137.23 L 663.31 142.41 L 660.98 143.08 L 658.64 149.10 L 656.31 143.08 L 653.97 149.10 L 651.64 153.11 L 649.30 163.81 L 646.97 153.11 L 644.63 153.11 L 642.30 167.32 L 639.97 162.47 L 637.63 153.78 L 635.30 149.77 L 632.96 151.78 L 630.63 139.74 L 628.29 137.90 L 625.96 137.73 L 623.62 133.05 L 621.29 133.05 L 618.95 132.38 L 616.62 127.70 L 614.29 126.36 L 611.95 126.36 L 609.62 132.38 L 607.28 139.74 L 604.95 145.09 L 602.61 146.42 L 600.28 150.44 L 597.94 135.06 L 595.61 142.08 L 593.28 132.72 L 590.94 124.36 L 588.61 139.24 L 586.27 159.13 L 583.94 154.45 L 581.60 159.80 L 579.27 164.48 L 576.93 157.13 L 574.60 155.12 L 572.26 155.79 L 569.93 162.47 L 567.60 163.81 L 565.26 164.48 L 562.93 166.99 L 560.59 158.46 L 558.26 151.78 L 555.92 150.77 L 553.59 152.11 L 551.25 153.11 L 548.92 150.44 L 546.59 150.44 L 544.25 147.09 L 541.92 145.76 L 539.58 141.08 L 537.25 153.78 L 534.91 160.80 L 532.58 164.48 L 530.24 175.01 L 527.91 180.03 L 525.57 183.37 L 523.24 185.88 L 520.91 179.19 L 518.57 163.81 L 516.24 169.16 L 513.90 165.82 L 511.57 157.13 L 509.23 164.48 L 506.90 166.49 L 504.56 167.83 L 502.23 173.17 L 499.90 180.20 L 497.56 183.88 L 495.23 181.20 L 492.89 177.86 L 490.56 175.18 L 488.22 187.89 L 485.89 172.51 L 483.55 163.14 L 481.22 177.19 L 478.89 175.85 L 476.55 149.43 L 474.22 156.12 L 471.88 153.11 L 469.55 153.78 L 467.21 149.77 L 464.88 143.08 L 462.54 136.39 L 460.21 134.39 L 457.87 130.38 L 455.54 121.68 L 453.21 124.36 L 450.87 118.84 L 448.54 117.67 L 446.20 115.66 L 443.87 104.29 L 441.53 103.96 L 439.20 100.95 L 436.86 99.61 L 434.53 101.12 L 432.20 100.28 L 429.86 96.94 L 427.53 97.44 L 425.19 92.09 L 422.86 91.09 L 420.52 86.24 L 418.19 81.56 L 415.85 80.22 L 413.52 88.24 L 411.18 91.59 L 408.85 97.61 L 406.52 97.61 L 404.18 106.30 L 401.85 112.32 L 399.51 114.99 L 397.18 118.34 L 394.84 114.99 L 392.51 123.02 L 390.17 126.36 L 387.84 131.71 L 385.51 129.04 L 383.17 138.40 L 380.84 158.46 L 378.50 173.84 L 376.17 177.86 L 373.83 174.51 L 371.50 172.67 L 369.16 173.84 L 366.83 177.19 L 364.49 164.15 L 362.16 165.15 L 359.83 162.47 L 357.49 163.14 L 355.16 157.79 L 352.82 153.11 L 350.49 151.78 L 348.15 149.77 L 345.82 148.43 L 343.48 150.44 L 341.15 140.41 L 338.82 146.42 L 336.48 151.11 L 334.15 152.44 L 331.81 149.77 L 329.48 148.43 L 327.14 147.09 L 324.81 143.08 L 322.47 135.73 L 320.14 133.05 L 317.80 141.74 L 315.47 134.39 L 313.14 135.06 L 310.80 133.72 L 308.47 132.38 L 306.13 133.72 L 303.80 133.72 L 301.46 136.39 L 299.13 128.70 L 296.79 133.05 L 294.46 131.71 L 292.13 134.22 L 289.79 124.36 L 287.46 123.02 L 285.12 126.03 L 282.79 127.70 L 280.45 126.36 L 278.12 126.70 L 275.78 133.72 L 273.45 134.39 L 271.11 135.73 L 268.78 142.41 L 266.45 151.78 L 264.11 152.44 L 261.78 159.63 L 259.44 165.15 L 257.11 167.83 L 254.77 169.83 L 252.44 171.84 L 250.10 183.21 L 247.77 183.04 L 245.44 182.20 L 243.10 183.88 L 240.77 181.53 L 238.43 180.53 L 236.10 178.36 L 233.76 179.36 L 231.43 181.87 L 229.09 182.54 L 226.76 181.87 L 224.43 178.53 L 222.09 177.19 L 219.76 176.52 L 217.42 179.19 L 215.09 181.20 L 212.75 179.36 L 210.42 181.20 L 208.08 179.19 L 205.75 181.87 L 203.41 183.88 L 201.08 179.19 L 198.75 177.19 L 196.41 176.52 L 194.08 179.19 L 191.74 177.19 L 189.41 177.86 L 187.07 177.19 L 184.74 179.53 L 182.40 181.20 L 180.07 178.53 L 177.74 180.03 L 175.40 179.19 L 173.07 178.53 L 170.73 184.21 L 168.40 179.86 L 166.06 177.52 L 163.73 177.02 L 161.39 176.52 L 159.06 180.53 L 156.72 180.53 L 154.39 179.19 L 152.06 183.21 L 149.72 180.53 L 147.39 173.84 L 145.05 174.51 L 142.72 174.51 L 140.38 174.51 L 138.05 175.18 L 135.71 174.51 L 133.38 172.34 L 131.05 173.84 L 128.71 173.17 L 126.38 179.86 L 124.04 168.49 L 121.71 167.16 L 119.37 167.32 L 117.04 164.48 L 114.70 162.47 L 112.37 167.16 L 110.03 176.52 L 107.70 167.83 L 105.37 167.16 L 103.03 165.82 L 100.70 169.16 L 98.36 171.84 L 96.03 164.48 L 93.69 161.14 L 91.36 154.12 L 89.02 155.12 L 86.69 157.13 L 84.36 157.13 L 82.02 154.28 L 79.69 157.13 L 77.35 154.45 L 75.02 153.11 L 72.68 152.44 L 70.35 150.27 L 68.01 152.44 L 65.68 152.44 L 63.34 151.78 L 61.01 151.11 L 58.68 148.60 L 56.34 149.10 L 54.01 148.43 L 51.67 147.76 L 49.34 151.27 L 47.00 151.11 L 44.67 163.14 L 42.33 160.47 L 40.00 156.46 Z" fill="rgba(230,126,34,0.22)" stroke="none"/><path d="M 40.00 124.36 L 42.33 122.68 L 44.67 124.36 L 47.00 126.03 L 49.34 123.69 L 51.67 129.71 L 54.01 127.70 L 56.34 135.73 L 58.68 134.39 L 61.01 131.71 L 63.34 136.39 L 65.68 133.05 L 68.01 136.39 L 70.35 133.05 L 72.68 135.73 L 75.02 139.74 L 77.35 136.39 L 79.69 143.08 L 82.02 142.75 L 84.36 142.41 L 86.69 145.76 L 89.02 149.77 L 91.36 147.76 L 93.69 146.76 L 96.03 145.76 L 98.36 151.11 L 100.70 152.44 L 103.03 151.11 L 105.37 157.79 L 107.70 160.47 L 110.03 160.47 L 112.37 153.78 L 114.70 156.12 L 117.04 157.13 L 119.37 158.13 L 121.71 156.46 L 124.04 157.13 L 126.38 154.45 L 128.71 154.45 L 131.05 154.45 L 133.38 153.78 L 135.71 153.78 L 138.05 154.45 L 140.38 153.45 L 142.72 146.42 L 145.05 141.74 L 147.39 144.42 L 149.72 151.11 L 152.06 153.78 L 154.39 151.78 L 156.72 146.42 L 159.06 148.43 L 161.39 149.77 L 163.73 150.44 L 166.06 154.45 L 168.40 152.78 L 170.73 159.13 L 173.07 160.13 L 175.40 160.47 L 177.74 162.81 L 180.07 161.81 L 182.40 170.50 L 184.74 163.14 L 187.07 164.48 L 189.41 159.13 L 191.74 164.48 L 194.08 167.16 L 196.41 167.16 L 198.75 167.16 L 201.08 167.83 L 203.41 168.49 L 205.75 167.49 L 208.08 169.16 L 210.42 169.16 L 212.75 167.83 L 215.09 167.83 L 217.42 166.49 L 219.76 169.83 L 222.09 172.84 L 224.43 175.18 L 226.76 174.85 L 229.09 176.52 L 231.43 178.53 L 233.76 175.85 L 236.10 174.85 L 238.43 175.85 L 240.77 173.51 L 243.10 174.51 L 245.44 171.84 L 247.77 171.84 L 250.10 172.17 L 252.44 167.83 L 254.77 161.81 L 257.11 161.81 L 259.44 156.46 L 261.78 153.45 L 264.11 138.73 L 266.45 137.73 L 268.78 119.67 L 271.11 121.68 L 273.45 114.33 L 275.78 112.32 L 278.12 105.63 L 280.45 111.65 L 282.79 112.32 L 285.12 105.63 L 287.46 107.97 L 289.79 105.63 L 292.13 112.99 L 294.46 120.34 L 296.79 118.34 L 299.13 116.33 L 301.46 116.33 L 303.80 112.32 L 306.13 118.34 L 308.47 121.68 L 310.80 124.36 L 313.14 126.36 L 315.47 124.69 L 317.80 126.36 L 320.14 119.01 L 322.47 112.32 L 324.81 125.69 L 327.14 137.06 L 329.48 133.72 L 331.81 136.39 L 334.15 129.04 L 336.48 131.04 L 338.82 141.74 L 341.15 137.06 L 343.48 133.72 L 345.82 139.07 L 348.15 141.08 L 350.49 145.76 L 352.82 145.76 L 355.16 147.09 L 357.49 146.42 L 359.83 140.41 L 362.16 141.08 L 364.49 135.73 L 366.83 143.08 L 369.16 136.39 L 371.50 143.42 L 373.83 148.43 L 376.17 139.74 L 378.50 141.74 L 380.84 118.34 L 383.17 125.02 L 385.51 112.32 L 387.84 113.66 L 390.17 112.32 L 392.51 110.98 L 394.84 108.64 L 397.18 105.63 L 399.51 96.27 L 401.85 98.27 L 404.18 87.58 L 406.52 80.89 L 408.85 83.90 L 411.18 78.21 L 413.52 66.17 L 415.85 72.19 L 418.19 67.51 L 420.52 69.52 L 422.86 64.84 L 425.19 63.50 L 427.53 62.16 L 429.86 69.52 L 432.20 74.20 L 434.53 72.19 L 436.86 79.55 L 439.20 87.58 L 441.53 90.92 L 443.87 89.58 L 446.20 97.61 L 448.54 102.29 L 450.87 108.64 L 453.21 112.99 L 455.54 113.99 L 457.87 115.33 L 460.21 120.34 L 462.54 113.66 L 464.88 108.31 L 467.21 114.33 L 469.55 112.99 L 471.88 114.66 L 474.22 114.33 L 476.55 119.01 L 478.89 131.71 L 481.22 139.07 L 483.55 136.39 L 485.89 133.72 L 488.22 136.73 L 490.56 131.04 L 492.89 138.40 L 495.23 134.39 L 497.56 143.08 L 499.90 143.75 L 502.23 146.42 L 504.56 157.13 L 506.90 159.80 L 509.23 151.11 L 511.57 153.78 L 513.90 151.78 L 516.24 155.12 L 518.57 160.47 L 520.91 155.12 L 523.24 157.46 L 525.57 147.76 L 527.91 147.76 L 530.24 154.78 L 532.58 156.46 L 534.91 150.44 L 537.25 143.75 L 539.58 131.04 L 541.92 124.69 L 544.25 125.02 L 546.59 124.36 L 548.92 127.03 L 551.25 135.73 L 553.59 138.40 L 555.92 137.06 L 558.26 145.42 L 560.59 151.11 L 562.93 152.11 L 565.26 147.09 L 567.60 146.42 L 569.93 152.44 L 572.26 132.38 L 574.60 131.71 L 576.93 125.02 L 579.27 118.34 L 581.60 109.64 L 583.94 114.99 L 586.27 112.32 L 588.61 110.31 L 590.94 104.96 L 593.28 102.96 L 595.61 105.63 L 597.94 110.98 L 600.28 119.67 L 602.61 117.00 L 604.95 116.33 L 607.28 117.67 L 609.62 117.67 L 611.95 117.00 L 614.29 117.67 L 616.62 119.67 L 618.95 125.02 L 621.29 123.02 L 623.62 128.37 L 625.96 127.70 L 628.29 125.69 L 630.63 133.72 L 632.96 133.72 L 635.30 132.05 L 637.63 131.38 L 639.97 133.72 L 642.30 135.06 L 644.63 135.39 L 646.97 125.69 L 649.30 126.36 L 651.64 107.64 L 653.97 100.28 L 656.31 99.61 L 658.64 111.65 L 660.98 114.66 L 663.31 119.01 L 665.64 107.64 L 667.98 113.66 L 670.31 112.99 L 672.65 117.67 L 674.98 121.01 L 677.32 120.34 L 679.65 120.34 L 681.99 121.68 L 684.32 123.69 L 686.66 133.72 L 688.99 120.68 L 691.32 126.36 L 693.66 122.35 L 695.99 123.02 L 698.33 122.35 L 700.66 120.34 L 703.00 118.67 L 705.33 116.33 L 707.67 110.31 L 710.00 119.01" fill="none" stroke="#2c3e50" stroke-width="2"/></svg>