<?xml version="1.0"?><svg viewBox="0 0 720 260" width="100%" height="260" xmlns="http://www.w3.org/2000/svg"><rect width="100%" height="100%" fill="#fff"/><line x1="40" y1="210.625" x2="710" y2="210.625" stroke="#eee"/><text x="32" y="214.625" text-anchor="end" font-size="10" fill="#666" font-family="system-ui,Arial">60</text><line x1="40" y1="183.875" x2="710" y2="183.875" stroke="#eee"/><text x="32" y="187.875" text-anchor="end" font-size="10" fill="#666" font-family="system-ui,Arial">100</text><line x1="40" y1="157.125" x2="710" y2="157.125" stroke="#eee"/><text x="32" y="161.125" text-anchor="end" font-size="10" fill="#666" font-family="system-ui,Arial">140</text><line x1="40" y1="130.375" x2="710" y2="130.375" stroke="#eee"/><text x="32" y="134.375" text-anchor="end" font-size="10" fill="#666" font-family="system-ui,Arial">180</text><line x1="40" y1="103.625" x2="710" y2="103.625" stroke="#eee"/><text x="32" y="107.625" text-anchor="end" font-size="10" fill="#666" font-family="system-ui,Arial">220</text><line x1="40" y1="76.875" x2="710" y2="76.875" stroke="#eee"/><text x="32" y="80.875" text-anchor="end" font-size="10" fill="#666" font-family="system-ui,Arial">260</text><line x1="40" y1="50.125" x2="710" y2="50.125" stroke="#eee"/><text x="32" y="54.125" text-anchor="end" font-size="10" fill="#666" font-family="system-ui,Arial">300</text><line x1="40" y1="23.375" x2="710" y2="23.375" stroke="#eee"/><text x="32" y="27.375" text-anchor="end" font-size="10" fill="#666" font-family="system-ui,Arial">340</text><line x1="208.0836236933798" y1="10" x2="208.0836236933798" y2="224" stroke="#eee"/><text x="208.0836236933798" y="238" text-anchor="middle" font-size="10" fill="#666" font-family="system-ui,Arial">6</text><line x1="292.1254355400697" y1="10" x2="292.1254355400697" y2="224" stroke="#eee"/><text x="292.1254355400697" y="238" text-anchor="middle" font-size="10" fill="#666" font-family="system-ui,Arial">9</text><line x1="376.1672473867596" y1="10" x2="376.1672473867596" y2="224" stroke="#eee"/><text x="376.1672473867596" y="238" text-anchor="middle" font-size="10" fill="#666" font-family="system-ui,Arial">12</text><line x1="460.20905923344947" y1="10" x2="460.20905923344947" y2="224" stroke="#eee"/><text x="460.20905923344947" y="238" text-anchor="middle" font-size="10" fill="#666" font-family="system-ui,Arial">15</text><line x1="544.2508710801394" y1="10" x2="544.2508710801394" y2="224" stroke="#eee"/><text x="544.2508710801394" y="238" text-anchor="middle" font-size="10" fill="#666" font-family="system-ui,Arial">18</text><line x1="628.2926829268292" y1="10" x2="628.2926829268292" y2="224" stroke="#eee"/><text x="628.2926829268292" y="238" text-anchor="middle" font-size="10" fill="#666" font-family="system-ui,Arial">21</text><rect x="40" y="130.375" width="670" height="73.5625" fill="rgba(39,174,96,0.07)"/><path d="M 40.00 10.00 L 42.33 10.00 L 44.67 10.00 L 47.00 13.34 L 49.34 10.00 L 51.67 10.00 L 54.01 18.36 L 56.34 10.00 L 58.68 11.10 L 61.01 10.00 L 63.34 17.49 L 65.68 23.27 L 68.01 23.11 L 70.35 14.35 L 72.68 13.95 L 75.02 10.00 L 77.35 17.89 L 79.69 31.40 L 82.02 15.78 L 84.36 14.85 L 86.69 19.36 L 89.02 18.59 L 91.36 39.16 L 93.69 32.07 L 96.03 77.54 L 98.36 84.73 L 100.70 92.89 L 103.03 90.25 L 105.37 88.41 L 107.70 98.68 L 110.03 98.98 L 112.37 88.24 L 114.70 111.55 L 117.04 106.97 L 119.37 114.39 L 121.71 121.01 L 124.04 31.47 L 126.38 16.52 L 128.71 20.17 L 131.05 26.05 L 133.38 42.84 L 135.71 27.12 L 138.05 27.66 L 140.38 16.15 L 142.72 26.85 L 145.05 18.83 L 147.39 12.94 L 149.72 28.99 L 152.06 12.34 L 154.39 16.96 L 156.72 54.87 L 159.06 31.10 L 161.39 26.32 L 163.73 26.05 L 166.06 29.59 L 168.40 38.76 L 170.73 10.00 L 173.07 10.00 L 175.40 44.77 L 177.74 38.49 L 180.07 12.67 L 182.40 46.71 L 184.74 46.98 L 187.07 50.39 L 189.41 48.39 L 191.74 35.41 L 194.08 47.28 L 196.41 57.75 L 198.75 71.79 L 201.08 77.81 L 203.41 80.62 L 205.75 104.16 L 208.08 88.65 L 210.42 96.84 L 212.75 107.64 L 215.09 96.10 L 217.42 91.25 L 219.76 93.43 L 222.09 107.91 L 224.43 93.59 L 226.76 96.27 L 229.09 101.62 L 231.43 128.37 L 233.76 119.01 L 236.10 131.31 L 238.43 134.72 L 240.77 136.39 L 243.10 140.71 L 245.44 142.41 L 247.77 143.45 L 250.10 135.86 L 252.44 135.19 L 254.77 135.99 L 257.11 144.29 L 259.44 145.42 L 261.78 146.59 L 264.11 140.27 L 266.45 133.52 L 268.78 119.67 L 271.11 119.21 L 273.45 119.68 L 275.78 112.99 L 278.12 109.91 L 280.45 102.96 L 282.79 111.72 L 285.12 101.22 L 287.46 98.58 L 289.79 93.66 L 292.13 88.65 L 294.46 74.20 L 296.79 83.63 L 299.13 67.51 L 301.46 86.04 L 303.80 88.91 L 306.13 69.52 L 308.47 83.63 L 310.80 89.85 L 313.14 93.66 L 315.47 95.07 L 317.80 99.75 L 320.14 101.22 L 322.47 105.63 L 324.81 101.62 L 327.14 112.99 L 329.48 113.66 L 331.81 114.46 L 334.15 113.92 L 336.48 112.99 L 338.82 121.61 L 341.15 114.93 L 343.48 111.92 L 345.82 108.98 L 348.15 112.15 L 350.49 115.66 L 352.82 113.69 L 355.16 108.84 L 357.49 104.06 L 359.83 103.63 L 362.16 112.19 L 364.49 92.92 L 366.83 123.96 L 369.16 111.52 L 371.50 98.94 L 373.83 107.04 L 376.17 99.61 L 378.50 101.02 L 380.84 83.56 L 383.17 91.59 L 385.51 74.20 L 387.84 71.19 L 390.17 65.11 L 392.51 56.81 L 394.84 64.57 L 397.18 64.30 L 399.51 61.90 L 401.85 60.83 L 404.18 42.10 L 406.52 57.08 L 408.85 66.44 L 411.18 60.16 L 413.52 28.73 L 415.85 58.18 L 418.19 63.30 L 420.52 23.38 L 422.86 62.23 L 425.19 60.49 L 427.53 53.60 L 429.86 54.94 L 432.20 51.06 L 434.53 49.29 L 436.86 53.00 L 439.20 46.92 L 441.53 45.58 L 443.87 50.56 L 446.20 50.86 L 448.54 47.95 L 450.87 55.84 L 453.21 58.08 L 455.54 57.18 L 457.87 59.09 L 460.21 59.09 L 462.54 65.17 L 464.88 52.80 L 467.21 62.97 L 469.55 67.88 L 471.88 67.18 L 474.22 68.48 L 476.55 65.51 L 478.89 79.55 L 481.22 86.91 L 483.55 100.95 L 485.89 106.30 L 488.22 109.31 L 490.56 100.11 L 492.89 91.59 L 495.23 103.42 L 497.56 109.24 L 499.90 117.17 L 502.23 116.40 L 504.56 118.17 L 506.90 107.64 L 509.23 92.26 L 511.57 83.83 L 513.90 87.21 L 516.24 90.25 L 518.57 94.26 L 520.91 96.87 L 523.24 96.24 L 525.57 98.44 L 527.91 100.01 L 530.24 100.95 L 532.58 97.27 L 534.91 98.54 L 537.25 98.27 L 539.58 101.62 L 541.92 103.63 L 544.25 99.61 L 546.59 96.94 L 548.92 105.16 L 551.25 99.61 L 553.59 88.24 L 555.92 95.27 L 558.26 84.23 L 560.59 107.64 L 562.93 113.79 L 565.26 103.29 L 567.60 101.28 L 569.93 102.09 L 572.26 102.82 L 574.60 105.16 L 576.93 99.08 L 579.27 95.33 L 581.60 90.02 L 583.94 90.99 L 586.27 93.59 L 588.61 100.95 L 590.94 104.03 L 593.28 101.62 L 595.61 104.26 L 597.94 100.28 L 600.28 96.14 L 602.61 86.91 L 604.95 84.43 L 607.28 85.00 L 609.62 85.57 L 611.95 80.25 L 614.29 81.22 L 616.62 78.88 L 618.95 71.86 L 621.29 81.82 L 623.62 84.26 L 625.96 85.44 L 628.29 89.35 L 630.63 86.91 L 632.96 42.77 L 635.30 43.44 L 637.63 48.79 L 639.97 43.44 L 642.30 32.74 L 644.63 57.82 L 646.97 42.74 L 649.30 41.10 L 651.64 27.39 L 653.97 27.66 L 656.31 35.08 L 658.64 21.50 L 660.98 20.43 L 663.31 19.66 L 665.64 27.39 L 667.98 32.17 L 670.31 25.08 L 672.65 18.56 L 674.98 27.72 L 677.32 22.04 L 679.65 24.48 L 681.99 16.96 L 684.32 15.08 L 686.66 20.70 L 688.99 16.35 L 691.32 18.02 L 693.66 13.64 L 695.99 10.00 L 698.33 10.00 L 700.66 10.00 L 703.00 10.00 L 705.33 10.00 L 707.67 11.84 L 710.00 11.84 L 710.00 186.52 L 707.67 187.55 L 705.33 171.57 L 703.00 175.85 L 700.66 174.65 L 698.33 178.26 L 695.99 190.76 L 693.66 194.88 L 691.32 206.61 L 688.99 196.48 L 686.66 197.25 L 684.32 203.00 L 681.99 204.34 L 679.65 208.18 L 677.32 207.41 L 674.98 206.28 L 672.65 207.15 L 670.31 207.95 L 667.98 209.96 L 665.64 213.30 L 663.31 212.10 L 660.98 208.35 L 658.64 206.88 L 656.31 204.94 L 653.97 206.34 L 651.64 211.03 L 649.30 213.97 L 646.97 216.68 L 644.63 218.65 L 642.30 214.30 L 639.97 216.64 L 637.63 216.51 L 635.30 209.62 L 632.96 211.66 L 630.63 209.96 L 628.29 214.64 L 625.96 211.96 L 623.62 201.20 L 621.29 201.26 L 618.95 208.85 L 616.62 204.27 L 614.29 199.26 L 611.95 201.76 L 609.62 200.59 L 607.28 196.88 L 604.95 188.02 L 602.61 184.94 L 600.28 185.88 L 597.94 195.91 L 595.61 206.61 L 593.28 208.62 L 590.94 193.24 L 588.61 191.90 L 586.27 194.58 L 583.94 177.66 L 581.60 178.53 L 579.27 184.54 L 576.93 180.26 L 574.60 186.05 L 572.26 194.14 L 569.93 196.95 L 567.60 189.89 L 565.26 188.56 L 562.93 191.23 L 560.59 192.17 L 558.26 191.47 L 555.92 193.24 L 553.59 188.16 L 551.25 198.59 L 548.92 184.14 L 546.59 189.09 L 544.25 195.51 L 541.92 199.92 L 539.58 212.63 L 537.25 202.93 L 534.91 208.08 L 532.58 206.61 L 530.24 196.28 L 527.91 203.27 L 525.57 198.05 L 523.24 202.87 L 520.91 204.44 L 518.57 202.27 L 516.24 201.80 L 513.90 209.29 L 511.57 205.68 L 509.23 199.26 L 506.90 191.90 L 504.56 190.23 L 502.23 193.30 L 499.90 200.59 L 497.56 201.26 L 495.23 202.67 L 492.89 201.06 L 490.56 191.23 L 488.22 187.89 L 485.89 186.88 L 483.55 184.54 L 481.22 183.88 L 478.89 180.93 L 476.55 177.92 L 474.22 185.78 L 471.88 187.72 L 469.55 179.63 L 467.21 176.52 L 464.88 174.51 L 462.54 176.85 L 460.21 175.72 L 457.87 177.86 L 455.54 174.51 L 453.21 172.81 L 450.87 170.20 L 448.54 176.52 L 446.20 171.34 L 443.87 173.84 L 441.53 175.21 L 439.20 174.11 L 436.86 180.53 L 434.53 183.88 L 432.20 183.07 L 429.86 187.75 L 427.53 192.97 L 425.19 189.99 L 422.86 189.06 L 420.52 185.68 L 418.19 176.45 L 415.85 171.27 L 413.52 169.16 L 411.18 172.51 L 408.85 180.00 L 406.52 181.33 L 404.18 179.59 L 401.85 178.53 L 399.51 177.59 L 397.18 174.98 L 394.84 177.05 L 392.51 186.62 L 390.17 193.10 L 387.84 192.90 L 385.51 190.23 L 383.17 189.76 L 380.84 188.66 L 378.50 186.12 L 376.17 181.87 L 373.83 182.70 L 371.50 192.57 L 369.16 185.88 L 366.83 178.26 L 364.49 184.88 L 362.16 193.91 L 359.83 193.91 L 357.49 193.50 L 355.16 191.10 L 352.82 188.32 L 350.49 188.89 L 348.15 187.12 L 345.82 191.23 L 343.48 188.69 L 341.15 190.26 L 338.82 185.61 L 336.48 185.38 L 334.15 186.55 L 331.81 191.90 L 329.48 186.92 L 327.14 189.46 L 324.81 195.54 L 322.47 205.94 L 320.14 199.92 L 317.80 198.99 L 315.47 195.01 L 313.14 193.47 L 310.80 201.86 L 308.47 210.76 L 306.13 212.77 L 303.80 207.95 L 301.46 207.62 L 299.13 209.69 L 296.79 204.47 L 294.46 203.30 L 292.13 198.05 L 289.79 197.25 L 287.46 195.91 L 285.12 197.92 L 282.79 203.97 L 280.45 200.03 L 278.12 196.72 L 275.78 197.25 L 273.45 195.71 L 271.11 196.68 L 268.78 199.26 L 266.45 200.59 L 264.11 208.62 L 261.78 205.11 L 259.44 203.40 L 257.11 207.95 L 254.77 200.46 L 252.44 202.60 L 250.10 187.89 L 247.77 188.19 L 245.44 182.20 L 243.10 182.24 L 240.77 183.88 L 238.43 184.54 L 236.10 189.22 L 233.76 189.89 L 231.43 189.56 L 229.09 188.39 L 226.76 189.63 L 224.43 197.78 L 222.09 189.09 L 219.76 187.39 L 217.42 188.72 L 215.09 191.90 L 212.75 189.22 L 210.42 198.86 L 208.08 198.99 L 205.75 193.91 L 203.41 190.03 L 201.08 192.03 L 198.75 192.57 L 196.41 193.17 L 194.08 193.74 L 191.74 187.22 L 189.41 186.02 L 187.07 182.54 L 184.74 183.01 L 182.40 180.97 L 180.07 189.43 L 177.74 184.28 L 175.40 188.56 L 173.07 184.81 L 170.73 183.34 L 168.40 185.55 L 166.06 184.94 L 163.73 182.40 L 161.39 180.53 L 159.06 185.55 L 156.72 185.21 L 154.39 181.60 L 152.06 183.74 L 149.72 180.26 L 147.39 181.07 L 145.05 178.83 L 142.72 178.93 L 140.38 170.77 L 138.05 193.10 L 135.71 188.69 L 133.38 178.56 L 131.05 183.21 L 128.71 183.61 L 126.38 189.39 L 124.04 188.22 L 121.71 190.70 L 119.37 196.65 L 117.04 200.93 L 114.70 202.47 L 112.37 192.17 L 110.03 190.63 L 107.70 189.29 L 105.37 190.40 L 103.03 189.89 L 100.70 187.62 L 98.36 188.39 L 96.03 194.31 L 93.69 196.92 L 91.36 193.14 L 89.02 197.75 L 86.69 199.39 L 84.36 201.60 L 82.02 204.84 L 79.69 215.31 L 77.35 195.91 L 75.02 193.74 L 72.68 194.58 L 70.35 191.83 L 68.01 187.75 L 65.68 186.95 L 63.34 187.22 L 61.01 186.22 L 58.68 184.61 L 56.34 183.54 L 54.01 178.53 L 51.67 181.33 L 49.34 180.93 L 47.00 177.96 L 44.67 174.48 L 42.33 174.91 L 40.00 172.91 Z" fill="rgba(231,76,60,0.06)" stroke="none"/><path d="M 40.00 54.97 L 42.33 53.47 L 44.67 56.81 L 47.00 67.51 L 49.34 70.86 L 51.67 76.88 L 54.01 69.18 L 56.34 79.55 L 58.68 84.90 L 61.01 108.31 L 63.34 106.30 L 65.68 104.80 L 68.01 100.95 L 70.35 97.61 L 72.68 102.29 L 75.02 101.62 L 77.35 99.61 L 79.69 104.29 L 82.02 101.62 L 84.36 102.29 L 86.69 95.60 L 89.02 101.62 L 91.36 113.32 L 93.69 110.65 L 96.03 109.64 L 98.36 112.32 L 100.70 124.36 L 103.03 135.06 L 105.37 135.73 L 107.70 135.73 L 110.03 125.02 L 112.37 121.01 L 114.70 137.23 L 117.04 129.54 L 119.37 134.39 L 121.71 137.73 L 124.04 129.04 L 126.38 127.70 L 128.71 121.01 L 131.05 126.36 L 133.38 142.75 L 135.71 131.04 L 138.05 131.04 L 140.38 125.69 L 142.72 130.38 L 145.05 136.39 L 147.39 139.07 L 149.72 140.24 L 152.06 131.04 L 154.39 132.38 L 156.72 140.41 L 159.06 148.10 L 161.39 142.41 L 163.73 148.43 L 166.06 151.94 L 168.40 138.73 L 170.73 153.11 L 173.07 151.78 L 175.40 149.77 L 177.74 146.42 L 180.07 141.08 L 182.40 140.41 L 184.74 139.74 L 187.07 141.74 L 189.41 141.74 L 191.74 137.73 L 194.08 142.41 L 196.41 141.74 L 198.75 145.76 L 201.08 156.46 L 203.41 159.13 L 205.75 156.46 L 208.08 151.11 L 210.42 155.12 L 212.75 158.46 L 215.09 163.14 L 217.42 162.47 L 219.76 161.81 L 222.09 157.79 L 224.43 153.11 L 226.76 160.47 L 229.09 161.14 L 231.43 163.81 L 233.76 157.79 L 236.10 155.79 L 238.43 155.79 L 240.77 159.13 L 243.10 158.13 L 245.44 157.13 L 247.77 157.79 L 250.10 149.77 L 252.44 157.13 L 254.77 157.79 L 257.11 159.13 L 259.44 159.80 L 261.78 155.79 L 264.11 152.44 L 266.45 148.43 L 268.78 142.41 L 271.11 134.39 L 273.45 140.24 L 275.78 128.37 L 278.12 125.02 L 280.45 117.84 L 282.79 125.36 L 285.12 119.67 L 287.46 117.67 L 289.79 121.01 L 292.13 122.35 L 294.46 118.34 L 296.79 119.67 L 299.13 120.34 L 301.46 120.85 L 303.80 114.99 L 306.13 112.99 L 308.47 109.64 L 310.80 110.31 L 313.14 113.66 L 315.47 111.48 L 317.80 113.66 L 320.14 120.68 L 322.47 137.06 L 324.81 136.39 L 327.14 134.39 L 329.48 139.74 L 331.81 145.76 L 334.15 150.44 L 336.48 143.75 L 338.82 136.39 L 341.15 143.75 L 343.48 144.42 L 345.82 147.09 L 348.15 149.77 L 350.49 153.78 L 352.82 148.43 L 355.16 148.43 L 357.49 147.76 L 359.83 145.09 L 362.16 143.08 L 364.49 140.41 L 366.83 150.44 L 369.16 146.42 L 371.50 147.76 L 373.83 150.44 L 376.17 145.76 L 378.50 143.08 L 380.84 135.06 L 383.17 113.66 L 385.51 106.30 L 387.84 128.37 L 390.17 119.67 L 392.51 114.33 L 394.84 111.65 L 397.18 119.01 L 399.51 124.36 L 401.85 131.71 L 404.18 131.71 L 406.52 126.36 L 408.85 127.70 L 411.18 120.34 L 413.52 111.65 L 415.85 108.64 L 418.19 107.64 L 420.52 102.79 L 422.86 103.63 L 425.19 95.77 L 427.53 97.61 L 429.86 95.60 L 432.20 92.92 L 434.53 90.92 L 436.86 96.94 L 439.20 98.27 L 441.53 94.93 L 443.87 100.11 L 446.20 100.28 L 448.54 102.96 L 450.87 102.96 L 453.21 102.96 L 455.54 104.29 L 457.87 103.63 L 460.21 109.64 L 462.54 100.62 L 464.88 111.65 L 467.21 114.99 L 469.55 114.33 L 471.88 120.34 L 474.22 112.32 L 476.55 114.99 L 478.89 121.01 L 481.22 133.72 L 483.55 125.02 L 485.89 133.72 L 488.22 135.73 L 490.56 132.38 L 492.89 132.38 L 495.23 139.24 L 497.56 134.39 L 499.90 137.06 L 502.23 141.74 L 504.56 144.25 L 506.90 140.74 L 509.23 125.69 L 511.57 122.35 L 513.90 129.20 L 516.24 134.39 L 518.57 129.04 L 520.91 110.65 L 523.24 116.33 L 525.57 121.01 L 527.91 124.36 L 530.24 125.69 L 532.58 129.71 L 534.91 131.71 L 537.25 129.04 L 539.58 133.72 L 541.92 132.38 L 544.25 132.38 L 546.59 125.02 L 548.92 128.37 L 551.25 137.06 L 553.59 121.51 L 555.92 138.40 L 558.26 130.54 L 560.59 137.06 L 562.93 126.36 L 565.26 131.38 L 567.60 131.38 L 569.93 127.53 L 572.26 121.01 L 574.60 113.15 L 576.93 117.67 L 579.27 123.35 L 581.60 127.03 L 583.94 123.69 L 586.27 121.01 L 588.61 126.03 L 590.94 121.68 L 593.28 118.17 L 595.61 126.36 L 597.94 125.02 L 600.28 130.38 L 602.61 131.71 L 604.95 147.60 L 607.28 148.26 L 609.62 152.44 L 611.95 149.10 L 614.29 151.11 L 616.62 155.79 L 618.95 150.44 L 621.29 149.10 L 623.62 143.25 L 625.96 145.76 L 628.29 142.41 L 630.63 141.08 L 632.96 133.72 L 635.30 132.38 L 637.63 134.39 L 639.97 123.35 L 642.30 125.02 L 644.63 120.34 L 646.97 110.31 L 649.30 127.70 L 651.64 125.69 L 653.97 103.63 L 656.31 94.93 L 658.64 103.63 L 660.98 108.31 L 663.31 106.97 L 665.64 103.63 L 667.98 100.28 L 670.31 109.64 L 672.65 106.30 L 674.98 109.64 L 677.32 113.66 L 679.65 114.33 L 681.99 110.31 L 684.32 102.96 L 686.66 96.94 L 688.99 94.93 L 691.32 88.91 L 693.66 80.89 L 695.99 76.88 L 698.33 74.87 L 700.66 78.21 L 703.00 90.25 L 705.33 75.54 L 707.67 51.46 L 710.00 65.17 L 710.00 165.15 L 707.67 159.80 L 705.33 141.74 L 703.00 151.44 L 700.66 160.47 L 698.33 154.45 L 695.99 151.11 L 693.66 148.93 L 691.32 156.79 L 688.99 145.09 L 686.66 144.42 L 684.32 147.09 L 681.99 140.41 L 679.65 162.47 L 677.32 164.48 L 674.98 169.16 L 672.65 169.16 L 670.31 181.20 L 667.98 180.53 L 665.64 179.19 L 663.31 182.37 L 660.98 191.23 L 658.64 195.24 L 656.31 191.23 L 653.97 200.59 L 651.64 199.26 L 649.30 195.24 L 646.97 199.59 L 644.63 204.27 L 642.30 195.24 L 639.97 195.24 L 637.63 196.58 L 635.30 192.57 L 632.96 190.56 L 630.63 185.55 L 628.29 189.22 L 625.96 184.54 L 623.62 186.55 L 621.29 186.55 L 618.95 193.07 L 616.62 193.91 L 614.29 193.91 L 611.95 187.89 L 609.62 179.19 L 607.28 181.87 L 604.95 179.86 L 602.61 173.84 L 600.28 169.16 L 597.94 177.19 L 595.61 175.85 L 593.28 168.49 L 590.94 166.49 L 588.61 166.15 L 586.27 169.00 L 583.94 160.80 L 581.60 163.81 L 579.27 159.13 L 576.93 165.82 L 574.60 155.45 L 572.26 155.62 L 569.93 158.30 L 567.60 156.46 L 565.26 160.13 L 562.93 161.81 L 560.59 163.14 L 558.26 160.30 L 555.92 163.81 L 553.59 168.16 L 551.25 177.86 L 548.92 177.52 L 546.59 170.50 L 544.25 177.19 L 541.92 179.19 L 539.58 185.21 L 537.25 180.20 L 534.91 180.53 L 532.58 188.56 L 530.24 187.89 L 527.91 185.88 L 525.57 186.55 L 523.24 182.70 L 520.91 187.05 L 518.57 180.53 L 516.24 179.19 L 513.90 178.53 L 511.57 177.86 L 509.23 179.19 L 506.90 175.85 L 504.56 174.51 L 502.23 171.17 L 499.90 173.68 L 497.56 175.18 L 495.23 179.86 L 492.89 175.85 L 490.56 166.49 L 488.22 166.49 L 485.89 167.83 L 483.55 168.49 L 481.22 164.48 L 478.89 167.16 L 476.55 169.00 L 474.22 166.15 L 471.88 166.49 L 469.55 162.47 L 467.21 165.82 L 464.88 162.47 L 462.54 156.79 L 460.21 157.13 L 457.87 161.81 L 455.54 162.81 L 453.21 161.14 L 450.87 161.14 L 448.54 161.81 L 446.20 160.47 L 443.87 160.47 L 441.53 157.13 L 439.20 153.78 L 436.86 153.45 L 434.53 147.09 L 432.20 153.11 L 429.86 156.46 L 427.53 147.76 L 425.19 144.59 L 422.86 143.25 L 420.52 149.27 L 418.19 157.13 L 415.85 153.78 L 413.52 155.12 L 411.18 158.46 L 408.85 156.46 L 406.52 161.81 L 404.18 164.48 L 401.85 168.49 L 399.51 175.18 L 397.18 172.51 L 394.84 168.49 L 392.51 162.98 L 390.17 164.48 L 387.84 164.82 L 385.51 168.49 L 383.17 162.98 L 380.84 171.00 L 378.50 166.49 L 376.17 169.16 L 373.83 175.18 L 371.50 168.49 L 369.16 165.82 L 366.83 165.82 L 364.49 166.49 L 362.16 173.17 L 359.83 180.53 L 357.49 177.86 L 355.16 173.17 L 352.82 176.52 L 350.49 169.83 L 348.15 172.51 L 345.82 169.16 L 343.48 166.49 L 341.15 163.14 L 338.82 165.48 L 336.48 165.48 L 334.15 163.14 L 331.81 164.48 L 329.48 163.31 L 327.14 165.15 L 324.81 167.16 L 322.47 168.49 L 320.14 171.84 L 317.80 171.84 L 315.47 170.50 L 313.14 174.35 L 310.80 175.52 L 308.47 177.86 L 306.13 180.53 L 303.80 182.54 L 301.46 181.20 L 299.13 189.89 L 296.79 183.88 L 294.46 191.40 L 292.13 190.56 L 289.79 185.21 L 287.46 188.39 L 285.12 191.73 L 282.79 192.57 L 280.45 192.57 L 278.12 189.22 L 275.78 182.54 L 273.45 183.88 L 271.11 179.70 L 268.78 180.87 L 266.45 181.20 L 264.11 183.21 L 261.78 183.88 L 259.44 181.20 L 257.11 179.19 L 254.77 181.87 L 252.44 179.19 L 250.10 176.52 L 247.77 176.52 L 245.44 178.53 L 243.10 177.19 L 240.77 179.86 L 238.43 179.70 L 236.10 175.85 L 233.76 171.84 L 231.43 176.52 L 229.09 176.35 L 226.76 171.84 L 224.43 171.84 L 222.09 172.51 L 219.76 177.86 L 217.42 179.86 L 215.09 178.69 L 212.75 179.86 L 210.42 179.86 L 208.08 176.52 L 205.75 178.53 L 203.41 183.88 L 201.08 183.88 L 198.75 185.88 L 196.41 187.89 L 194.08 183.88 L 191.74 181.20 L 189.41 169.16 L 187.07 174.85 L 184.74 171.17 L 182.40 175.68 L 180.07 175.85 L 177.74 174.51 L 175.40 172.51 L 173.07 173.84 L 170.73 179.19 L 168.40 174.85 L 166.06 174.68 L 163.73 171.84 L 161.39 173.84 L 159.06 173.01 L 156.72 176.52 L 154.39 173.84 L 152.06 171.84 L 149.72 173.01 L 147.39 172.51 L 145.05 170.50 L 142.72 167.83 L 140.38 164.48 L 138.05 169.16 L 135.71 167.16 L 133.38 165.82 L 131.05 165.15 L 128.71 164.48 L 126.38 165.15 L 124.04 165.82 L 121.71 169.16 L 119.37 167.83 L 117.04 165.82 L 114.70 167.66 L 112.37 166.49 L 110.03 165.82 L 107.70 163.81 L 105.37 159.80 L 103.03 159.13 L 100.70 162.31 L 98.36 161.14 L 96.03 162.47 L 93.69 173.17 L 91.36 169.16 L 89.02 165.15 L 86.69 163.14 L 84.36 161.81 L 82.02 160.47 L 79.69 161.81 L 77.35 164.48 L 75.02 159.80 L 72.68 164.15 L 70.35 157.79 L 68.01 171.17 L 65.68 167.32 L 63.34 172.51 L 61.01 170.50 L 58.68 168.49 L 56.34 169.16 L 54.01 169.16 L 51.67 164.48 L 49.34 166.49 L 47.00 166.49 L 44.67 159.80 L 42.33 155.79 L 40.00 149.77 Z" fill="rgba(230,126,34,0.22)" stroke="none"/><path d="M 40.00 125.02 L 42.33 119.01 L 44.67 121.01 L 47.00 113.66 L 49.34 135.06 L 51.67 113.66 L 54.01 113.66 L 56.34 113.66 L 58.68 128.03 L 61.01 115.66 L 63.34 117.67 L 65.68 134.39 L 68.01 119.67 L 70.35 123.02 L 72.68 133.05 L 75.02 135.06 L 77.35 132.72 L 79.69 133.72 L 82.02 135.39 L 84.36 136.73 L 86.69 140.41 L 89.02 144.75 L 91.36 142.41 L 93.69 144.42 L 96.03 135.73 L 98.36 141.74 L 100.70 146.42 L 103.03 147.76 L 105.37 149.10 L 107.70 153.11 L 110.03 155.79 L 112.37 149.77 L 114.70 154.78 L 117.04 146.42 L 119.37 152.44 L 121.71 151.78 L 124.04 151.11 L 126.38 154.45 L 128.71 157.79 L 131.05 160.47 L 133.38 159.13 L 135.71 150.44 L 138.05 151.78 L 140.38 151.78 L 142.72 154.45 L 145.05 158.13 L 147.39 159.80 L 149.72 161.14 L 152.06 161.81 L 154.39 162.47 L 156.72 163.14 L 159.06 167.83 L 161.39 164.48 L 163.73 167.83 L 166.06 165.82 L 168.40 163.81 L 170.73 161.81 L 173.07 163.14 L 175.40 167.16 L 177.74 167.16 L 180.07 167.83 L 182.40 163.81 L 184.74 161.81 L 187.07 163.81 L 189.41 164.48 L 191.74 165.15 L 194.08 163.14 L 196.41 161.81 L 198.75 163.81 L 201.08 167.16 L 203.41 167.83 L 205.75 168.49 L 208.08 169.16 L 210.42 168.49 L 212.75 167.83 L 215.09 167.16 L 217.42 166.49 L 219.76 167.83 L 222.09 167.83 L 224.43 167.16 L 226.76 168.49 L 229.09 170.50 L 231.43 170.50 L 233.76 167.83 L 236.10 167.83 L 238.43 167.83 L 240.77 173.17 L 243.10 171.84 L 245.44 164.48 L 247.77 162.47 L 250.10 161.81 L 252.44 162.81 L 254.77 164.48 L 257.11 166.15 L 259.44 165.82 L 261.78 163.81 L 264.11 169.83 L 266.45 172.51 L 268.78 174.51 L 271.11 176.52 L 273.45 178.19 L 275.78 175.85 L 278.12 175.18 L 280.45 171.84 L 282.79 176.18 L 285.12 176.85 L 287.46 163.81 L 289.79 157.79 L 292.13 154.12 L 294.46 153.78 L 296.79 143.75 L 299.13 148.10 L 301.46 153.78 L 303.80 156.46 L 306.13 153.78 L 308.47 150.44 L 310.80 152.44 L 313.14 151.78 L 315.47 151.78 L 317.80 155.79 L 320.14 157.13 L 322.47 163.81 L 324.81 156.46 L 327.14 155.79 L 329.48 154.78 L 331.81 155.45 L 334.15 153.11 L 336.48 158.46 L 338.82 158.46 L 341.15 158.80 L 343.48 162.47 L 345.82 161.81 L 348.15 160.47 L 350.49 157.13 L 352.82 156.46 L 355.16 158.46 L 357.49 155.79 L 359.83 155.79 L 362.16 158.46 L 364.49 150.44 L 366.83 152.44 L 369.16 157.79 L 371.50 158.46 L 373.83 160.80 L 376.17 161.81 L 378.50 161.14 L 380.84 161.81 L 383.17 155.79 L 385.51 155.12 L 387.84 157.79 L 390.17 157.13 L 392.51 151.44 L 394.84 150.44 L 397.18 145.09 L 399.51 149.77 L 401.85 145.09 L 404.18 133.72 L 406.52 153.78 L 408.85 146.42 L 411.18 133.05 L 413.52 129.04 L 415.85 129.71 L 418.19 122.35 L 420.52 124.36 L 422.86 123.35 L 425.19 121.68 L 427.53 125.02 L 429.86 123.69 L 432.20 118.34 L 434.53 120.01 L 436.86 115.66 L 439.20 106.97 L 441.53 107.97 L 443.87 119.01 L 446.20 120.34 L 448.54 120.34 L 450.87 113.66 L 453.21 117.67 L 455.54 122.35 L 457.87 132.38 L 460.21 136.39 L 462.54 119.01 L 464.88 129.04 L 467.21 128.37 L 469.55 130.38 L 471.88 135.73 L 474.22 134.05 L 476.55 123.02 L 478.89 132.72 L 481.22 143.08 L 483.55 141.74 L 485.89 137.73 L 488.22 145.76 L 490.56 150.77 L 492.89 154.45 L 495.23 167.83 L 497.56 167.83 L 499.90 162.81 L 502.23 154.45 L 504.56 166.49 L 506.90 164.48 L 509.23 155.79 L 511.57 156.46 L 513.90 164.48 L 516.24 165.15 L 518.57 159.13 L 520.91 168.49 L 523.24 163.48 L 525.57 160.13 L 527.91 167.16 L 530.24 149.77 L 532.58 167.16 L 534.91 158.46 L 537.25 148.43 L 539.58 148.43 L 541.92 141.08 L 544.25 155.12 L 546.59 146.42 L 548.92 146.42 L 551.25 165.82 L 553.59 155.12 L 555.92 156.46 L 558.26 153.45 L 560.59 149.43 L 562.93 147.76 L 565.26 141.08 L 567.60 141.08 L 569.93 143.08 L 572.26 146.09 L 574.60 145.76 L 576.93 149.10 L 579.27 140.07 L 581.60 138.73 L 583.94 141.74 L 586.27 139.40 L 588.61 143.75 L 590.94 146.76 L 593.28 147.76 L 595.61 154.12 L 597.94 159.80 L 600.28 161.14 L 602.61 155.12 L 604.95 155.79 L 607.28 159.47 L 609.62 163.81 L 611.95 163.14 L 614.29 165.15 L 616.62 169.50 L 618.95 162.47 L 621.29 161.81 L 623.62 162.47 L 625.96 160.47 L 628.29 167.16 L 630.63 181.20 L 632.96 173.51 L 635.30 167.16 L 637.63 161.14 L 639.97 164.48 L 642.30 164.48 L 644.63 158.46 L 646.97 154.45 L 649.30 159.13 L 651.64 169.16 L 653.97 164.48 L 656.31 161.14 L 658.64 159.80 L 660.98 154.45 L 663.31 151.78 L 665.64 163.14 L 667.98 150.44 L 670.31 140.41 L 672.65 137.06 L 674.98 127.03 L 677.32 127.70 L 679.65 125.02 L 681.99 123.69 L 684.32 118.34 L 686.66 125.69 L 688.99 125.02 L 691.32 124.36 L 693.66 117.67 L 695.99 116.00 L 698.33 110.31 L 700.66 118.34 L 703.00 123.69 L 705.33 127.03 L 707.67 128.70 L 710.00 128.03" fill="none" stroke="#2c3e50" stroke-width="2"/></svg>