<?xml version="1.0"?><svg viewBox="0 0 720 260" width="100%" height="260" xmlns="http://www.w3.org/2000/svg"><rect width="100%" height="100%" fill="#fff"/><line x1="40" y1="210.625" x2="710" y2="210.625" stroke="#eee"/><text x="32" y="214.625" text-anchor="end" font-size="10" fill="#666" font-family="system-ui,Arial">60</text><line x1="40" y1="183.875" x2="710" y2="183.875" stroke="#eee"/><text x="32" y="187.875" text-anchor="end" font-size="10" fill="#666" font-family="system-ui,Arial">100</text><line x1="40" y1="157.125" x2="710" y2="157.125" stroke="#eee"/><text x="32" y="161.125" text-anchor="end" font-size="10" fill="#666" font-family="system-ui,Arial">140</text><line x1="40" y1="130.375" x2="710" y2="130.375" stroke="#eee"/><text x="32" y="134.375" text-anchor="end" font-size="10" fill="#666" font-family="system-ui,Arial">180</text><line x1="40" y1="103.625" x2="710" y2="103.625" stroke="#eee"/><text x="32" y="107.625" text-anchor="end" font-size="10" fill="#666" font-family="system-ui,Arial">220</text><line x1="40" y1="76.875" x2="710" y2="76.875" stroke="#eee"/><text x="32" y="80.875" text-anchor="end" font-size="10" fill="#666" font-family="system-ui,Arial">260</text><line x1="40" y1="50.125" x2="710" y2="50.125" stroke="#eee"/><text x="32" y="54.125" text-anchor="end" font-size="10" fill="#666" font-family="system-ui,Arial">300</text><line x1="40" y1="23.375" x2="710" y2="23.375" stroke="#eee"/><text x="32" y="27.375" text-anchor="end" font-size="10" fill="#666" font-family="system-ui,Arial">340</text><line x1="208.0836236933798" y1="10" x2="208.0836236933798" y2="224" stroke="#eee"/><text x="208.0836236933798" y="238" text-anchor="middle" font-size="10" fill="#666" font-family="system-ui,Arial">6</text><line x1="292.1254355400697" y1="10" x2="292.1254355400697" y2="224" stroke="#eee"/><text x="292.1254355400697" y="238" text-anchor="middle" font-size="10" fill="#666" font-family="system-ui,Arial">9</text><line x1="376.1672473867596" y1="10" x2="376.1672473867596" y2="224" stroke="#eee"/><text x="376.1672473867596" y="238" text-anchor="middle" font-size="10" fill="#666" font-family="system-ui,Arial">12</text><line x1="460.20905923344947" y1="10" x2="460.20905923344947" y2="224" stroke="#eee"/><text x="460.20905923344947" y="238" text-anchor="middle" font-size="10" fill="#666" font-family="system-ui,Arial">15</text><line x1="544.2508710801394" y1="10" x2="544.2508710801394" y2="224" stroke="#eee"/><text x="544.2508710801394" y="238" text-anchor="middle" font-size="10" fill="#666" font-family="system-ui,Arial">18</text><line x1="628.2926829268292" y1="10" x2="628.2926829268292" y2="224" stroke="#eee"/><text x="628.2926829268292" y="238" text-anchor="middle" font-size="10" fill="#666" font-family="system-ui,Arial">21</text><rect x="40" y="130.375" width="670" height="73.5625" fill="rgba(39,174,96,0.07)"/><path d="M 40.00 43.81 L 42.33 47.08 L 44.67 42.77 L 47.00 35.41 L 49.34 23.38 L 51.67 28.06 L 54.01 26.05 L 56.34 28.06 L 58.68 35.41 L 61.01 39.42 L 63.34 37.42 L 65.68 34.08 L 68.01 30.06 L 70.35 27.39 L 72.68 26.72 L 75.02 26.05 L 77.35 26.05 L 79.69 20.70 L 82.02 16.69 L 84.36 13.34 L 86.69 10.00 L 89.02 13.34 L 91.36 11.34 L 93.69 10.00 L 96.03 10.00 L 98.36 17.36 L 100.70 10.67 L 103.03 10.00 L 105.37 10.00 L 107.70 10.00 L 110.03 10.00 L 112.37 10.00 L 114.70 10.00 L 117.04 10.00 L 119.37 10.00 L 121.71 10.00 L 124.04 10.00 L 126.38 10.00 L 128.71 10.00 L 131.05 10.00 L 133.38 10.00 L 135.71 10.00 L 138.05 10.00 L 140.38 10.00 L 142.72 10.00 L 145.05 10.00 L 147.39 10.00 L 149.72 10.00 L 152.06 10.00 L 154.39 10.00 L 156.72 10.00 L 159.06 10.00 L 161.39 10.00 L 163.73 10.00 L 166.06 10.00 L 168.40 11.61 L 170.73 14.55 L 173.07 18.43 L 175.40 24.71 L 177.74 26.75 L 180.07 28.93 L 182.40 29.46 L 184.74 35.55 L 187.07 39.16 L 189.41 40.76 L 191.74 42.43 L 194.08 47.45 L 196.41 45.44 L 198.75 51.63 L 201.08 57.72 L 203.41 60.29 L 205.75 64.44 L 208.08 70.46 L 210.42 75.20 L 212.75 77.21 L 215.09 75.04 L 217.42 83.43 L 219.76 83.83 L 222.09 98.41 L 224.43 99.55 L 226.76 108.71 L 229.09 116.06 L 231.43 122.82 L 233.76 130.58 L 236.10 122.35 L 238.43 139.47 L 240.77 147.09 L 243.10 149.17 L 245.44 149.47 L 247.77 156.49 L 250.10 149.90 L 252.44 133.55 L 254.77 118.47 L 257.11 113.79 L 259.44 112.59 L 261.78 105.33 L 264.11 103.29 L 266.45 97.61 L 268.78 76.88 L 271.11 93.29 L 273.45 92.06 L 275.78 81.52 L 278.12 78.51 L 280.45 77.14 L 282.79 81.22 L 285.12 65.81 L 287.46 57.62 L 289.79 60.83 L 292.13 60.02 L 294.46 60.83 L 296.79 54.54 L 299.13 62.03 L 301.46 46.11 L 303.80 61.49 L 306.13 52.80 L 308.47 70.46 L 310.80 75.57 L 313.14 76.91 L 315.47 80.35 L 317.80 81.56 L 320.14 83.03 L 322.47 78.21 L 324.81 87.44 L 327.14 79.55 L 329.48 82.63 L 331.81 81.56 L 334.15 80.85 L 336.48 80.52 L 338.82 82.56 L 341.15 86.57 L 343.48 79.88 L 345.82 38.76 L 348.15 79.22 L 350.49 75.20 L 352.82 76.71 L 355.16 82.43 L 357.49 84.87 L 359.83 91.29 L 362.16 93.26 L 364.49 87.44 L 366.83 107.37 L 369.16 100.18 L 371.50 99.61 L 373.83 98.48 L 376.17 82.89 L 378.50 103.63 L 380.84 106.30 L 383.17 102.56 L 385.51 88.54 L 387.84 88.01 L 390.17 87.01 L 392.51 81.22 L 394.84 72.63 L 397.18 75.14 L 399.51 69.05 L 401.85 61.76 L 404.18 55.48 L 406.52 61.73 L 408.85 61.13 L 411.18 64.84 L 413.52 60.83 L 415.85 69.45 L 418.19 67.51 L 420.52 66.71 L 422.86 61.49 L 425.19 62.00 L 427.53 59.49 L 429.86 61.83 L 432.20 65.51 L 434.53 68.52 L 436.86 71.22 L 439.20 77.98 L 441.53 82.16 L 443.87 84.87 L 446.20 81.42 L 448.54 69.82 L 450.87 69.79 L 453.21 70.72 L 455.54 65.61 L 457.87 65.77 L 460.21 66.31 L 462.54 64.17 L 464.88 62.83 L 467.21 58.82 L 469.55 62.16 L 471.88 54.67 L 474.22 52.47 L 476.55 52.80 L 478.89 60.16 L 481.22 63.97 L 483.55 73.97 L 485.89 77.44 L 488.22 78.88 L 490.56 87.17 L 492.89 94.26 L 495.23 99.61 L 497.56 109.11 L 499.90 112.82 L 502.23 113.86 L 504.56 113.69 L 506.90 104.83 L 509.23 93.73 L 511.57 87.17 L 513.90 92.32 L 516.24 95.60 L 518.57 99.81 L 520.91 104.39 L 523.24 100.65 L 525.57 103.89 L 527.91 108.77 L 530.24 107.97 L 532.58 99.24 L 534.91 94.90 L 537.25 86.54 L 539.58 90.25 L 541.92 94.80 L 544.25 103.22 L 546.59 103.63 L 548.92 104.29 L 551.25 109.91 L 553.59 110.31 L 555.92 101.62 L 558.26 103.63 L 560.59 108.57 L 562.93 101.95 L 565.26 100.82 L 567.60 103.76 L 569.93 103.76 L 572.26 105.30 L 574.60 108.98 L 576.93 110.81 L 579.27 113.32 L 581.60 108.01 L 583.94 94.26 L 586.27 100.01 L 588.61 102.42 L 590.94 92.22 L 593.28 89.98 L 595.61 91.25 L 597.94 81.56 L 600.28 82.33 L 602.61 84.37 L 604.95 82.43 L 607.28 86.24 L 609.62 84.90 L 611.95 89.82 L 614.29 81.56 L 616.62 77.04 L 618.95 76.21 L 621.29 83.63 L 623.62 75.54 L 625.96 69.69 L 628.29 74.27 L 630.63 73.40 L 632.96 66.38 L 635.30 63.53 L 637.63 68.38 L 639.97 66.58 L 642.30 69.25 L 644.63 71.39 L 646.97 73.53 L 649.30 83.43 L 651.64 87.24 L 653.97 90.92 L 656.31 94.63 L 658.64 97.61 L 660.98 95.60 L 663.31 91.39 L 665.64 93.66 L 667.98 94.26 L 670.31 91.25 L 672.65 85.23 L 674.98 90.92 L 677.32 94.60 L 679.65 90.25 L 681.99 79.02 L 684.32 78.88 L 686.66 71.53 L 688.99 76.74 L 691.32 64.84 L 693.66 73.73 L 695.99 69.32 L 698.33 62.33 L 700.66 58.38 L 703.00 55.27 L 705.33 54.67 L 707.67 47.05 L 710.00 43.47 L 710.00 192.84 L 707.67 194.17 L 705.33 187.15 L 703.00 185.55 L 700.66 175.82 L 698.33 174.85 L 695.99 184.18 L 693.66 190.96 L 691.32 206.61 L 688.99 194.07 L 686.66 193.57 L 684.32 196.92 L 681.99 200.33 L 679.65 200.59 L 677.32 199.26 L 674.98 203.47 L 672.65 205.94 L 670.31 207.95 L 667.98 209.96 L 665.64 213.30 L 663.31 212.10 L 660.98 208.35 L 658.64 206.75 L 656.31 204.34 L 653.97 203.00 L 651.64 201.93 L 649.30 207.55 L 646.97 211.29 L 644.63 217.98 L 642.30 206.61 L 639.97 219.42 L 637.63 221.59 L 635.30 224.00 L 632.96 222.80 L 630.63 218.78 L 628.29 214.64 L 625.96 211.63 L 623.62 204.61 L 621.29 203.44 L 618.95 206.68 L 616.62 201.93 L 614.29 189.22 L 611.95 181.10 L 609.62 171.50 L 607.28 170.17 L 604.95 175.85 L 602.61 164.08 L 600.28 174.98 L 597.94 177.69 L 595.61 173.51 L 593.28 178.53 L 590.94 184.38 L 588.61 184.01 L 586.27 190.16 L 583.94 191.23 L 581.60 191.87 L 579.27 195.24 L 576.93 208.32 L 574.60 210.96 L 572.26 207.95 L 569.93 210.89 L 567.60 223.33 L 565.26 204.07 L 562.93 201.10 L 560.59 200.59 L 558.26 187.22 L 555.92 183.21 L 553.59 188.56 L 551.25 184.31 L 548.92 182.54 L 546.59 185.21 L 544.25 181.87 L 541.92 177.72 L 539.58 177.19 L 537.25 180.53 L 534.91 182.54 L 532.58 183.91 L 530.24 184.88 L 527.91 184.54 L 525.57 183.94 L 523.24 195.44 L 520.91 202.77 L 518.57 204.64 L 516.24 210.36 L 513.90 212.73 L 511.57 214.50 L 509.23 212.53 L 506.90 211.29 L 504.56 207.95 L 502.23 208.59 L 499.90 211.29 L 497.56 222.66 L 495.23 217.31 L 492.89 215.44 L 490.56 214.91 L 488.22 205.64 L 485.89 199.69 L 483.55 195.85 L 481.22 192.07 L 478.89 199.92 L 476.55 189.39 L 474.22 188.36 L 471.88 190.03 L 469.55 192.57 L 467.21 179.53 L 464.88 169.46 L 462.54 164.48 L 460.21 167.83 L 457.87 167.56 L 455.54 170.97 L 453.21 171.97 L 450.87 166.65 L 448.54 168.43 L 446.20 186.55 L 443.87 181.63 L 441.53 184.21 L 439.20 183.88 L 436.86 186.05 L 434.53 219.99 L 432.20 187.89 L 429.86 187.22 L 427.53 186.25 L 425.19 194.58 L 422.86 184.54 L 420.52 168.56 L 418.19 163.14 L 415.85 159.97 L 413.52 162.71 L 411.18 168.49 L 408.85 163.95 L 406.52 165.82 L 404.18 163.81 L 401.85 163.51 L 399.51 162.47 L 397.18 165.82 L 394.84 167.16 L 392.51 162.47 L 390.17 164.48 L 387.84 166.02 L 385.51 164.88 L 383.17 167.42 L 380.84 178.53 L 378.50 189.22 L 376.17 192.90 L 373.83 199.29 L 371.50 198.25 L 369.16 199.32 L 366.83 198.72 L 364.49 193.24 L 362.16 188.56 L 359.83 184.91 L 357.49 185.45 L 355.16 184.48 L 352.82 183.07 L 350.49 181.53 L 348.15 178.53 L 345.82 177.86 L 343.48 176.85 L 341.15 176.52 L 338.82 176.85 L 336.48 175.92 L 334.15 177.69 L 331.81 180.53 L 329.48 179.06 L 327.14 180.53 L 324.81 181.87 L 322.47 182.27 L 320.14 184.94 L 317.80 186.02 L 315.47 187.05 L 313.14 188.02 L 310.80 182.37 L 308.47 178.53 L 306.13 180.46 L 303.80 180.40 L 301.46 178.09 L 299.13 179.93 L 296.79 182.34 L 294.46 194.24 L 292.13 192.57 L 289.79 189.22 L 287.46 186.42 L 285.12 191.23 L 282.79 192.57 L 280.45 193.37 L 278.12 196.48 L 275.78 197.08 L 273.45 195.71 L 271.11 196.68 L 268.78 199.26 L 266.45 191.90 L 264.11 208.62 L 261.78 200.16 L 259.44 197.78 L 257.11 207.95 L 254.77 196.18 L 252.44 202.60 L 250.10 191.90 L 247.77 211.86 L 245.44 203.27 L 243.10 193.87 L 240.77 191.90 L 238.43 194.84 L 236.10 193.24 L 233.76 193.57 L 231.43 190.93 L 229.09 195.54 L 226.76 195.64 L 224.43 199.12 L 222.09 192.97 L 219.76 195.08 L 217.42 195.01 L 215.09 196.41 L 212.75 196.92 L 210.42 197.92 L 208.08 190.76 L 205.75 193.24 L 203.41 194.04 L 201.08 193.61 L 198.75 194.58 L 196.41 196.75 L 194.08 197.38 L 191.74 197.25 L 189.41 200.33 L 187.07 201.13 L 184.74 203.94 L 182.40 198.12 L 180.07 197.25 L 177.74 195.38 L 175.40 196.58 L 173.07 196.98 L 170.73 195.01 L 168.40 195.91 L 166.06 199.42 L 163.73 199.36 L 161.39 202.60 L 159.06 198.79 L 156.72 195.68 L 154.39 194.24 L 152.06 195.58 L 149.72 213.43 L 147.39 212.46 L 145.05 192.23 L 142.72 191.67 L 140.38 195.11 L 138.05 188.56 L 135.71 195.44 L 133.38 197.68 L 131.05 196.05 L 128.71 196.92 L 126.38 196.55 L 124.04 197.99 L 121.71 199.62 L 119.37 203.30 L 117.04 204.44 L 114.70 195.31 L 112.37 196.85 L 110.03 194.44 L 107.70 194.91 L 105.37 195.68 L 103.03 196.05 L 100.70 196.28 L 98.36 197.25 L 96.03 196.95 L 93.69 196.25 L 91.36 196.11 L 89.02 198.86 L 86.69 199.16 L 84.36 197.25 L 82.02 201.80 L 79.69 215.31 L 77.35 192.97 L 75.02 192.97 L 72.68 193.17 L 70.35 192.27 L 68.01 191.43 L 65.68 190.90 L 63.34 190.40 L 61.01 189.89 L 58.68 186.55 L 56.34 183.74 L 54.01 181.20 L 51.67 180.93 L 49.34 179.53 L 47.00 180.30 L 44.67 181.87 L 42.33 185.88 L 40.00 184.88 Z" fill="rgba(231,76,60,0.06)" stroke="none"/><path d="M 40.00 80.05 L 42.33 87.58 L 44.67 85.57 L 47.00 58.82 L 49.34 65.17 L 51.67 84.23 L 54.01 77.54 L 56.34 72.86 L 58.68 84.90 L 61.01 106.97 L 63.34 81.22 L 65.68 90.58 L 68.01 107.64 L 70.35 106.97 L 72.68 101.62 L 75.02 101.95 L 77.35 102.29 L 79.69 117.00 L 82.02 119.67 L 84.36 106.97 L 86.69 98.94 L 89.02 118.34 L 91.36 118.00 L 93.69 117.67 L 96.03 121.01 L 98.36 122.68 L 100.70 127.70 L 103.03 138.40 L 105.37 141.08 L 107.70 135.73 L 110.03 126.53 L 112.37 128.37 L 114.70 124.19 L 117.04 124.69 L 119.37 134.39 L 121.71 130.38 L 124.04 122.35 L 126.38 125.69 L 128.71 125.69 L 131.05 126.36 L 133.38 134.72 L 135.71 109.31 L 138.05 137.23 L 140.38 137.90 L 142.72 92.26 L 145.05 133.05 L 147.39 134.39 L 149.72 136.39 L 152.06 138.40 L 154.39 140.41 L 156.72 145.09 L 159.06 146.26 L 161.39 143.75 L 163.73 133.38 L 166.06 145.76 L 168.40 148.43 L 170.73 159.80 L 173.07 165.15 L 175.40 159.80 L 177.74 161.81 L 180.07 167.16 L 182.40 167.16 L 184.74 103.63 L 187.07 165.15 L 189.41 160.47 L 191.74 107.64 L 194.08 169.83 L 196.41 134.05 L 198.75 159.80 L 201.08 140.57 L 203.41 168.49 L 205.75 166.49 L 208.08 166.82 L 210.42 160.47 L 212.75 156.46 L 215.09 153.78 L 217.42 162.47 L 219.76 159.47 L 222.09 157.79 L 224.43 163.81 L 226.76 163.81 L 229.09 167.16 L 231.43 170.67 L 233.76 168.49 L 236.10 165.15 L 238.43 167.83 L 240.77 165.82 L 243.10 169.16 L 245.44 163.65 L 247.77 162.47 L 250.10 157.79 L 252.44 160.30 L 254.77 157.79 L 257.11 143.08 L 259.44 133.72 L 261.78 137.06 L 264.11 127.03 L 266.45 119.01 L 268.78 113.49 L 271.11 116.33 L 273.45 114.33 L 275.78 112.32 L 278.12 112.99 L 280.45 115.66 L 282.79 112.32 L 285.12 105.13 L 287.46 107.64 L 289.79 102.29 L 292.13 107.64 L 294.46 112.32 L 296.79 116.67 L 299.13 117.67 L 301.46 113.32 L 303.80 115.66 L 306.13 117.84 L 308.47 121.68 L 310.80 124.36 L 313.14 123.02 L 315.47 121.01 L 317.80 126.36 L 320.14 118.34 L 322.47 105.63 L 324.81 114.99 L 327.14 114.99 L 329.48 119.01 L 331.81 118.34 L 334.15 123.02 L 336.48 129.04 L 338.82 141.74 L 341.15 137.06 L 343.48 133.72 L 345.82 136.06 L 348.15 141.08 L 350.49 139.07 L 352.82 141.74 L 355.16 145.09 L 357.49 147.76 L 359.83 145.76 L 362.16 146.09 L 364.49 145.76 L 366.83 143.08 L 369.16 152.44 L 371.50 151.11 L 373.83 151.94 L 376.17 139.74 L 378.50 148.77 L 380.84 141.74 L 383.17 130.38 L 385.51 123.69 L 387.84 125.69 L 390.17 117.00 L 392.51 108.31 L 394.84 109.64 L 397.18 104.29 L 399.51 87.58 L 401.85 78.88 L 404.18 74.20 L 406.52 77.54 L 408.85 75.54 L 411.18 74.20 L 413.52 74.20 L 415.85 73.53 L 418.19 73.53 L 420.52 70.19 L 422.86 73.53 L 425.19 77.54 L 427.53 78.21 L 429.86 77.54 L 432.20 77.54 L 434.53 76.88 L 436.86 79.05 L 439.20 87.58 L 441.53 90.92 L 443.87 92.26 L 446.20 97.61 L 448.54 101.62 L 450.87 104.46 L 453.21 102.29 L 455.54 100.95 L 457.87 104.29 L 460.21 104.96 L 462.54 108.64 L 464.88 105.80 L 467.21 95.60 L 469.55 103.96 L 471.88 96.94 L 474.22 103.79 L 476.55 103.63 L 478.89 109.31 L 481.22 118.34 L 483.55 137.73 L 485.89 142.08 L 488.22 151.11 L 490.56 146.93 L 492.89 148.43 L 495.23 152.61 L 497.56 154.45 L 499.90 143.75 L 502.23 138.90 L 504.56 152.44 L 506.90 123.69 L 509.23 132.88 L 511.57 129.04 L 513.90 135.22 L 516.24 127.70 L 518.57 130.04 L 520.91 130.54 L 523.24 131.04 L 525.57 122.35 L 527.91 126.20 L 530.24 117.00 L 532.58 120.34 L 534.91 119.34 L 537.25 123.85 L 539.58 115.66 L 541.92 114.99 L 544.25 114.66 L 546.59 117.00 L 548.92 122.35 L 551.25 114.99 L 553.59 115.66 L 555.92 124.36 L 558.26 125.02 L 560.59 126.36 L 562.93 139.74 L 565.26 129.71 L 567.60 129.04 L 569.93 131.04 L 572.26 132.38 L 574.60 120.68 L 576.93 117.67 L 579.27 119.34 L 581.60 111.65 L 583.94 114.99 L 586.27 110.98 L 588.61 112.32 L 590.94 104.96 L 593.28 103.63 L 595.61 111.65 L 597.94 109.98 L 600.28 113.66 L 602.61 114.33 L 604.95 112.49 L 607.28 110.31 L 609.62 110.31 L 611.95 114.33 L 614.29 114.99 L 616.62 116.16 L 618.95 112.82 L 621.29 119.51 L 623.62 117.67 L 625.96 119.17 L 628.29 120.51 L 630.63 117.67 L 632.96 112.32 L 635.30 106.80 L 637.63 112.49 L 639.97 118.17 L 642.30 112.65 L 644.63 112.49 L 646.97 114.33 L 649.30 96.27 L 651.64 108.64 L 653.97 102.29 L 656.31 103.63 L 658.64 103.63 L 660.98 106.97 L 663.31 105.46 L 665.64 101.62 L 667.98 106.97 L 670.31 110.31 L 672.65 109.64 L 674.98 106.97 L 677.32 106.97 L 679.65 112.32 L 681.99 111.65 L 684.32 117.67 L 686.66 106.63 L 688.99 114.33 L 691.32 103.63 L 693.66 116.33 L 695.99 110.98 L 698.33 90.92 L 700.66 102.96 L 703.00 93.59 L 705.33 82.23 L 707.67 69.02 L 710.00 90.25 L 710.00 171.17 L 707.67 168.83 L 705.33 159.80 L 703.00 158.46 L 700.66 166.32 L 698.33 164.48 L 695.99 164.48 L 693.66 164.31 L 691.32 165.82 L 688.99 164.65 L 686.66 168.49 L 684.32 159.13 L 681.99 169.83 L 679.65 162.47 L 677.32 166.49 L 674.98 160.64 L 672.65 163.14 L 670.31 163.14 L 667.98 163.81 L 665.64 164.48 L 663.31 159.80 L 660.98 164.48 L 658.64 156.12 L 656.31 161.81 L 653.97 159.13 L 651.64 155.79 L 649.30 165.15 L 646.97 173.84 L 644.63 177.19 L 642.30 185.21 L 639.97 177.86 L 637.63 170.50 L 635.30 169.83 L 632.96 187.55 L 630.63 160.47 L 628.29 168.66 L 625.96 158.46 L 623.62 160.47 L 621.29 165.82 L 618.95 153.78 L 616.62 167.83 L 614.29 156.46 L 611.95 159.30 L 609.62 153.11 L 607.28 158.46 L 604.95 157.46 L 602.61 153.11 L 600.28 153.11 L 597.94 151.11 L 595.61 157.79 L 593.28 158.46 L 590.94 158.46 L 588.61 158.46 L 586.27 164.48 L 583.94 175.18 L 581.60 172.51 L 579.27 171.17 L 576.93 165.15 L 574.60 162.81 L 572.26 167.49 L 569.93 163.81 L 567.60 160.47 L 565.26 165.82 L 562.93 163.98 L 560.59 167.83 L 558.26 177.19 L 555.92 177.19 L 553.59 167.83 L 551.25 178.69 L 548.92 177.19 L 546.59 170.50 L 544.25 167.83 L 541.92 170.50 L 539.58 169.83 L 537.25 174.68 L 534.91 175.01 L 532.58 177.86 L 530.24 175.85 L 527.91 170.67 L 525.57 179.19 L 523.24 178.69 L 520.91 169.16 L 518.57 166.49 L 516.24 166.49 L 513.90 166.49 L 511.57 168.49 L 509.23 168.49 L 506.90 172.51 L 504.56 178.19 L 502.23 186.72 L 499.90 196.58 L 497.56 204.61 L 495.23 204.61 L 492.89 199.26 L 490.56 190.56 L 488.22 181.87 L 485.89 173.17 L 483.55 169.83 L 481.22 170.17 L 478.89 173.17 L 476.55 166.15 L 474.22 168.16 L 471.88 169.83 L 469.55 163.14 L 467.21 156.79 L 464.88 151.94 L 462.54 149.77 L 460.21 146.42 L 457.87 152.95 L 455.54 145.76 L 453.21 143.08 L 450.87 154.78 L 448.54 133.72 L 446.20 133.05 L 443.87 135.73 L 441.53 141.08 L 439.20 119.51 L 436.86 133.05 L 434.53 136.39 L 432.20 139.07 L 429.86 130.71 L 427.53 137.06 L 425.19 121.68 L 422.86 125.69 L 420.52 129.54 L 418.19 131.04 L 415.85 141.08 L 413.52 129.20 L 411.18 141.74 L 408.85 132.38 L 406.52 123.02 L 404.18 123.69 L 401.85 127.03 L 399.51 134.39 L 397.18 135.73 L 394.84 142.41 L 392.51 146.42 L 390.17 154.45 L 387.84 159.80 L 385.51 158.63 L 383.17 157.79 L 380.84 159.80 L 378.50 173.84 L 376.17 178.53 L 373.83 174.85 L 371.50 172.51 L 369.16 175.18 L 366.83 177.19 L 364.49 177.19 L 362.16 166.15 L 359.83 169.16 L 357.49 165.82 L 355.16 163.81 L 352.82 167.83 L 350.49 162.47 L 348.15 162.47 L 345.82 162.47 L 343.48 162.47 L 341.15 160.47 L 338.82 163.81 L 336.48 164.48 L 334.15 161.81 L 331.81 162.81 L 329.48 163.81 L 327.14 158.80 L 324.81 156.46 L 322.47 153.78 L 320.14 157.13 L 317.80 155.79 L 315.47 152.61 L 313.14 177.19 L 310.80 173.17 L 308.47 153.11 L 306.13 161.97 L 303.80 173.17 L 301.46 163.65 L 299.13 169.33 L 296.79 167.16 L 294.46 176.52 L 292.13 181.87 L 289.79 179.86 L 287.46 175.85 L 285.12 176.18 L 282.79 172.51 L 280.45 170.50 L 278.12 172.17 L 275.78 171.34 L 273.45 175.52 L 271.11 173.34 L 268.78 174.51 L 266.45 167.83 L 264.11 169.83 L 261.78 166.49 L 259.44 165.82 L 257.11 169.83 L 254.77 168.49 L 252.44 181.53 L 250.10 185.21 L 247.77 188.56 L 245.44 184.54 L 243.10 183.88 L 240.77 183.21 L 238.43 184.54 L 236.10 187.22 L 233.76 187.89 L 231.43 189.22 L 229.09 185.55 L 226.76 182.54 L 224.43 185.21 L 222.09 183.21 L 219.76 184.04 L 217.42 186.55 L 215.09 187.22 L 212.75 186.22 L 210.42 184.88 L 208.08 185.71 L 205.75 188.56 L 203.41 189.22 L 201.08 188.56 L 198.75 188.56 L 196.41 187.89 L 194.08 195.24 L 191.74 187.22 L 189.41 188.56 L 187.07 189.89 L 184.74 182.54 L 182.40 182.54 L 180.07 189.22 L 177.74 188.56 L 175.40 188.22 L 173.07 187.22 L 170.73 186.72 L 168.40 185.21 L 166.06 188.56 L 163.73 189.22 L 161.39 190.56 L 159.06 189.89 L 156.72 189.22 L 154.39 187.89 L 152.06 186.55 L 149.72 187.89 L 147.39 187.22 L 145.05 185.21 L 142.72 185.88 L 140.38 187.22 L 138.05 187.89 L 135.71 187.22 L 133.38 186.88 L 131.05 187.22 L 128.71 190.56 L 126.38 193.57 L 124.04 189.89 L 121.71 192.57 L 119.37 188.56 L 117.04 184.88 L 114.70 182.04 L 112.37 179.03 L 110.03 177.86 L 107.70 175.85 L 105.37 171.50 L 103.03 171.84 L 100.70 171.84 L 98.36 182.04 L 96.03 182.37 L 93.69 185.21 L 91.36 179.70 L 89.02 183.21 L 86.69 178.53 L 84.36 180.53 L 82.02 177.86 L 79.69 181.20 L 77.35 165.15 L 75.02 164.48 L 72.68 163.14 L 70.35 163.14 L 68.01 161.30 L 65.68 158.46 L 63.34 159.97 L 61.01 162.47 L 58.68 160.47 L 56.34 157.13 L 54.01 152.44 L 51.67 155.79 L 49.34 164.48 L 47.00 166.32 L 44.67 159.80 L 42.33 155.79 L 40.00 153.11 Z" fill="rgba(230,126,34,0.22)" stroke="none"/><path d="M 40.00 126.36 L 42.33 132.72 L 44.67 130.38 L 47.00 133.05 L 49.34 136.39 L 51.67 139.07 L 54.01 133.72 L 56.34 138.40 L 58.68 134.39 L 61.01 133.72 L 63.34 136.39 L 65.68 134.39 L 68.01 136.39 L 70.35 130.71 L 72.68 134.39 L 75.02 135.06 L 77.35 134.39 L 79.69 151.11 L 82.02 135.06 L 84.36 135.73 L 86.69 143.75 L 89.02 147.76 L 91.36 142.41 L 93.69 161.14 L 96.03 132.05 L 98.36 141.74 L 100.70 147.43 L 103.03 142.41 L 105.37 149.10 L 107.70 163.81 L 110.03 161.14 L 112.37 155.79 L 114.70 157.13 L 117.04 157.79 L 119.37 158.46 L 121.71 161.47 L 124.04 163.81 L 126.38 166.49 L 128.71 170.50 L 131.05 165.82 L 133.38 166.82 L 135.71 175.18 L 138.05 175.85 L 140.38 180.53 L 142.72 164.82 L 145.05 167.16 L 147.39 181.87 L 149.72 181.87 L 152.06 183.54 L 154.39 183.21 L 156.72 184.21 L 159.06 183.54 L 161.39 181.20 L 163.73 177.19 L 166.06 180.20 L 168.40 179.86 L 170.73 178.53 L 173.07 177.86 L 175.40 179.19 L 177.74 179.53 L 180.07 177.19 L 182.40 177.86 L 184.74 178.53 L 187.07 173.84 L 189.41 171.17 L 191.74 180.53 L 194.08 181.20 L 196.41 173.84 L 198.75 175.18 L 201.08 173.84 L 203.41 183.88 L 205.75 180.87 L 208.08 179.86 L 210.42 178.53 L 212.75 177.19 L 215.09 177.86 L 217.42 180.53 L 219.76 179.53 L 222.09 180.53 L 224.43 180.53 L 226.76 175.85 L 229.09 179.86 L 231.43 181.87 L 233.76 177.86 L 236.10 173.17 L 238.43 175.85 L 240.77 177.86 L 243.10 173.84 L 245.44 176.52 L 247.77 178.53 L 250.10 171.84 L 252.44 173.51 L 254.77 165.82 L 257.11 161.14 L 259.44 159.80 L 261.78 159.13 L 264.11 152.44 L 266.45 151.78 L 268.78 143.42 L 271.11 142.75 L 273.45 136.06 L 275.78 139.40 L 278.12 145.09 L 280.45 148.43 L 282.79 158.46 L 285.12 157.13 L 287.46 154.45 L 289.79 152.44 L 292.13 144.42 L 294.46 136.39 L 296.79 142.41 L 299.13 138.40 L 301.46 144.42 L 303.80 141.08 L 306.13 135.73 L 308.47 135.06 L 310.80 141.08 L 313.14 143.42 L 315.47 142.41 L 317.80 145.09 L 320.14 140.41 L 322.47 137.73 L 324.81 138.40 L 327.14 141.74 L 329.48 141.74 L 331.81 143.75 L 334.15 150.77 L 336.48 153.78 L 338.82 148.43 L 341.15 148.43 L 343.48 157.79 L 345.82 158.46 L 348.15 151.11 L 350.49 155.79 L 352.82 154.45 L 355.16 154.45 L 357.49 155.12 L 359.83 154.45 L 362.16 158.46 L 364.49 158.46 L 366.83 163.81 L 369.16 163.81 L 371.50 167.16 L 373.83 171.17 L 376.17 170.50 L 378.50 164.48 L 380.84 155.12 L 383.17 139.07 L 385.51 129.04 L 387.84 127.37 L 390.17 128.37 L 392.51 132.38 L 394.84 125.69 L 397.18 117.00 L 399.51 116.33 L 401.85 112.65 L 404.18 106.30 L 406.52 106.63 L 408.85 97.94 L 411.18 93.59 L 413.52 82.89 L 415.85 93.93 L 418.19 95.93 L 420.52 100.95 L 422.86 101.62 L 425.19 99.61 L 427.53 106.97 L 429.86 100.95 L 432.20 100.28 L 434.53 102.29 L 436.86 99.61 L 439.20 100.95 L 441.53 105.63 L 443.87 106.30 L 446.20 120.34 L 448.54 119.01 L 450.87 117.67 L 453.21 124.36 L 455.54 117.00 L 457.87 125.02 L 460.21 120.34 L 462.54 115.66 L 464.88 113.32 L 467.21 117.00 L 469.55 119.67 L 471.88 121.68 L 474.22 118.00 L 476.55 129.71 L 478.89 135.06 L 481.22 145.09 L 483.55 156.46 L 485.89 166.49 L 488.22 158.13 L 490.56 169.83 L 492.89 175.85 L 495.23 177.52 L 497.56 175.85 L 499.90 173.17 L 502.23 171.17 L 504.56 167.83 L 506.90 165.82 L 509.23 161.81 L 511.57 155.79 L 513.90 153.11 L 516.24 149.77 L 518.57 156.46 L 520.91 157.13 L 523.24 157.79 L 525.57 146.76 L 527.91 140.41 L 530.24 149.77 L 532.58 135.06 L 534.91 139.74 L 537.25 138.40 L 539.58 131.04 L 541.92 133.72 L 544.25 143.75 L 546.59 138.40 L 548.92 131.38 L 551.25 147.76 L 553.59 149.10 L 555.92 155.79 L 558.26 146.42 L 560.59 151.78 L 562.93 147.76 L 565.26 147.09 L 567.60 149.77 L 569.93 149.77 L 572.26 151.78 L 574.60 137.73 L 576.93 139.07 L 579.27 139.74 L 581.60 133.72 L 583.94 135.73 L 586.27 146.42 L 588.61 130.38 L 590.94 131.38 L 593.28 134.39 L 595.61 123.69 L 597.94 125.69 L 600.28 138.07 L 602.61 127.70 L 604.95 147.09 L 607.28 140.41 L 609.62 141.08 L 611.95 134.39 L 614.29 139.07 L 616.62 138.40 L 618.95 125.69 L 621.29 131.04 L 623.62 133.05 L 625.96 131.71 L 628.29 136.39 L 630.63 138.40 L 632.96 137.73 L 635.30 142.41 L 637.63 136.73 L 639.97 132.05 L 642.30 135.73 L 644.63 139.07 L 646.97 145.09 L 649.30 145.09 L 651.64 129.04 L 653.97 122.35 L 656.31 121.68 L 658.64 125.02 L 660.98 122.35 L 663.31 120.34 L 665.64 117.33 L 667.98 114.99 L 670.31 112.99 L 672.65 114.99 L 674.98 117.00 L 677.32 120.34 L 679.65 129.71 L 681.99 126.36 L 684.32 129.71 L 686.66 133.72 L 688.99 127.03 L 691.32 125.69 L 693.66 126.36 L 695.99 131.04 L 698.33 125.02 L 700.66 131.04 L 703.00 121.68 L 705.33 123.02 L 707.67 123.02 L 710.00 124.36" fill="none" stroke="#2c3e50" stroke-width="2"/></svg>