<?xml version="1.0"?><svg viewBox="0 0 720 260" width="100%" height="260" xmlns="http://www.w3.org/2000/svg"><rect width="100%" height="100%" fill="#fff"/><line x1="40" y1="210.625" x2="710" y2="210.625" stroke="#eee"/><text x="32" y="214.625" text-anchor="end" font-size="10" fill="#666" font-family="system-ui,Arial">60</text><line x1="40" y1="183.875" x2="710" y2="183.875" stroke="#eee"/><text x="32" y="187.875" text-anchor="end" font-size="10" fill="#666" font-family="system-ui,Arial">100</text><line x1="40" y1="157.125" x2="710" y2="157.125" stroke="#eee"/><text x="32" y="161.125" text-anchor="end" font-size="10" fill="#666" font-family="system-ui,Arial">140</text><line x1="40" y1="130.375" x2="710" y2="130.375" stroke="#eee"/><text x="32" y="134.375" text-anchor="end" font-size="10" fill="#666" font-family="system-ui,Arial">180</text><line x1="40" y1="103.625" x2="710" y2="103.625" stroke="#eee"/><text x="32" y="107.625" text-anchor="end" font-size="10" fill="#666" font-family="system-ui,Arial">220</text><line x1="40" y1="76.875" x2="710" y2="76.875" stroke="#eee"/><text x="32" y="80.875" text-anchor="end" font-size="10" fill="#666" font-family="system-ui,Arial">260</text><line x1="40" y1="50.125" x2="710" y2="50.125" stroke="#eee"/><text x="32" y="54.125" text-anchor="end" font-size="10" fill="#666" font-family="system-ui,Arial">300</text><line x1="40" y1="23.375" x2="710" y2="23.375" stroke="#eee"/><text x="32" y="27.375" text-anchor="end" font-size="10" fill="#666" font-family="system-ui,Arial">340</text><line x1="208.0836236933798" y1="10" x2="208.0836236933798" y2="224" stroke="#eee"/><text x="208.0836236933798" y="238" text-anchor="middle" font-size="10" fill="#666" font-family="system-ui,Arial">6</text><line x1="292.1254355400697" y1="10" x2="292.1254355400697" y2="224" stroke="#eee"/><text x="292.1254355400697" y="238" text-anchor="middle" font-size="10" fill="#666" font-family="system-ui,Arial">9</text><line x1="376.1672473867596" y1="10" x2="376.1672473867596" y2="224" stroke="#eee"/><text x="376.1672473867596" y="238" text-anchor="middle" font-size="10" fill="#666" font-family="system-ui,Arial">12</text><line x1="460.20905923344947" y1="10" x2="460.20905923344947" y2="224" stroke="#eee"/><text x="460.20905923344947" y="238" text-anchor="middle" font-size="10" fill="#666" font-family="system-ui,Arial">15</text><line x1="544.2508710801394" y1="10" x2="544.2508710801394" y2="224" stroke="#eee"/><text x="544.2508710801394" y="238" text-anchor="middle" font-size="10" fill="#666" font-family="system-ui,Arial">18</text><line x1="628.2926829268292" y1="10" x2="628.2926829268292" y2="224" stroke="#eee"/><text x="628.2926829268292" y="238" text-anchor="middle" font-size="10" fill="#666" font-family="system-ui,Arial">21</text><rect x="40" y="130.375" width="670" height="73.5625" fill="rgba(39,174,96,0.07)"/><path d="M 40.00 10.00 L 42.33 10.00 L 44.67 10.00 L 47.00 13.34 L 49.34 10.00 L 51.67 10.00 L 54.01 18.36 L 56.34 10.00 L 58.68 11.10 L 61.01 16.42 L 63.34 17.49 L 65.68 18.83 L 68.01 23.11 L 70.35 14.35 L 72.68 13.95 L 75.02 10.00 L 77.35 22.84 L 79.69 36.22 L 82.02 15.78 L 84.36 14.85 L 86.69 19.36 L 89.02 18.59 L 91.36 39.16 L 93.69 32.07 L 96.03 77.54 L 98.36 84.73 L 100.70 92.89 L 103.03 90.25 L 105.37 88.41 L 107.70 98.68 L 110.03 98.98 L 112.37 88.24 L 114.70 111.55 L 117.04 106.97 L 119.37 114.39 L 121.71 121.01 L 124.04 31.47 L 126.38 16.52 L 128.71 26.32 L 131.05 26.05 L 133.38 42.84 L 135.71 27.12 L 138.05 33.21 L 140.38 16.15 L 142.72 32.30 L 145.05 18.83 L 147.39 12.94 L 149.72 28.99 L 152.06 12.34 L 154.39 21.77 L 156.72 54.87 L 159.06 25.78 L 161.39 26.32 L 163.73 26.05 L 166.06 29.59 L 168.40 38.76 L 170.73 10.00 L 173.07 10.00 L 175.40 39.63 L 177.74 38.49 L 180.07 12.67 L 182.40 58.15 L 184.74 55.07 L 187.07 63.23 L 189.41 58.02 L 191.74 44.44 L 194.08 47.28 L 196.41 62.36 L 198.75 71.79 L 201.08 77.81 L 203.41 80.62 L 205.75 109.11 L 208.08 88.65 L 210.42 96.84 L 212.75 107.64 L 215.09 104.46 L 217.42 99.95 L 219.76 101.38 L 222.09 114.33 L 224.43 93.59 L 226.76 96.27 L 229.09 101.62 L 231.43 126.70 L 233.76 119.01 L 236.10 131.31 L 238.43 134.72 L 240.77 136.39 L 243.10 140.71 L 245.44 142.41 L 247.77 143.45 L 250.10 135.86 L 252.44 135.19 L 254.77 137.20 L 257.11 144.29 L 259.44 145.42 L 261.78 146.93 L 264.11 140.81 L 266.45 133.52 L 268.78 119.67 L 271.11 119.21 L 273.45 119.68 L 275.78 112.99 L 278.12 109.91 L 280.45 102.96 L 282.79 111.72 L 285.12 101.22 L 287.46 98.58 L 289.79 92.92 L 292.13 88.65 L 294.46 74.20 L 296.79 86.77 L 299.13 67.51 L 301.46 86.04 L 303.80 88.91 L 306.13 69.52 L 308.47 86.77 L 310.80 90.92 L 313.14 93.66 L 315.47 95.87 L 317.80 101.35 L 320.14 103.09 L 322.47 107.30 L 324.81 101.62 L 327.14 112.99 L 329.48 113.66 L 331.81 114.46 L 334.15 113.92 L 336.48 112.99 L 338.82 121.61 L 341.15 115.66 L 343.48 111.92 L 345.82 108.98 L 348.15 111.98 L 350.49 115.66 L 352.82 113.69 L 355.16 107.77 L 357.49 96.34 L 359.83 94.00 L 362.16 92.32 L 364.49 92.92 L 366.83 108.27 L 369.16 110.18 L 371.50 98.94 L 373.83 115.46 L 376.17 99.61 L 378.50 107.04 L 380.84 83.56 L 383.17 91.59 L 385.51 74.20 L 387.84 71.19 L 390.17 65.11 L 392.51 56.81 L 394.84 64.04 L 397.18 64.17 L 399.51 61.90 L 401.85 62.03 L 404.18 42.10 L 406.52 57.08 L 408.85 66.44 L 411.18 60.16 L 413.52 28.73 L 415.85 61.83 L 418.19 63.30 L 420.52 23.38 L 422.86 62.23 L 425.19 63.50 L 427.53 53.60 L 429.86 54.94 L 432.20 51.06 L 434.53 49.29 L 436.86 53.00 L 439.20 46.92 L 441.53 43.71 L 443.87 49.12 L 446.20 50.13 L 448.54 47.12 L 450.87 54.94 L 453.21 58.08 L 455.54 57.18 L 457.87 59.09 L 460.21 59.09 L 462.54 65.17 L 464.88 52.80 L 467.21 62.97 L 469.55 67.88 L 471.88 67.18 L 474.22 68.48 L 476.55 65.51 L 478.89 79.55 L 481.22 87.31 L 483.55 100.95 L 485.89 106.30 L 488.22 103.79 L 490.56 86.64 L 492.89 76.27 L 495.23 76.34 L 497.56 73.40 L 499.90 77.78 L 502.23 61.16 L 504.56 60.93 L 506.90 71.66 L 509.23 53.84 L 511.57 48.25 L 513.90 59.15 L 516.24 54.27 L 518.57 57.21 L 520.91 61.83 L 523.24 66.17 L 525.57 74.87 L 527.91 85.97 L 530.24 98.84 L 532.58 102.29 L 534.91 103.89 L 537.25 98.27 L 539.58 101.62 L 541.92 103.63 L 544.25 99.61 L 546.59 96.94 L 548.92 104.23 L 551.25 97.27 L 553.59 88.24 L 555.92 88.91 L 558.26 84.23 L 560.59 94.93 L 562.93 98.91 L 565.26 91.72 L 567.60 89.45 L 569.93 83.73 L 572.26 85.37 L 574.60 105.16 L 576.93 99.08 L 579.27 96.40 L 581.60 89.25 L 583.94 90.99 L 586.27 93.59 L 588.61 100.95 L 590.94 104.03 L 593.28 101.62 L 595.61 105.30 L 597.94 100.28 L 600.28 96.14 L 602.61 88.58 L 604.95 86.24 L 607.28 85.00 L 609.62 86.71 L 611.95 80.25 L 614.29 81.22 L 616.62 77.54 L 618.95 71.86 L 621.29 83.63 L 623.62 86.64 L 625.96 88.01 L 628.29 89.35 L 630.63 86.91 L 632.96 42.77 L 635.30 43.44 L 637.63 48.79 L 639.97 43.44 L 642.30 32.74 L 644.63 57.82 L 646.97 42.74 L 649.30 41.10 L 651.64 32.90 L 653.97 27.66 L 656.31 35.08 L 658.64 21.50 L 660.98 20.43 L 663.31 19.66 L 665.64 23.38 L 667.98 27.72 L 670.31 25.08 L 672.65 18.56 L 674.98 23.27 L 677.32 22.04 L 679.65 24.48 L 681.99 16.96 L 684.32 15.08 L 686.66 20.70 L 688.99 16.35 L 691.32 18.02 L 693.66 17.02 L 695.99 10.00 L 698.33 10.33 L 700.66 10.00 L 703.00 10.00 L 705.33 10.00 L 707.67 15.02 L 710.00 11.84 L 710.00 186.52 L 707.67 186.55 L 705.33 171.57 L 703.00 175.85 L 700.66 174.38 L 698.33 178.22 L 695.99 190.76 L 693.66 193.57 L 691.32 206.61 L 688.99 196.48 L 686.66 197.25 L 684.32 203.00 L 681.99 204.34 L 679.65 208.18 L 677.32 207.41 L 674.98 206.38 L 672.65 207.15 L 670.31 207.95 L 667.98 209.96 L 665.64 213.30 L 663.31 212.10 L 660.98 208.35 L 658.64 206.88 L 656.31 204.94 L 653.97 206.34 L 651.64 210.66 L 649.30 213.97 L 646.97 216.68 L 644.63 218.65 L 642.30 214.30 L 639.97 216.64 L 637.63 215.57 L 635.30 211.06 L 632.96 211.66 L 630.63 209.96 L 628.29 214.64 L 625.96 211.63 L 623.62 201.13 L 621.29 200.93 L 618.95 208.85 L 616.62 204.61 L 614.29 199.26 L 611.95 201.76 L 609.62 200.06 L 607.28 196.88 L 604.95 187.89 L 602.61 184.74 L 600.28 185.88 L 597.94 195.91 L 595.61 206.61 L 593.28 208.62 L 590.94 193.24 L 588.61 191.90 L 586.27 194.58 L 583.94 177.66 L 581.60 178.53 L 579.27 184.54 L 576.93 180.26 L 574.60 186.05 L 572.26 191.67 L 569.93 194.21 L 567.60 186.95 L 565.26 186.15 L 562.93 190.06 L 560.59 193.91 L 558.26 191.47 L 555.92 193.24 L 553.59 188.16 L 551.25 198.59 L 548.92 184.14 L 546.59 189.09 L 544.25 196.55 L 541.92 199.92 L 539.58 212.63 L 537.25 202.93 L 534.91 208.08 L 532.58 206.61 L 530.24 196.28 L 527.91 203.27 L 525.57 198.05 L 523.24 202.60 L 520.91 204.27 L 518.57 202.57 L 516.24 201.80 L 513.90 209.29 L 511.57 204.87 L 509.23 198.09 L 506.90 190.70 L 504.56 190.23 L 502.23 193.30 L 499.90 200.59 L 497.56 201.26 L 495.23 202.67 L 492.89 201.06 L 490.56 191.23 L 488.22 186.35 L 485.89 186.88 L 483.55 184.54 L 481.22 180.90 L 478.89 179.53 L 476.55 177.49 L 474.22 180.97 L 471.88 185.88 L 469.55 179.63 L 467.21 176.52 L 464.88 174.51 L 462.54 176.85 L 460.21 175.72 L 457.87 177.86 L 455.54 174.51 L 453.21 172.81 L 450.87 170.63 L 448.54 176.52 L 446.20 171.50 L 443.87 173.84 L 441.53 175.58 L 439.20 174.11 L 436.86 180.53 L 434.53 183.88 L 432.20 183.07 L 429.86 187.75 L 427.53 192.97 L 425.19 189.56 L 422.86 189.06 L 420.52 185.68 L 418.19 176.45 L 415.85 172.84 L 413.52 169.16 L 411.18 172.51 L 408.85 180.00 L 406.52 181.33 L 404.18 179.59 L 401.85 178.53 L 399.51 177.59 L 397.18 175.18 L 394.84 177.45 L 392.51 186.62 L 390.17 193.10 L 387.84 192.90 L 385.51 189.66 L 383.17 189.76 L 380.84 188.66 L 378.50 186.12 L 376.17 181.87 L 373.83 182.70 L 371.50 192.57 L 369.16 185.88 L 366.83 178.12 L 364.49 184.88 L 362.16 193.91 L 359.83 193.91 L 357.49 193.50 L 355.16 191.10 L 352.82 188.32 L 350.49 188.89 L 348.15 187.55 L 345.82 191.23 L 343.48 188.69 L 341.15 189.56 L 338.82 185.61 L 336.48 185.38 L 334.15 186.55 L 331.81 191.90 L 329.48 189.33 L 327.14 189.46 L 324.81 195.54 L 322.47 205.94 L 320.14 197.25 L 317.80 195.78 L 315.47 192.27 L 313.14 193.47 L 310.80 201.26 L 308.47 209.69 L 306.13 212.77 L 303.80 207.95 L 301.46 207.62 L 299.13 209.69 L 296.79 203.54 L 294.46 201.93 L 292.13 198.05 L 289.79 197.25 L 287.46 195.91 L 285.12 197.92 L 282.79 203.97 L 280.45 201.23 L 278.12 196.72 L 275.78 197.08 L 273.45 195.71 L 271.11 193.97 L 268.78 199.26 L 266.45 200.59 L 264.11 208.62 L 261.78 203.44 L 259.44 203.40 L 257.11 207.95 L 254.77 199.36 L 252.44 202.60 L 250.10 187.89 L 247.77 183.41 L 245.44 182.87 L 243.10 183.27 L 240.77 185.21 L 238.43 185.28 L 236.10 187.35 L 233.76 188.29 L 231.43 187.49 L 229.09 185.21 L 226.76 189.56 L 224.43 191.63 L 222.09 188.89 L 219.76 187.19 L 217.42 187.99 L 215.09 191.90 L 212.75 186.22 L 210.42 191.93 L 208.08 196.58 L 205.75 193.91 L 203.41 188.42 L 201.08 189.63 L 198.75 189.76 L 196.41 189.89 L 194.08 189.22 L 191.74 189.96 L 189.41 188.26 L 187.07 189.89 L 184.74 182.94 L 182.40 180.87 L 180.07 179.26 L 177.74 176.65 L 175.40 176.22 L 173.07 179.86 L 170.73 181.20 L 168.40 185.55 L 166.06 179.93 L 163.73 175.85 L 161.39 177.72 L 159.06 185.88 L 156.72 185.21 L 154.39 181.47 L 152.06 183.74 L 149.72 182.37 L 147.39 183.27 L 145.05 180.70 L 142.72 182.00 L 140.38 179.13 L 138.05 195.11 L 135.71 195.91 L 133.38 187.75 L 131.05 184.81 L 128.71 188.52 L 126.38 193.40 L 124.04 192.20 L 121.71 192.70 L 119.37 197.05 L 117.04 202.06 L 114.70 202.47 L 112.37 192.17 L 110.03 190.63 L 107.70 189.29 L 105.37 191.40 L 103.03 192.40 L 100.70 189.49 L 98.36 189.22 L 96.03 195.11 L 93.69 196.92 L 91.36 193.14 L 89.02 197.75 L 86.69 199.39 L 84.36 201.60 L 82.02 204.84 L 79.69 215.31 L 77.35 195.91 L 75.02 193.74 L 72.68 194.58 L 70.35 191.83 L 68.01 187.75 L 65.68 187.35 L 63.34 187.22 L 61.01 185.21 L 58.68 184.61 L 56.34 182.60 L 54.01 178.53 L 51.67 181.33 L 49.34 180.93 L 47.00 177.96 L 44.67 174.48 L 42.33 174.91 L 40.00 172.91 Z" fill="rgba(231,76,60,0.06)" stroke="none"/><path d="M 40.00 54.97 L 42.33 53.47 L 44.67 56.81 L 47.00 67.51 L 49.34 70.86 L 51.67 76.88 L 54.01 69.18 L 56.34 79.55 L 58.68 84.90 L 61.01 108.31 L 63.34 106.30 L 65.68 102.96 L 68.01 100.95 L 70.35 97.61 L 72.68 102.29 L 75.02 101.62 L 77.35 99.61 L 79.69 104.29 L 82.02 101.62 L 84.36 102.29 L 86.69 95.60 L 89.02 101.62 L 91.36 113.32 L 93.69 110.65 L 96.03 109.64 L 98.36 112.32 L 100.70 124.36 L 103.03 135.06 L 105.37 135.73 L 107.70 135.73 L 110.03 125.02 L 112.37 121.01 L 114.70 138.73 L 117.04 126.36 L 119.37 134.39 L 121.71 137.73 L 124.04 129.04 L 126.38 127.70 L 128.71 121.01 L 131.05 126.36 L 133.38 142.75 L 135.71 131.04 L 138.05 131.04 L 140.38 125.69 L 142.72 130.38 L 145.05 136.39 L 147.39 139.07 L 149.72 140.24 L 152.06 131.04 L 154.39 132.38 L 156.72 140.41 L 159.06 146.42 L 161.39 142.41 L 163.73 148.43 L 166.06 151.94 L 168.40 138.73 L 170.73 153.11 L 173.07 151.78 L 175.40 149.77 L 177.74 146.42 L 180.07 141.08 L 182.40 147.76 L 184.74 143.75 L 187.07 144.75 L 189.41 144.59 L 191.74 137.73 L 194.08 142.41 L 196.41 141.74 L 198.75 145.76 L 201.08 156.46 L 203.41 159.13 L 205.75 156.96 L 208.08 151.11 L 210.42 155.12 L 212.75 158.46 L 215.09 163.31 L 217.42 162.47 L 219.76 161.81 L 222.09 157.79 L 224.43 153.11 L 226.76 160.47 L 229.09 162.47 L 231.43 163.81 L 233.76 157.79 L 236.10 155.79 L 238.43 155.79 L 240.77 159.13 L 243.10 158.13 L 245.44 157.13 L 247.77 157.79 L 250.10 149.77 L 252.44 157.13 L 254.77 161.47 L 257.11 159.13 L 259.44 159.80 L 261.78 155.79 L 264.11 152.44 L 266.45 148.43 L 268.78 142.41 L 271.11 134.39 L 273.45 140.24 L 275.78 128.37 L 278.12 125.02 L 280.45 117.84 L 282.79 125.36 L 285.12 119.67 L 287.46 117.67 L 289.79 121.01 L 292.13 122.35 L 294.46 118.34 L 296.79 119.67 L 299.13 120.34 L 301.46 120.85 L 303.80 114.99 L 306.13 112.99 L 308.47 109.64 L 310.80 110.31 L 313.14 113.66 L 315.47 112.32 L 317.80 113.66 L 320.14 121.01 L 322.47 140.07 L 324.81 136.39 L 327.14 134.39 L 329.48 139.74 L 331.81 145.76 L 334.15 150.44 L 336.48 143.75 L 338.82 136.39 L 341.15 143.75 L 343.48 144.42 L 345.82 147.09 L 348.15 148.77 L 350.49 148.10 L 352.82 140.74 L 355.16 134.39 L 357.49 133.05 L 359.83 131.04 L 362.16 142.41 L 364.49 140.41 L 366.83 148.43 L 369.16 146.42 L 371.50 147.76 L 373.83 150.44 L 376.17 145.76 L 378.50 143.08 L 380.84 135.06 L 383.17 110.98 L 385.51 104.80 L 387.84 104.96 L 390.17 107.64 L 392.51 104.29 L 394.84 108.31 L 397.18 130.38 L 399.51 124.36 L 401.85 129.71 L 404.18 131.71 L 406.52 126.36 L 408.85 127.70 L 411.18 123.69 L 413.52 114.33 L 415.85 117.00 L 418.19 107.64 L 420.52 102.79 L 422.86 103.63 L 425.19 97.27 L 427.53 97.61 L 429.86 95.60 L 432.20 92.92 L 434.53 90.92 L 436.86 96.94 L 439.20 98.27 L 441.53 94.93 L 443.87 99.95 L 446.20 100.28 L 448.54 102.96 L 450.87 102.96 L 453.21 102.96 L 455.54 104.29 L 457.87 103.63 L 460.21 109.64 L 462.54 100.62 L 464.88 111.65 L 467.21 114.99 L 469.55 114.33 L 471.88 120.34 L 474.22 112.32 L 476.55 114.99 L 478.89 121.01 L 481.22 131.55 L 483.55 121.01 L 485.89 123.02 L 488.22 130.38 L 490.56 128.87 L 492.89 131.71 L 495.23 128.20 L 497.56 122.35 L 499.90 119.67 L 502.23 140.41 L 504.56 143.75 L 506.90 121.68 L 509.23 122.35 L 511.57 117.00 L 513.90 110.31 L 516.24 107.64 L 518.57 111.82 L 520.91 106.97 L 523.24 103.63 L 525.57 119.67 L 527.91 124.36 L 530.24 125.69 L 532.58 129.71 L 534.91 131.71 L 537.25 129.04 L 539.58 133.72 L 541.92 132.38 L 544.25 114.99 L 546.59 123.69 L 548.92 124.36 L 551.25 114.99 L 553.59 115.66 L 555.92 128.37 L 558.26 115.16 L 560.59 114.33 L 562.93 125.02 L 565.26 129.71 L 567.60 129.71 L 569.93 123.52 L 572.26 120.68 L 574.60 113.15 L 576.93 121.68 L 579.27 124.36 L 581.60 126.36 L 583.94 123.69 L 586.27 121.01 L 588.61 126.03 L 590.94 121.68 L 593.28 118.17 L 595.61 126.36 L 597.94 125.02 L 600.28 130.38 L 602.61 131.71 L 604.95 148.10 L 607.28 153.78 L 609.62 156.46 L 611.95 149.10 L 614.29 151.11 L 616.62 148.77 L 618.95 145.09 L 621.29 144.42 L 623.62 146.42 L 625.96 145.76 L 628.29 146.42 L 630.63 141.08 L 632.96 133.72 L 635.30 132.38 L 637.63 134.39 L 639.97 123.35 L 642.30 125.02 L 644.63 120.34 L 646.97 110.31 L 649.30 127.70 L 651.64 128.54 L 653.97 126.36 L 656.31 127.70 L 658.64 131.04 L 660.98 135.06 L 663.31 135.73 L 665.64 135.39 L 667.98 134.39 L 670.31 131.21 L 672.65 127.03 L 674.98 120.34 L 677.32 117.00 L 679.65 114.33 L 681.99 110.31 L 684.32 102.96 L 686.66 96.94 L 688.99 94.93 L 691.32 88.91 L 693.66 80.89 L 695.99 76.88 L 698.33 74.87 L 700.66 78.21 L 703.00 90.25 L 705.33 75.54 L 707.67 51.46 L 710.00 65.17 L 710.00 165.15 L 707.67 154.78 L 705.33 142.41 L 703.00 146.09 L 700.66 160.47 L 698.33 150.94 L 695.99 151.11 L 693.66 144.42 L 691.32 156.79 L 688.99 145.09 L 686.66 144.42 L 684.32 147.09 L 681.99 140.41 L 679.65 162.47 L 677.32 164.48 L 674.98 169.16 L 672.65 169.16 L 670.31 181.20 L 667.98 180.53 L 665.64 179.19 L 663.31 182.37 L 660.98 191.23 L 658.64 195.24 L 656.31 191.23 L 653.97 200.59 L 651.64 199.26 L 649.30 195.24 L 646.97 199.59 L 644.63 204.27 L 642.30 195.24 L 639.97 195.24 L 637.63 195.41 L 635.30 192.57 L 632.96 190.56 L 630.63 185.55 L 628.29 189.22 L 625.96 183.37 L 623.62 186.55 L 621.29 184.88 L 618.95 193.07 L 616.62 193.91 L 614.29 193.91 L 611.95 187.89 L 609.62 176.85 L 607.28 181.87 L 604.95 178.53 L 602.61 173.84 L 600.28 169.16 L 597.94 177.19 L 595.61 175.85 L 593.28 168.49 L 590.94 166.49 L 588.61 166.15 L 586.27 169.00 L 583.94 160.80 L 581.60 163.81 L 579.27 159.13 L 576.93 165.82 L 574.60 155.45 L 572.26 151.27 L 569.93 157.96 L 567.60 156.46 L 565.26 161.14 L 562.93 162.31 L 560.59 163.14 L 558.26 160.30 L 555.92 163.81 L 553.59 162.47 L 551.25 169.16 L 548.92 171.17 L 546.59 169.16 L 544.25 177.19 L 541.92 179.19 L 539.58 185.21 L 537.25 180.20 L 534.91 180.53 L 532.58 188.56 L 530.24 187.89 L 527.91 185.88 L 525.57 186.55 L 523.24 181.53 L 520.91 182.87 L 518.57 181.53 L 516.24 179.19 L 513.90 178.53 L 511.57 177.86 L 509.23 177.52 L 506.90 175.85 L 504.56 174.51 L 502.23 171.17 L 499.90 173.68 L 497.56 175.18 L 495.23 179.86 L 492.89 175.85 L 490.56 166.49 L 488.22 166.49 L 485.89 167.83 L 483.55 166.49 L 481.22 157.13 L 478.89 165.82 L 476.55 168.49 L 474.22 161.47 L 471.88 159.13 L 469.55 161.14 L 467.21 161.81 L 464.88 161.14 L 462.54 155.12 L 460.21 157.13 L 457.87 161.81 L 455.54 161.81 L 453.21 160.47 L 450.87 163.14 L 448.54 163.14 L 446.20 160.47 L 443.87 162.47 L 441.53 159.80 L 439.20 158.46 L 436.86 157.96 L 434.53 153.11 L 432.20 153.11 L 429.86 156.46 L 427.53 149.27 L 425.19 155.79 L 422.86 155.45 L 420.52 159.13 L 418.19 163.14 L 415.85 165.48 L 413.52 155.12 L 411.18 158.46 L 408.85 156.46 L 406.52 161.81 L 404.18 164.48 L 401.85 168.49 L 399.51 175.18 L 397.18 172.51 L 394.84 168.49 L 392.51 162.98 L 390.17 164.48 L 387.84 164.82 L 385.51 168.49 L 383.17 162.98 L 380.84 171.00 L 378.50 166.49 L 376.17 169.16 L 373.83 175.18 L 371.50 168.49 L 369.16 165.82 L 366.83 165.82 L 364.49 166.49 L 362.16 173.17 L 359.83 180.53 L 357.49 177.86 L 355.16 173.17 L 352.82 176.52 L 350.49 169.83 L 348.15 172.51 L 345.82 169.16 L 343.48 166.49 L 341.15 163.14 L 338.82 165.48 L 336.48 167.32 L 334.15 169.16 L 331.81 171.84 L 329.48 167.32 L 327.14 168.16 L 324.81 167.66 L 322.47 170.50 L 320.14 171.84 L 317.80 171.84 L 315.47 170.17 L 313.14 170.83 L 310.80 170.83 L 308.47 177.86 L 306.13 180.53 L 303.80 182.54 L 301.46 177.52 L 299.13 189.89 L 296.79 183.88 L 294.46 180.20 L 292.13 183.21 L 289.79 185.21 L 287.46 188.39 L 285.12 191.73 L 282.79 193.57 L 280.45 194.24 L 278.12 187.22 L 275.78 185.21 L 273.45 183.54 L 271.11 179.70 L 268.78 179.19 L 266.45 181.20 L 264.11 182.20 L 261.78 183.88 L 259.44 181.20 L 257.11 179.19 L 254.77 179.53 L 252.44 179.19 L 250.10 173.84 L 247.77 176.52 L 245.44 178.53 L 243.10 177.19 L 240.77 181.20 L 238.43 179.70 L 236.10 175.85 L 233.76 171.84 L 231.43 176.52 L 229.09 177.19 L 226.76 171.84 L 224.43 171.84 L 222.09 175.52 L 219.76 180.53 L 217.42 179.86 L 215.09 177.86 L 212.75 177.86 L 210.42 177.86 L 208.08 176.52 L 205.75 177.52 L 203.41 176.52 L 201.08 179.19 L 198.75 181.20 L 196.41 181.20 L 194.08 183.88 L 191.74 181.53 L 189.41 176.69 L 187.07 182.37 L 184.74 181.20 L 182.40 179.19 L 180.07 175.85 L 177.74 174.51 L 175.40 172.00 L 173.07 173.84 L 170.73 173.84 L 168.40 171.17 L 166.06 170.83 L 163.73 171.17 L 161.39 172.51 L 159.06 173.17 L 156.72 175.52 L 154.39 176.52 L 152.06 175.18 L 149.72 173.84 L 147.39 174.51 L 145.05 171.17 L 142.72 170.50 L 140.38 166.49 L 138.05 170.50 L 135.71 167.16 L 133.38 165.82 L 131.05 165.82 L 128.71 167.99 L 126.38 170.50 L 124.04 171.17 L 121.71 171.17 L 119.37 168.49 L 117.04 167.16 L 114.70 172.17 L 112.37 167.16 L 110.03 167.83 L 107.70 169.83 L 105.37 167.16 L 103.03 167.16 L 100.70 167.83 L 98.36 162.47 L 96.03 169.16 L 93.69 177.86 L 91.36 177.19 L 89.02 176.52 L 86.69 175.85 L 84.36 175.18 L 82.02 173.84 L 79.69 171.17 L 77.35 170.50 L 75.02 167.83 L 72.68 169.50 L 70.35 167.16 L 68.01 171.17 L 65.68 171.17 L 63.34 172.51 L 61.01 170.50 L 58.68 168.49 L 56.34 169.16 L 54.01 169.16 L 51.67 164.48 L 49.34 166.49 L 47.00 166.49 L 44.67 159.80 L 42.33 155.79 L 40.00 150.77 Z" fill="rgba(230,126,34,0.22)" stroke="none"/><path d="M 40.00 125.02 L 42.33 119.01 L 44.67 121.01 L 47.00 113.66 L 49.34 135.06 L 51.67 113.66 L 54.01 113.66 L 56.34 124.02 L 58.68 128.03 L 61.01 115.66 L 63.34 117.67 L 65.68 141.74 L 68.01 119.67 L 70.35 123.02 L 72.68 133.05 L 75.02 137.06 L 77.35 144.42 L 79.69 143.08 L 82.02 141.74 L 84.36 140.41 L 86.69 140.41 L 89.02 145.09 L 91.36 143.75 L 93.69 152.44 L 96.03 145.09 L 98.36 145.09 L 100.70 148.43 L 103.03 152.44 L 105.37 151.78 L 107.70 153.11 L 110.03 155.79 L 112.37 163.14 L 114.70 164.48 L 117.04 163.14 L 119.37 161.14 L 121.71 160.47 L 124.04 155.12 L 126.38 154.45 L 128.71 158.46 L 131.05 163.14 L 133.38 159.13 L 135.71 150.44 L 138.05 152.44 L 140.38 151.78 L 142.72 154.78 L 145.05 158.13 L 147.39 159.80 L 149.72 161.14 L 152.06 161.81 L 154.39 163.81 L 156.72 163.14 L 159.06 167.83 L 161.39 164.48 L 163.73 167.83 L 166.06 165.82 L 168.40 163.81 L 170.73 161.81 L 173.07 163.14 L 175.40 167.16 L 177.74 167.16 L 180.07 167.83 L 182.40 167.16 L 184.74 161.81 L 187.07 163.81 L 189.41 164.48 L 191.74 165.15 L 194.08 163.14 L 196.41 161.81 L 198.75 163.81 L 201.08 167.16 L 203.41 167.83 L 205.75 168.49 L 208.08 169.16 L 210.42 168.49 L 212.75 167.83 L 215.09 167.83 L 217.42 167.83 L 219.76 167.83 L 222.09 167.83 L 224.43 167.16 L 226.76 169.83 L 229.09 170.50 L 231.43 170.50 L 233.76 167.83 L 236.10 167.83 L 238.43 167.83 L 240.77 173.17 L 243.10 171.84 L 245.44 164.48 L 247.77 162.47 L 250.10 161.81 L 252.44 162.81 L 254.77 166.15 L 257.11 169.50 L 259.44 167.83 L 261.78 165.48 L 264.11 170.50 L 266.45 175.18 L 268.78 174.51 L 271.11 176.52 L 273.45 178.19 L 275.78 176.52 L 278.12 175.18 L 280.45 171.84 L 282.79 176.18 L 285.12 177.52 L 287.46 163.81 L 289.79 155.12 L 292.13 154.12 L 294.46 155.12 L 296.79 149.10 L 299.13 145.09 L 301.46 147.09 L 303.80 154.45 L 306.13 153.78 L 308.47 153.11 L 310.80 152.44 L 313.14 151.78 L 315.47 152.44 L 317.80 155.79 L 320.14 157.13 L 322.47 165.15 L 324.81 156.46 L 327.14 158.80 L 329.48 160.80 L 331.81 156.46 L 334.15 153.11 L 336.48 158.46 L 338.82 158.46 L 341.15 158.46 L 343.48 159.80 L 345.82 159.80 L 348.15 150.44 L 350.49 157.13 L 352.82 155.79 L 355.16 154.45 L 357.49 150.77 L 359.83 155.79 L 362.16 158.46 L 364.49 150.44 L 366.83 152.44 L 369.16 157.79 L 371.50 158.46 L 373.83 160.80 L 376.17 161.81 L 378.50 161.14 L 380.84 161.81 L 383.17 155.79 L 385.51 155.12 L 387.84 157.79 L 390.17 157.13 L 392.51 151.44 L 394.84 150.44 L 397.18 145.76 L 399.51 149.77 L 401.85 142.41 L 404.18 133.72 L 406.52 153.78 L 408.85 146.42 L 411.18 136.39 L 413.52 129.04 L 415.85 131.04 L 418.19 127.70 L 420.52 124.36 L 422.86 126.03 L 425.19 124.36 L 427.53 125.02 L 429.86 123.69 L 432.20 118.34 L 434.53 120.01 L 436.86 115.66 L 439.20 106.97 L 441.53 107.64 L 443.87 117.67 L 446.20 120.34 L 448.54 120.34 L 450.87 109.64 L 453.21 117.67 L 455.54 122.35 L 457.87 132.38 L 460.21 136.39 L 462.54 119.01 L 464.88 129.04 L 467.21 128.37 L 469.55 130.38 L 471.88 135.73 L 474.22 131.71 L 476.55 123.02 L 478.89 132.72 L 481.22 140.74 L 483.55 131.71 L 485.89 135.06 L 488.22 138.40 L 490.56 149.43 L 492.89 154.45 L 495.23 167.83 L 497.56 167.83 L 499.90 162.81 L 502.23 154.45 L 504.56 166.49 L 506.90 164.48 L 509.23 155.79 L 511.57 151.78 L 513.90 164.48 L 516.24 165.15 L 518.57 158.80 L 520.91 168.49 L 523.24 142.41 L 525.57 157.79 L 527.91 167.16 L 530.24 149.77 L 532.58 167.16 L 534.91 158.46 L 537.25 148.43 L 539.58 148.43 L 541.92 141.08 L 544.25 145.09 L 546.59 140.41 L 548.92 145.76 L 551.25 149.77 L 553.59 151.78 L 555.92 156.46 L 558.26 150.44 L 560.59 140.41 L 562.93 145.76 L 565.26 139.07 L 567.60 139.74 L 569.93 144.08 L 572.26 146.42 L 574.60 149.77 L 576.93 152.44 L 579.27 146.42 L 581.60 150.44 L 583.94 141.74 L 586.27 139.40 L 588.61 143.75 L 590.94 146.76 L 593.28 147.76 L 595.61 155.12 L 597.94 159.80 L 600.28 161.14 L 602.61 156.46 L 604.95 161.14 L 607.28 159.47 L 609.62 163.81 L 611.95 163.14 L 614.29 165.15 L 616.62 171.17 L 618.95 162.47 L 621.29 161.81 L 623.62 162.47 L 625.96 160.47 L 628.29 167.16 L 630.63 181.20 L 632.96 173.51 L 635.30 167.49 L 637.63 165.15 L 639.97 166.49 L 642.30 155.79 L 644.63 158.46 L 646.97 154.45 L 649.30 159.13 L 651.64 163.48 L 653.97 165.82 L 656.31 161.14 L 658.64 159.80 L 660.98 158.46 L 663.31 155.79 L 665.64 163.14 L 667.98 153.78 L 670.31 148.77 L 672.65 151.78 L 674.98 142.08 L 677.32 134.39 L 679.65 133.05 L 681.99 131.04 L 684.32 125.69 L 686.66 127.70 L 688.99 128.37 L 691.32 124.36 L 693.66 117.67 L 695.99 116.00 L 698.33 114.99 L 700.66 118.34 L 703.00 124.02 L 705.33 127.03 L 707.67 129.04 L 710.00 128.03" fill="none" stroke="#2c3e50" stroke-width="2"/></svg>