<?xml version="1.0"?><svg viewBox="0 0 720 260" width="100%" height="260" xmlns="http://www.w3.org/2000/svg"><rect width="100%" height="100%" fill="#fff"/><line x1="40" y1="210.625" x2="710" y2="210.625" stroke="#eee"/><text x="32" y="214.625" text-anchor="end" font-size="10" fill="#666" font-family="system-ui,Arial">60</text><line x1="40" y1="183.875" x2="710" y2="183.875" stroke="#eee"/><text x="32" y="187.875" text-anchor="end" font-size="10" fill="#666" font-family="system-ui,Arial">100</text><line x1="40" y1="157.125" x2="710" y2="157.125" stroke="#eee"/><text x="32" y="161.125" text-anchor="end" font-size="10" fill="#666" font-family="system-ui,Arial">140</text><line x1="40" y1="130.375" x2="710" y2="130.375" stroke="#eee"/><text x="32" y="134.375" text-anchor="end" font-size="10" fill="#666" font-family="system-ui,Arial">180</text><line x1="40" y1="103.625" x2="710" y2="103.625" stroke="#eee"/><text x="32" y="107.625" text-anchor="end" font-size="10" fill="#666" font-family="system-ui,Arial">220</text><line x1="40" y1="76.875" x2="710" y2="76.875" stroke="#eee"/><text x="32" y="80.875" text-anchor="end" font-size="10" fill="#666" font-family="system-ui,Arial">260</text><line x1="40" y1="50.125" x2="710" y2="50.125" stroke="#eee"/><text x="32" y="54.125" text-anchor="end" font-size="10" fill="#666" font-family="system-ui,Arial">300</text><line x1="40" y1="23.375" x2="710" y2="23.375" stroke="#eee"/><text x="32" y="27.375" text-anchor="end" font-size="10" fill="#666" font-family="system-ui,Arial">340</text><line x1="208.0836236933798" y1="10" x2="208.0836236933798" y2="224" stroke="#eee"/><text x="208.0836236933798" y="238" text-anchor="middle" font-size="10" fill="#666" font-family="system-ui,Arial">6</text><line x1="292.1254355400697" y1="10" x2="292.1254355400697" y2="224" stroke="#eee"/><text x="292.1254355400697" y="238" text-anchor="middle" font-size="10" fill="#666" font-family="system-ui,Arial">9</text><line x1="376.1672473867596" y1="10" x2="376.1672473867596" y2="224" stroke="#eee"/><text x="376.1672473867596" y="238" text-anchor="middle" font-size="10" fill="#666" font-family="system-ui,Arial">12</text><line x1="460.20905923344947" y1="10" x2="460.20905923344947" y2="224" stroke="#eee"/><text x="460.20905923344947" y="238" text-anchor="middle" font-size="10" fill="#666" font-family="system-ui,Arial">15</text><line x1="544.2508710801394" y1="10" x2="544.2508710801394" y2="224" stroke="#eee"/><text x="544.2508710801394" y="238" text-anchor="middle" font-size="10" fill="#666" font-family="system-ui,Arial">18</text><line x1="628.2926829268292" y1="10" x2="628.2926829268292" y2="224" stroke="#eee"/><text x="628.2926829268292" y="238" text-anchor="middle" font-size="10" fill="#666" font-family="system-ui,Arial">21</text><rect x="40" y="130.375" width="670" height="73.5625" fill="rgba(39,174,96,0.07)"/><path d="M 40.00 46.48 L 42.33 47.45 L 44.67 42.77 L 47.00 35.41 L 49.34 23.38 L 51.67 28.06 L 54.01 26.05 L 56.34 28.06 L 58.68 35.41 L 61.01 39.42 L 63.34 37.42 L 65.68 34.08 L 68.01 30.06 L 70.35 27.39 L 72.68 26.72 L 75.02 26.05 L 77.35 26.05 L 79.69 20.70 L 82.02 16.69 L 84.36 13.34 L 86.69 10.00 L 89.02 13.34 L 91.36 11.34 L 93.69 10.00 L 96.03 10.00 L 98.36 17.36 L 100.70 10.67 L 103.03 10.00 L 105.37 10.00 L 107.70 10.00 L 110.03 10.00 L 112.37 10.00 L 114.70 10.00 L 117.04 10.00 L 119.37 10.00 L 121.71 10.00 L 124.04 10.00 L 126.38 10.00 L 128.71 10.00 L 131.05 10.00 L 133.38 10.00 L 135.71 10.00 L 138.05 10.00 L 140.38 10.00 L 142.72 10.00 L 145.05 10.00 L 147.39 10.00 L 149.72 10.00 L 152.06 10.00 L 154.39 10.00 L 156.72 10.00 L 159.06 10.00 L 161.39 10.00 L 163.73 10.00 L 166.06 10.00 L 168.40 10.57 L 170.73 14.55 L 173.07 18.43 L 175.40 23.11 L 177.74 26.75 L 180.07 29.53 L 182.40 31.27 L 184.74 37.29 L 187.07 40.36 L 189.41 41.93 L 191.74 47.12 L 194.08 50.46 L 196.41 45.44 L 198.75 51.63 L 201.08 56.95 L 203.41 60.29 L 205.75 63.37 L 208.08 70.46 L 210.42 74.23 L 212.75 76.04 L 215.09 77.78 L 217.42 88.24 L 219.76 89.45 L 222.09 102.29 L 224.43 103.76 L 226.76 110.85 L 229.09 116.06 L 231.43 120.61 L 233.76 130.58 L 236.10 122.35 L 238.43 140.94 L 240.77 145.82 L 243.10 148.70 L 245.44 149.03 L 247.77 157.19 L 250.10 154.28 L 252.44 132.38 L 254.77 118.47 L 257.11 113.79 L 259.44 112.59 L 261.78 106.20 L 264.11 96.24 L 266.45 89.58 L 268.78 72.86 L 271.11 70.19 L 273.45 74.53 L 275.78 62.70 L 278.12 62.86 L 280.45 63.23 L 282.79 56.44 L 285.12 44.61 L 287.46 35.41 L 289.79 29.29 L 292.13 24.38 L 294.46 10.00 L 296.79 27.25 L 299.13 26.95 L 301.46 35.45 L 303.80 33.01 L 306.13 26.72 L 308.47 53.13 L 310.80 56.81 L 313.14 53.80 L 315.47 63.87 L 317.80 69.18 L 320.14 65.51 L 322.47 61.83 L 324.81 66.78 L 327.14 61.49 L 329.48 62.83 L 331.81 62.90 L 334.15 50.46 L 336.48 46.11 L 338.82 48.12 L 341.15 48.55 L 343.48 41.23 L 345.82 38.76 L 348.15 51.20 L 350.49 51.56 L 352.82 53.13 L 355.16 57.15 L 357.49 62.30 L 359.83 65.17 L 362.16 63.17 L 364.49 59.89 L 366.83 62.03 L 369.16 64.17 L 371.50 63.83 L 373.83 63.83 L 376.17 52.13 L 378.50 74.17 L 380.84 70.62 L 383.17 68.58 L 385.51 64.30 L 387.84 65.24 L 390.17 62.83 L 392.51 64.57 L 394.84 63.83 L 397.18 66.17 L 399.51 59.09 L 401.85 52.13 L 404.18 54.14 L 406.52 51.80 L 408.85 51.46 L 411.18 50.26 L 413.52 50.43 L 415.85 47.45 L 418.19 46.25 L 420.52 46.11 L 422.86 46.81 L 425.19 43.27 L 427.53 42.03 L 429.86 46.68 L 432.20 38.09 L 434.53 50.66 L 436.86 53.13 L 439.20 49.19 L 441.53 42.90 L 443.87 46.48 L 446.20 50.53 L 448.54 45.44 L 450.87 48.12 L 453.21 56.55 L 455.54 59.75 L 457.87 61.96 L 460.21 62.73 L 462.54 56.14 L 464.88 44.77 L 467.21 52.13 L 469.55 56.48 L 471.88 53.47 L 474.22 50.26 L 476.55 52.80 L 478.89 53.80 L 481.22 50.13 L 483.55 57.62 L 485.89 63.50 L 488.22 67.45 L 490.56 62.16 L 492.89 88.24 L 495.23 96.27 L 497.56 108.31 L 499.90 111.68 L 502.23 109.91 L 504.56 107.57 L 506.90 108.98 L 509.23 108.31 L 511.57 108.17 L 513.90 106.63 L 516.24 109.24 L 518.57 119.84 L 520.91 122.68 L 523.24 119.81 L 525.57 111.92 L 527.91 114.46 L 530.24 111.85 L 532.58 107.50 L 534.91 94.90 L 537.25 86.54 L 539.58 92.56 L 541.92 95.37 L 544.25 102.96 L 546.59 103.29 L 548.92 103.63 L 551.25 110.18 L 553.59 110.71 L 555.92 107.97 L 558.26 114.99 L 560.59 116.67 L 562.93 110.85 L 565.26 114.46 L 567.60 117.33 L 569.93 108.98 L 572.26 64.24 L 574.60 30.06 L 576.93 58.82 L 579.27 68.18 L 581.60 59.72 L 583.94 50.46 L 586.27 50.73 L 588.61 69.85 L 590.94 67.85 L 593.28 67.91 L 595.61 52.10 L 597.94 81.56 L 600.28 56.31 L 602.61 75.87 L 604.95 78.08 L 607.28 86.24 L 609.62 84.90 L 611.95 89.25 L 614.29 82.23 L 616.62 75.54 L 618.95 76.21 L 621.29 83.56 L 623.62 76.37 L 625.96 70.52 L 628.29 74.27 L 630.63 73.40 L 632.96 65.91 L 635.30 63.53 L 637.63 69.52 L 639.97 66.84 L 642.30 69.25 L 644.63 71.39 L 646.97 73.53 L 649.30 83.43 L 651.64 86.74 L 653.97 90.92 L 656.31 95.00 L 658.64 92.92 L 660.98 85.17 L 663.31 78.91 L 665.64 81.86 L 667.98 83.23 L 670.31 86.24 L 672.65 84.16 L 674.98 81.69 L 677.32 82.56 L 679.65 82.56 L 681.99 77.51 L 684.32 77.24 L 686.66 71.53 L 688.99 76.74 L 691.32 64.84 L 693.66 73.73 L 695.99 69.32 L 698.33 62.33 L 700.66 58.38 L 703.00 58.18 L 705.33 57.08 L 707.67 50.93 L 710.00 47.99 L 710.00 204.97 L 707.67 208.08 L 705.33 209.42 L 703.00 221.99 L 700.66 200.59 L 698.33 195.81 L 695.99 194.11 L 693.66 193.91 L 691.32 196.18 L 688.99 198.12 L 686.66 197.25 L 684.32 197.72 L 681.99 195.61 L 679.65 194.51 L 677.32 187.89 L 674.98 185.75 L 672.65 182.87 L 670.31 181.87 L 667.98 181.87 L 665.64 189.22 L 663.31 185.25 L 660.98 185.08 L 658.64 181.87 L 656.31 175.98 L 653.97 178.53 L 651.64 176.38 L 649.30 182.00 L 646.97 189.89 L 644.63 183.41 L 642.30 193.91 L 639.97 214.64 L 637.63 218.65 L 635.30 224.00 L 632.96 221.33 L 630.63 211.96 L 628.29 203.94 L 625.96 204.61 L 623.62 204.61 L 621.29 201.93 L 618.95 198.59 L 616.62 194.58 L 614.29 187.22 L 611.95 177.19 L 609.62 168.49 L 607.28 166.49 L 604.95 161.81 L 602.61 163.81 L 600.28 172.44 L 597.94 177.69 L 595.61 174.41 L 593.28 178.53 L 590.94 185.55 L 588.61 185.61 L 586.27 188.86 L 583.94 191.23 L 581.60 191.87 L 579.27 195.24 L 576.93 208.95 L 574.60 212.26 L 572.26 209.56 L 569.93 207.62 L 567.60 223.33 L 565.26 202.50 L 562.93 197.78 L 560.59 200.59 L 558.26 187.22 L 555.92 183.21 L 553.59 188.56 L 551.25 184.24 L 548.92 182.94 L 546.59 190.36 L 544.25 192.90 L 541.92 213.30 L 539.58 191.53 L 537.25 198.92 L 534.91 197.99 L 532.58 203.27 L 530.24 202.37 L 527.91 204.14 L 525.57 214.10 L 523.24 206.88 L 520.91 207.62 L 518.57 205.24 L 516.24 210.36 L 513.90 211.63 L 511.57 214.50 L 509.23 212.30 L 506.90 211.29 L 504.56 207.95 L 502.23 208.48 L 499.90 211.29 L 497.56 222.66 L 495.23 217.31 L 492.89 213.30 L 490.56 213.97 L 488.22 205.64 L 485.89 200.46 L 483.55 196.45 L 481.22 191.06 L 478.89 199.92 L 476.55 189.39 L 474.22 187.49 L 471.88 187.22 L 469.55 192.57 L 467.21 179.29 L 464.88 163.95 L 462.54 160.47 L 460.21 157.43 L 457.87 165.82 L 455.54 164.18 L 453.21 162.21 L 450.87 158.60 L 448.54 155.12 L 446.20 186.55 L 443.87 171.40 L 441.53 176.38 L 439.20 168.76 L 436.86 175.18 L 434.53 219.99 L 432.20 168.29 L 429.86 160.54 L 427.53 163.68 L 425.19 194.58 L 422.86 184.54 L 420.52 151.11 L 418.19 148.33 L 415.85 149.10 L 413.52 154.08 L 411.18 168.49 L 408.85 148.93 L 406.52 165.82 L 404.18 145.09 L 401.85 149.10 L 399.51 150.44 L 397.18 148.10 L 394.84 151.11 L 392.51 155.39 L 390.17 158.13 L 387.84 165.42 L 385.51 164.88 L 383.17 167.42 L 380.84 177.79 L 378.50 188.36 L 376.17 191.90 L 373.83 199.29 L 371.50 198.25 L 369.16 199.26 L 366.83 198.72 L 364.49 193.24 L 362.16 188.56 L 359.83 185.55 L 357.49 185.45 L 355.16 184.48 L 352.82 182.54 L 350.49 181.37 L 348.15 178.53 L 345.82 177.86 L 343.48 176.89 L 341.15 176.52 L 338.82 176.85 L 336.48 175.92 L 334.15 177.52 L 331.81 177.49 L 329.48 178.96 L 327.14 180.53 L 324.81 181.87 L 322.47 182.20 L 320.14 184.88 L 317.80 185.88 L 315.47 186.72 L 313.14 187.89 L 310.80 182.20 L 308.47 178.53 L 306.13 180.26 L 303.80 180.40 L 301.46 178.29 L 299.13 179.63 L 296.79 182.27 L 294.46 185.55 L 292.13 192.57 L 289.79 189.22 L 287.46 183.21 L 285.12 177.39 L 282.79 172.21 L 280.45 169.43 L 278.12 170.83 L 275.78 168.79 L 273.45 171.17 L 271.11 170.03 L 268.78 170.83 L 266.45 170.83 L 264.11 175.95 L 261.78 181.40 L 259.44 178.26 L 257.11 179.86 L 254.77 183.34 L 252.44 194.84 L 250.10 198.92 L 247.77 216.08 L 245.44 206.34 L 243.10 196.92 L 240.77 195.51 L 238.43 196.58 L 236.10 193.91 L 233.76 192.97 L 231.43 190.96 L 229.09 195.54 L 226.76 194.94 L 224.43 192.70 L 222.09 191.90 L 219.76 193.57 L 217.42 194.91 L 215.09 196.08 L 212.75 197.28 L 210.42 196.61 L 208.08 190.46 L 205.75 193.24 L 203.41 194.04 L 201.08 193.64 L 198.75 194.58 L 196.41 196.45 L 194.08 196.98 L 191.74 197.25 L 189.41 200.26 L 187.07 201.06 L 184.74 203.60 L 182.40 197.52 L 180.07 194.58 L 177.74 195.38 L 175.40 196.58 L 173.07 196.98 L 170.73 195.01 L 168.40 196.08 L 166.06 199.42 L 163.73 199.59 L 161.39 202.60 L 159.06 198.59 L 156.72 195.78 L 154.39 194.07 L 152.06 195.44 L 149.72 213.43 L 147.39 211.06 L 145.05 192.17 L 142.72 191.70 L 140.38 195.11 L 138.05 188.56 L 135.71 194.84 L 133.38 197.68 L 131.05 195.91 L 128.71 196.78 L 126.38 196.35 L 124.04 197.68 L 121.71 199.62 L 119.37 203.67 L 117.04 204.94 L 114.70 194.84 L 112.37 196.58 L 110.03 194.58 L 107.70 194.91 L 105.37 195.68 L 103.03 195.98 L 100.70 196.25 L 98.36 197.25 L 96.03 196.88 L 93.69 196.28 L 91.36 193.91 L 89.02 193.64 L 86.69 192.84 L 84.36 190.56 L 82.02 188.96 L 79.69 194.58 L 77.35 192.17 L 75.02 192.17 L 72.68 192.70 L 70.35 191.57 L 68.01 191.23 L 65.68 191.13 L 63.34 190.40 L 61.01 191.23 L 58.68 195.78 L 56.34 208.62 L 54.01 196.88 L 51.67 198.85 L 49.34 198.25 L 47.00 203.67 L 44.67 215.97 L 42.33 201.70 L 40.00 203.40 Z" fill="rgba(231,76,60,0.06)" stroke="none"/><path d="M 40.00 99.61 L 42.33 104.29 L 44.67 96.10 L 47.00 91.59 L 49.34 85.23 L 51.67 90.25 L 54.01 102.29 L 56.34 104.29 L 58.68 83.56 L 61.01 79.55 L 63.34 73.70 L 65.68 75.70 L 68.01 77.54 L 70.35 78.88 L 72.68 82.89 L 75.02 85.57 L 77.35 89.58 L 79.69 94.26 L 82.02 97.61 L 84.36 77.54 L 86.69 108.98 L 89.02 118.34 L 91.36 123.02 L 93.69 117.67 L 96.03 121.01 L 98.36 125.02 L 100.70 127.70 L 103.03 127.70 L 105.37 127.70 L 107.70 126.36 L 110.03 127.03 L 112.37 90.92 L 114.70 124.36 L 117.04 87.91 L 119.37 124.36 L 121.71 123.02 L 124.04 78.55 L 126.38 125.69 L 128.71 125.69 L 131.05 126.36 L 133.38 129.71 L 135.71 125.69 L 138.05 131.88 L 140.38 133.05 L 142.72 107.64 L 145.05 133.05 L 147.39 134.39 L 149.72 136.39 L 152.06 138.40 L 154.39 140.41 L 156.72 141.74 L 159.06 142.41 L 161.39 144.25 L 163.73 147.76 L 166.06 145.76 L 168.40 148.43 L 170.73 151.78 L 173.07 149.10 L 175.40 149.77 L 177.74 151.78 L 180.07 153.11 L 182.40 153.78 L 184.74 155.12 L 187.07 154.45 L 189.41 154.45 L 191.74 138.40 L 194.08 151.78 L 196.41 154.45 L 198.75 154.45 L 201.08 154.45 L 203.41 151.78 L 205.75 152.44 L 208.08 155.29 L 210.42 155.45 L 212.75 156.46 L 215.09 153.78 L 217.42 156.46 L 219.76 157.13 L 222.09 161.81 L 224.43 161.14 L 226.76 161.97 L 229.09 161.14 L 231.43 162.47 L 233.76 169.83 L 236.10 169.16 L 238.43 167.66 L 240.77 165.82 L 243.10 169.16 L 245.44 164.48 L 247.77 166.49 L 250.10 165.99 L 252.44 163.81 L 254.77 159.80 L 257.11 143.08 L 259.44 133.72 L 261.78 124.52 L 264.11 120.51 L 266.45 111.65 L 268.78 112.99 L 271.11 109.64 L 273.45 101.62 L 275.78 95.27 L 278.12 94.93 L 280.45 95.60 L 282.79 98.27 L 285.12 94.93 L 287.46 88.24 L 289.79 94.26 L 292.13 98.27 L 294.46 86.91 L 296.79 86.24 L 299.13 85.57 L 301.46 85.57 L 303.80 85.57 L 306.13 83.56 L 308.47 90.92 L 310.80 93.59 L 313.14 94.93 L 315.47 100.95 L 317.80 101.62 L 320.14 103.29 L 322.47 97.61 L 324.81 106.97 L 327.14 109.64 L 329.48 113.66 L 331.81 116.33 L 334.15 122.35 L 336.48 125.02 L 338.82 126.36 L 341.15 126.36 L 343.48 130.38 L 345.82 119.01 L 348.15 117.17 L 350.49 118.34 L 352.82 120.34 L 355.16 124.69 L 357.49 125.53 L 359.83 128.37 L 362.16 122.02 L 364.49 107.64 L 366.83 105.63 L 369.16 96.27 L 371.50 123.02 L 373.83 116.00 L 376.17 105.97 L 378.50 122.35 L 380.84 108.98 L 383.17 94.93 L 385.51 89.92 L 387.84 86.24 L 390.17 96.60 L 392.51 94.93 L 394.84 80.22 L 397.18 80.22 L 399.51 81.56 L 401.85 73.53 L 404.18 70.86 L 406.52 71.19 L 408.85 61.49 L 411.18 72.19 L 413.52 66.17 L 415.85 70.19 L 418.19 67.51 L 420.52 65.51 L 422.86 61.49 L 425.19 62.66 L 427.53 60.16 L 429.86 64.34 L 432.20 66.17 L 434.53 66.17 L 436.86 71.53 L 439.20 78.88 L 441.53 82.89 L 443.87 82.89 L 446.20 88.91 L 448.54 91.25 L 450.87 81.56 L 453.21 83.56 L 455.54 78.21 L 457.87 76.21 L 460.21 81.56 L 462.54 89.92 L 464.88 88.24 L 467.21 64.17 L 469.55 92.26 L 471.88 90.92 L 474.22 86.91 L 476.55 90.25 L 478.89 102.96 L 481.22 101.62 L 483.55 104.96 L 485.89 105.63 L 488.22 105.63 L 490.56 106.97 L 492.89 112.99 L 495.23 111.65 L 497.56 114.66 L 499.90 118.34 L 502.23 121.68 L 504.56 123.85 L 506.90 123.02 L 509.23 122.35 L 511.57 129.04 L 513.90 136.73 L 516.24 133.05 L 518.57 134.05 L 520.91 138.07 L 523.24 136.39 L 525.57 125.69 L 527.91 135.06 L 530.24 135.56 L 532.58 131.71 L 534.91 130.21 L 537.25 131.55 L 539.58 123.02 L 541.92 123.69 L 544.25 124.69 L 546.59 118.84 L 548.92 121.68 L 551.25 130.04 L 553.59 132.38 L 555.92 139.07 L 558.26 141.74 L 560.59 142.91 L 562.93 139.74 L 565.26 143.08 L 567.60 144.42 L 569.93 137.06 L 572.26 134.72 L 574.60 131.71 L 576.93 113.66 L 579.27 117.67 L 581.60 108.31 L 583.94 102.96 L 586.27 110.31 L 588.61 105.97 L 590.94 101.95 L 593.28 98.27 L 595.61 97.10 L 597.94 108.47 L 600.28 99.11 L 602.61 105.30 L 604.95 108.98 L 607.28 108.98 L 609.62 108.31 L 611.95 105.63 L 614.29 112.99 L 616.62 112.32 L 618.95 113.66 L 621.29 119.34 L 623.62 116.67 L 625.96 113.99 L 628.29 114.33 L 630.63 111.65 L 632.96 109.64 L 635.30 104.29 L 637.63 102.96 L 639.97 105.30 L 642.30 103.12 L 644.63 95.60 L 646.97 98.27 L 649.30 93.59 L 651.64 105.13 L 653.97 98.27 L 656.31 103.63 L 658.64 103.63 L 660.98 102.29 L 663.31 99.95 L 665.64 101.62 L 667.98 106.97 L 670.31 110.31 L 672.65 109.64 L 674.98 106.30 L 677.32 104.29 L 679.65 108.14 L 681.99 110.15 L 684.32 106.97 L 686.66 106.30 L 688.99 90.25 L 691.32 88.91 L 693.66 92.92 L 695.99 106.30 L 698.33 88.75 L 700.66 90.92 L 703.00 93.59 L 705.33 94.93 L 707.67 94.93 L 710.00 94.93 L 710.00 171.17 L 707.67 175.85 L 705.33 169.83 L 703.00 167.16 L 700.66 166.32 L 698.33 164.48 L 695.99 164.48 L 693.66 164.31 L 691.32 164.31 L 688.99 164.65 L 686.66 168.49 L 684.32 162.14 L 681.99 164.31 L 679.65 162.47 L 677.32 153.78 L 674.98 153.11 L 672.65 147.09 L 670.31 151.78 L 667.98 149.10 L 665.64 147.09 L 663.31 143.75 L 660.98 158.46 L 658.64 150.44 L 656.31 143.08 L 653.97 149.10 L 651.64 154.12 L 649.30 155.12 L 646.97 163.48 L 644.63 153.11 L 642.30 170.50 L 639.97 162.47 L 637.63 153.78 L 635.30 149.77 L 632.96 137.73 L 630.63 138.40 L 628.29 137.56 L 625.96 134.72 L 623.62 133.05 L 621.29 133.05 L 618.95 137.06 L 616.62 138.40 L 614.29 139.07 L 611.95 136.39 L 609.62 141.08 L 607.28 147.09 L 604.95 152.44 L 602.61 151.11 L 600.28 153.11 L 597.94 151.11 L 595.61 154.45 L 593.28 151.78 L 590.94 153.78 L 588.61 158.46 L 586.27 163.98 L 583.94 175.18 L 581.60 172.51 L 579.27 171.17 L 576.93 166.49 L 574.60 163.31 L 572.26 169.33 L 569.93 163.81 L 567.60 163.81 L 565.26 166.32 L 562.93 165.15 L 560.59 160.80 L 558.26 169.83 L 555.92 170.50 L 553.59 169.83 L 551.25 176.52 L 548.92 177.19 L 546.59 170.50 L 544.25 167.83 L 541.92 170.50 L 539.58 169.83 L 537.25 175.18 L 534.91 175.85 L 532.58 177.86 L 530.24 180.53 L 527.91 184.54 L 525.57 182.37 L 523.24 185.88 L 520.91 179.19 L 518.57 173.17 L 516.24 170.50 L 513.90 166.49 L 511.57 163.81 L 509.23 168.49 L 506.90 172.51 L 504.56 174.51 L 502.23 185.88 L 499.90 196.58 L 497.56 204.61 L 495.23 204.61 L 492.89 199.26 L 490.56 190.56 L 488.22 181.87 L 485.89 172.51 L 483.55 163.14 L 481.22 165.15 L 478.89 174.85 L 476.55 145.09 L 474.22 169.16 L 471.88 154.45 L 469.55 163.14 L 467.21 138.73 L 464.88 146.42 L 462.54 137.73 L 460.21 131.71 L 457.87 136.73 L 455.54 131.71 L 453.21 128.37 L 450.87 125.69 L 448.54 119.01 L 446.20 122.35 L 443.87 109.98 L 441.53 106.63 L 439.20 106.97 L 436.86 100.62 L 434.53 102.29 L 432.20 101.12 L 429.86 106.30 L 427.53 108.64 L 425.19 108.98 L 422.86 110.31 L 420.52 115.66 L 418.19 103.12 L 415.85 110.98 L 413.52 116.33 L 411.18 116.33 L 408.85 114.49 L 406.52 120.34 L 404.18 113.66 L 401.85 118.34 L 399.51 120.34 L 397.18 124.69 L 394.84 133.05 L 392.51 143.08 L 390.17 138.07 L 387.84 153.78 L 385.51 148.60 L 383.17 157.79 L 380.84 159.13 L 378.50 173.84 L 376.17 177.86 L 373.83 174.85 L 371.50 172.51 L 369.16 172.51 L 366.83 177.19 L 364.49 177.19 L 362.16 166.15 L 359.83 169.16 L 357.49 165.82 L 355.16 163.81 L 352.82 167.83 L 350.49 162.47 L 348.15 155.62 L 345.82 158.80 L 343.48 157.79 L 341.15 154.95 L 338.82 149.77 L 336.48 156.96 L 334.15 157.79 L 331.81 157.79 L 329.48 154.62 L 327.14 151.11 L 324.81 142.75 L 322.47 142.08 L 320.14 145.09 L 317.80 147.09 L 315.47 150.44 L 313.14 148.43 L 310.80 146.42 L 308.47 141.08 L 306.13 135.73 L 303.80 148.43 L 301.46 146.76 L 299.13 148.10 L 296.79 151.78 L 294.46 147.76 L 292.13 151.11 L 289.79 152.44 L 287.46 155.12 L 285.12 157.63 L 282.79 159.97 L 280.45 157.79 L 278.12 150.10 L 275.78 140.24 L 273.45 137.73 L 271.11 149.10 L 268.78 144.42 L 266.45 156.46 L 264.11 162.31 L 261.78 165.82 L 259.44 165.15 L 257.11 169.83 L 254.77 171.84 L 252.44 180.53 L 250.10 185.21 L 247.77 189.06 L 245.44 189.22 L 243.10 184.54 L 240.77 185.21 L 238.43 187.22 L 236.10 187.22 L 233.76 187.89 L 231.43 186.55 L 229.09 184.38 L 226.76 182.37 L 224.43 181.87 L 222.09 183.21 L 219.76 183.88 L 217.42 186.55 L 215.09 187.22 L 212.75 185.05 L 210.42 183.88 L 208.08 185.05 L 205.75 188.56 L 203.41 187.89 L 201.08 186.55 L 198.75 186.55 L 196.41 184.54 L 194.08 186.22 L 191.74 186.55 L 189.41 188.56 L 187.07 189.89 L 184.74 182.54 L 182.40 182.54 L 180.07 183.88 L 177.74 186.55 L 175.40 187.22 L 173.07 186.55 L 170.73 186.72 L 168.40 185.21 L 166.06 188.56 L 163.73 189.22 L 161.39 190.56 L 159.06 189.89 L 156.72 189.22 L 154.39 187.89 L 152.06 186.55 L 149.72 187.89 L 147.39 187.22 L 145.05 185.21 L 142.72 185.88 L 140.38 187.22 L 138.05 187.89 L 135.71 187.22 L 133.38 186.88 L 131.05 187.22 L 128.71 190.56 L 126.38 193.24 L 124.04 189.39 L 121.71 192.57 L 119.37 190.56 L 117.04 186.55 L 114.70 179.86 L 112.37 178.86 L 110.03 177.86 L 107.70 175.85 L 105.37 171.50 L 103.03 170.33 L 100.70 171.84 L 98.36 181.20 L 96.03 179.36 L 93.69 177.86 L 91.36 165.15 L 89.02 164.48 L 86.69 164.48 L 84.36 165.15 L 82.02 165.82 L 79.69 165.82 L 77.35 165.65 L 75.02 165.82 L 72.68 165.82 L 70.35 163.14 L 68.01 160.13 L 65.68 160.13 L 63.34 159.97 L 61.01 168.83 L 58.68 160.47 L 56.34 157.13 L 54.01 154.12 L 51.67 155.79 L 49.34 164.48 L 47.00 175.85 L 44.67 177.19 L 42.33 179.86 L 40.00 172.67 Z" fill="rgba(230,126,34,0.22)" stroke="none"/><path d="M 40.00 125.36 L 42.33 126.03 L 44.67 129.71 L 47.00 127.70 L 49.34 123.69 L 51.67 125.69 L 54.01 127.70 L 56.34 127.70 L 58.68 131.04 L 61.01 133.72 L 63.34 129.71 L 65.68 129.04 L 68.01 128.37 L 70.35 127.03 L 72.68 131.71 L 75.02 141.41 L 77.35 136.39 L 79.69 145.09 L 82.02 138.40 L 84.36 139.07 L 86.69 141.74 L 89.02 143.75 L 91.36 141.74 L 93.69 148.43 L 96.03 143.75 L 98.36 150.10 L 100.70 153.78 L 103.03 150.10 L 105.37 149.10 L 107.70 152.44 L 110.03 153.11 L 112.37 153.78 L 114.70 156.46 L 117.04 156.46 L 119.37 154.45 L 121.71 157.46 L 124.04 151.11 L 126.38 158.80 L 128.71 164.48 L 131.05 165.82 L 133.38 163.48 L 135.71 155.79 L 138.05 169.83 L 140.38 180.53 L 142.72 161.81 L 145.05 161.81 L 147.39 175.85 L 149.72 181.87 L 152.06 183.21 L 154.39 183.21 L 156.72 185.88 L 159.06 181.20 L 161.39 178.53 L 163.73 170.50 L 166.06 171.84 L 168.40 177.86 L 170.73 177.86 L 173.07 177.86 L 175.40 177.19 L 177.74 174.18 L 180.07 169.16 L 182.40 177.86 L 184.74 178.53 L 187.07 173.84 L 189.41 171.17 L 191.74 177.19 L 194.08 179.19 L 196.41 171.17 L 198.75 169.16 L 201.08 170.50 L 203.41 179.19 L 205.75 179.86 L 208.08 177.86 L 210.42 177.86 L 212.75 174.51 L 215.09 174.51 L 217.42 179.19 L 219.76 171.17 L 222.09 172.51 L 224.43 175.18 L 226.76 177.86 L 229.09 179.86 L 231.43 181.87 L 233.76 177.86 L 236.10 173.17 L 238.43 175.85 L 240.77 173.51 L 243.10 173.17 L 245.44 171.84 L 247.77 171.84 L 250.10 171.84 L 252.44 171.84 L 254.77 167.83 L 257.11 161.81 L 259.44 158.46 L 261.78 154.78 L 264.11 146.09 L 266.45 138.40 L 268.78 138.40 L 271.11 132.38 L 273.45 128.37 L 275.78 131.71 L 278.12 128.03 L 280.45 118.34 L 282.79 118.34 L 285.12 107.64 L 287.46 109.64 L 289.79 123.35 L 292.13 133.05 L 294.46 125.02 L 296.79 125.69 L 299.13 117.67 L 301.46 116.33 L 303.80 121.01 L 306.13 123.69 L 308.47 129.04 L 310.80 133.05 L 313.14 135.06 L 315.47 134.39 L 317.80 141.74 L 320.14 119.01 L 322.47 121.01 L 324.81 125.69 L 327.14 137.06 L 329.48 140.74 L 331.81 136.39 L 334.15 129.04 L 336.48 139.07 L 338.82 142.41 L 341.15 138.40 L 343.48 137.06 L 345.82 139.74 L 348.15 145.09 L 350.49 142.41 L 352.82 150.44 L 355.16 150.44 L 357.49 150.44 L 359.83 157.79 L 362.16 158.46 L 364.49 158.46 L 366.83 163.81 L 369.16 163.81 L 371.50 167.16 L 373.83 171.17 L 376.17 169.83 L 378.50 161.47 L 380.84 152.44 L 383.17 136.39 L 385.51 124.69 L 387.84 125.69 L 390.17 118.34 L 392.51 111.65 L 394.84 110.31 L 397.18 105.63 L 399.51 112.32 L 401.85 103.63 L 404.18 87.58 L 406.52 97.61 L 408.85 86.91 L 411.18 80.22 L 413.52 76.88 L 415.85 73.53 L 418.19 73.53 L 420.52 70.19 L 422.86 73.53 L 425.19 79.55 L 427.53 78.21 L 429.86 81.22 L 432.20 83.56 L 434.53 83.56 L 436.86 79.55 L 439.20 87.58 L 441.53 90.92 L 443.87 92.26 L 446.20 98.27 L 448.54 104.29 L 450.87 106.97 L 453.21 108.31 L 455.54 104.96 L 457.87 106.30 L 460.21 106.30 L 462.54 110.98 L 464.88 108.98 L 467.21 109.64 L 469.55 112.99 L 471.88 111.65 L 474.22 115.66 L 476.55 127.70 L 478.89 133.72 L 481.22 141.74 L 483.55 155.12 L 485.89 156.46 L 488.22 154.12 L 490.56 163.81 L 492.89 167.16 L 495.23 172.51 L 497.56 175.18 L 499.90 167.16 L 502.23 170.50 L 504.56 165.82 L 506.90 161.14 L 509.23 156.46 L 511.57 153.78 L 513.90 151.78 L 516.24 151.11 L 518.57 160.47 L 520.91 157.13 L 523.24 169.16 L 525.57 153.78 L 527.91 147.43 L 530.24 156.46 L 532.58 162.47 L 534.91 154.45 L 537.25 149.77 L 539.58 137.73 L 541.92 137.73 L 544.25 143.75 L 546.59 138.40 L 548.92 145.76 L 551.25 148.77 L 553.59 152.11 L 555.92 153.78 L 558.26 147.09 L 560.59 151.78 L 562.93 150.44 L 565.26 152.11 L 567.60 153.11 L 569.93 152.44 L 572.26 152.44 L 574.60 154.45 L 576.93 147.76 L 579.27 153.78 L 581.60 152.44 L 583.94 135.73 L 586.27 135.39 L 588.61 124.69 L 590.94 123.69 L 593.28 121.68 L 595.61 118.67 L 597.94 119.01 L 600.28 123.02 L 602.61 127.70 L 604.95 117.00 L 607.28 117.67 L 609.62 130.38 L 611.95 125.69 L 614.29 120.68 L 616.62 119.67 L 618.95 122.35 L 621.29 123.02 L 623.62 128.37 L 625.96 127.70 L 628.29 125.69 L 630.63 121.01 L 632.96 131.71 L 635.30 124.02 L 637.63 122.35 L 639.97 130.38 L 642.30 135.06 L 644.63 136.39 L 646.97 132.38 L 649.30 129.04 L 651.64 129.04 L 653.97 115.66 L 656.31 121.68 L 658.64 127.70 L 660.98 122.35 L 663.31 120.34 L 665.64 117.33 L 667.98 116.33 L 670.31 112.99 L 672.65 114.99 L 674.98 117.00 L 677.32 120.34 L 679.65 123.02 L 681.99 123.02 L 684.32 128.37 L 686.66 133.72 L 688.99 127.03 L 691.32 126.36 L 693.66 126.36 L 695.99 131.04 L 698.33 125.02 L 700.66 122.68 L 703.00 121.68 L 705.33 121.01 L 707.67 120.34 L 710.00 119.67" fill="none" stroke="#2c3e50" stroke-width="2"/></svg>