<?xml version="1.0"?><svg viewBox="0 0 720 260" width="100%" height="260" xmlns="http://www.w3.org/2000/svg"><rect width="100%" height="100%" fill="#fff"/><line x1="40" y1="210.625" x2="710" y2="210.625" stroke="#eee"/><text x="32" y="214.625" text-anchor="end" font-size="10" fill="#666" font-family="system-ui,Arial">60</text><line x1="40" y1="183.875" x2="710" y2="183.875" stroke="#eee"/><text x="32" y="187.875" text-anchor="end" font-size="10" fill="#666" font-family="system-ui,Arial">100</text><line x1="40" y1="157.125" x2="710" y2="157.125" stroke="#eee"/><text x="32" y="161.125" text-anchor="end" font-size="10" fill="#666" font-family="system-ui,Arial">140</text><line x1="40" y1="130.375" x2="710" y2="130.375" stroke="#eee"/><text x="32" y="134.375" text-anchor="end" font-size="10" fill="#666" font-family="system-ui,Arial">180</text><line x1="40" y1="103.625" x2="710" y2="103.625" stroke="#eee"/><text x="32" y="107.625" text-anchor="end" font-size="10" fill="#666" font-family="system-ui,Arial">220</text><line x1="40" y1="76.875" x2="710" y2="76.875" stroke="#eee"/><text x="32" y="80.875" text-anchor="end" font-size="10" fill="#666" font-family="system-ui,Arial">260</text><line x1="40" y1="50.125" x2="710" y2="50.125" stroke="#eee"/><text x="32" y="54.125" text-anchor="end" font-size="10" fill="#666" font-family="system-ui,Arial">300</text><line x1="40" y1="23.375" x2="710" y2="23.375" stroke="#eee"/><text x="32" y="27.375" text-anchor="end" font-size="10" fill="#666" font-family="system-ui,Arial">340</text><line x1="208.0836236933798" y1="10" x2="208.0836236933798" y2="224" stroke="#eee"/><text x="208.0836236933798" y="238" text-anchor="middle" font-size="10" fill="#666" font-family="system-ui,Arial">6</text><line x1="292.1254355400697" y1="10" x2="292.1254355400697" y2="224" stroke="#eee"/><text x="292.1254355400697" y="238" text-anchor="middle" font-size="10" fill="#666" font-family="system-ui,Arial">9</text><line x1="376.1672473867596" y1="10" x2="376.1672473867596" y2="224" stroke="#eee"/><text x="376.1672473867596" y="238" text-anchor="middle" font-size="10" fill="#666" font-family="system-ui,Arial">12</text><line x1="460.20905923344947" y1="10" x2="460.20905923344947" y2="224" stroke="#eee"/><text x="460.20905923344947" y="238" text-anchor="middle" font-size="10" fill="#666" font-family="system-ui,Arial">15</text><line x1="544.2508710801394" y1="10" x2="544.2508710801394" y2="224" stroke="#eee"/><text x="544.2508710801394" y="238" text-anchor="middle" font-size="10" fill="#666" font-family="system-ui,Arial">18</text><line x1="628.2926829268292" y1="10" x2="628.2926829268292" y2="224" stroke="#eee"/><text x="628.2926829268292" y="238" text-anchor="middle" font-size="10" fill="#666" font-family="system-ui,Arial">21</text><rect x="40" y="130.375" width="670" height="73.5625" fill="rgba(39,174,96,0.07)"/><path d="M 40.00 79.22 L 42.33 82.09 L 44.67 85.57 L 47.00 85.90 L 49.34 84.43 L 51.67 85.03 L 54.01 83.56 L 56.34 79.68 L 58.68 77.34 L 61.01 75.87 L 63.34 73.40 L 65.68 75.27 L 68.01 75.44 L 70.35 68.18 L 72.68 62.50 L 75.02 58.15 L 77.35 53.47 L 79.69 51.86 L 82.02 52.16 L 84.36 50.13 L 86.69 47.48 L 89.02 45.58 L 91.36 46.11 L 93.69 44.14 L 96.03 41.56 L 98.36 42.00 L 100.70 38.39 L 103.03 33.94 L 105.37 34.34 L 107.70 37.42 L 110.03 40.50 L 112.37 36.08 L 114.70 39.76 L 117.04 25.38 L 119.37 35.55 L 121.71 37.75 L 124.04 37.75 L 126.38 36.08 L 128.71 31.67 L 131.05 28.12 L 133.38 39.42 L 135.71 44.51 L 138.05 32.07 L 140.38 37.05 L 142.72 10.00 L 145.05 30.60 L 147.39 29.19 L 149.72 26.59 L 152.06 38.76 L 154.39 44.47 L 156.72 22.64 L 159.06 37.82 L 161.39 38.76 L 163.73 12.67 L 166.06 55.91 L 168.40 68.92 L 170.73 60.39 L 173.07 68.52 L 175.40 64.30 L 177.74 70.76 L 180.07 75.20 L 182.40 79.88 L 184.74 77.28 L 187.07 66.17 L 189.41 74.70 L 191.74 63.50 L 194.08 86.51 L 196.41 92.52 L 198.75 83.83 L 201.08 66.17 L 203.41 109.24 L 205.75 95.63 L 208.08 103.89 L 210.42 109.28 L 212.75 109.78 L 215.09 116.97 L 217.42 125.16 L 219.76 127.17 L 222.09 133.62 L 224.43 136.56 L 226.76 140.71 L 229.09 147.39 L 231.43 154.78 L 233.76 156.79 L 236.10 158.90 L 238.43 159.33 L 240.77 147.76 L 243.10 149.70 L 245.44 161.20 L 247.77 159.80 L 250.10 154.62 L 252.44 134.92 L 254.77 118.47 L 257.11 109.58 L 259.44 98.01 L 261.78 84.47 L 264.11 66.17 L 266.45 67.51 L 268.78 63.20 L 271.11 56.95 L 273.45 56.88 L 275.78 44.11 L 278.12 37.42 L 280.45 38.09 L 282.79 40.90 L 285.12 34.08 L 287.46 28.73 L 289.79 26.59 L 292.13 23.71 L 294.46 10.00 L 296.79 35.75 L 299.13 31.47 L 301.46 37.42 L 303.80 40.36 L 306.13 26.72 L 308.47 59.09 L 310.80 61.49 L 313.14 58.08 L 315.47 64.97 L 317.80 71.66 L 320.14 70.32 L 322.47 70.46 L 324.81 75.04 L 327.14 69.85 L 329.48 70.96 L 331.81 64.50 L 334.15 66.18 L 336.48 69.79 L 338.82 59.65 L 341.15 66.71 L 343.48 71.12 L 345.82 72.86 L 348.15 79.52 L 350.49 88.78 L 352.82 70.19 L 355.16 87.17 L 357.49 88.24 L 359.83 87.61 L 362.16 81.02 L 364.49 80.22 L 366.83 87.58 L 369.16 68.18 L 371.50 66.28 L 373.83 68.65 L 376.17 52.13 L 378.50 72.53 L 380.84 72.06 L 383.17 64.60 L 385.51 64.30 L 387.84 62.83 L 390.17 53.47 L 392.51 43.44 L 394.84 57.08 L 397.18 62.00 L 399.51 57.82 L 401.85 52.13 L 404.18 54.40 L 406.52 51.80 L 408.85 51.46 L 411.18 41.10 L 413.52 38.09 L 415.85 34.01 L 418.19 32.60 L 420.52 35.08 L 422.86 23.38 L 425.19 23.91 L 427.53 18.79 L 429.86 11.34 L 432.20 28.19 L 434.53 31.90 L 436.86 37.29 L 439.20 34.81 L 441.53 44.11 L 443.87 47.78 L 446.20 45.34 L 448.54 43.04 L 450.87 51.50 L 453.21 57.35 L 455.54 64.30 L 457.87 64.17 L 460.21 74.53 L 462.54 75.34 L 464.88 44.77 L 467.21 52.13 L 469.55 72.39 L 471.88 75.81 L 474.22 71.86 L 476.55 76.77 L 478.89 73.53 L 481.22 50.13 L 483.55 77.01 L 485.89 78.75 L 488.22 74.33 L 490.56 62.16 L 492.89 94.53 L 495.23 99.48 L 497.56 109.64 L 499.90 114.59 L 502.23 111.95 L 504.56 109.98 L 506.90 114.73 L 509.23 109.64 L 511.57 109.11 L 513.90 108.31 L 516.24 104.29 L 518.57 93.39 L 520.91 83.26 L 523.24 85.30 L 525.57 77.54 L 527.91 73.50 L 530.24 68.85 L 532.58 66.84 L 534.91 62.60 L 537.25 55.34 L 539.58 65.84 L 541.92 75.54 L 544.25 72.06 L 546.59 60.16 L 548.92 59.89 L 551.25 54.14 L 553.59 55.14 L 555.92 66.51 L 558.26 66.94 L 560.59 66.51 L 562.93 81.69 L 565.26 52.13 L 567.60 34.68 L 569.93 43.14 L 572.26 56.41 L 574.60 30.06 L 576.93 56.68 L 579.27 68.18 L 581.60 59.15 L 583.94 48.89 L 586.27 47.99 L 588.61 66.18 L 590.94 63.73 L 593.28 57.68 L 595.61 42.57 L 597.94 77.54 L 600.28 43.27 L 602.61 50.13 L 604.95 37.42 L 607.28 39.42 L 609.62 21.37 L 611.95 11.34 L 614.29 25.11 L 616.62 23.64 L 618.95 11.34 L 621.29 64.20 L 623.62 68.85 L 625.96 68.05 L 628.29 56.48 L 630.63 60.42 L 632.96 59.49 L 635.30 60.49 L 637.63 53.23 L 639.97 52.00 L 642.30 51.80 L 644.63 34.74 L 646.97 32.74 L 649.30 51.46 L 651.64 65.77 L 653.97 55.48 L 656.31 53.47 L 658.64 66.58 L 660.98 67.91 L 663.31 59.15 L 665.64 50.79 L 667.98 64.30 L 670.31 64.04 L 672.65 59.15 L 674.98 57.48 L 677.32 58.42 L 679.65 59.39 L 681.99 54.14 L 684.32 57.62 L 686.66 58.55 L 688.99 57.58 L 691.32 62.16 L 693.66 61.49 L 695.99 70.86 L 698.33 64.50 L 700.66 60.56 L 703.00 65.47 L 705.33 68.85 L 707.67 73.53 L 710.00 67.51 L 710.00 201.36 L 707.67 201.86 L 705.33 203.80 L 703.00 221.99 L 700.66 202.33 L 698.33 198.59 L 695.99 198.25 L 693.66 195.91 L 691.32 194.58 L 688.99 200.26 L 686.66 197.92 L 684.32 195.38 L 681.99 184.68 L 679.65 183.01 L 677.32 179.49 L 674.98 173.84 L 672.65 167.83 L 670.31 176.52 L 667.98 175.85 L 665.64 169.70 L 663.31 172.47 L 660.98 172.04 L 658.64 175.18 L 656.31 167.56 L 653.97 173.17 L 651.64 172.24 L 649.30 179.86 L 646.97 180.53 L 644.63 182.40 L 642.30 180.87 L 639.97 177.19 L 637.63 186.55 L 635.30 179.86 L 632.96 187.22 L 630.63 178.53 L 628.29 185.21 L 625.96 166.49 L 623.62 166.62 L 621.29 170.50 L 618.95 157.53 L 616.62 156.19 L 614.29 153.38 L 611.95 161.81 L 609.62 162.47 L 607.28 158.13 L 604.95 161.00 L 602.61 163.55 L 600.28 163.48 L 597.94 163.68 L 595.61 161.61 L 593.28 160.80 L 590.94 171.90 L 588.61 175.18 L 586.27 187.35 L 583.94 207.28 L 581.60 205.94 L 579.27 199.26 L 576.93 209.42 L 574.60 217.18 L 572.26 214.37 L 569.93 209.56 L 567.60 223.33 L 565.26 198.25 L 562.93 192.17 L 560.59 200.59 L 558.26 187.22 L 555.92 166.82 L 553.59 166.82 L 551.25 171.70 L 548.92 171.44 L 546.59 177.19 L 544.25 185.88 L 541.92 213.30 L 539.58 183.88 L 537.25 194.17 L 534.91 193.30 L 532.58 198.05 L 530.24 198.75 L 527.91 206.41 L 525.57 214.10 L 523.24 205.68 L 520.91 207.05 L 518.57 208.15 L 516.24 204.71 L 513.90 208.22 L 511.57 213.97 L 509.23 202.27 L 506.90 195.24 L 504.56 195.31 L 502.23 202.27 L 499.90 206.88 L 497.56 207.92 L 495.23 209.82 L 492.89 205.41 L 490.56 204.61 L 488.22 202.73 L 485.89 201.00 L 483.55 196.41 L 481.22 191.23 L 478.89 192.57 L 476.55 203.27 L 474.22 203.94 L 471.88 186.65 L 469.55 203.27 L 467.21 181.37 L 464.88 204.61 L 462.54 176.72 L 460.21 176.85 L 457.87 176.15 L 455.54 195.24 L 453.21 168.49 L 450.87 175.25 L 448.54 178.99 L 446.20 168.83 L 443.87 161.47 L 441.53 149.43 L 439.20 137.36 L 436.86 132.11 L 434.53 124.26 L 432.20 110.98 L 429.86 106.37 L 427.53 107.30 L 425.19 103.29 L 422.86 99.81 L 420.52 100.95 L 418.19 97.74 L 415.85 100.28 L 413.52 96.00 L 411.18 101.28 L 408.85 109.64 L 406.52 129.04 L 404.18 126.36 L 401.85 119.67 L 399.51 119.01 L 397.18 121.18 L 394.84 131.98 L 392.51 142.55 L 390.17 150.84 L 387.84 153.78 L 385.51 149.94 L 383.17 148.23 L 380.84 158.73 L 378.50 176.52 L 376.17 189.29 L 373.83 194.91 L 371.50 195.34 L 369.16 196.35 L 366.83 191.23 L 364.49 178.19 L 362.16 169.50 L 359.83 170.97 L 357.49 166.49 L 355.16 163.81 L 352.82 163.48 L 350.49 162.47 L 348.15 153.81 L 345.82 159.13 L 343.48 158.06 L 341.15 154.55 L 338.82 156.59 L 336.48 159.40 L 334.15 163.14 L 331.81 162.81 L 329.48 164.95 L 327.14 162.81 L 324.81 162.21 L 322.47 181.20 L 320.14 169.30 L 317.80 189.22 L 315.47 188.56 L 313.14 195.24 L 310.80 187.55 L 308.47 182.00 L 306.13 181.73 L 303.80 178.89 L 301.46 176.92 L 299.13 177.62 L 296.79 179.19 L 294.46 177.96 L 292.13 180.87 L 289.79 182.94 L 287.46 182.91 L 285.12 186.55 L 282.79 181.47 L 280.45 180.90 L 278.12 170.50 L 275.78 170.83 L 273.45 172.97 L 271.11 169.96 L 268.78 188.56 L 266.45 178.32 L 264.11 172.77 L 261.78 172.71 L 259.44 177.25 L 257.11 179.86 L 254.77 182.54 L 252.44 190.56 L 250.10 197.25 L 247.77 202.06 L 245.44 201.80 L 243.10 195.31 L 240.77 190.56 L 238.43 196.58 L 236.10 190.96 L 233.76 189.22 L 231.43 190.23 L 229.09 189.89 L 226.76 189.76 L 224.43 185.55 L 222.09 186.08 L 219.76 185.48 L 217.42 191.77 L 215.09 193.64 L 212.75 194.71 L 210.42 193.30 L 208.08 187.09 L 205.75 191.83 L 203.41 189.22 L 201.08 188.16 L 198.75 187.95 L 196.41 186.98 L 194.08 185.61 L 191.74 185.95 L 189.41 186.22 L 187.07 193.40 L 184.74 188.56 L 182.40 185.21 L 180.07 184.21 L 177.74 183.57 L 175.40 186.95 L 173.07 188.56 L 170.73 188.16 L 168.40 189.89 L 166.06 186.58 L 163.73 186.55 L 161.39 183.57 L 159.06 184.01 L 156.72 188.62 L 154.39 196.35 L 152.06 205.94 L 149.72 211.29 L 147.39 185.35 L 145.05 184.41 L 142.72 186.88 L 140.38 182.24 L 138.05 185.48 L 135.71 188.42 L 133.38 189.89 L 131.05 191.40 L 128.71 194.84 L 126.38 195.24 L 124.04 192.23 L 121.71 191.57 L 119.37 195.78 L 117.04 200.59 L 114.70 185.21 L 112.37 178.96 L 110.03 177.86 L 107.70 175.18 L 105.37 170.90 L 103.03 167.02 L 100.70 170.27 L 98.36 177.29 L 96.03 180.87 L 93.69 176.45 L 91.36 168.09 L 89.02 173.17 L 86.69 167.89 L 84.36 165.25 L 82.02 163.95 L 79.69 173.17 L 77.35 175.85 L 75.02 171.50 L 72.68 177.19 L 70.35 178.53 L 68.01 181.00 L 65.68 179.86 L 63.34 183.54 L 61.01 191.23 L 58.68 192.30 L 56.34 208.62 L 54.01 194.91 L 51.67 199.39 L 49.34 202.73 L 47.00 202.27 L 44.67 215.97 L 42.33 203.13 L 40.00 199.92 Z" fill="rgba(231,76,60,0.06)" stroke="none"/><path d="M 40.00 97.61 L 42.33 96.94 L 44.67 97.44 L 47.00 104.96 L 49.34 103.63 L 51.67 103.63 L 54.01 106.30 L 56.34 113.99 L 58.68 115.33 L 61.01 117.00 L 63.34 119.67 L 65.68 119.01 L 68.01 118.34 L 70.35 116.00 L 72.68 114.66 L 75.02 113.66 L 77.35 112.99 L 79.69 111.65 L 82.02 109.64 L 84.36 107.64 L 86.69 113.49 L 89.02 117.00 L 91.36 120.85 L 93.69 117.00 L 96.03 126.53 L 98.36 126.36 L 100.70 128.70 L 103.03 127.70 L 105.37 127.70 L 107.70 129.71 L 110.03 134.39 L 112.37 122.85 L 114.70 124.36 L 117.04 121.01 L 119.37 128.20 L 121.71 131.04 L 124.04 123.69 L 126.38 131.38 L 128.71 125.69 L 131.05 126.36 L 133.38 133.05 L 135.71 135.73 L 138.05 129.04 L 140.38 129.71 L 142.72 129.87 L 145.05 133.05 L 147.39 132.38 L 149.72 136.39 L 152.06 138.07 L 154.39 136.39 L 156.72 133.72 L 159.06 136.39 L 161.39 139.07 L 163.73 145.76 L 166.06 145.09 L 168.40 146.42 L 170.73 149.77 L 173.07 153.11 L 175.40 153.11 L 177.74 153.95 L 180.07 149.77 L 182.40 155.12 L 184.74 155.12 L 187.07 154.45 L 189.41 138.07 L 191.74 129.71 L 194.08 151.78 L 196.41 152.44 L 198.75 151.78 L 201.08 151.78 L 203.41 151.78 L 205.75 152.44 L 208.08 152.44 L 210.42 153.78 L 212.75 155.12 L 215.09 157.79 L 217.42 165.15 L 219.76 161.81 L 222.09 161.14 L 224.43 161.47 L 226.76 161.14 L 229.09 162.81 L 231.43 164.82 L 233.76 165.82 L 236.10 169.83 L 238.43 164.48 L 240.77 165.82 L 243.10 164.15 L 245.44 167.16 L 247.77 165.82 L 250.10 165.15 L 252.44 153.78 L 254.77 140.41 L 257.11 130.38 L 259.44 123.02 L 261.78 110.98 L 264.11 104.96 L 266.45 105.63 L 268.78 102.29 L 271.11 96.27 L 273.45 97.61 L 275.78 85.74 L 278.12 86.24 L 280.45 86.24 L 282.79 85.57 L 285.12 88.91 L 287.46 91.59 L 289.79 94.26 L 292.13 102.96 L 294.46 106.97 L 296.79 102.29 L 299.13 103.46 L 301.46 88.24 L 303.80 80.39 L 306.13 89.58 L 308.47 87.58 L 310.80 96.27 L 313.14 91.59 L 315.47 107.64 L 317.80 92.92 L 320.14 89.58 L 322.47 95.43 L 324.81 102.12 L 327.14 100.95 L 329.48 102.29 L 331.81 102.96 L 334.15 102.96 L 336.48 103.63 L 338.82 107.47 L 341.15 110.98 L 343.48 113.66 L 345.82 115.33 L 348.15 118.00 L 350.49 114.99 L 352.82 119.01 L 355.16 122.35 L 357.49 121.68 L 359.83 123.69 L 362.16 105.46 L 364.49 107.64 L 366.83 112.15 L 369.16 108.31 L 371.50 123.35 L 373.83 130.71 L 376.17 131.71 L 378.50 121.68 L 380.84 104.29 L 383.17 90.92 L 385.51 80.39 L 387.84 70.86 L 390.17 76.21 L 392.51 80.89 L 394.84 88.24 L 397.18 89.58 L 399.51 72.19 L 401.85 71.53 L 404.18 65.51 L 406.52 62.50 L 408.85 58.15 L 411.18 60.16 L 413.52 56.14 L 415.85 57.48 L 418.19 52.13 L 420.52 53.47 L 422.86 50.79 L 425.19 52.30 L 427.53 55.48 L 429.86 58.82 L 432.20 58.82 L 434.53 62.33 L 436.86 69.52 L 439.20 65.51 L 441.53 70.86 L 443.87 80.22 L 446.20 96.27 L 448.54 100.95 L 450.87 96.27 L 453.21 100.95 L 455.54 100.95 L 457.87 106.30 L 460.21 108.31 L 462.54 108.81 L 464.88 102.29 L 467.21 104.13 L 469.55 103.63 L 471.88 108.98 L 474.22 100.95 L 476.55 102.29 L 478.89 108.64 L 481.22 102.29 L 483.55 110.15 L 485.89 110.98 L 488.22 114.99 L 490.56 116.67 L 492.89 123.69 L 495.23 131.04 L 497.56 138.40 L 499.90 141.74 L 502.23 126.53 L 504.56 131.04 L 506.90 137.06 L 509.23 131.04 L 511.57 135.73 L 513.90 141.08 L 516.24 142.58 L 518.57 149.77 L 520.91 128.37 L 523.24 127.03 L 525.57 125.69 L 527.91 125.69 L 530.24 131.04 L 532.58 127.03 L 534.91 120.34 L 537.25 118.34 L 539.58 108.98 L 541.92 90.25 L 544.25 103.63 L 546.59 89.58 L 548.92 111.65 L 551.25 111.65 L 553.59 114.99 L 555.92 124.36 L 558.26 123.02 L 560.59 125.69 L 562.93 127.03 L 565.26 118.34 L 567.60 113.49 L 569.93 108.98 L 572.26 103.63 L 574.60 99.95 L 576.93 100.95 L 579.27 104.29 L 581.60 101.62 L 583.94 96.94 L 586.27 81.56 L 588.61 101.62 L 590.94 91.59 L 593.28 89.58 L 595.61 94.26 L 597.94 86.24 L 600.28 80.22 L 602.61 79.55 L 604.95 86.91 L 607.28 82.23 L 609.62 82.39 L 611.95 84.23 L 614.29 100.28 L 616.62 109.64 L 618.95 113.66 L 621.29 121.68 L 623.62 126.36 L 625.96 114.33 L 628.29 105.63 L 630.63 84.90 L 632.96 83.90 L 635.30 77.71 L 637.63 86.40 L 639.97 87.58 L 642.30 78.21 L 644.63 95.60 L 646.97 84.23 L 649.30 92.92 L 651.64 82.23 L 653.97 88.24 L 656.31 94.26 L 658.64 98.94 L 660.98 95.60 L 663.31 91.75 L 665.64 87.58 L 667.98 86.91 L 670.31 87.58 L 672.65 98.27 L 674.98 84.90 L 677.32 85.57 L 679.65 86.24 L 681.99 86.24 L 684.32 86.24 L 686.66 86.24 L 688.99 88.24 L 691.32 89.58 L 693.66 80.89 L 695.99 79.22 L 698.33 82.89 L 700.66 86.91 L 703.00 87.58 L 705.33 90.92 L 707.67 95.60 L 710.00 94.93 L 710.00 151.11 L 707.67 144.92 L 705.33 149.77 L 703.00 153.11 L 700.66 151.11 L 698.33 145.76 L 695.99 147.76 L 693.66 147.76 L 691.32 150.10 L 688.99 149.10 L 686.66 151.11 L 684.32 153.11 L 681.99 155.12 L 679.65 155.12 L 677.32 152.44 L 674.98 150.44 L 672.65 149.10 L 670.31 157.79 L 667.98 141.08 L 665.64 139.07 L 663.31 142.41 L 660.98 143.08 L 658.64 149.10 L 656.31 143.08 L 653.97 149.10 L 651.64 153.11 L 649.30 163.81 L 646.97 153.11 L 644.63 153.11 L 642.30 164.15 L 639.97 162.47 L 637.63 153.78 L 635.30 149.77 L 632.96 151.78 L 630.63 140.41 L 628.29 140.41 L 625.96 139.74 L 623.62 133.05 L 621.29 141.74 L 618.95 137.06 L 616.62 133.72 L 614.29 132.38 L 611.95 129.04 L 609.62 132.38 L 607.28 139.74 L 604.95 150.44 L 602.61 151.11 L 600.28 147.76 L 597.94 135.06 L 595.61 142.08 L 593.28 125.69 L 590.94 124.36 L 588.61 139.24 L 586.27 149.77 L 583.94 143.08 L 581.60 148.77 L 579.27 139.74 L 576.93 147.76 L 574.60 154.45 L 572.26 152.44 L 569.93 161.81 L 567.60 157.79 L 565.26 158.13 L 562.93 158.46 L 560.59 157.13 L 558.26 149.10 L 555.92 147.09 L 553.59 148.10 L 551.25 149.77 L 548.92 150.44 L 546.59 136.73 L 544.25 133.72 L 541.92 136.39 L 539.58 138.73 L 537.25 150.44 L 534.91 157.96 L 532.58 163.98 L 530.24 164.48 L 527.91 165.65 L 525.57 176.02 L 523.24 185.88 L 520.91 179.19 L 518.57 163.81 L 516.24 169.16 L 513.90 165.82 L 511.57 166.15 L 509.23 168.49 L 506.90 178.53 L 504.56 177.19 L 502.23 175.85 L 499.90 178.53 L 497.56 183.88 L 495.23 181.20 L 492.89 187.22 L 490.56 188.89 L 488.22 193.24 L 485.89 183.21 L 483.55 182.54 L 481.22 177.86 L 478.89 179.86 L 476.55 171.17 L 474.22 161.81 L 471.88 165.15 L 469.55 157.63 L 467.21 151.78 L 464.88 146.42 L 462.54 147.09 L 460.21 140.41 L 457.87 135.73 L 455.54 131.71 L 453.21 128.37 L 450.87 121.68 L 448.54 119.01 L 446.20 119.84 L 443.87 110.65 L 441.53 106.63 L 439.20 106.97 L 436.86 101.62 L 434.53 101.12 L 432.20 100.28 L 429.86 96.44 L 427.53 93.76 L 425.19 91.59 L 422.86 91.09 L 420.52 86.24 L 418.19 81.56 L 415.85 85.23 L 413.52 88.24 L 411.18 91.59 L 408.85 97.61 L 406.52 99.28 L 404.18 106.30 L 401.85 103.63 L 399.51 114.99 L 397.18 111.65 L 394.84 114.33 L 392.51 123.02 L 390.17 119.67 L 387.84 125.69 L 385.51 125.69 L 383.17 126.36 L 380.84 157.79 L 378.50 165.15 L 376.17 166.49 L 373.83 171.17 L 371.50 167.16 L 369.16 160.47 L 366.83 163.81 L 364.49 158.80 L 362.16 158.46 L 359.83 157.79 L 357.49 157.79 L 355.16 153.78 L 352.82 150.77 L 350.49 151.11 L 348.15 149.77 L 345.82 148.43 L 343.48 150.44 L 341.15 143.42 L 338.82 146.42 L 336.48 151.11 L 334.15 157.79 L 331.81 149.77 L 329.48 148.43 L 327.14 147.09 L 324.81 141.91 L 322.47 135.73 L 320.14 133.05 L 317.80 142.08 L 315.47 134.39 L 313.14 135.06 L 310.80 133.72 L 308.47 132.38 L 306.13 133.72 L 303.80 133.72 L 301.46 136.39 L 299.13 128.70 L 296.79 133.05 L 294.46 131.71 L 292.13 129.71 L 289.79 124.36 L 287.46 123.02 L 285.12 128.37 L 282.79 127.70 L 280.45 126.36 L 278.12 126.70 L 275.78 133.72 L 273.45 134.39 L 271.11 135.73 L 268.78 142.58 L 266.45 151.78 L 264.11 161.14 L 261.78 161.14 L 259.44 169.66 L 257.11 170.83 L 254.77 169.83 L 252.44 171.84 L 250.10 183.21 L 247.77 181.53 L 245.44 182.20 L 243.10 183.88 L 240.77 181.53 L 238.43 180.53 L 236.10 178.36 L 233.76 178.86 L 231.43 181.87 L 229.09 182.54 L 226.76 181.87 L 224.43 178.02 L 222.09 177.19 L 219.76 176.52 L 217.42 179.19 L 215.09 181.20 L 212.75 180.53 L 210.42 181.20 L 208.08 179.19 L 205.75 181.87 L 203.41 183.88 L 201.08 179.19 L 198.75 177.19 L 196.41 176.52 L 194.08 173.17 L 191.74 174.51 L 189.41 174.51 L 187.07 177.19 L 184.74 178.53 L 182.40 180.53 L 180.07 172.51 L 177.74 174.85 L 175.40 177.19 L 173.07 178.53 L 170.73 178.53 L 168.40 179.86 L 166.06 172.84 L 163.73 168.16 L 161.39 176.52 L 159.06 176.52 L 156.72 175.18 L 154.39 177.86 L 152.06 175.85 L 149.72 173.17 L 147.39 173.84 L 145.05 172.51 L 142.72 171.17 L 140.38 171.17 L 138.05 171.17 L 135.71 170.50 L 133.38 167.83 L 131.05 168.49 L 128.71 173.17 L 126.38 175.85 L 124.04 167.83 L 121.71 164.48 L 119.37 165.82 L 117.04 159.13 L 114.70 161.81 L 112.37 164.48 L 110.03 164.48 L 107.70 165.15 L 105.37 163.14 L 103.03 156.46 L 100.70 154.45 L 98.36 154.28 L 96.03 153.11 L 93.69 155.12 L 91.36 153.11 L 89.02 154.45 L 86.69 154.78 L 84.36 153.28 L 82.02 148.60 L 79.69 151.94 L 77.35 150.44 L 75.02 147.76 L 72.68 146.42 L 70.35 144.42 L 68.01 145.09 L 65.68 147.09 L 63.34 151.78 L 61.01 150.44 L 58.68 145.09 L 56.34 147.09 L 54.01 148.43 L 51.67 147.76 L 49.34 145.76 L 47.00 147.76 L 44.67 151.44 L 42.33 149.10 L 40.00 148.43 Z" fill="rgba(230,126,34,0.22)" stroke="none"/><path d="M 40.00 124.36 L 42.33 119.67 L 44.67 124.36 L 47.00 127.70 L 49.34 123.69 L 51.67 129.71 L 54.01 127.70 L 56.34 135.73 L 58.68 134.39 L 61.01 131.71 L 63.34 135.73 L 65.68 135.06 L 68.01 133.05 L 70.35 135.06 L 72.68 133.05 L 75.02 135.06 L 77.35 136.39 L 79.69 139.07 L 82.02 137.06 L 84.36 137.06 L 86.69 143.75 L 89.02 147.76 L 91.36 145.09 L 93.69 141.08 L 96.03 144.75 L 98.36 147.09 L 100.70 151.78 L 103.03 151.11 L 105.37 151.78 L 107.70 152.44 L 110.03 153.11 L 112.37 149.10 L 114.70 155.79 L 117.04 156.46 L 119.37 156.46 L 121.71 155.12 L 124.04 155.12 L 126.38 154.45 L 128.71 154.45 L 131.05 153.11 L 133.38 152.44 L 135.71 153.11 L 138.05 153.78 L 140.38 152.44 L 142.72 146.42 L 145.05 141.74 L 147.39 144.42 L 149.72 151.11 L 152.06 151.11 L 154.39 151.44 L 156.72 146.42 L 159.06 148.43 L 161.39 149.77 L 163.73 150.44 L 166.06 153.78 L 168.40 152.78 L 170.73 157.79 L 173.07 159.13 L 175.40 159.80 L 177.74 159.13 L 180.07 157.13 L 182.40 161.14 L 184.74 162.47 L 187.07 160.47 L 189.41 158.46 L 191.74 161.81 L 194.08 161.81 L 196.41 163.14 L 198.75 165.82 L 201.08 164.48 L 203.41 163.81 L 205.75 166.49 L 208.08 169.16 L 210.42 169.16 L 212.75 168.49 L 215.09 167.83 L 217.42 166.49 L 219.76 169.83 L 222.09 172.84 L 224.43 174.51 L 226.76 174.85 L 229.09 176.85 L 231.43 178.53 L 233.76 175.85 L 236.10 174.85 L 238.43 175.52 L 240.77 173.51 L 243.10 174.51 L 245.44 169.83 L 247.77 170.50 L 250.10 172.17 L 252.44 167.16 L 254.77 161.81 L 257.11 163.81 L 259.44 157.46 L 261.78 154.45 L 264.11 135.06 L 266.45 137.73 L 268.78 119.67 L 271.11 121.68 L 273.45 114.33 L 275.78 112.32 L 278.12 105.63 L 280.45 111.65 L 282.79 112.32 L 285.12 105.63 L 287.46 107.97 L 289.79 102.29 L 292.13 112.99 L 294.46 120.34 L 296.79 118.34 L 299.13 116.33 L 301.46 116.33 L 303.80 113.99 L 306.13 118.34 L 308.47 121.68 L 310.80 124.36 L 313.14 126.36 L 315.47 128.37 L 317.80 126.36 L 320.14 119.01 L 322.47 116.67 L 324.81 125.69 L 327.14 137.06 L 329.48 133.72 L 331.81 136.39 L 334.15 129.04 L 336.48 131.04 L 338.82 141.74 L 341.15 137.06 L 343.48 133.72 L 345.82 139.07 L 348.15 141.08 L 350.49 145.76 L 352.82 145.76 L 355.16 145.76 L 357.49 146.42 L 359.83 140.41 L 362.16 141.08 L 364.49 135.73 L 366.83 143.08 L 369.16 136.39 L 371.50 143.42 L 373.83 148.43 L 376.17 139.74 L 378.50 141.74 L 380.84 118.34 L 383.17 123.02 L 385.51 110.98 L 387.84 110.31 L 390.17 112.32 L 392.51 108.31 L 394.84 106.97 L 397.18 104.29 L 399.51 96.27 L 401.85 98.27 L 404.18 87.58 L 406.52 80.89 L 408.85 83.90 L 411.18 78.21 L 413.52 66.17 L 415.85 72.19 L 418.19 67.51 L 420.52 69.52 L 422.86 64.84 L 425.19 63.50 L 427.53 62.16 L 429.86 69.52 L 432.20 74.20 L 434.53 72.19 L 436.86 79.55 L 439.20 87.58 L 441.53 90.92 L 443.87 89.58 L 446.20 99.61 L 448.54 108.98 L 450.87 108.98 L 453.21 121.01 L 455.54 114.99 L 457.87 120.68 L 460.21 123.02 L 462.54 122.35 L 464.88 108.98 L 467.21 124.69 L 469.55 143.42 L 471.88 123.69 L 474.22 125.69 L 476.55 131.71 L 478.89 133.72 L 481.22 139.07 L 483.55 149.10 L 485.89 148.43 L 488.22 138.40 L 490.56 133.05 L 492.89 167.16 L 495.23 167.16 L 497.56 172.17 L 499.90 163.81 L 502.23 159.80 L 504.56 159.13 L 506.90 160.47 L 509.23 155.79 L 511.57 154.45 L 513.90 155.12 L 516.24 160.47 L 518.57 159.13 L 520.91 153.11 L 523.24 155.79 L 525.57 147.76 L 527.91 147.09 L 530.24 151.44 L 532.58 145.76 L 534.91 139.74 L 537.25 136.39 L 539.58 131.04 L 541.92 123.69 L 544.25 124.02 L 546.59 124.36 L 548.92 127.03 L 551.25 135.73 L 553.59 133.72 L 555.92 137.06 L 558.26 144.42 L 560.59 143.08 L 562.93 139.74 L 565.26 139.07 L 567.60 137.73 L 569.93 135.73 L 572.26 132.38 L 574.60 126.36 L 576.93 125.02 L 579.27 118.00 L 581.60 109.64 L 583.94 125.02 L 586.27 112.32 L 588.61 110.31 L 590.94 104.96 L 593.28 102.96 L 595.61 105.63 L 597.94 110.98 L 600.28 119.67 L 602.61 117.00 L 604.95 116.33 L 607.28 117.67 L 609.62 117.67 L 611.95 119.34 L 614.29 117.67 L 616.62 119.67 L 618.95 125.69 L 621.29 123.02 L 623.62 128.37 L 625.96 127.70 L 628.29 125.69 L 630.63 133.72 L 632.96 136.39 L 635.30 138.40 L 637.63 135.39 L 639.97 133.72 L 642.30 135.06 L 644.63 133.72 L 646.97 125.69 L 649.30 126.36 L 651.64 107.64 L 653.97 98.27 L 656.31 99.61 L 658.64 115.66 L 660.98 114.66 L 663.31 119.01 L 665.64 115.66 L 667.98 131.04 L 670.31 118.34 L 672.65 121.01 L 674.98 121.01 L 677.32 120.34 L 679.65 121.35 L 681.99 121.68 L 684.32 123.69 L 686.66 133.72 L 688.99 120.68 L 691.32 126.36 L 693.66 122.35 L 695.99 123.02 L 698.33 122.35 L 700.66 121.68 L 703.00 118.67 L 705.33 121.01 L 707.67 110.31 L 710.00 119.01" fill="none" stroke="#2c3e50" stroke-width="2"/></svg>