<?xml version="1.0"?><svg viewBox="0 0 720 260" width="100%" height="260" xmlns="http://www.w3.org/2000/svg"><rect width="100%" height="100%" fill="#fff"/><line x1="40" y1="210.625" x2="710" y2="210.625" stroke="#eee"/><text x="32" y="214.625" text-anchor="end" font-size="10" fill="#666" font-family="system-ui,Arial">60</text><line x1="40" y1="183.875" x2="710" y2="183.875" stroke="#eee"/><text x="32" y="187.875" text-anchor="end" font-size="10" fill="#666" font-family="system-ui,Arial">100</text><line x1="40" y1="157.125" x2="710" y2="157.125" stroke="#eee"/><text x="32" y="161.125" text-anchor="end" font-size="10" fill="#666" font-family="system-ui,Arial">140</text><line x1="40" y1="130.375" x2="710" y2="130.375" stroke="#eee"/><text x="32" y="134.375" text-anchor="end" font-size="10" fill="#666" font-family="system-ui,Arial">180</text><line x1="40" y1="103.625" x2="710" y2="103.625" stroke="#eee"/><text x="32" y="107.625" text-anchor="end" font-size="10" fill="#666" font-family="system-ui,Arial">220</text><line x1="40" y1="76.875" x2="710" y2="76.875" stroke="#eee"/><text x="32" y="80.875" text-anchor="end" font-size="10" fill="#666" font-family="system-ui,Arial">260</text><line x1="40" y1="50.125" x2="710" y2="50.125" stroke="#eee"/><text x="32" y="54.125" text-anchor="end" font-size="10" fill="#666" font-family="system-ui,Arial">300</text><line x1="40" y1="23.375" x2="710" y2="23.375" stroke="#eee"/><text x="32" y="27.375" text-anchor="end" font-size="10" fill="#666" font-family="system-ui,Arial">340</text><line x1="208.0836236933798" y1="10" x2="208.0836236933798" y2="224" stroke="#eee"/><text x="208.0836236933798" y="238" text-anchor="middle" font-size="10" fill="#666" font-family="system-ui,Arial">6</text><line x1="292.1254355400697" y1="10" x2="292.1254355400697" y2="224" stroke="#eee"/><text x="292.1254355400697" y="238" text-anchor="middle" font-size="10" fill="#666" font-family="system-ui,Arial">9</text><line x1="376.1672473867596" y1="10" x2="376.1672473867596" y2="224" stroke="#eee"/><text x="376.1672473867596" y="238" text-anchor="middle" font-size="10" fill="#666" font-family="system-ui,Arial">12</text><line x1="460.20905923344947" y1="10" x2="460.20905923344947" y2="224" stroke="#eee"/><text x="460.20905923344947" y="238" text-anchor="middle" font-size="10" fill="#666" font-family="system-ui,Arial">15</text><line x1="544.2508710801394" y1="10" x2="544.2508710801394" y2="224" stroke="#eee"/><text x="544.2508710801394" y="238" text-anchor="middle" font-size="10" fill="#666" font-family="system-ui,Arial">18</text><line x1="628.2926829268292" y1="10" x2="628.2926829268292" y2="224" stroke="#eee"/><text x="628.2926829268292" y="238" text-anchor="middle" font-size="10" fill="#666" font-family="system-ui,Arial">21</text><rect x="40" y="130.375" width="670" height="73.5625" fill="rgba(39,174,96,0.07)"/><path d="M 40.00 10.00 L 42.33 10.00 L 44.67 10.00 L 47.00 10.00 L 49.34 10.00 L 51.67 10.00 L 54.01 10.00 L 56.34 10.00 L 58.68 10.00 L 61.01 10.00 L 63.34 10.00 L 65.68 11.20 L 68.01 10.00 L 70.35 10.00 L 72.68 10.00 L 75.02 10.00 L 77.35 10.00 L 79.69 10.00 L 82.02 10.00 L 84.36 10.00 L 86.69 10.00 L 89.02 10.00 L 91.36 10.00 L 93.69 10.00 L 96.03 10.00 L 98.36 17.36 L 100.70 10.67 L 103.03 10.00 L 105.37 10.00 L 107.70 10.00 L 110.03 10.00 L 112.37 10.00 L 114.70 10.00 L 117.04 10.00 L 119.37 10.00 L 121.71 10.00 L 124.04 10.00 L 126.38 10.00 L 128.71 10.00 L 131.05 10.00 L 133.38 10.00 L 135.71 10.00 L 138.05 10.00 L 140.38 10.00 L 142.72 10.00 L 145.05 10.00 L 147.39 10.00 L 149.72 10.00 L 152.06 10.00 L 154.39 10.00 L 156.72 10.00 L 159.06 10.00 L 161.39 10.00 L 163.73 10.00 L 166.06 10.00 L 168.40 10.00 L 170.73 10.00 L 173.07 10.00 L 175.40 10.00 L 177.74 10.00 L 180.07 12.67 L 182.40 21.23 L 184.74 25.52 L 187.07 28.32 L 189.41 22.17 L 191.74 21.90 L 194.08 30.33 L 196.41 35.45 L 198.75 38.76 L 201.08 45.18 L 203.41 47.98 L 205.75 50.79 L 208.08 54.94 L 210.42 60.72 L 212.75 66.41 L 215.09 67.31 L 217.42 70.45 L 219.76 74.70 L 222.09 82.49 L 224.43 89.25 L 226.76 93.23 L 229.09 98.01 L 231.43 106.43 L 233.76 116.43 L 236.10 122.35 L 238.43 129.31 L 240.77 135.49 L 243.10 141.74 L 245.44 142.41 L 247.77 143.75 L 250.10 149.33 L 252.44 151.11 L 254.77 149.77 L 257.11 139.07 L 259.44 131.31 L 261.78 126.20 L 264.11 122.25 L 266.45 97.61 L 268.78 76.88 L 271.11 92.79 L 273.45 94.76 L 275.78 85.74 L 278.12 79.28 L 280.45 78.68 L 282.79 81.22 L 285.12 68.05 L 287.46 57.62 L 289.79 60.83 L 292.13 57.88 L 294.46 58.62 L 296.79 56.61 L 299.13 62.03 L 301.46 46.11 L 303.80 65.51 L 306.13 52.80 L 308.47 68.75 L 310.80 77.21 L 313.14 76.91 L 315.47 78.48 L 317.80 81.56 L 320.14 80.15 L 322.47 78.21 L 324.81 87.44 L 327.14 79.28 L 329.48 83.26 L 331.81 81.56 L 334.15 80.85 L 336.48 81.89 L 338.82 82.56 L 341.15 86.57 L 343.48 76.98 L 345.82 38.76 L 348.15 76.54 L 350.49 73.87 L 352.82 69.79 L 355.16 68.28 L 357.49 65.61 L 359.83 65.14 L 362.16 68.88 L 364.49 75.17 L 366.83 79.62 L 369.16 83.03 L 371.50 87.24 L 373.83 89.72 L 376.17 82.89 L 378.50 90.92 L 380.84 83.56 L 383.17 91.59 L 385.51 74.20 L 387.84 71.19 L 390.17 66.17 L 392.51 56.81 L 394.84 64.57 L 397.18 64.44 L 399.51 62.36 L 401.85 60.83 L 404.18 42.10 L 406.52 52.53 L 408.85 56.24 L 411.18 55.74 L 413.52 28.73 L 415.85 45.54 L 418.19 44.44 L 420.52 23.38 L 422.86 50.13 L 425.19 48.12 L 427.53 40.36 L 429.86 45.38 L 432.20 45.48 L 434.53 46.58 L 436.86 54.41 L 439.20 51.20 L 441.53 55.81 L 443.87 61.83 L 446.20 70.72 L 448.54 65.84 L 450.87 72.86 L 453.21 68.85 L 455.54 68.55 L 457.87 67.98 L 460.21 63.50 L 462.54 66.38 L 464.88 52.80 L 467.21 64.30 L 469.55 72.19 L 471.88 71.73 L 474.22 73.30 L 476.55 65.51 L 478.89 103.63 L 481.22 100.55 L 483.55 102.29 L 485.89 122.35 L 488.22 110.31 L 490.56 110.98 L 492.89 100.68 L 495.23 113.86 L 497.56 112.99 L 499.90 119.01 L 502.23 124.36 L 504.56 131.71 L 506.90 112.29 L 509.23 98.54 L 511.57 87.17 L 513.90 93.93 L 516.24 96.60 L 518.57 100.95 L 520.91 99.28 L 523.24 96.67 L 525.57 103.89 L 527.91 108.31 L 530.24 107.97 L 532.58 99.31 L 534.91 100.75 L 537.25 110.05 L 539.58 109.98 L 541.92 106.43 L 544.25 105.63 L 546.59 108.71 L 548.92 105.23 L 551.25 103.63 L 553.59 110.65 L 555.92 102.29 L 558.26 103.63 L 560.59 108.94 L 562.93 104.29 L 565.26 101.28 L 567.60 104.56 L 569.93 105.06 L 572.26 105.30 L 574.60 108.98 L 576.93 108.64 L 579.27 109.38 L 581.60 103.76 L 583.94 94.26 L 586.27 93.59 L 588.61 96.94 L 590.94 98.14 L 593.28 101.62 L 595.61 103.29 L 597.94 94.30 L 600.28 92.36 L 602.61 86.91 L 604.95 84.43 L 607.28 88.14 L 609.62 85.57 L 611.95 80.25 L 614.29 80.39 L 616.62 76.21 L 618.95 70.69 L 621.29 72.19 L 623.62 73.23 L 625.96 71.16 L 628.29 69.85 L 630.63 59.99 L 632.96 42.77 L 635.30 43.44 L 637.63 48.79 L 639.97 43.44 L 642.30 32.74 L 644.63 49.79 L 646.97 33.67 L 649.30 40.43 L 651.64 46.45 L 653.97 43.44 L 656.31 44.67 L 658.64 37.42 L 660.98 39.53 L 663.31 38.92 L 665.64 60.19 L 667.98 47.62 L 670.31 40.43 L 672.65 35.08 L 674.98 40.76 L 677.32 37.42 L 679.65 38.76 L 681.99 24.18 L 684.32 22.97 L 686.66 31.80 L 688.99 26.38 L 691.32 28.12 L 693.66 19.36 L 695.99 18.46 L 698.33 11.87 L 700.66 10.54 L 703.00 10.00 L 705.33 10.00 L 707.67 13.34 L 710.00 12.01 L 710.00 189.22 L 707.67 188.22 L 705.33 175.31 L 703.00 175.85 L 700.66 174.91 L 698.33 178.26 L 695.99 189.29 L 693.66 194.88 L 691.32 206.61 L 688.99 195.58 L 686.66 196.58 L 684.32 202.30 L 681.99 203.80 L 679.65 207.62 L 677.32 207.18 L 674.98 206.28 L 672.65 206.95 L 670.31 207.95 L 667.98 209.96 L 665.64 213.30 L 663.31 212.10 L 660.98 208.32 L 658.64 206.75 L 656.31 204.71 L 653.97 206.28 L 651.64 210.29 L 649.30 213.97 L 646.97 217.05 L 644.63 218.65 L 642.30 214.30 L 639.97 219.42 L 637.63 221.33 L 635.30 224.00 L 632.96 222.66 L 630.63 218.22 L 628.29 214.64 L 625.96 211.63 L 623.62 204.61 L 621.29 203.60 L 618.95 208.15 L 616.62 204.04 L 614.29 194.61 L 611.95 191.87 L 609.62 187.22 L 607.28 183.98 L 604.95 184.14 L 602.61 184.68 L 600.28 183.88 L 597.94 179.83 L 595.61 182.20 L 593.28 176.55 L 590.94 174.21 L 588.61 176.52 L 586.27 181.87 L 583.94 175.18 L 581.60 178.53 L 579.27 184.54 L 576.93 176.52 L 574.60 185.55 L 572.26 192.90 L 569.93 194.21 L 567.60 188.42 L 565.26 188.56 L 562.93 193.57 L 560.59 195.64 L 558.26 192.90 L 555.92 199.26 L 553.59 194.68 L 551.25 198.59 L 548.92 186.05 L 546.59 189.09 L 544.25 195.51 L 541.92 202.47 L 539.58 212.63 L 537.25 203.94 L 534.91 201.80 L 532.58 206.61 L 530.24 194.24 L 527.91 203.27 L 525.57 198.05 L 523.24 203.40 L 520.91 204.27 L 518.57 202.27 L 516.24 201.70 L 513.90 209.29 L 511.57 208.08 L 509.23 209.96 L 506.90 211.29 L 504.56 207.95 L 502.23 207.28 L 499.90 205.28 L 497.56 222.66 L 495.23 217.31 L 492.89 214.10 L 490.56 206.95 L 488.22 194.17 L 485.89 190.56 L 483.55 188.56 L 481.22 186.55 L 478.89 199.92 L 476.55 188.66 L 474.22 190.46 L 471.88 192.97 L 469.55 192.57 L 467.21 181.33 L 464.88 175.52 L 462.54 170.17 L 460.21 172.17 L 457.87 174.58 L 455.54 172.37 L 453.21 174.65 L 450.87 169.16 L 448.54 174.71 L 446.20 186.55 L 443.87 186.55 L 441.53 188.22 L 439.20 196.18 L 436.86 189.63 L 434.53 219.99 L 432.20 199.89 L 429.86 201.06 L 427.53 201.00 L 425.19 194.58 L 422.86 190.56 L 420.52 186.58 L 418.19 173.84 L 415.85 170.37 L 413.52 169.70 L 411.18 171.17 L 408.85 172.37 L 406.52 173.84 L 404.18 171.50 L 401.85 170.50 L 399.51 170.93 L 397.18 173.17 L 394.84 168.23 L 392.51 163.28 L 390.17 164.48 L 387.84 164.82 L 385.51 166.49 L 383.17 162.81 L 380.84 170.83 L 378.50 175.18 L 376.17 177.59 L 373.83 188.82 L 371.50 190.56 L 369.16 192.87 L 366.83 196.58 L 364.49 184.78 L 362.16 193.91 L 359.83 193.24 L 357.49 192.44 L 355.16 190.83 L 352.82 188.32 L 350.49 188.89 L 348.15 187.55 L 345.82 191.23 L 343.48 188.29 L 341.15 189.56 L 338.82 184.54 L 336.48 184.21 L 334.15 185.38 L 331.81 190.56 L 329.48 186.92 L 327.14 189.46 L 324.81 195.54 L 322.47 205.94 L 320.14 199.92 L 317.80 195.78 L 315.47 193.64 L 313.14 193.47 L 310.80 201.26 L 308.47 210.22 L 306.13 210.63 L 303.80 207.95 L 301.46 205.61 L 299.13 209.69 L 296.79 204.00 L 294.46 203.30 L 292.13 197.78 L 289.79 197.25 L 287.46 195.91 L 285.12 197.92 L 282.79 203.60 L 280.45 200.03 L 278.12 196.72 L 275.78 197.08 L 273.45 195.71 L 271.11 197.12 L 268.78 199.26 L 266.45 196.58 L 264.11 208.62 L 261.78 203.44 L 259.44 201.00 L 257.11 207.95 L 254.77 201.56 L 252.44 202.60 L 250.10 191.90 L 247.77 202.03 L 245.44 200.59 L 243.10 193.57 L 240.77 191.83 L 238.43 194.84 L 236.10 193.24 L 233.76 193.57 L 231.43 190.96 L 229.09 196.72 L 226.76 197.28 L 224.43 198.99 L 222.09 194.31 L 219.76 194.41 L 217.42 194.58 L 215.09 193.20 L 212.75 192.64 L 210.42 198.86 L 208.08 199.92 L 205.75 193.91 L 203.41 193.77 L 201.08 193.37 L 198.75 194.34 L 196.41 195.01 L 194.08 195.24 L 191.74 195.51 L 189.41 196.15 L 187.07 195.64 L 184.74 197.99 L 182.40 190.09 L 180.07 194.04 L 177.74 189.36 L 175.40 188.56 L 173.07 186.92 L 170.73 184.68 L 168.40 187.39 L 166.06 195.78 L 163.73 196.85 L 161.39 202.60 L 159.06 195.18 L 156.72 190.53 L 154.39 187.29 L 152.06 193.07 L 149.72 210.96 L 147.39 212.46 L 145.05 188.89 L 142.72 189.29 L 140.38 196.75 L 138.05 198.12 L 135.71 196.35 L 133.38 188.12 L 131.05 185.41 L 128.71 188.89 L 126.38 193.24 L 124.04 193.37 L 121.71 194.74 L 119.37 198.82 L 117.04 200.76 L 114.70 199.42 L 112.37 197.62 L 110.03 195.21 L 107.70 194.07 L 105.37 195.41 L 103.03 195.58 L 100.70 195.24 L 98.36 195.24 L 96.03 198.59 L 93.69 197.58 L 91.36 195.51 L 89.02 198.86 L 86.69 199.16 L 84.36 200.93 L 82.02 204.20 L 79.69 215.31 L 77.35 195.91 L 75.02 195.04 L 72.68 194.58 L 70.35 194.78 L 68.01 192.97 L 65.68 191.77 L 63.34 191.00 L 61.01 190.63 L 58.68 187.35 L 56.34 184.68 L 54.01 181.20 L 51.67 183.77 L 49.34 182.87 L 47.00 181.57 L 44.67 178.39 L 42.33 178.93 L 40.00 178.19 Z" fill="rgba(231,76,60,0.06)" stroke="none"/><path d="M 40.00 53.47 L 42.33 50.13 L 44.67 55.48 L 47.00 50.79 L 49.34 50.13 L 51.67 66.17 L 54.01 64.17 L 56.34 66.17 L 58.68 84.90 L 61.01 87.24 L 63.34 81.22 L 65.68 98.44 L 68.01 107.64 L 70.35 106.97 L 72.68 110.98 L 75.02 101.95 L 77.35 114.99 L 79.69 117.00 L 82.02 119.67 L 84.36 112.99 L 86.69 98.94 L 89.02 118.34 L 91.36 123.02 L 93.69 117.67 L 96.03 122.35 L 98.36 125.02 L 100.70 132.38 L 103.03 138.73 L 105.37 141.58 L 107.70 140.41 L 110.03 144.42 L 112.37 145.92 L 114.70 143.25 L 117.04 144.08 L 119.37 139.07 L 121.71 147.43 L 124.04 140.57 L 126.38 135.06 L 128.71 146.42 L 131.05 148.43 L 133.38 155.95 L 135.71 135.56 L 138.05 144.75 L 140.38 140.41 L 142.72 117.33 L 145.05 145.09 L 147.39 147.09 L 149.72 145.76 L 152.06 146.42 L 154.39 149.77 L 156.72 152.44 L 159.06 154.28 L 161.39 155.12 L 163.73 156.46 L 166.06 160.47 L 168.40 142.25 L 170.73 157.79 L 173.07 151.78 L 175.40 149.77 L 177.74 146.42 L 180.07 141.08 L 182.40 137.73 L 184.74 119.67 L 187.07 134.39 L 189.41 133.72 L 191.74 132.38 L 194.08 133.05 L 196.41 131.88 L 198.75 137.73 L 201.08 141.08 L 203.41 147.09 L 205.75 147.09 L 208.08 155.29 L 210.42 155.12 L 212.75 158.46 L 215.09 163.14 L 217.42 163.81 L 219.76 166.49 L 222.09 167.16 L 224.43 166.32 L 226.76 163.81 L 229.09 167.83 L 231.43 170.50 L 233.76 167.83 L 236.10 165.15 L 238.43 167.83 L 240.77 172.51 L 243.10 171.84 L 245.44 156.62 L 247.77 159.97 L 250.10 157.79 L 252.44 160.64 L 254.77 162.14 L 257.11 158.46 L 259.44 158.46 L 261.78 156.62 L 264.11 155.79 L 266.45 146.76 L 268.78 144.42 L 271.11 136.39 L 273.45 138.40 L 275.78 139.74 L 278.12 143.08 L 280.45 121.68 L 282.79 127.70 L 285.12 125.69 L 287.46 129.04 L 289.79 136.39 L 292.13 133.05 L 294.46 136.39 L 296.79 132.72 L 299.13 138.40 L 301.46 127.20 L 303.80 127.70 L 306.13 120.34 L 308.47 123.85 L 310.80 127.70 L 313.14 123.02 L 315.47 121.68 L 317.80 115.66 L 320.14 113.32 L 322.47 110.65 L 324.81 117.00 L 327.14 120.34 L 329.48 124.36 L 331.81 117.67 L 334.15 122.35 L 336.48 125.02 L 338.82 126.36 L 341.15 123.02 L 343.48 118.34 L 345.82 111.65 L 348.15 125.36 L 350.49 128.37 L 352.82 128.70 L 355.16 132.38 L 357.49 134.05 L 359.83 131.04 L 362.16 138.40 L 364.49 139.74 L 366.83 146.42 L 369.16 142.91 L 371.50 144.42 L 373.83 142.41 L 376.17 139.07 L 378.50 141.08 L 380.84 130.38 L 383.17 119.67 L 385.51 113.32 L 387.84 125.69 L 390.17 117.00 L 392.51 102.96 L 394.84 107.64 L 397.18 98.94 L 399.51 83.56 L 401.85 78.88 L 404.18 76.88 L 406.52 83.56 L 408.85 86.24 L 411.18 80.22 L 413.52 75.37 L 415.85 74.87 L 418.19 74.20 L 420.52 71.19 L 422.86 76.21 L 425.19 82.23 L 427.53 85.57 L 429.86 90.25 L 432.20 92.26 L 434.53 90.25 L 436.86 86.91 L 439.20 94.26 L 441.53 94.93 L 443.87 99.61 L 446.20 100.28 L 448.54 102.96 L 450.87 106.30 L 453.21 106.97 L 455.54 104.96 L 457.87 104.29 L 460.21 108.47 L 462.54 110.98 L 464.88 111.32 L 467.21 115.66 L 469.55 117.00 L 471.88 121.68 L 474.22 119.01 L 476.55 119.67 L 478.89 130.38 L 481.22 136.39 L 483.55 131.71 L 485.89 135.06 L 488.22 138.40 L 490.56 145.76 L 492.89 148.43 L 495.23 155.79 L 497.56 151.78 L 499.90 142.08 L 502.23 143.75 L 504.56 152.44 L 506.90 143.92 L 509.23 144.59 L 511.57 140.41 L 513.90 138.40 L 516.24 143.58 L 518.57 138.40 L 520.91 130.38 L 523.24 131.04 L 525.57 124.86 L 527.91 128.70 L 530.24 130.38 L 532.58 129.71 L 534.91 135.56 L 537.25 129.04 L 539.58 135.06 L 541.92 132.38 L 544.25 133.05 L 546.59 125.02 L 548.92 127.70 L 551.25 129.71 L 553.59 132.38 L 555.92 135.73 L 558.26 139.07 L 560.59 138.40 L 562.93 135.06 L 565.26 131.38 L 567.60 132.21 L 569.93 124.36 L 572.26 121.01 L 574.60 113.32 L 576.93 117.67 L 579.27 119.67 L 581.60 117.00 L 583.94 121.68 L 586.27 110.98 L 588.61 129.37 L 590.94 123.69 L 593.28 121.68 L 595.61 118.34 L 597.94 124.36 L 600.28 119.01 L 602.61 123.02 L 604.95 113.49 L 607.28 110.31 L 609.62 120.34 L 611.95 119.84 L 614.29 122.52 L 616.62 122.85 L 618.95 112.15 L 621.29 119.67 L 623.62 117.67 L 625.96 118.00 L 628.29 122.68 L 630.63 121.35 L 632.96 120.34 L 635.30 120.34 L 637.63 119.67 L 639.97 123.69 L 642.30 123.69 L 644.63 135.06 L 646.97 129.71 L 649.30 131.71 L 651.64 129.04 L 653.97 126.36 L 656.31 121.68 L 658.64 124.52 L 660.98 123.85 L 663.31 121.01 L 665.64 119.01 L 667.98 116.33 L 670.31 112.99 L 672.65 109.64 L 674.98 109.64 L 677.32 113.66 L 679.65 112.99 L 681.99 114.66 L 684.32 117.67 L 686.66 106.30 L 688.99 105.63 L 691.32 100.95 L 693.66 106.30 L 695.99 104.96 L 698.33 104.96 L 700.66 102.96 L 703.00 91.92 L 705.33 75.54 L 707.67 62.16 L 710.00 56.81 L 710.00 167.16 L 707.67 165.82 L 705.33 162.47 L 703.00 162.31 L 700.66 164.48 L 698.33 163.14 L 695.99 162.47 L 693.66 159.13 L 691.32 163.48 L 688.99 152.78 L 686.66 162.47 L 684.32 157.63 L 681.99 156.46 L 679.65 162.47 L 677.32 166.49 L 674.98 169.16 L 672.65 169.16 L 670.31 181.20 L 667.98 180.53 L 665.64 179.19 L 663.31 182.37 L 660.98 186.55 L 658.64 191.06 L 656.31 188.56 L 653.97 200.59 L 651.64 199.26 L 649.30 192.23 L 646.97 202.60 L 644.63 204.27 L 642.30 196.58 L 639.97 205.94 L 637.63 201.26 L 635.30 195.24 L 632.96 194.91 L 630.63 193.91 L 628.29 192.23 L 625.96 184.54 L 623.62 186.55 L 621.29 191.23 L 618.95 174.51 L 616.62 192.57 L 614.29 187.22 L 611.95 177.19 L 609.62 168.49 L 607.28 166.49 L 604.95 161.81 L 602.61 155.12 L 600.28 161.81 L 597.94 159.80 L 595.61 161.14 L 593.28 154.12 L 590.94 159.13 L 588.61 164.48 L 586.27 162.47 L 583.94 168.49 L 581.60 162.47 L 579.27 160.80 L 576.93 163.81 L 574.60 155.79 L 572.26 151.78 L 569.93 167.83 L 567.60 160.47 L 565.26 165.82 L 562.93 165.15 L 560.59 167.83 L 558.26 166.49 L 555.92 163.81 L 553.59 170.33 L 551.25 178.69 L 548.92 178.86 L 546.59 178.53 L 544.25 180.53 L 541.92 176.52 L 539.58 175.18 L 537.25 175.18 L 534.91 175.85 L 532.58 182.04 L 530.24 182.54 L 527.91 181.87 L 525.57 182.54 L 523.24 184.38 L 520.91 189.89 L 518.57 182.54 L 516.24 179.19 L 513.90 189.56 L 511.57 177.86 L 509.23 179.19 L 506.90 175.85 L 504.56 174.51 L 502.23 185.88 L 499.90 181.20 L 497.56 202.60 L 495.23 190.23 L 492.89 185.88 L 490.56 176.52 L 488.22 170.50 L 485.89 173.17 L 483.55 168.49 L 481.22 165.15 L 478.89 167.16 L 476.55 168.66 L 474.22 168.49 L 471.88 179.86 L 469.55 178.53 L 467.21 170.50 L 464.88 162.47 L 462.54 157.96 L 460.21 157.96 L 457.87 162.81 L 455.54 163.14 L 453.21 161.14 L 450.87 161.14 L 448.54 161.30 L 446.20 162.47 L 443.87 158.46 L 441.53 155.79 L 439.20 153.78 L 436.86 151.11 L 434.53 147.09 L 432.20 151.78 L 429.86 152.95 L 427.53 147.76 L 425.19 149.10 L 422.86 148.43 L 420.52 149.27 L 418.19 155.12 L 415.85 153.78 L 413.52 146.59 L 411.18 141.74 L 408.85 146.42 L 406.52 155.79 L 404.18 146.42 L 401.85 145.09 L 399.51 149.77 L 397.18 145.76 L 394.84 150.44 L 392.51 151.78 L 390.17 157.13 L 387.84 157.79 L 385.51 156.79 L 383.17 155.79 L 380.84 163.81 L 378.50 167.16 L 376.17 174.51 L 373.83 173.84 L 371.50 170.50 L 369.16 167.16 L 366.83 169.16 L 364.49 168.49 L 362.16 173.17 L 359.83 172.67 L 357.49 162.81 L 355.16 165.82 L 352.82 158.46 L 350.49 157.79 L 348.15 164.48 L 345.82 164.48 L 343.48 166.49 L 341.15 163.14 L 338.82 164.48 L 336.48 165.15 L 334.15 162.81 L 331.81 163.31 L 329.48 163.31 L 327.14 163.81 L 324.81 165.15 L 322.47 165.82 L 320.14 171.84 L 317.80 171.84 L 315.47 170.50 L 313.14 174.35 L 310.80 175.18 L 308.47 177.86 L 306.13 178.53 L 303.80 182.54 L 301.46 177.19 L 299.13 189.89 L 296.79 183.88 L 294.46 191.40 L 292.13 190.56 L 289.79 185.21 L 287.46 188.56 L 285.12 191.23 L 282.79 192.57 L 280.45 192.57 L 278.12 189.22 L 275.78 182.54 L 273.45 183.88 L 271.11 179.86 L 268.78 180.53 L 266.45 181.20 L 264.11 181.20 L 261.78 183.88 L 259.44 181.20 L 257.11 179.19 L 254.77 181.87 L 252.44 183.21 L 250.10 179.86 L 247.77 185.38 L 245.44 180.36 L 243.10 179.53 L 240.77 183.88 L 238.43 184.54 L 236.10 188.22 L 233.76 188.56 L 231.43 189.22 L 229.09 186.55 L 226.76 187.22 L 224.43 187.22 L 222.09 185.88 L 219.76 183.88 L 217.42 182.20 L 215.09 179.19 L 212.75 179.86 L 210.42 180.03 L 208.08 180.36 L 205.75 181.87 L 203.41 183.88 L 201.08 187.22 L 198.75 188.56 L 196.41 187.89 L 194.08 187.55 L 191.74 181.87 L 189.41 171.17 L 187.07 173.84 L 184.74 178.53 L 182.40 178.53 L 180.07 178.53 L 177.74 174.51 L 175.40 175.18 L 173.07 177.86 L 170.73 179.19 L 168.40 182.04 L 166.06 180.53 L 163.73 173.84 L 161.39 181.87 L 159.06 185.21 L 156.72 185.21 L 154.39 179.53 L 152.06 182.20 L 149.72 181.87 L 147.39 174.51 L 145.05 170.50 L 142.72 167.83 L 140.38 166.49 L 138.05 173.84 L 135.71 169.16 L 133.38 165.99 L 131.05 165.82 L 128.71 167.16 L 126.38 166.49 L 124.04 165.82 L 121.71 170.00 L 119.37 167.83 L 117.04 167.16 L 114.70 172.00 L 112.37 166.49 L 110.03 167.83 L 107.70 169.83 L 105.37 167.16 L 103.03 167.16 L 100.70 167.83 L 98.36 162.47 L 96.03 169.16 L 93.69 177.86 L 91.36 177.86 L 89.02 176.52 L 86.69 180.20 L 84.36 190.56 L 82.02 189.89 L 79.69 191.06 L 77.35 189.89 L 75.02 167.83 L 72.68 174.68 L 70.35 170.50 L 68.01 174.51 L 65.68 173.51 L 63.34 179.53 L 61.01 176.52 L 58.68 175.18 L 56.34 173.17 L 54.01 173.17 L 51.67 171.00 L 49.34 174.51 L 47.00 171.34 L 44.67 171.84 L 42.33 169.83 L 40.00 167.83 Z" fill="rgba(230,126,34,0.22)" stroke="none"/><path d="M 40.00 128.37 L 42.33 126.36 L 44.67 127.70 L 47.00 132.38 L 49.34 135.06 L 51.67 136.39 L 54.01 133.72 L 56.34 134.39 L 58.68 141.08 L 61.01 147.76 L 63.34 143.75 L 65.68 134.39 L 68.01 133.05 L 70.35 127.37 L 72.68 134.39 L 75.02 137.06 L 77.35 134.39 L 79.69 143.75 L 82.02 135.06 L 84.36 139.40 L 86.69 143.75 L 89.02 147.76 L 91.36 143.75 L 93.69 152.44 L 96.03 135.73 L 98.36 141.74 L 100.70 148.43 L 103.03 147.76 L 105.37 148.10 L 107.70 149.77 L 110.03 154.78 L 112.37 155.79 L 114.70 157.13 L 117.04 154.45 L 119.37 155.45 L 121.71 160.47 L 124.04 155.12 L 126.38 154.45 L 128.71 158.46 L 131.05 163.14 L 133.38 161.14 L 135.71 153.78 L 138.05 161.81 L 140.38 162.47 L 142.72 161.81 L 145.05 161.81 L 147.39 169.83 L 149.72 162.47 L 152.06 168.16 L 154.39 167.16 L 156.72 173.17 L 159.06 172.17 L 161.39 172.51 L 163.73 170.50 L 166.06 165.82 L 168.40 168.49 L 170.73 165.82 L 173.07 165.82 L 175.40 168.49 L 177.74 167.83 L 180.07 168.49 L 182.40 167.16 L 184.74 165.15 L 187.07 163.81 L 189.41 164.48 L 191.74 165.15 L 194.08 167.83 L 196.41 171.17 L 198.75 169.83 L 201.08 171.84 L 203.41 171.17 L 205.75 174.51 L 208.08 173.84 L 210.42 175.52 L 212.75 173.84 L 215.09 171.84 L 217.42 177.86 L 219.76 175.85 L 222.09 172.51 L 224.43 171.50 L 226.76 171.17 L 229.09 173.84 L 231.43 176.52 L 233.76 171.50 L 236.10 173.17 L 238.43 181.20 L 240.77 179.53 L 243.10 176.52 L 245.44 171.84 L 247.77 169.50 L 250.10 173.84 L 252.44 173.17 L 254.77 166.49 L 257.11 165.15 L 259.44 165.82 L 261.78 166.49 L 264.11 170.50 L 266.45 171.17 L 268.78 173.17 L 271.11 176.52 L 273.45 178.19 L 275.78 175.85 L 278.12 175.18 L 280.45 171.84 L 282.79 168.49 L 285.12 169.83 L 287.46 163.81 L 289.79 160.47 L 292.13 152.44 L 294.46 153.78 L 296.79 151.78 L 299.13 151.11 L 301.46 151.44 L 303.80 156.46 L 306.13 148.43 L 308.47 147.09 L 310.80 146.42 L 313.14 149.10 L 315.47 151.11 L 317.80 147.09 L 320.14 149.77 L 322.47 151.11 L 324.81 151.44 L 327.14 149.77 L 329.48 148.77 L 331.81 153.78 L 334.15 151.11 L 336.48 145.76 L 338.82 148.43 L 341.15 150.44 L 343.48 155.79 L 345.82 150.44 L 348.15 151.11 L 350.49 153.78 L 352.82 151.78 L 355.16 150.10 L 357.49 150.44 L 359.83 151.11 L 362.16 153.11 L 364.49 154.45 L 366.83 163.14 L 369.16 161.14 L 371.50 158.46 L 373.83 161.14 L 376.17 161.81 L 378.50 163.81 L 380.84 155.12 L 383.17 139.07 L 385.51 129.04 L 387.84 133.72 L 390.17 131.71 L 392.51 145.76 L 394.84 131.71 L 397.18 141.74 L 399.51 133.38 L 401.85 133.72 L 404.18 124.36 L 406.52 123.02 L 408.85 127.70 L 411.18 120.34 L 413.52 117.00 L 415.85 117.00 L 418.19 118.34 L 420.52 112.99 L 422.86 110.31 L 425.19 110.31 L 427.53 117.67 L 429.86 113.66 L 432.20 110.98 L 434.53 112.65 L 436.86 102.29 L 439.20 102.96 L 441.53 105.63 L 443.87 110.31 L 446.20 120.34 L 448.54 116.33 L 450.87 109.64 L 453.21 111.65 L 455.54 117.67 L 457.87 117.00 L 460.21 121.01 L 462.54 123.02 L 464.88 121.01 L 467.21 125.69 L 469.55 131.71 L 471.88 135.73 L 474.22 127.03 L 476.55 127.70 L 478.89 148.43 L 481.22 145.76 L 483.55 156.46 L 485.89 155.12 L 488.22 152.44 L 490.56 156.46 L 492.89 175.85 L 495.23 173.84 L 497.56 169.16 L 499.90 167.16 L 502.23 169.83 L 504.56 169.16 L 506.90 167.83 L 509.23 167.16 L 511.57 161.14 L 513.90 164.48 L 516.24 165.15 L 518.57 166.49 L 520.91 168.49 L 523.24 172.51 L 525.57 168.49 L 527.91 167.16 L 530.24 165.82 L 532.58 167.16 L 534.91 161.81 L 537.25 165.82 L 539.58 155.79 L 541.92 156.46 L 544.25 163.14 L 546.59 159.80 L 548.92 164.48 L 551.25 166.49 L 553.59 157.79 L 555.92 159.80 L 558.26 153.78 L 560.59 151.78 L 562.93 146.42 L 565.26 143.08 L 567.60 146.42 L 569.93 139.74 L 572.26 145.76 L 574.60 137.73 L 576.93 130.38 L 579.27 146.42 L 581.60 147.76 L 583.94 141.74 L 586.27 146.42 L 588.61 147.09 L 590.94 147.09 L 593.28 147.76 L 595.61 140.41 L 597.94 149.10 L 600.28 149.43 L 602.61 151.78 L 604.95 152.44 L 607.28 155.12 L 609.62 159.13 L 611.95 157.79 L 614.29 153.78 L 616.62 167.83 L 618.95 152.44 L 621.29 155.79 L 623.62 148.43 L 625.96 146.76 L 628.29 159.13 L 630.63 157.46 L 632.96 172.51 L 635.30 167.16 L 637.63 161.14 L 639.97 166.49 L 642.30 164.48 L 644.63 158.46 L 646.97 161.81 L 649.30 161.81 L 651.64 155.79 L 653.97 149.10 L 656.31 151.78 L 658.64 151.44 L 660.98 140.41 L 663.31 137.06 L 665.64 150.77 L 667.98 149.43 L 670.31 137.73 L 672.65 137.06 L 674.98 135.73 L 677.32 143.08 L 679.65 139.07 L 681.99 127.37 L 684.32 122.68 L 686.66 124.69 L 688.99 123.02 L 691.32 125.02 L 693.66 117.67 L 695.99 119.67 L 698.33 110.98 L 700.66 118.34 L 703.00 124.36 L 705.33 127.70 L 707.67 128.37 L 710.00 128.37" fill="none" stroke="#2c3e50" stroke-width="2"/></svg>