<?xml version="1.0"?><svg viewBox="0 0 720 220" width="100%" height="220" xmlns="http://www.w3.org/2000/svg"><rect width="100%" height="100%" fill="#fff"/><line x1="36" y1="196" x2="708" y2="196" stroke="#eee"/><text x="28" y="199" text-anchor="end" font-size="10" fill="#666" font-family="system-ui,Arial">0</text><line x1="36" y1="106" x2="708" y2="106" stroke="#eee"/><text x="28" y="109" text-anchor="end" font-size="10" fill="#666" font-family="system-ui,Arial">10</text><line x1="36" y1="16" x2="708" y2="16" stroke="#eee"/><text x="28" y="19" text-anchor="end" font-size="10" fill="#666" font-family="system-ui,Arial">20</text><rect x="40.0" y="51.5" width="20.0" height="138.5" fill="#e67e22"/><rect x="40.0" y="46.7" width="20.0" height="4.8" fill="#8e44ad"/><rect x="68.0" y="71.9" width="20.0" height="118.1" fill="#e67e22"/><rect x="68.0" y="43.4" width="20.0" height="28.5" fill="#8e44ad"/><rect x="96.0" y="132.2" width="20.0" height="57.8" fill="#e67e22"/><rect x="96.0" y="117.1" width="20.0" height="15.1" fill="#8e44ad"/><rect x="124.0" y="107.8" width="20.0" height="82.2" fill="#e67e22"/><rect x="124.0" y="96.3" width="20.0" height="11.5" fill="#8e44ad"/><rect x="152.0" y="112.2" width="20.0" height="77.8" fill="#e67e22"/><rect x="152.0" y="110.2" width="20.0" height="1.9" fill="#8e44ad"/><rect x="180.0" y="129.0" width="20.0" height="61.0" fill="#e67e22"/><rect x="180.0" y="123.0" width="20.0" height="6.1" fill="#8e44ad"/><rect x="208.0" y="160.3" width="20.0" height="29.7" fill="#e67e22"/><rect x="208.0" y="153.1" width="20.0" height="7.2" fill="#8e44ad"/><rect x="236.0" y="173.1" width="20.0" height="16.9" fill="#e67e22"/><rect x="236.0" y="160.5" width="20.0" height="12.6" fill="#8e44ad"/><rect x="264.0" y="129.3" width="20.0" height="60.7" fill="#e67e22"/><rect x="264.0" y="112.0" width="20.0" height="17.3" fill="#8e44ad"/><rect x="292.0" y="118.4" width="20.0" height="71.6" fill="#e67e22"/><rect x="292.0" y="71.5" width="20.0" height="46.9" fill="#8e44ad"/><rect x="320.0" y="153.8" width="20.0" height="36.2" fill="#e67e22"/><rect x="320.0" y="125.1" width="20.0" height="28.7" fill="#8e44ad"/><rect x="348.0" y="149.6" width="20.0" height="40.4" fill="#e67e22"/><rect x="348.0" y="141.5" width="20.0" height="8.2" fill="#8e44ad"/><rect x="376.0" y="123.9" width="20.0" height="66.1" fill="#e67e22"/><rect x="376.0" y="114.9" width="20.0" height="8.9" fill="#8e44ad"/><rect x="404.0" y="95.7" width="20.0" height="94.3" fill="#e67e22"/><rect x="404.0" y="85.7" width="20.0" height="10.0" fill="#8e44ad"/><rect x="432.0" y="78.8" width="20.0" height="111.2" fill="#e67e22"/><rect x="432.0" y="77.4" width="20.0" height="1.3" fill="#8e44ad"/><rect x="460.0" y="106.1" width="20.0" height="83.9" fill="#e67e22"/><rect x="460.0" y="99.9" width="20.0" height="6.2" fill="#8e44ad"/><rect x="488.0" y="118.2" width="20.0" height="71.8" fill="#e67e22"/><rect x="488.0" y="88.8" width="20.0" height="29.3" fill="#8e44ad"/><rect x="516.0" y="105.7" width="20.0" height="84.3" fill="#e67e22"/><rect x="516.0" y="75.0" width="20.0" height="30.6" fill="#8e44ad"/><rect x="544.0" y="124.9" width="20.0" height="65.1" fill="#e67e22"/><rect x="544.0" y="96.5" width="20.0" height="28.3" fill="#8e44ad"/><rect x="572.0" y="128.6" width="20.0" height="61.4" fill="#e67e22"/><rect x="572.0" y="106.7" width="20.0" height="21.9" fill="#8e44ad"/><rect x="600.0" y="133.9" width="20.0" height="56.1" fill="#e67e22"/><rect x="600.0" y="105.3" width="20.0" height="28.6" fill="#8e44ad"/><rect x="628.0" y="92.4" width="20.0" height="97.6" fill="#e67e22"/><rect x="628.0" y="20.0" width="20.0" height="72.4" fill="#8e44ad"/><rect x="656.0" y="78.3" width="20.0" height="111.7" fill="#e67e22"/><rect x="656.0" y="10.1" width="20.0" height="68.2" fill="#8e44ad"/><rect x="684.0" y="41.4" width="20.0" height="148.6" fill="#e67e22"/><rect x="684.0" y="14.8" width="20.0" height="26.7" fill="#8e44ad"/><text x="36" y="214" font-size="10" fill="#666" font-family="system-ui,Arial">0</text><text x="120" y="214" font-size="10" fill="#666" font-family="system-ui,Arial">3</text><text x="204" y="214" font-size="10" fill="#666" font-family="system-ui,Arial">6</text><text x="288" y="214" font-size="10" fill="#666" font-family="system-ui,Arial">9</text><text x="372" y="214" font-size="10" fill="#666" font-family="system-ui,Arial">12</text><text x="456" y="214" font-size="10" fill="#666" font-family="system-ui,Arial">15</text><text x="540" y="214" font-size="10" fill="#666" font-family="system-ui,Arial">18</text><text x="624" y="214" font-size="10" fill="#666" font-family="system-ui,Arial">21</text><text x="710" y="16" text-anchor="end" font-size="10" fill="#666" font-family="system-ui,Arial">LBGI (purple) + HBGI (orange) by hour</text></svg>