<?xml version="1.0"?><svg viewBox="0 0 720 220" width="100%" height="220" xmlns="http://www.w3.org/2000/svg"><rect width="100%" height="100%" fill="#fff"/><line x1="36" y1="196" x2="708" y2="196" stroke="#eee"/><text x="28" y="199" text-anchor="end" font-size="10" fill="#666" font-family="system-ui,Arial">0</text><line x1="36" y1="136" x2="708" y2="136" stroke="#eee"/><text x="28" y="139" text-anchor="end" font-size="10" fill="#666" font-family="system-ui,Arial">10</text><line x1="36" y1="76" x2="708" y2="76" stroke="#eee"/><text x="28" y="79" text-anchor="end" font-size="10" fill="#666" font-family="system-ui,Arial">20</text><line x1="36" y1="16" x2="708" y2="16" stroke="#eee"/><text x="28" y="19" text-anchor="end" font-size="10" fill="#666" font-family="system-ui,Arial">30</text><rect x="40.0" y="115.9" width="20.0" height="74.1" fill="#e67e22"/><rect x="40.0" y="79.2" width="20.0" height="36.7" fill="#8e44ad"/><rect x="68.0" y="129.7" width="20.0" height="60.3" fill="#e67e22"/><rect x="68.0" y="129.3" width="20.0" height="0.5" fill="#8e44ad"/><rect x="96.0" y="147.8" width="20.0" height="42.2" fill="#e67e22"/><rect x="96.0" y="146.4" width="20.0" height="1.3" fill="#8e44ad"/><rect x="124.0" y="157.4" width="20.0" height="32.6" fill="#e67e22"/><rect x="124.0" y="147.0" width="20.0" height="10.4" fill="#8e44ad"/><rect x="152.0" y="166.1" width="20.0" height="23.9" fill="#e67e22"/><rect x="152.0" y="159.8" width="20.0" height="6.3" fill="#8e44ad"/><rect x="180.0" y="173.6" width="20.0" height="16.4" fill="#e67e22"/><rect x="180.0" y="170.3" width="20.0" height="3.3" fill="#8e44ad"/><rect x="208.0" y="184.3" width="20.0" height="5.7" fill="#e67e22"/><rect x="208.0" y="181.8" width="20.0" height="2.5" fill="#8e44ad"/><rect x="236.0" y="175.2" width="20.0" height="14.8" fill="#e67e22"/><rect x="236.0" y="168.0" width="20.0" height="7.2" fill="#8e44ad"/><rect x="264.0" y="104.2" width="20.0" height="85.8" fill="#e67e22"/><rect x="264.0" y="100.9" width="20.0" height="3.3" fill="#8e44ad"/><rect x="292.0" y="98.0" width="20.0" height="92.0" fill="#e67e22"/><rect x="292.0" y="93.3" width="20.0" height="4.8" fill="#8e44ad"/><rect x="320.0" y="126.4" width="20.0" height="63.6" fill="#e67e22"/><rect x="320.0" y="124.9" width="20.0" height="1.5" fill="#8e44ad"/><rect x="348.0" y="137.5" width="20.0" height="52.5" fill="#e67e22"/><rect x="348.0" y="127.2" width="20.0" height="10.3" fill="#8e44ad"/><rect x="376.0" y="99.4" width="20.0" height="90.6" fill="#e67e22"/><rect x="376.0" y="94.9" width="20.0" height="4.5" fill="#8e44ad"/><rect x="404.0" y="44.3" width="20.0" height="145.7" fill="#e67e22"/><rect x="404.0" y="13.4" width="20.0" height="30.8" fill="#8e44ad"/><rect x="432.0" y="87.1" width="20.0" height="102.9" fill="#e67e22"/><rect x="432.0" y="37.7" width="20.0" height="49.4" fill="#8e44ad"/><rect x="460.0" y="120.7" width="20.0" height="69.3" fill="#e67e22"/><rect x="460.0" y="98.0" width="20.0" height="22.7" fill="#8e44ad"/><rect x="488.0" y="132.1" width="20.0" height="57.9" fill="#e67e22"/><rect x="488.0" y="111.7" width="20.0" height="20.5" fill="#8e44ad"/><rect x="516.0" y="127.0" width="20.0" height="63.0" fill="#e67e22"/><rect x="516.0" y="69.7" width="20.0" height="57.3" fill="#8e44ad"/><rect x="544.0" y="127.5" width="20.0" height="62.5" fill="#e67e22"/><rect x="544.0" y="78.9" width="20.0" height="48.6" fill="#8e44ad"/><rect x="572.0" y="110.4" width="20.0" height="79.6" fill="#e67e22"/><rect x="572.0" y="86.8" width="20.0" height="23.6" fill="#8e44ad"/><rect x="600.0" y="106.9" width="20.0" height="83.1" fill="#e67e22"/><rect x="600.0" y="84.1" width="20.0" height="22.8" fill="#8e44ad"/><rect x="628.0" y="105.9" width="20.0" height="84.1" fill="#e67e22"/><rect x="628.0" y="100.4" width="20.0" height="5.4" fill="#8e44ad"/><rect x="656.0" y="111.4" width="20.0" height="78.6" fill="#e67e22"/><rect x="656.0" y="104.2" width="20.0" height="7.3" fill="#8e44ad"/><rect x="684.0" y="98.7" width="20.0" height="91.3" fill="#e67e22"/><rect x="684.0" y="40.0" width="20.0" height="58.6" fill="#8e44ad"/><text x="36" y="214" font-size="10" fill="#666" font-family="system-ui,Arial">0</text><text x="120" y="214" font-size="10" fill="#666" font-family="system-ui,Arial">3</text><text x="204" y="214" font-size="10" fill="#666" font-family="system-ui,Arial">6</text><text x="288" y="214" font-size="10" fill="#666" font-family="system-ui,Arial">9</text><text x="372" y="214" font-size="10" fill="#666" font-family="system-ui,Arial">12</text><text x="456" y="214" font-size="10" fill="#666" font-family="system-ui,Arial">15</text><text x="540" y="214" font-size="10" fill="#666" font-family="system-ui,Arial">18</text><text x="624" y="214" font-size="10" fill="#666" font-family="system-ui,Arial">21</text><text x="710" y="16" text-anchor="end" font-size="10" fill="#666" font-family="system-ui,Arial">LBGI (purple) + HBGI (orange) by hour</text></svg>