<?xml version="1.0"?><svg viewBox="0 0 720 220" width="100%" height="220" xmlns="http://www.w3.org/2000/svg"><rect width="100%" height="100%" fill="#fff"/><line x1="36" y1="196" x2="708" y2="196" stroke="#eee"/><text x="28" y="199" text-anchor="end" font-size="10" fill="#666" font-family="system-ui,Arial">0</text><line x1="36" y1="106" x2="708" y2="106" stroke="#eee"/><text x="28" y="109" text-anchor="end" font-size="10" fill="#666" font-family="system-ui,Arial">10</text><line x1="36" y1="16" x2="708" y2="16" stroke="#eee"/><text x="28" y="19" text-anchor="end" font-size="10" fill="#666" font-family="system-ui,Arial">20</text><rect x="40.0" y="50.9" width="20.0" height="139.1" fill="#e67e22"/><rect x="40.0" y="46.5" width="20.0" height="4.4" fill="#8e44ad"/><rect x="68.0" y="55.9" width="20.0" height="134.1" fill="#e67e22"/><rect x="68.0" y="32.4" width="20.0" height="23.5" fill="#8e44ad"/><rect x="96.0" y="66.2" width="20.0" height="123.8" fill="#e67e22"/><rect x="96.0" y="47.9" width="20.0" height="18.3" fill="#8e44ad"/><rect x="124.0" y="58.0" width="20.0" height="132.0" fill="#e67e22"/><rect x="124.0" y="35.4" width="20.0" height="22.6" fill="#8e44ad"/><rect x="152.0" y="38.8" width="20.0" height="151.2" fill="#e67e22"/><rect x="152.0" y="23.3" width="20.0" height="15.6" fill="#8e44ad"/><rect x="180.0" y="87.5" width="20.0" height="102.5" fill="#e67e22"/><rect x="180.0" y="71.5" width="20.0" height="16.0" fill="#8e44ad"/><rect x="208.0" y="142.5" width="20.0" height="47.5" fill="#e67e22"/><rect x="208.0" y="133.2" width="20.0" height="9.3" fill="#8e44ad"/><rect x="236.0" y="175.8" width="20.0" height="14.2" fill="#e67e22"/><rect x="236.0" y="156.0" width="20.0" height="19.8" fill="#8e44ad"/><rect x="264.0" y="124.1" width="20.0" height="65.9" fill="#e67e22"/><rect x="264.0" y="108.4" width="20.0" height="15.8" fill="#8e44ad"/><rect x="292.0" y="101.2" width="20.0" height="88.8" fill="#e67e22"/><rect x="292.0" y="92.7" width="20.0" height="8.4" fill="#8e44ad"/><rect x="320.0" y="125.3" width="20.0" height="64.7" fill="#e67e22"/><rect x="320.0" y="124.0" width="20.0" height="1.3" fill="#8e44ad"/><rect x="348.0" y="141.7" width="20.0" height="48.3" fill="#e67e22"/><rect x="348.0" y="128.2" width="20.0" height="13.5" fill="#8e44ad"/><rect x="376.0" y="136.8" width="20.0" height="53.2" fill="#e67e22"/><rect x="376.0" y="125.3" width="20.0" height="11.6" fill="#8e44ad"/><rect x="404.0" y="73.8" width="20.0" height="116.2" fill="#e67e22"/><rect x="404.0" y="25.4" width="20.0" height="48.4" fill="#8e44ad"/><rect x="432.0" y="73.5" width="20.0" height="116.5" fill="#e67e22"/><rect x="432.0" y="-26.0" width="20.0" height="99.5" fill="#8e44ad"/><rect x="460.0" y="94.4" width="20.0" height="95.6" fill="#e67e22"/><rect x="460.0" y="77.7" width="20.0" height="16.7" fill="#8e44ad"/><rect x="488.0" y="138.4" width="20.0" height="51.6" fill="#e67e22"/><rect x="488.0" y="71.3" width="20.0" height="67.1" fill="#8e44ad"/><rect x="516.0" y="131.5" width="20.0" height="58.5" fill="#e67e22"/><rect x="516.0" y="127.1" width="20.0" height="4.3" fill="#8e44ad"/><rect x="544.0" y="137.4" width="20.0" height="52.6" fill="#e67e22"/><rect x="544.0" y="133.6" width="20.0" height="3.8" fill="#8e44ad"/><rect x="572.0" y="134.7" width="20.0" height="55.3" fill="#e67e22"/><rect x="572.0" y="117.6" width="20.0" height="17.0" fill="#8e44ad"/><rect x="600.0" y="118.2" width="20.0" height="71.8" fill="#e67e22"/><rect x="600.0" y="83.3" width="20.0" height="34.9" fill="#8e44ad"/><rect x="628.0" y="99.8" width="20.0" height="90.2" fill="#e67e22"/><rect x="628.0" y="-1.2" width="20.0" height="100.9" fill="#8e44ad"/><rect x="656.0" y="97.3" width="20.0" height="92.7" fill="#e67e22"/><rect x="656.0" y="38.2" width="20.0" height="59.2" fill="#8e44ad"/><rect x="684.0" y="74.9" width="20.0" height="115.1" fill="#e67e22"/><rect x="684.0" y="55.7" width="20.0" height="19.2" fill="#8e44ad"/><text x="36" y="214" font-size="10" fill="#666" font-family="system-ui,Arial">0</text><text x="120" y="214" font-size="10" fill="#666" font-family="system-ui,Arial">3</text><text x="204" y="214" font-size="10" fill="#666" font-family="system-ui,Arial">6</text><text x="288" y="214" font-size="10" fill="#666" font-family="system-ui,Arial">9</text><text x="372" y="214" font-size="10" fill="#666" font-family="system-ui,Arial">12</text><text x="456" y="214" font-size="10" fill="#666" font-family="system-ui,Arial">15</text><text x="540" y="214" font-size="10" fill="#666" font-family="system-ui,Arial">18</text><text x="624" y="214" font-size="10" fill="#666" font-family="system-ui,Arial">21</text><text x="710" y="16" text-anchor="end" font-size="10" fill="#666" font-family="system-ui,Arial">LBGI (purple) + HBGI (orange) by hour</text></svg>