<?xml version="1.0"?><svg viewBox="0 0 720 220" width="100%" height="220" xmlns="http://www.w3.org/2000/svg"><rect width="100%" height="100%" fill="#fff"/><line x1="36" y1="196" x2="708" y2="196" stroke="#eee"/><text x="28" y="199" text-anchor="end" font-size="10" fill="#666" font-family="system-ui,Arial">0</text><line x1="36" y1="106" x2="708" y2="106" stroke="#eee"/><text x="28" y="109" text-anchor="end" font-size="10" fill="#666" font-family="system-ui,Arial">10</text><line x1="36" y1="16" x2="708" y2="16" stroke="#eee"/><text x="28" y="19" text-anchor="end" font-size="10" fill="#666" font-family="system-ui,Arial">20</text><rect x="40.0" y="30.4" width="20.0" height="159.6" fill="#e67e22"/><rect x="40.0" y="25.0" width="20.0" height="5.4" fill="#8e44ad"/><rect x="68.0" y="40.0" width="20.0" height="150.0" fill="#e67e22"/><rect x="68.0" y="10.2" width="20.0" height="29.7" fill="#8e44ad"/><rect x="96.0" y="100.3" width="20.0" height="89.7" fill="#e67e22"/><rect x="96.0" y="77.5" width="20.0" height="22.8" fill="#8e44ad"/><rect x="124.0" y="76.1" width="20.0" height="113.9" fill="#e67e22"/><rect x="124.0" y="42.3" width="20.0" height="33.8" fill="#8e44ad"/><rect x="152.0" y="66.2" width="20.0" height="123.8" fill="#e67e22"/><rect x="152.0" y="56.1" width="20.0" height="10.0" fill="#8e44ad"/><rect x="180.0" y="93.1" width="20.0" height="96.9" fill="#e67e22"/><rect x="180.0" y="79.1" width="20.0" height="13.9" fill="#8e44ad"/><rect x="208.0" y="129.6" width="20.0" height="60.4" fill="#e67e22"/><rect x="208.0" y="117.6" width="20.0" height="12.0" fill="#8e44ad"/><rect x="236.0" y="172.3" width="20.0" height="17.7" fill="#e67e22"/><rect x="236.0" y="154.5" width="20.0" height="17.8" fill="#8e44ad"/><rect x="264.0" y="111.3" width="20.0" height="78.7" fill="#e67e22"/><rect x="264.0" y="94.6" width="20.0" height="16.7" fill="#8e44ad"/><rect x="292.0" y="103.0" width="20.0" height="87.0" fill="#e67e22"/><rect x="292.0" y="60.5" width="20.0" height="42.6" fill="#8e44ad"/><rect x="320.0" y="125.7" width="20.0" height="64.3" fill="#e67e22"/><rect x="320.0" y="95.7" width="20.0" height="30.0" fill="#8e44ad"/><rect x="348.0" y="129.4" width="20.0" height="60.6" fill="#e67e22"/><rect x="348.0" y="117.9" width="20.0" height="11.5" fill="#8e44ad"/><rect x="376.0" y="112.6" width="20.0" height="77.4" fill="#e67e22"/><rect x="376.0" y="112.4" width="20.0" height="0.2" fill="#8e44ad"/><rect x="404.0" y="56.4" width="20.0" height="133.6" fill="#e67e22"/><rect x="404.0" y="30.9" width="20.0" height="25.6" fill="#8e44ad"/><rect x="432.0" y="79.5" width="20.0" height="110.5" fill="#e67e22"/><rect x="432.0" y="-3.7" width="20.0" height="83.1" fill="#8e44ad"/><rect x="460.0" y="114.4" width="20.0" height="75.6" fill="#e67e22"/><rect x="460.0" y="100.0" width="20.0" height="14.4" fill="#8e44ad"/><rect x="488.0" y="149.8" width="20.0" height="40.2" fill="#e67e22"/><rect x="488.0" y="88.8" width="20.0" height="61.0" fill="#8e44ad"/><rect x="516.0" y="132.5" width="20.0" height="57.5" fill="#e67e22"/><rect x="516.0" y="105.3" width="20.0" height="27.1" fill="#8e44ad"/><rect x="544.0" y="136.4" width="20.0" height="53.6" fill="#e67e22"/><rect x="544.0" y="113.9" width="20.0" height="22.6" fill="#8e44ad"/><rect x="572.0" y="129.9" width="20.0" height="60.1" fill="#e67e22"/><rect x="572.0" y="123.1" width="20.0" height="6.8" fill="#8e44ad"/><rect x="600.0" y="113.2" width="20.0" height="76.8" fill="#e67e22"/><rect x="600.0" y="83.3" width="20.0" height="30.0" fill="#8e44ad"/><rect x="628.0" y="82.4" width="20.0" height="107.6" fill="#e67e22"/><rect x="628.0" y="-13.1" width="20.0" height="95.4" fill="#8e44ad"/><rect x="656.0" y="83.2" width="20.0" height="106.8" fill="#e67e22"/><rect x="656.0" y="17.1" width="20.0" height="66.1" fill="#8e44ad"/><rect x="684.0" y="53.9" width="20.0" height="136.1" fill="#e67e22"/><rect x="684.0" y="29.2" width="20.0" height="24.7" fill="#8e44ad"/><text x="36" y="214" font-size="10" fill="#666" font-family="system-ui,Arial">0</text><text x="120" y="214" font-size="10" fill="#666" font-family="system-ui,Arial">3</text><text x="204" y="214" font-size="10" fill="#666" font-family="system-ui,Arial">6</text><text x="288" y="214" font-size="10" fill="#666" font-family="system-ui,Arial">9</text><text x="372" y="214" font-size="10" fill="#666" font-family="system-ui,Arial">12</text><text x="456" y="214" font-size="10" fill="#666" font-family="system-ui,Arial">15</text><text x="540" y="214" font-size="10" fill="#666" font-family="system-ui,Arial">18</text><text x="624" y="214" font-size="10" fill="#666" font-family="system-ui,Arial">21</text><text x="710" y="16" text-anchor="end" font-size="10" fill="#666" font-family="system-ui,Arial">LBGI (purple) + HBGI (orange) by hour</text></svg>