<?xml version="1.0"?><svg viewBox="0 0 720 220" width="100%" height="220" xmlns="http://www.w3.org/2000/svg"><rect width="100%" height="100%" fill="#fff"/><line x1="36" y1="196" x2="708" y2="196" stroke="#eee"/><text x="28" y="199" text-anchor="end" font-size="10" fill="#666" font-family="system-ui,Arial">0</text><line x1="36" y1="106" x2="708" y2="106" stroke="#eee"/><text x="28" y="109" text-anchor="end" font-size="10" fill="#666" font-family="system-ui,Arial">10</text><line x1="36" y1="16" x2="708" y2="16" stroke="#eee"/><text x="28" y="19" text-anchor="end" font-size="10" fill="#666" font-family="system-ui,Arial">20</text><rect x="40.0" y="61.1" width="20.0" height="128.9" fill="#e67e22"/><rect x="40.0" y="57.5" width="20.0" height="3.6" fill="#8e44ad"/><rect x="68.0" y="76.4" width="20.0" height="113.6" fill="#e67e22"/><rect x="68.0" y="59.9" width="20.0" height="16.6" fill="#8e44ad"/><rect x="96.0" y="132.6" width="20.0" height="57.4" fill="#e67e22"/><rect x="96.0" y="118.6" width="20.0" height="14.1" fill="#8e44ad"/><rect x="124.0" y="122.0" width="20.0" height="68.0" fill="#e67e22"/><rect x="124.0" y="110.9" width="20.0" height="11.1" fill="#8e44ad"/><rect x="152.0" y="129.6" width="20.0" height="60.4" fill="#e67e22"/><rect x="152.0" y="127.7" width="20.0" height="1.9" fill="#8e44ad"/><rect x="180.0" y="140.1" width="20.0" height="49.9" fill="#e67e22"/><rect x="180.0" y="134.1" width="20.0" height="6.0" fill="#8e44ad"/><rect x="208.0" y="161.7" width="20.0" height="28.3" fill="#e67e22"/><rect x="208.0" y="154.8" width="20.0" height="6.9" fill="#8e44ad"/><rect x="236.0" y="170.1" width="20.0" height="19.9" fill="#e67e22"/><rect x="236.0" y="166.8" width="20.0" height="3.3" fill="#8e44ad"/><rect x="264.0" y="106.6" width="20.0" height="83.4" fill="#e67e22"/><rect x="264.0" y="94.7" width="20.0" height="11.9" fill="#8e44ad"/><rect x="292.0" y="95.2" width="20.0" height="94.8" fill="#e67e22"/><rect x="292.0" y="46.8" width="20.0" height="48.5" fill="#8e44ad"/><rect x="320.0" y="138.6" width="20.0" height="51.4" fill="#e67e22"/><rect x="320.0" y="108.8" width="20.0" height="29.8" fill="#8e44ad"/><rect x="348.0" y="142.5" width="20.0" height="47.5" fill="#e67e22"/><rect x="348.0" y="134.3" width="20.0" height="8.2" fill="#8e44ad"/><rect x="376.0" y="121.0" width="20.0" height="69.0" fill="#e67e22"/><rect x="376.0" y="108.8" width="20.0" height="12.2" fill="#8e44ad"/><rect x="404.0" y="74.3" width="20.0" height="115.7" fill="#e67e22"/><rect x="404.0" y="57.6" width="20.0" height="16.7" fill="#8e44ad"/><rect x="432.0" y="41.3" width="20.0" height="148.7" fill="#e67e22"/><rect x="432.0" y="39.9" width="20.0" height="1.3" fill="#8e44ad"/><rect x="460.0" y="61.4" width="20.0" height="128.6" fill="#e67e22"/><rect x="460.0" y="54.6" width="20.0" height="6.8" fill="#8e44ad"/><rect x="488.0" y="105.3" width="20.0" height="84.7" fill="#e67e22"/><rect x="488.0" y="73.1" width="20.0" height="32.2" fill="#8e44ad"/><rect x="516.0" y="107.5" width="20.0" height="82.5" fill="#e67e22"/><rect x="516.0" y="75.7" width="20.0" height="31.8" fill="#8e44ad"/><rect x="544.0" y="135.2" width="20.0" height="54.8" fill="#e67e22"/><rect x="544.0" y="108.9" width="20.0" height="26.3" fill="#8e44ad"/><rect x="572.0" y="125.6" width="20.0" height="64.4" fill="#e67e22"/><rect x="572.0" y="103.7" width="20.0" height="21.9" fill="#8e44ad"/><rect x="600.0" y="109.2" width="20.0" height="80.8" fill="#e67e22"/><rect x="600.0" y="88.4" width="20.0" height="20.8" fill="#8e44ad"/><rect x="628.0" y="68.7" width="20.0" height="121.3" fill="#e67e22"/><rect x="628.0" y="24.7" width="20.0" height="44.0" fill="#8e44ad"/><rect x="656.0" y="86.0" width="20.0" height="104.0" fill="#e67e22"/><rect x="656.0" y="43.8" width="20.0" height="42.3" fill="#8e44ad"/><rect x="684.0" y="56.9" width="20.0" height="133.1" fill="#e67e22"/><rect x="684.0" y="53.7" width="20.0" height="3.2" fill="#8e44ad"/><text x="36" y="214" font-size="10" fill="#666" font-family="system-ui,Arial">0</text><text x="120" y="214" font-size="10" fill="#666" font-family="system-ui,Arial">3</text><text x="204" y="214" font-size="10" fill="#666" font-family="system-ui,Arial">6</text><text x="288" y="214" font-size="10" fill="#666" font-family="system-ui,Arial">9</text><text x="372" y="214" font-size="10" fill="#666" font-family="system-ui,Arial">12</text><text x="456" y="214" font-size="10" fill="#666" font-family="system-ui,Arial">15</text><text x="540" y="214" font-size="10" fill="#666" font-family="system-ui,Arial">18</text><text x="624" y="214" font-size="10" fill="#666" font-family="system-ui,Arial">21</text><text x="710" y="16" text-anchor="end" font-size="10" fill="#666" font-family="system-ui,Arial">LBGI (purple) + HBGI (orange) by hour</text></svg>