<?xml version="1.0"?><svg viewBox="0 0 720 220" width="100%" height="220" xmlns="http://www.w3.org/2000/svg"><rect width="100%" height="100%" fill="#fff"/><line x1="36" y1="196" x2="708" y2="196" stroke="#eee"/><text x="28" y="199" text-anchor="end" font-size="10" fill="#666" font-family="system-ui,Arial">0</text><line x1="36" y1="136" x2="708" y2="136" stroke="#eee"/><text x="28" y="139" text-anchor="end" font-size="10" fill="#666" font-family="system-ui,Arial">10</text><line x1="36" y1="76" x2="708" y2="76" stroke="#eee"/><text x="28" y="79" text-anchor="end" font-size="10" fill="#666" font-family="system-ui,Arial">20</text><line x1="36" y1="16" x2="708" y2="16" stroke="#eee"/><text x="28" y="19" text-anchor="end" font-size="10" fill="#666" font-family="system-ui,Arial">30</text><rect x="40.0" y="96.7" width="20.0" height="93.3" fill="#e67e22"/><rect x="40.0" y="71.8" width="20.0" height="24.9" fill="#8e44ad"/><rect x="68.0" y="100.6" width="20.0" height="89.4" fill="#e67e22"/><rect x="68.0" y="90.9" width="20.0" height="9.8" fill="#8e44ad"/><rect x="96.0" y="88.3" width="20.0" height="101.7" fill="#e67e22"/><rect x="96.0" y="74.4" width="20.0" height="13.9" fill="#8e44ad"/><rect x="124.0" y="71.0" width="20.0" height="119.0" fill="#e67e22"/><rect x="124.0" y="57.8" width="20.0" height="13.2" fill="#8e44ad"/><rect x="152.0" y="81.3" width="20.0" height="108.7" fill="#e67e22"/><rect x="152.0" y="71.8" width="20.0" height="9.5" fill="#8e44ad"/><rect x="180.0" y="122.4" width="20.0" height="67.6" fill="#e67e22"/><rect x="180.0" y="112.9" width="20.0" height="9.5" fill="#8e44ad"/><rect x="208.0" y="156.2" width="20.0" height="33.8" fill="#e67e22"/><rect x="208.0" y="150.2" width="20.0" height="6.1" fill="#8e44ad"/><rect x="236.0" y="175.2" width="20.0" height="14.8" fill="#e67e22"/><rect x="236.0" y="162.7" width="20.0" height="12.5" fill="#8e44ad"/><rect x="264.0" y="122.9" width="20.0" height="67.1" fill="#e67e22"/><rect x="264.0" y="120.5" width="20.0" height="2.4" fill="#8e44ad"/><rect x="292.0" y="102.0" width="20.0" height="88.0" fill="#e67e22"/><rect x="292.0" y="99.3" width="20.0" height="2.8" fill="#8e44ad"/><rect x="320.0" y="124.4" width="20.0" height="65.6" fill="#e67e22"/><rect x="320.0" y="123.6" width="20.0" height="0.8" fill="#8e44ad"/><rect x="348.0" y="137.4" width="20.0" height="52.6" fill="#e67e22"/><rect x="348.0" y="125.5" width="20.0" height="12.0" fill="#8e44ad"/><rect x="376.0" y="116.0" width="20.0" height="74.0" fill="#e67e22"/><rect x="376.0" y="107.7" width="20.0" height="8.3" fill="#8e44ad"/><rect x="404.0" y="61.8" width="20.0" height="128.2" fill="#e67e22"/><rect x="404.0" y="29.5" width="20.0" height="32.3" fill="#8e44ad"/><rect x="432.0" y="79.0" width="20.0" height="111.0" fill="#e67e22"/><rect x="432.0" y="12.7" width="20.0" height="66.3" fill="#8e44ad"/><rect x="460.0" y="107.2" width="20.0" height="82.8" fill="#e67e22"/><rect x="460.0" y="95.2" width="20.0" height="12.1" fill="#8e44ad"/><rect x="488.0" y="142.1" width="20.0" height="47.9" fill="#e67e22"/><rect x="488.0" y="91.1" width="20.0" height="51.0" fill="#8e44ad"/><rect x="516.0" y="152.6" width="20.0" height="37.4" fill="#e67e22"/><rect x="516.0" y="122.4" width="20.0" height="30.2" fill="#8e44ad"/><rect x="544.0" y="157.2" width="20.0" height="32.8" fill="#e67e22"/><rect x="544.0" y="133.4" width="20.0" height="23.7" fill="#8e44ad"/><rect x="572.0" y="126.8" width="20.0" height="63.2" fill="#e67e22"/><rect x="572.0" y="87.9" width="20.0" height="38.9" fill="#8e44ad"/><rect x="600.0" y="126.9" width="20.0" height="63.1" fill="#e67e22"/><rect x="600.0" y="102.8" width="20.0" height="24.1" fill="#8e44ad"/><rect x="628.0" y="123.5" width="20.0" height="66.5" fill="#e67e22"/><rect x="628.0" y="70.8" width="20.0" height="52.7" fill="#8e44ad"/><rect x="656.0" y="121.0" width="20.0" height="69.0" fill="#e67e22"/><rect x="656.0" y="114.5" width="20.0" height="6.6" fill="#8e44ad"/><rect x="684.0" y="116.4" width="20.0" height="73.6" fill="#e67e22"/><rect x="684.0" y="56.0" width="20.0" height="60.4" fill="#8e44ad"/><text x="36" y="214" font-size="10" fill="#666" font-family="system-ui,Arial">0</text><text x="120" y="214" font-size="10" fill="#666" font-family="system-ui,Arial">3</text><text x="204" y="214" font-size="10" fill="#666" font-family="system-ui,Arial">6</text><text x="288" y="214" font-size="10" fill="#666" font-family="system-ui,Arial">9</text><text x="372" y="214" font-size="10" fill="#666" font-family="system-ui,Arial">12</text><text x="456" y="214" font-size="10" fill="#666" font-family="system-ui,Arial">15</text><text x="540" y="214" font-size="10" fill="#666" font-family="system-ui,Arial">18</text><text x="624" y="214" font-size="10" fill="#666" font-family="system-ui,Arial">21</text><text x="710" y="16" text-anchor="end" font-size="10" fill="#666" font-family="system-ui,Arial">LBGI (purple) + HBGI (orange) by hour</text></svg>