<?xml version="1.0"?><svg viewBox="0 0 720 220" width="100%" height="220" xmlns="http://www.w3.org/2000/svg"><rect width="100%" height="100%" fill="#fff"/><line x1="36" y1="196" x2="708" y2="196" stroke="#eee"/><text x="28" y="199" text-anchor="end" font-size="10" fill="#666" font-family="system-ui,Arial">0</text><line x1="36" y1="106" x2="708" y2="106" stroke="#eee"/><text x="28" y="109" text-anchor="end" font-size="10" fill="#666" font-family="system-ui,Arial">10</text><line x1="36" y1="16" x2="708" y2="16" stroke="#eee"/><text x="28" y="19" text-anchor="end" font-size="10" fill="#666" font-family="system-ui,Arial">20</text><rect x="40.0" y="30.5" width="20.0" height="159.5" fill="#e67e22"/><rect x="40.0" y="26.3" width="20.0" height="4.2" fill="#8e44ad"/><rect x="68.0" y="42.1" width="20.0" height="147.9" fill="#e67e22"/><rect x="68.0" y="17.4" width="20.0" height="24.8" fill="#8e44ad"/><rect x="96.0" y="101.5" width="20.0" height="88.5" fill="#e67e22"/><rect x="96.0" y="85.3" width="20.0" height="16.3" fill="#8e44ad"/><rect x="124.0" y="67.0" width="20.0" height="123.0" fill="#e67e22"/><rect x="124.0" y="41.5" width="20.0" height="25.5" fill="#8e44ad"/><rect x="152.0" y="46.2" width="20.0" height="143.8" fill="#e67e22"/><rect x="152.0" y="29.8" width="20.0" height="16.4" fill="#8e44ad"/><rect x="180.0" y="69.0" width="20.0" height="121.0" fill="#e67e22"/><rect x="180.0" y="52.7" width="20.0" height="16.3" fill="#8e44ad"/><rect x="208.0" y="121.1" width="20.0" height="68.9" fill="#e67e22"/><rect x="208.0" y="110.2" width="20.0" height="10.8" fill="#8e44ad"/><rect x="236.0" y="172.3" width="20.0" height="17.7" fill="#e67e22"/><rect x="236.0" y="154.8" width="20.0" height="17.5" fill="#8e44ad"/><rect x="264.0" y="119.7" width="20.0" height="70.3" fill="#e67e22"/><rect x="264.0" y="104.9" width="20.0" height="14.8" fill="#8e44ad"/><rect x="292.0" y="105.4" width="20.0" height="84.6" fill="#e67e22"/><rect x="292.0" y="64.8" width="20.0" height="40.6" fill="#8e44ad"/><rect x="320.0" y="125.6" width="20.0" height="64.4" fill="#e67e22"/><rect x="320.0" y="122.3" width="20.0" height="3.3" fill="#8e44ad"/><rect x="348.0" y="130.9" width="20.0" height="59.1" fill="#e67e22"/><rect x="348.0" y="115.3" width="20.0" height="15.6" fill="#8e44ad"/><rect x="376.0" y="135.1" width="20.0" height="54.9" fill="#e67e22"/><rect x="376.0" y="123.8" width="20.0" height="11.3" fill="#8e44ad"/><rect x="404.0" y="84.2" width="20.0" height="105.8" fill="#e67e22"/><rect x="404.0" y="58.7" width="20.0" height="25.6" fill="#8e44ad"/><rect x="432.0" y="93.1" width="20.0" height="96.9" fill="#e67e22"/><rect x="432.0" y="10.0" width="20.0" height="83.1" fill="#8e44ad"/><rect x="460.0" y="113.4" width="20.0" height="76.6" fill="#e67e22"/><rect x="460.0" y="99.0" width="20.0" height="14.4" fill="#8e44ad"/><rect x="488.0" y="143.4" width="20.0" height="46.6" fill="#e67e22"/><rect x="488.0" y="81.1" width="20.0" height="62.3" fill="#8e44ad"/><rect x="516.0" y="132.4" width="20.0" height="57.6" fill="#e67e22"/><rect x="516.0" y="108.9" width="20.0" height="23.4" fill="#8e44ad"/><rect x="544.0" y="138.2" width="20.0" height="51.8" fill="#e67e22"/><rect x="544.0" y="131.7" width="20.0" height="6.6" fill="#8e44ad"/><rect x="572.0" y="126.8" width="20.0" height="63.2" fill="#e67e22"/><rect x="572.0" y="109.7" width="20.0" height="17.0" fill="#8e44ad"/><rect x="600.0" y="112.1" width="20.0" height="77.9" fill="#e67e22"/><rect x="600.0" y="77.2" width="20.0" height="34.9" fill="#8e44ad"/><rect x="628.0" y="62.8" width="20.0" height="127.2" fill="#e67e22"/><rect x="628.0" y="-27.2" width="20.0" height="90.0" fill="#8e44ad"/><rect x="656.0" y="74.5" width="20.0" height="115.5" fill="#e67e22"/><rect x="656.0" y="20.0" width="20.0" height="54.5" fill="#8e44ad"/><rect x="684.0" y="53.8" width="20.0" height="136.2" fill="#e67e22"/><rect x="684.0" y="33.6" width="20.0" height="20.2" fill="#8e44ad"/><text x="36" y="214" font-size="10" fill="#666" font-family="system-ui,Arial">0</text><text x="120" y="214" font-size="10" fill="#666" font-family="system-ui,Arial">3</text><text x="204" y="214" font-size="10" fill="#666" font-family="system-ui,Arial">6</text><text x="288" y="214" font-size="10" fill="#666" font-family="system-ui,Arial">9</text><text x="372" y="214" font-size="10" fill="#666" font-family="system-ui,Arial">12</text><text x="456" y="214" font-size="10" fill="#666" font-family="system-ui,Arial">15</text><text x="540" y="214" font-size="10" fill="#666" font-family="system-ui,Arial">18</text><text x="624" y="214" font-size="10" fill="#666" font-family="system-ui,Arial">21</text><text x="710" y="16" text-anchor="end" font-size="10" fill="#666" font-family="system-ui,Arial">LBGI (purple) + HBGI (orange) by hour</text></svg>