<?xml version="1.0"?><svg viewBox="0 0 720 220" width="100%" height="220" xmlns="http://www.w3.org/2000/svg"><rect width="100%" height="100%" fill="#fff"/><line x1="36" y1="196" x2="708" y2="196" stroke="#eee"/><text x="28" y="199" text-anchor="end" font-size="10" fill="#666" font-family="system-ui,Arial">0</text><line x1="36" y1="106" x2="708" y2="106" stroke="#eee"/><text x="28" y="109" text-anchor="end" font-size="10" fill="#666" font-family="system-ui,Arial">10</text><line x1="36" y1="16" x2="708" y2="16" stroke="#eee"/><text x="28" y="19" text-anchor="end" font-size="10" fill="#666" font-family="system-ui,Arial">20</text><rect x="40.0" y="44.9" width="20.0" height="145.1" fill="#e67e22"/><rect x="40.0" y="32.9" width="20.0" height="12.0" fill="#8e44ad"/><rect x="68.0" y="62.0" width="20.0" height="128.0" fill="#e67e22"/><rect x="68.0" y="44.8" width="20.0" height="17.2" fill="#8e44ad"/><rect x="96.0" y="113.1" width="20.0" height="76.9" fill="#e67e22"/><rect x="96.0" y="97.1" width="20.0" height="16.1" fill="#8e44ad"/><rect x="124.0" y="101.7" width="20.0" height="88.3" fill="#e67e22"/><rect x="124.0" y="93.7" width="20.0" height="8.0" fill="#8e44ad"/><rect x="152.0" y="123.5" width="20.0" height="66.5" fill="#e67e22"/><rect x="152.0" y="119.6" width="20.0" height="3.9" fill="#8e44ad"/><rect x="180.0" y="139.1" width="20.0" height="50.9" fill="#e67e22"/><rect x="180.0" y="131.4" width="20.0" height="7.7" fill="#8e44ad"/><rect x="208.0" y="156.7" width="20.0" height="33.3" fill="#e67e22"/><rect x="208.0" y="150.2" width="20.0" height="6.6" fill="#8e44ad"/><rect x="236.0" y="168.0" width="20.0" height="22.0" fill="#e67e22"/><rect x="236.0" y="160.0" width="20.0" height="8.0" fill="#8e44ad"/><rect x="264.0" y="101.0" width="20.0" height="89.0" fill="#e67e22"/><rect x="264.0" y="79.1" width="20.0" height="21.8" fill="#8e44ad"/><rect x="292.0" y="100.0" width="20.0" height="90.0" fill="#e67e22"/><rect x="292.0" y="46.0" width="20.0" height="54.1" fill="#8e44ad"/><rect x="320.0" y="137.5" width="20.0" height="52.5" fill="#e67e22"/><rect x="320.0" y="96.1" width="20.0" height="41.5" fill="#8e44ad"/><rect x="348.0" y="143.0" width="20.0" height="47.0" fill="#e67e22"/><rect x="348.0" y="113.4" width="20.0" height="29.6" fill="#8e44ad"/><rect x="376.0" y="103.0" width="20.0" height="87.0" fill="#e67e22"/><rect x="376.0" y="84.3" width="20.0" height="18.6" fill="#8e44ad"/><rect x="404.0" y="63.1" width="20.0" height="126.9" fill="#e67e22"/><rect x="404.0" y="46.4" width="20.0" height="16.7" fill="#8e44ad"/><rect x="432.0" y="31.3" width="20.0" height="158.7" fill="#e67e22"/><rect x="432.0" y="29.1" width="20.0" height="2.2" fill="#8e44ad"/><rect x="460.0" y="55.4" width="20.0" height="134.6" fill="#e67e22"/><rect x="460.0" y="43.8" width="20.0" height="11.6" fill="#8e44ad"/><rect x="488.0" y="102.8" width="20.0" height="87.2" fill="#e67e22"/><rect x="488.0" y="61.9" width="20.0" height="40.9" fill="#8e44ad"/><rect x="516.0" y="104.2" width="20.0" height="85.8" fill="#e67e22"/><rect x="516.0" y="68.6" width="20.0" height="35.6" fill="#8e44ad"/><rect x="544.0" y="136.4" width="20.0" height="53.6" fill="#e67e22"/><rect x="544.0" y="100.3" width="20.0" height="36.1" fill="#8e44ad"/><rect x="572.0" y="122.6" width="20.0" height="67.4" fill="#e67e22"/><rect x="572.0" y="21.7" width="20.0" height="100.9" fill="#8e44ad"/><rect x="600.0" y="114.9" width="20.0" height="75.1" fill="#e67e22"/><rect x="600.0" y="89.3" width="20.0" height="25.6" fill="#8e44ad"/><rect x="628.0" y="69.9" width="20.0" height="120.1" fill="#e67e22"/><rect x="628.0" y="34.2" width="20.0" height="35.8" fill="#8e44ad"/><rect x="656.0" y="71.1" width="20.0" height="118.9" fill="#e67e22"/><rect x="656.0" y="35.6" width="20.0" height="35.4" fill="#8e44ad"/><rect x="684.0" y="45.3" width="20.0" height="144.7" fill="#e67e22"/><rect x="684.0" y="-4.1" width="20.0" height="49.4" fill="#8e44ad"/><text x="36" y="214" font-size="10" fill="#666" font-family="system-ui,Arial">0</text><text x="120" y="214" font-size="10" fill="#666" font-family="system-ui,Arial">3</text><text x="204" y="214" font-size="10" fill="#666" font-family="system-ui,Arial">6</text><text x="288" y="214" font-size="10" fill="#666" font-family="system-ui,Arial">9</text><text x="372" y="214" font-size="10" fill="#666" font-family="system-ui,Arial">12</text><text x="456" y="214" font-size="10" fill="#666" font-family="system-ui,Arial">15</text><text x="540" y="214" font-size="10" fill="#666" font-family="system-ui,Arial">18</text><text x="624" y="214" font-size="10" fill="#666" font-family="system-ui,Arial">21</text><text x="710" y="16" text-anchor="end" font-size="10" fill="#666" font-family="system-ui,Arial">LBGI (purple) + HBGI (orange) by hour</text></svg>