<?xml version="1.0"?><svg viewBox="0 0 720 220" width="100%" height="220" xmlns="http://www.w3.org/2000/svg"><rect width="100%" height="100%" fill="#fff"/><line x1="36" y1="196" x2="708" y2="196" stroke="#eee"/><text x="28" y="199" text-anchor="end" font-size="10" fill="#666" font-family="system-ui,Arial">0</text><line x1="36" y1="106" x2="708" y2="106" stroke="#eee"/><text x="28" y="109" text-anchor="end" font-size="10" fill="#666" font-family="system-ui,Arial">10</text><line x1="36" y1="16" x2="708" y2="16" stroke="#eee"/><text x="28" y="19" text-anchor="end" font-size="10" fill="#666" font-family="system-ui,Arial">20</text><rect x="40.0" y="50.7" width="20.0" height="139.3" fill="#e67e22"/><rect x="40.0" y="45.9" width="20.0" height="4.8" fill="#8e44ad"/><rect x="68.0" y="77.5" width="20.0" height="112.5" fill="#e67e22"/><rect x="68.0" y="61.8" width="20.0" height="15.7" fill="#8e44ad"/><rect x="96.0" y="131.0" width="20.0" height="59.0" fill="#e67e22"/><rect x="96.0" y="115.9" width="20.0" height="15.1" fill="#8e44ad"/><rect x="124.0" y="109.8" width="20.0" height="80.2" fill="#e67e22"/><rect x="124.0" y="98.3" width="20.0" height="11.5" fill="#8e44ad"/><rect x="152.0" y="113.3" width="20.0" height="76.7" fill="#e67e22"/><rect x="152.0" y="111.4" width="20.0" height="1.9" fill="#8e44ad"/><rect x="180.0" y="130.2" width="20.0" height="59.8" fill="#e67e22"/><rect x="180.0" y="124.2" width="20.0" height="6.0" fill="#8e44ad"/><rect x="208.0" y="161.2" width="20.0" height="28.8" fill="#e67e22"/><rect x="208.0" y="154.0" width="20.0" height="7.2" fill="#8e44ad"/><rect x="236.0" y="169.0" width="20.0" height="21.0" fill="#e67e22"/><rect x="236.0" y="156.4" width="20.0" height="12.6" fill="#8e44ad"/><rect x="264.0" y="102.2" width="20.0" height="87.8" fill="#e67e22"/><rect x="264.0" y="84.7" width="20.0" height="17.6" fill="#8e44ad"/><rect x="292.0" y="95.5" width="20.0" height="94.5" fill="#e67e22"/><rect x="292.0" y="48.6" width="20.0" height="46.9" fill="#8e44ad"/><rect x="320.0" y="142.3" width="20.0" height="47.7" fill="#e67e22"/><rect x="320.0" y="113.6" width="20.0" height="28.7" fill="#8e44ad"/><rect x="348.0" y="145.9" width="20.0" height="44.1" fill="#e67e22"/><rect x="348.0" y="137.7" width="20.0" height="8.2" fill="#8e44ad"/><rect x="376.0" y="123.9" width="20.0" height="66.1" fill="#e67e22"/><rect x="376.0" y="111.7" width="20.0" height="12.2" fill="#8e44ad"/><rect x="404.0" y="92.4" width="20.0" height="97.6" fill="#e67e22"/><rect x="404.0" y="75.7" width="20.0" height="16.7" fill="#8e44ad"/><rect x="432.0" y="69.3" width="20.0" height="120.7" fill="#e67e22"/><rect x="432.0" y="67.9" width="20.0" height="1.3" fill="#8e44ad"/><rect x="460.0" y="92.2" width="20.0" height="97.8" fill="#e67e22"/><rect x="460.0" y="86.0" width="20.0" height="6.2" fill="#8e44ad"/><rect x="488.0" y="117.9" width="20.0" height="72.1" fill="#e67e22"/><rect x="488.0" y="88.0" width="20.0" height="29.9" fill="#8e44ad"/><rect x="516.0" y="111.3" width="20.0" height="78.7" fill="#e67e22"/><rect x="516.0" y="81.4" width="20.0" height="29.8" fill="#8e44ad"/><rect x="544.0" y="131.5" width="20.0" height="58.5" fill="#e67e22"/><rect x="544.0" y="103.3" width="20.0" height="28.2" fill="#8e44ad"/><rect x="572.0" y="118.9" width="20.0" height="71.1" fill="#e67e22"/><rect x="572.0" y="97.0" width="20.0" height="21.9" fill="#8e44ad"/><rect x="600.0" y="111.3" width="20.0" height="78.7" fill="#e67e22"/><rect x="600.0" y="83.7" width="20.0" height="27.6" fill="#8e44ad"/><rect x="628.0" y="68.0" width="20.0" height="122.0" fill="#e67e22"/><rect x="628.0" y="-9.6" width="20.0" height="77.6" fill="#8e44ad"/><rect x="656.0" y="86.5" width="20.0" height="103.5" fill="#e67e22"/><rect x="656.0" y="28.0" width="20.0" height="58.4" fill="#8e44ad"/><rect x="684.0" y="46.7" width="20.0" height="143.3" fill="#e67e22"/><rect x="684.0" y="43.5" width="20.0" height="3.2" fill="#8e44ad"/><text x="36" y="214" font-size="10" fill="#666" font-family="system-ui,Arial">0</text><text x="120" y="214" font-size="10" fill="#666" font-family="system-ui,Arial">3</text><text x="204" y="214" font-size="10" fill="#666" font-family="system-ui,Arial">6</text><text x="288" y="214" font-size="10" fill="#666" font-family="system-ui,Arial">9</text><text x="372" y="214" font-size="10" fill="#666" font-family="system-ui,Arial">12</text><text x="456" y="214" font-size="10" fill="#666" font-family="system-ui,Arial">15</text><text x="540" y="214" font-size="10" fill="#666" font-family="system-ui,Arial">18</text><text x="624" y="214" font-size="10" fill="#666" font-family="system-ui,Arial">21</text><text x="710" y="16" text-anchor="end" font-size="10" fill="#666" font-family="system-ui,Arial">LBGI (purple) + HBGI (orange) by hour</text></svg>