<?xml version="1.0"?><svg viewBox="0 0 720 220" width="100%" height="220" xmlns="http://www.w3.org/2000/svg"><rect width="100%" height="100%" fill="#fff"/><line x1="36" y1="196" x2="708" y2="196" stroke="#eee"/><text x="28" y="199" text-anchor="end" font-size="10" fill="#666" font-family="system-ui,Arial">0</text><line x1="36" y1="106" x2="708" y2="106" stroke="#eee"/><text x="28" y="109" text-anchor="end" font-size="10" fill="#666" font-family="system-ui,Arial">10</text><line x1="36" y1="16" x2="708" y2="16" stroke="#eee"/><text x="28" y="19" text-anchor="end" font-size="10" fill="#666" font-family="system-ui,Arial">20</text><rect x="40.0" y="48.9" width="20.0" height="141.1" fill="#e67e22"/><rect x="40.0" y="44.1" width="20.0" height="4.8" fill="#8e44ad"/><rect x="68.0" y="70.1" width="20.0" height="119.9" fill="#e67e22"/><rect x="68.0" y="38.3" width="20.0" height="31.8" fill="#8e44ad"/><rect x="96.0" y="134.5" width="20.0" height="55.5" fill="#e67e22"/><rect x="96.0" y="113.5" width="20.0" height="21.1" fill="#8e44ad"/><rect x="124.0" y="113.4" width="20.0" height="76.6" fill="#e67e22"/><rect x="124.0" y="94.8" width="20.0" height="18.6" fill="#8e44ad"/><rect x="152.0" y="109.7" width="20.0" height="80.3" fill="#e67e22"/><rect x="152.0" y="106.3" width="20.0" height="3.4" fill="#8e44ad"/><rect x="180.0" y="128.3" width="20.0" height="61.7" fill="#e67e22"/><rect x="180.0" y="119.7" width="20.0" height="8.5" fill="#8e44ad"/><rect x="208.0" y="160.0" width="20.0" height="30.0" fill="#e67e22"/><rect x="208.0" y="150.1" width="20.0" height="10.0" fill="#8e44ad"/><rect x="236.0" y="172.7" width="20.0" height="17.3" fill="#e67e22"/><rect x="236.0" y="160.0" width="20.0" height="12.7" fill="#8e44ad"/><rect x="264.0" y="128.9" width="20.0" height="61.1" fill="#e67e22"/><rect x="264.0" y="112.2" width="20.0" height="16.7" fill="#8e44ad"/><rect x="292.0" y="113.7" width="20.0" height="76.3" fill="#e67e22"/><rect x="292.0" y="71.1" width="20.0" height="42.6" fill="#8e44ad"/><rect x="320.0" y="152.7" width="20.0" height="37.3" fill="#e67e22"/><rect x="320.0" y="122.7" width="20.0" height="30.0" fill="#8e44ad"/><rect x="348.0" y="153.9" width="20.0" height="36.1" fill="#e67e22"/><rect x="348.0" y="145.7" width="20.0" height="8.2" fill="#8e44ad"/><rect x="376.0" y="126.3" width="20.0" height="63.7" fill="#e67e22"/><rect x="376.0" y="117.3" width="20.0" height="8.9" fill="#8e44ad"/><rect x="404.0" y="90.8" width="20.0" height="99.2" fill="#e67e22"/><rect x="404.0" y="80.8" width="20.0" height="10.0" fill="#8e44ad"/><rect x="432.0" y="79.9" width="20.0" height="110.1" fill="#e67e22"/><rect x="432.0" y="78.6" width="20.0" height="1.3" fill="#8e44ad"/><rect x="460.0" y="106.9" width="20.0" height="83.1" fill="#e67e22"/><rect x="460.0" y="101.6" width="20.0" height="5.2" fill="#8e44ad"/><rect x="488.0" y="142.6" width="20.0" height="47.4" fill="#e67e22"/><rect x="488.0" y="113.2" width="20.0" height="29.3" fill="#8e44ad"/><rect x="516.0" y="120.0" width="20.0" height="70.0" fill="#e67e22"/><rect x="516.0" y="89.3" width="20.0" height="30.6" fill="#8e44ad"/><rect x="544.0" y="135.3" width="20.0" height="54.7" fill="#e67e22"/><rect x="544.0" y="108.4" width="20.0" height="26.9" fill="#8e44ad"/><rect x="572.0" y="127.8" width="20.0" height="62.2" fill="#e67e22"/><rect x="572.0" y="105.9" width="20.0" height="21.9" fill="#8e44ad"/><rect x="600.0" y="133.8" width="20.0" height="56.2" fill="#e67e22"/><rect x="600.0" y="105.2" width="20.0" height="28.6" fill="#8e44ad"/><rect x="628.0" y="89.6" width="20.0" height="100.4" fill="#e67e22"/><rect x="628.0" y="17.2" width="20.0" height="72.4" fill="#8e44ad"/><rect x="656.0" y="68.9" width="20.0" height="121.1" fill="#e67e22"/><rect x="656.0" y="0.7" width="20.0" height="68.2" fill="#8e44ad"/><rect x="684.0" y="38.7" width="20.0" height="151.3" fill="#e67e22"/><rect x="684.0" y="12.1" width="20.0" height="26.7" fill="#8e44ad"/><text x="36" y="214" font-size="10" fill="#666" font-family="system-ui,Arial">0</text><text x="120" y="214" font-size="10" fill="#666" font-family="system-ui,Arial">3</text><text x="204" y="214" font-size="10" fill="#666" font-family="system-ui,Arial">6</text><text x="288" y="214" font-size="10" fill="#666" font-family="system-ui,Arial">9</text><text x="372" y="214" font-size="10" fill="#666" font-family="system-ui,Arial">12</text><text x="456" y="214" font-size="10" fill="#666" font-family="system-ui,Arial">15</text><text x="540" y="214" font-size="10" fill="#666" font-family="system-ui,Arial">18</text><text x="624" y="214" font-size="10" fill="#666" font-family="system-ui,Arial">21</text><text x="710" y="16" text-anchor="end" font-size="10" fill="#666" font-family="system-ui,Arial">LBGI (purple) + HBGI (orange) by hour</text></svg>