<?xml version="1.0"?><svg viewBox="0 0 720 220" width="100%" height="220" xmlns="http://www.w3.org/2000/svg"><rect width="100%" height="100%" fill="#fff"/><line x1="36" y1="196" x2="708" y2="196" stroke="#eee"/><text x="28" y="199" text-anchor="end" font-size="10" fill="#666" font-family="system-ui,Arial">0</text><line x1="36" y1="136" x2="708" y2="136" stroke="#eee"/><text x="28" y="139" text-anchor="end" font-size="10" fill="#666" font-family="system-ui,Arial">10</text><line x1="36" y1="76" x2="708" y2="76" stroke="#eee"/><text x="28" y="79" text-anchor="end" font-size="10" fill="#666" font-family="system-ui,Arial">20</text><line x1="36" y1="16" x2="708" y2="16" stroke="#eee"/><text x="28" y="19" text-anchor="end" font-size="10" fill="#666" font-family="system-ui,Arial">30</text><rect x="40.0" y="125.8" width="20.0" height="64.2" fill="#e67e22"/><rect x="40.0" y="125.7" width="20.0" height="0.0" fill="#8e44ad"/><rect x="68.0" y="131.0" width="20.0" height="59.0" fill="#e67e22"/><rect x="68.0" y="130.2" width="20.0" height="0.8" fill="#8e44ad"/><rect x="96.0" y="141.4" width="20.0" height="48.6" fill="#e67e22"/><rect x="96.0" y="131.0" width="20.0" height="10.4" fill="#8e44ad"/><rect x="124.0" y="150.5" width="20.0" height="39.5" fill="#e67e22"/><rect x="124.0" y="146.7" width="20.0" height="3.8" fill="#8e44ad"/><rect x="152.0" y="161.6" width="20.0" height="28.4" fill="#e67e22"/><rect x="152.0" y="159.0" width="20.0" height="2.6" fill="#8e44ad"/><rect x="180.0" y="173.4" width="20.0" height="16.6" fill="#e67e22"/><rect x="180.0" y="165.8" width="20.0" height="7.6" fill="#8e44ad"/><rect x="208.0" y="180.2" width="20.0" height="9.8" fill="#e67e22"/><rect x="208.0" y="164.2" width="20.0" height="16.0" fill="#8e44ad"/><rect x="236.0" y="176.0" width="20.0" height="14.0" fill="#e67e22"/><rect x="236.0" y="166.4" width="20.0" height="9.7" fill="#8e44ad"/><rect x="264.0" y="137.8" width="20.0" height="52.2" fill="#e67e22"/><rect x="264.0" y="132.5" width="20.0" height="5.3" fill="#8e44ad"/><rect x="292.0" y="105.8" width="20.0" height="84.2" fill="#e67e22"/><rect x="292.0" y="105.8" width="20.0" height="0.0" fill="#8e44ad"/><rect x="320.0" y="102.5" width="20.0" height="87.5" fill="#e67e22"/><rect x="320.0" y="102.5" width="20.0" height="0.0" fill="#8e44ad"/><rect x="348.0" y="137.8" width="20.0" height="52.2" fill="#e67e22"/><rect x="348.0" y="124.1" width="20.0" height="13.8" fill="#8e44ad"/><rect x="376.0" y="90.9" width="20.0" height="99.1" fill="#e67e22"/><rect x="376.0" y="46.9" width="20.0" height="44.0" fill="#8e44ad"/><rect x="404.0" y="61.8" width="20.0" height="128.2" fill="#e67e22"/><rect x="404.0" y="49.1" width="20.0" height="12.7" fill="#8e44ad"/><rect x="432.0" y="112.0" width="20.0" height="78.0" fill="#e67e22"/><rect x="432.0" y="108.2" width="20.0" height="3.9" fill="#8e44ad"/><rect x="460.0" y="132.7" width="20.0" height="57.3" fill="#e67e22"/><rect x="460.0" y="115.8" width="20.0" height="16.9" fill="#8e44ad"/><rect x="488.0" y="169.3" width="20.0" height="20.7" fill="#e67e22"/><rect x="488.0" y="158.5" width="20.0" height="10.8" fill="#8e44ad"/><rect x="516.0" y="149.3" width="20.0" height="40.7" fill="#e67e22"/><rect x="516.0" y="136.5" width="20.0" height="12.8" fill="#8e44ad"/><rect x="544.0" y="140.5" width="20.0" height="49.5" fill="#e67e22"/><rect x="544.0" y="133.2" width="20.0" height="7.3" fill="#8e44ad"/><rect x="572.0" y="136.8" width="20.0" height="53.2" fill="#e67e22"/><rect x="572.0" y="129.9" width="20.0" height="6.8" fill="#8e44ad"/><rect x="600.0" y="128.2" width="20.0" height="61.8" fill="#e67e22"/><rect x="600.0" y="104.6" width="20.0" height="23.6" fill="#8e44ad"/><rect x="628.0" y="146.7" width="20.0" height="43.3" fill="#e67e22"/><rect x="628.0" y="131.4" width="20.0" height="15.4" fill="#8e44ad"/><rect x="656.0" y="114.7" width="20.0" height="75.3" fill="#e67e22"/><rect x="656.0" y="82.6" width="20.0" height="32.1" fill="#8e44ad"/><rect x="684.0" y="109.0" width="20.0" height="81.0" fill="#e67e22"/><rect x="684.0" y="99.2" width="20.0" height="9.9" fill="#8e44ad"/><text x="36" y="214" font-size="10" fill="#666" font-family="system-ui,Arial">0</text><text x="120" y="214" font-size="10" fill="#666" font-family="system-ui,Arial">3</text><text x="204" y="214" font-size="10" fill="#666" font-family="system-ui,Arial">6</text><text x="288" y="214" font-size="10" fill="#666" font-family="system-ui,Arial">9</text><text x="372" y="214" font-size="10" fill="#666" font-family="system-ui,Arial">12</text><text x="456" y="214" font-size="10" fill="#666" font-family="system-ui,Arial">15</text><text x="540" y="214" font-size="10" fill="#666" font-family="system-ui,Arial">18</text><text x="624" y="214" font-size="10" fill="#666" font-family="system-ui,Arial">21</text><text x="710" y="16" text-anchor="end" font-size="10" fill="#666" font-family="system-ui,Arial">LBGI (purple) + HBGI (orange) by hour</text></svg>