<?xml version="1.0"?><svg viewBox="0 0 720 220" width="100%" height="220" xmlns="http://www.w3.org/2000/svg"><rect width="100%" height="100%" fill="#fff"/><line x1="36" y1="196" x2="708" y2="196" stroke="#eee"/><text x="28" y="199" text-anchor="end" font-size="10" fill="#666" font-family="system-ui,Arial">0</text><line x1="36" y1="136" x2="708" y2="136" stroke="#eee"/><text x="28" y="139" text-anchor="end" font-size="10" fill="#666" font-family="system-ui,Arial">10</text><line x1="36" y1="76" x2="708" y2="76" stroke="#eee"/><text x="28" y="79" text-anchor="end" font-size="10" fill="#666" font-family="system-ui,Arial">20</text><line x1="36" y1="16" x2="708" y2="16" stroke="#eee"/><text x="28" y="19" text-anchor="end" font-size="10" fill="#666" font-family="system-ui,Arial">30</text><rect x="40.0" y="121.9" width="20.0" height="68.1" fill="#e67e22"/><rect x="40.0" y="89.9" width="20.0" height="32.0" fill="#8e44ad"/><rect x="68.0" y="128.9" width="20.0" height="61.1" fill="#e67e22"/><rect x="68.0" y="125.1" width="20.0" height="3.9" fill="#8e44ad"/><rect x="96.0" y="132.4" width="20.0" height="57.6" fill="#e67e22"/><rect x="96.0" y="119.8" width="20.0" height="12.6" fill="#8e44ad"/><rect x="124.0" y="131.6" width="20.0" height="58.4" fill="#e67e22"/><rect x="124.0" y="120.3" width="20.0" height="11.3" fill="#8e44ad"/><rect x="152.0" y="136.4" width="20.0" height="53.6" fill="#e67e22"/><rect x="152.0" y="130.5" width="20.0" height="6.0" fill="#8e44ad"/><rect x="180.0" y="154.8" width="20.0" height="35.2" fill="#e67e22"/><rect x="180.0" y="151.4" width="20.0" height="3.4" fill="#8e44ad"/><rect x="208.0" y="175.6" width="20.0" height="14.4" fill="#e67e22"/><rect x="208.0" y="171.8" width="20.0" height="3.8" fill="#8e44ad"/><rect x="236.0" y="173.9" width="20.0" height="16.1" fill="#e67e22"/><rect x="236.0" y="166.9" width="20.0" height="7.0" fill="#8e44ad"/><rect x="264.0" y="105.1" width="20.0" height="84.9" fill="#e67e22"/><rect x="264.0" y="101.3" width="20.0" height="3.8" fill="#8e44ad"/><rect x="292.0" y="99.2" width="20.0" height="90.8" fill="#e67e22"/><rect x="292.0" y="96.5" width="20.0" height="2.7" fill="#8e44ad"/><rect x="320.0" y="125.6" width="20.0" height="64.4" fill="#e67e22"/><rect x="320.0" y="124.8" width="20.0" height="0.8" fill="#8e44ad"/><rect x="348.0" y="138.8" width="20.0" height="51.2" fill="#e67e22"/><rect x="348.0" y="132.4" width="20.0" height="6.3" fill="#8e44ad"/><rect x="376.0" y="102.4" width="20.0" height="87.6" fill="#e67e22"/><rect x="376.0" y="99.1" width="20.0" height="3.3" fill="#8e44ad"/><rect x="404.0" y="39.8" width="20.0" height="150.2" fill="#e67e22"/><rect x="404.0" y="39.8" width="20.0" height="0.0" fill="#8e44ad"/><rect x="432.0" y="79.0" width="20.0" height="111.0" fill="#e67e22"/><rect x="432.0" y="79.0" width="20.0" height="0.0" fill="#8e44ad"/><rect x="460.0" y="114.3" width="20.0" height="75.7" fill="#e67e22"/><rect x="460.0" y="109.3" width="20.0" height="5.0" fill="#8e44ad"/><rect x="488.0" y="146.4" width="20.0" height="43.6" fill="#e67e22"/><rect x="488.0" y="110.7" width="20.0" height="35.7" fill="#8e44ad"/><rect x="516.0" y="137.6" width="20.0" height="52.4" fill="#e67e22"/><rect x="516.0" y="94.1" width="20.0" height="43.5" fill="#8e44ad"/><rect x="544.0" y="127.7" width="20.0" height="62.3" fill="#e67e22"/><rect x="544.0" y="96.4" width="20.0" height="31.4" fill="#8e44ad"/><rect x="572.0" y="111.2" width="20.0" height="78.8" fill="#e67e22"/><rect x="572.0" y="53.7" width="20.0" height="57.5" fill="#8e44ad"/><rect x="600.0" y="107.3" width="20.0" height="82.7" fill="#e67e22"/><rect x="600.0" y="107.3" width="20.0" height="0.0" fill="#8e44ad"/><rect x="628.0" y="108.7" width="20.0" height="81.3" fill="#e67e22"/><rect x="628.0" y="106.7" width="20.0" height="2.0" fill="#8e44ad"/><rect x="656.0" y="109.5" width="20.0" height="80.5" fill="#e67e22"/><rect x="656.0" y="102.3" width="20.0" height="7.3" fill="#8e44ad"/><rect x="684.0" y="102.3" width="20.0" height="87.7" fill="#e67e22"/><rect x="684.0" y="51.9" width="20.0" height="50.5" fill="#8e44ad"/><text x="36" y="214" font-size="10" fill="#666" font-family="system-ui,Arial">0</text><text x="120" y="214" font-size="10" fill="#666" font-family="system-ui,Arial">3</text><text x="204" y="214" font-size="10" fill="#666" font-family="system-ui,Arial">6</text><text x="288" y="214" font-size="10" fill="#666" font-family="system-ui,Arial">9</text><text x="372" y="214" font-size="10" fill="#666" font-family="system-ui,Arial">12</text><text x="456" y="214" font-size="10" fill="#666" font-family="system-ui,Arial">15</text><text x="540" y="214" font-size="10" fill="#666" font-family="system-ui,Arial">18</text><text x="624" y="214" font-size="10" fill="#666" font-family="system-ui,Arial">21</text><text x="710" y="16" text-anchor="end" font-size="10" fill="#666" font-family="system-ui,Arial">LBGI (purple) + HBGI (orange) by hour</text></svg>