<?xml version="1.0"?><svg viewBox="0 0 720 220" width="100%" height="220" xmlns="http://www.w3.org/2000/svg"><rect width="100%" height="100%" fill="#fff"/><line x1="36" y1="196" x2="708" y2="196" stroke="#eee"/><text x="28" y="199" text-anchor="end" font-size="10" fill="#666" font-family="system-ui,Arial">0</text><line x1="36" y1="136" x2="708" y2="136" stroke="#eee"/><text x="28" y="139" text-anchor="end" font-size="10" fill="#666" font-family="system-ui,Arial">10</text><line x1="36" y1="76" x2="708" y2="76" stroke="#eee"/><text x="28" y="79" text-anchor="end" font-size="10" fill="#666" font-family="system-ui,Arial">20</text><line x1="36" y1="16" x2="708" y2="16" stroke="#eee"/><text x="28" y="19" text-anchor="end" font-size="10" fill="#666" font-family="system-ui,Arial">30</text><rect x="40.0" y="116.4" width="20.0" height="73.6" fill="#e67e22"/><rect x="40.0" y="93.1" width="20.0" height="23.3" fill="#8e44ad"/><rect x="68.0" y="125.1" width="20.0" height="64.9" fill="#e67e22"/><rect x="68.0" y="120.4" width="20.0" height="4.7" fill="#8e44ad"/><rect x="96.0" y="128.0" width="20.0" height="62.0" fill="#e67e22"/><rect x="96.0" y="114.2" width="20.0" height="13.9" fill="#8e44ad"/><rect x="124.0" y="125.3" width="20.0" height="64.7" fill="#e67e22"/><rect x="124.0" y="113.0" width="20.0" height="12.3" fill="#8e44ad"/><rect x="152.0" y="136.4" width="20.0" height="53.6" fill="#e67e22"/><rect x="152.0" y="127.5" width="20.0" height="8.9" fill="#8e44ad"/><rect x="180.0" y="154.8" width="20.0" height="35.2" fill="#e67e22"/><rect x="180.0" y="151.2" width="20.0" height="3.6" fill="#8e44ad"/><rect x="208.0" y="176.6" width="20.0" height="13.4" fill="#e67e22"/><rect x="208.0" y="173.4" width="20.0" height="3.3" fill="#8e44ad"/><rect x="236.0" y="175.6" width="20.0" height="14.4" fill="#e67e22"/><rect x="236.0" y="169.0" width="20.0" height="6.6" fill="#8e44ad"/><rect x="264.0" y="110.0" width="20.0" height="80.0" fill="#e67e22"/><rect x="264.0" y="106.2" width="20.0" height="3.8" fill="#8e44ad"/><rect x="292.0" y="97.4" width="20.0" height="92.6" fill="#e67e22"/><rect x="292.0" y="94.6" width="20.0" height="2.8" fill="#8e44ad"/><rect x="320.0" y="128.4" width="20.0" height="61.6" fill="#e67e22"/><rect x="320.0" y="127.6" width="20.0" height="0.8" fill="#8e44ad"/><rect x="348.0" y="138.5" width="20.0" height="51.5" fill="#e67e22"/><rect x="348.0" y="126.7" width="20.0" height="11.8" fill="#8e44ad"/><rect x="376.0" y="106.0" width="20.0" height="84.0" fill="#e67e22"/><rect x="376.0" y="96.1" width="20.0" height="10.0" fill="#8e44ad"/><rect x="404.0" y="49.8" width="20.0" height="140.2" fill="#e67e22"/><rect x="404.0" y="49.8" width="20.0" height="0.0" fill="#8e44ad"/><rect x="432.0" y="86.7" width="20.0" height="103.3" fill="#e67e22"/><rect x="432.0" y="86.7" width="20.0" height="0.0" fill="#8e44ad"/><rect x="460.0" y="118.9" width="20.0" height="71.1" fill="#e67e22"/><rect x="460.0" y="113.9" width="20.0" height="5.0" fill="#8e44ad"/><rect x="488.0" y="149.3" width="20.0" height="40.7" fill="#e67e22"/><rect x="488.0" y="113.6" width="20.0" height="35.7" fill="#8e44ad"/><rect x="516.0" y="142.8" width="20.0" height="47.2" fill="#e67e22"/><rect x="516.0" y="107.4" width="20.0" height="35.4" fill="#8e44ad"/><rect x="544.0" y="140.8" width="20.0" height="49.2" fill="#e67e22"/><rect x="544.0" y="110.4" width="20.0" height="30.5" fill="#8e44ad"/><rect x="572.0" y="111.0" width="20.0" height="79.0" fill="#e67e22"/><rect x="572.0" y="68.0" width="20.0" height="43.0" fill="#8e44ad"/><rect x="600.0" y="106.4" width="20.0" height="83.6" fill="#e67e22"/><rect x="600.0" y="103.6" width="20.0" height="2.8" fill="#8e44ad"/><rect x="628.0" y="108.0" width="20.0" height="82.0" fill="#e67e22"/><rect x="628.0" y="103.7" width="20.0" height="4.3" fill="#8e44ad"/><rect x="656.0" y="103.4" width="20.0" height="86.6" fill="#e67e22"/><rect x="656.0" y="96.4" width="20.0" height="7.0" fill="#8e44ad"/><rect x="684.0" y="98.5" width="20.0" height="91.5" fill="#e67e22"/><rect x="684.0" y="56.1" width="20.0" height="42.4" fill="#8e44ad"/><text x="36" y="214" font-size="10" fill="#666" font-family="system-ui,Arial">0</text><text x="120" y="214" font-size="10" fill="#666" font-family="system-ui,Arial">3</text><text x="204" y="214" font-size="10" fill="#666" font-family="system-ui,Arial">6</text><text x="288" y="214" font-size="10" fill="#666" font-family="system-ui,Arial">9</text><text x="372" y="214" font-size="10" fill="#666" font-family="system-ui,Arial">12</text><text x="456" y="214" font-size="10" fill="#666" font-family="system-ui,Arial">15</text><text x="540" y="214" font-size="10" fill="#666" font-family="system-ui,Arial">18</text><text x="624" y="214" font-size="10" fill="#666" font-family="system-ui,Arial">21</text><text x="710" y="16" text-anchor="end" font-size="10" fill="#666" font-family="system-ui,Arial">LBGI (purple) + HBGI (orange) by hour</text></svg>