<?xml version="1.0"?><svg viewBox="0 0 720 220" width="100%" height="220" xmlns="http://www.w3.org/2000/svg"><rect width="100%" height="100%" fill="#fff"/><line x1="36" y1="196" x2="708" y2="196" stroke="#eee"/><text x="28" y="199" text-anchor="end" font-size="10" fill="#666" font-family="system-ui,Arial">0</text><line x1="36" y1="136" x2="708" y2="136" stroke="#eee"/><text x="28" y="139" text-anchor="end" font-size="10" fill="#666" font-family="system-ui,Arial">10</text><line x1="36" y1="76" x2="708" y2="76" stroke="#eee"/><text x="28" y="79" text-anchor="end" font-size="10" fill="#666" font-family="system-ui,Arial">20</text><line x1="36" y1="16" x2="708" y2="16" stroke="#eee"/><text x="28" y="19" text-anchor="end" font-size="10" fill="#666" font-family="system-ui,Arial">30</text><rect x="40.0" y="100.1" width="20.0" height="89.9" fill="#e67e22"/><rect x="40.0" y="96.7" width="20.0" height="3.5" fill="#8e44ad"/><rect x="68.0" y="105.9" width="20.0" height="84.1" fill="#e67e22"/><rect x="68.0" y="87.6" width="20.0" height="18.3" fill="#8e44ad"/><rect x="96.0" y="102.3" width="20.0" height="87.7" fill="#e67e22"/><rect x="96.0" y="88.4" width="20.0" height="13.9" fill="#8e44ad"/><rect x="124.0" y="74.4" width="20.0" height="115.6" fill="#e67e22"/><rect x="124.0" y="61.2" width="20.0" height="13.2" fill="#8e44ad"/><rect x="152.0" y="65.9" width="20.0" height="124.1" fill="#e67e22"/><rect x="152.0" y="56.8" width="20.0" height="9.1" fill="#8e44ad"/><rect x="180.0" y="107.4" width="20.0" height="82.6" fill="#e67e22"/><rect x="180.0" y="97.4" width="20.0" height="10.0" fill="#8e44ad"/><rect x="208.0" y="149.3" width="20.0" height="40.7" fill="#e67e22"/><rect x="208.0" y="143.0" width="20.0" height="6.2" fill="#8e44ad"/><rect x="236.0" y="174.6" width="20.0" height="15.4" fill="#e67e22"/><rect x="236.0" y="160.8" width="20.0" height="13.9" fill="#8e44ad"/><rect x="264.0" y="135.9" width="20.0" height="54.1" fill="#e67e22"/><rect x="264.0" y="123.6" width="20.0" height="12.3" fill="#8e44ad"/><rect x="292.0" y="128.5" width="20.0" height="61.5" fill="#e67e22"/><rect x="292.0" y="125.3" width="20.0" height="3.3" fill="#8e44ad"/><rect x="320.0" y="145.0" width="20.0" height="45.0" fill="#e67e22"/><rect x="320.0" y="144.2" width="20.0" height="0.9" fill="#8e44ad"/><rect x="348.0" y="160.7" width="20.0" height="29.3" fill="#e67e22"/><rect x="348.0" y="148.8" width="20.0" height="12.0" fill="#8e44ad"/><rect x="376.0" y="139.0" width="20.0" height="51.0" fill="#e67e22"/><rect x="376.0" y="130.7" width="20.0" height="8.3" fill="#8e44ad"/><rect x="404.0" y="94.6" width="20.0" height="95.4" fill="#e67e22"/><rect x="404.0" y="62.4" width="20.0" height="32.3" fill="#8e44ad"/><rect x="432.0" y="110.2" width="20.0" height="79.8" fill="#e67e22"/><rect x="432.0" y="43.9" width="20.0" height="66.3" fill="#8e44ad"/><rect x="460.0" y="123.9" width="20.0" height="66.1" fill="#e67e22"/><rect x="460.0" y="112.8" width="20.0" height="11.2" fill="#8e44ad"/><rect x="488.0" y="154.6" width="20.0" height="35.4" fill="#e67e22"/><rect x="488.0" y="105.9" width="20.0" height="48.7" fill="#8e44ad"/><rect x="516.0" y="146.1" width="20.0" height="43.9" fill="#e67e22"/><rect x="516.0" y="133.8" width="20.0" height="12.4" fill="#8e44ad"/><rect x="544.0" y="149.8" width="20.0" height="40.2" fill="#e67e22"/><rect x="544.0" y="127.7" width="20.0" height="22.1" fill="#8e44ad"/><rect x="572.0" y="143.5" width="20.0" height="46.5" fill="#e67e22"/><rect x="572.0" y="104.6" width="20.0" height="38.9" fill="#8e44ad"/><rect x="600.0" y="135.0" width="20.0" height="55.0" fill="#e67e22"/><rect x="600.0" y="104.1" width="20.0" height="30.9" fill="#8e44ad"/><rect x="628.0" y="125.0" width="20.0" height="65.0" fill="#e67e22"/><rect x="628.0" y="51.5" width="20.0" height="73.5" fill="#8e44ad"/><rect x="656.0" y="121.9" width="20.0" height="68.1" fill="#e67e22"/><rect x="656.0" y="80.7" width="20.0" height="41.2" fill="#8e44ad"/><rect x="684.0" y="118.9" width="20.0" height="71.1" fill="#e67e22"/><rect x="684.0" y="100.4" width="20.0" height="18.5" fill="#8e44ad"/><text x="36" y="214" font-size="10" fill="#666" font-family="system-ui,Arial">0</text><text x="120" y="214" font-size="10" fill="#666" font-family="system-ui,Arial">3</text><text x="204" y="214" font-size="10" fill="#666" font-family="system-ui,Arial">6</text><text x="288" y="214" font-size="10" fill="#666" font-family="system-ui,Arial">9</text><text x="372" y="214" font-size="10" fill="#666" font-family="system-ui,Arial">12</text><text x="456" y="214" font-size="10" fill="#666" font-family="system-ui,Arial">15</text><text x="540" y="214" font-size="10" fill="#666" font-family="system-ui,Arial">18</text><text x="624" y="214" font-size="10" fill="#666" font-family="system-ui,Arial">21</text><text x="710" y="16" text-anchor="end" font-size="10" fill="#666" font-family="system-ui,Arial">LBGI (purple) + HBGI (orange) by hour</text></svg>