<?xml version="1.0"?><svg viewBox="0 0 720 220" width="100%" height="220" xmlns="http://www.w3.org/2000/svg"><rect width="100%" height="100%" fill="#fff"/><line x1="36" y1="196" x2="708" y2="196" stroke="#eee"/><text x="28" y="199" text-anchor="end" font-size="10" fill="#666" font-family="system-ui,Arial">0</text><line x1="36" y1="136" x2="708" y2="136" stroke="#eee"/><text x="28" y="139" text-anchor="end" font-size="10" fill="#666" font-family="system-ui,Arial">10</text><line x1="36" y1="76" x2="708" y2="76" stroke="#eee"/><text x="28" y="79" text-anchor="end" font-size="10" fill="#666" font-family="system-ui,Arial">20</text><line x1="36" y1="16" x2="708" y2="16" stroke="#eee"/><text x="28" y="19" text-anchor="end" font-size="10" fill="#666" font-family="system-ui,Arial">30</text><rect x="40.0" y="107.6" width="20.0" height="82.4" fill="#e67e22"/><rect x="40.0" y="70.9" width="20.0" height="36.7" fill="#8e44ad"/><rect x="68.0" y="123.2" width="20.0" height="66.8" fill="#e67e22"/><rect x="68.0" y="122.7" width="20.0" height="0.5" fill="#8e44ad"/><rect x="96.0" y="144.5" width="20.0" height="45.5" fill="#e67e22"/><rect x="96.0" y="142.6" width="20.0" height="1.9" fill="#8e44ad"/><rect x="124.0" y="157.4" width="20.0" height="32.6" fill="#e67e22"/><rect x="124.0" y="148.3" width="20.0" height="9.1" fill="#8e44ad"/><rect x="152.0" y="166.1" width="20.0" height="23.9" fill="#e67e22"/><rect x="152.0" y="160.1" width="20.0" height="6.0" fill="#8e44ad"/><rect x="180.0" y="173.6" width="20.0" height="16.4" fill="#e67e22"/><rect x="180.0" y="168.3" width="20.0" height="5.3" fill="#8e44ad"/><rect x="208.0" y="184.0" width="20.0" height="6.0" fill="#e67e22"/><rect x="208.0" y="179.7" width="20.0" height="4.2" fill="#8e44ad"/><rect x="236.0" y="175.8" width="20.0" height="14.2" fill="#e67e22"/><rect x="236.0" y="165.3" width="20.0" height="10.5" fill="#8e44ad"/><rect x="264.0" y="109.2" width="20.0" height="80.8" fill="#e67e22"/><rect x="264.0" y="106.0" width="20.0" height="3.2" fill="#8e44ad"/><rect x="292.0" y="96.6" width="20.0" height="93.4" fill="#e67e22"/><rect x="292.0" y="91.0" width="20.0" height="5.6" fill="#8e44ad"/><rect x="320.0" y="120.8" width="20.0" height="69.2" fill="#e67e22"/><rect x="320.0" y="119.7" width="20.0" height="1.1" fill="#8e44ad"/><rect x="348.0" y="144.2" width="20.0" height="45.8" fill="#e67e22"/><rect x="348.0" y="133.4" width="20.0" height="10.8" fill="#8e44ad"/><rect x="376.0" y="113.3" width="20.0" height="76.7" fill="#e67e22"/><rect x="376.0" y="107.8" width="20.0" height="5.5" fill="#8e44ad"/><rect x="404.0" y="47.8" width="20.0" height="142.2" fill="#e67e22"/><rect x="404.0" y="17.0" width="20.0" height="30.8" fill="#8e44ad"/><rect x="432.0" y="98.4" width="20.0" height="91.6" fill="#e67e22"/><rect x="432.0" y="49.0" width="20.0" height="49.4" fill="#8e44ad"/><rect x="460.0" y="125.7" width="20.0" height="64.3" fill="#e67e22"/><rect x="460.0" y="105.6" width="20.0" height="20.1" fill="#8e44ad"/><rect x="488.0" y="128.8" width="20.0" height="61.2" fill="#e67e22"/><rect x="488.0" y="115.6" width="20.0" height="13.2" fill="#8e44ad"/><rect x="516.0" y="134.4" width="20.0" height="55.6" fill="#e67e22"/><rect x="516.0" y="84.1" width="20.0" height="50.2" fill="#8e44ad"/><rect x="544.0" y="126.4" width="20.0" height="63.6" fill="#e67e22"/><rect x="544.0" y="121.0" width="20.0" height="5.4" fill="#8e44ad"/><rect x="572.0" y="119.2" width="20.0" height="70.8" fill="#e67e22"/><rect x="572.0" y="95.6" width="20.0" height="23.6" fill="#8e44ad"/><rect x="600.0" y="115.7" width="20.0" height="74.3" fill="#e67e22"/><rect x="600.0" y="92.9" width="20.0" height="22.8" fill="#8e44ad"/><rect x="628.0" y="104.6" width="20.0" height="85.4" fill="#e67e22"/><rect x="628.0" y="99.2" width="20.0" height="5.4" fill="#8e44ad"/><rect x="656.0" y="109.7" width="20.0" height="80.3" fill="#e67e22"/><rect x="656.0" y="102.4" width="20.0" height="7.3" fill="#8e44ad"/><rect x="684.0" y="92.0" width="20.0" height="98.0" fill="#e67e22"/><rect x="684.0" y="33.3" width="20.0" height="58.6" fill="#8e44ad"/><text x="36" y="214" font-size="10" fill="#666" font-family="system-ui,Arial">0</text><text x="120" y="214" font-size="10" fill="#666" font-family="system-ui,Arial">3</text><text x="204" y="214" font-size="10" fill="#666" font-family="system-ui,Arial">6</text><text x="288" y="214" font-size="10" fill="#666" font-family="system-ui,Arial">9</text><text x="372" y="214" font-size="10" fill="#666" font-family="system-ui,Arial">12</text><text x="456" y="214" font-size="10" fill="#666" font-family="system-ui,Arial">15</text><text x="540" y="214" font-size="10" fill="#666" font-family="system-ui,Arial">18</text><text x="624" y="214" font-size="10" fill="#666" font-family="system-ui,Arial">21</text><text x="710" y="16" text-anchor="end" font-size="10" fill="#666" font-family="system-ui,Arial">LBGI (purple) + HBGI (orange) by hour</text></svg>