<svg xmlns="http://www.w3.org/2000/svg" width="420" height="120" aria-label="Reliability sparkline"><style>text{font-family: 'Inter', system-ui, -apple-system, sans-serif;}</style><line x1="36" x2="406" y1="92" y2="92" stroke="#e0e0e0" stroke-width="1"/><path d="M36.0,36.5 L64.5,43.0 L92.9,62.1 L121.4,74.2 L149.8,51.7 L178.3,26.7 L206.8,45.4 L235.2,58.8 L263.7,55.9 L292.2,66.6 L320.6,56.3 L349.1,61.0 L377.5,32.3 L406.0,53.4" fill="none" stroke="#0d6efd" stroke-width="2" stroke-linecap="round"/><path d="M36.0,87.8 L64.5,83.5 L92.9,70.4 L121.4,53.4 L149.8,66.6 L178.3,84.2 L206.8,92.0 L235.2,89.8 L263.7,91.3 L292.2,90.4 L320.6,61.2 L349.1,71.7 L377.5,68.8 L406.0,68.8" fill="none" stroke="#f97316" stroke-width="2" stroke-linecap="round"/><text x="36" y="112" font-size="10" fill="#666">2026-03-03</text><text x="406" y="112" font-size="10" fill="#666" text-anchor="end">2026-03-16</text></svg>