<svg xmlns="http://www.w3.org/2000/svg" width="420" height="120" aria-label="Reliability sparkline"><style>text{font-family: 'Inter', system-ui, -apple-system, sans-serif;}</style><line x1="36" x2="406" y1="92" y2="92" stroke="#e0e0e0" stroke-width="1"/><path d="M36.0,53.4 L64.5,59.4 L92.9,34.7 L121.4,62.6 L149.8,65.1 L178.3,54.4 L206.8,32.3 L235.2,20.4 L263.7,50.5 L292.2,55.0 L320.6,56.9 L349.1,50.3 L377.5,66.8 L406.0,57.5" fill="none" stroke="#0d6efd" stroke-width="2" stroke-linecap="round"/><path d="M36.0,72.7 L64.5,61.2 L92.9,66.3 L121.4,76.4 L149.8,62.9 L178.3,64.7 L206.8,67.6 L235.2,56.9 L263.7,64.3 L292.2,63.5 L320.6,62.2 L349.1,58.7 L377.5,59.4 L406.0,89.9" fill="none" stroke="#f97316" stroke-width="2" stroke-linecap="round"/><text x="36" y="112" font-size="10" fill="#666">2026-02-08</text><text x="406" y="112" font-size="10" fill="#666" text-anchor="end">2026-02-21</text></svg>