<svg xmlns="http://www.w3.org/2000/svg" width="420" height="120" aria-label="Reliability sparkline"><style>text{font-family: 'Inter', system-ui, -apple-system, sans-serif;}</style><line x1="36" x2="406" y1="92" y2="92" stroke="#e0e0e0" stroke-width="1"/><path d="M36.0,51.9 L64.5,44.3 L92.9,63.3 L121.4,55.9 L149.8,53.7 L178.3,56.6 L206.8,77.5 L235.2,55.5 L263.7,60.8 L292.2,46.1 L320.6,29.8 L349.1,23.4 L377.5,23.1 L406.0,48.3" fill="none" stroke="#0d6efd" stroke-width="2" stroke-linecap="round"/><path d="M36.0,57.9 L64.5,53.9 L92.9,54.8 L121.4,90.2 L149.8,87.3 L178.3,89.1 L206.8,80.6 L235.2,64.6 L263.7,68.4 L292.2,91.3 L320.6,90.4 L349.1,85.1 L377.5,88.7 L406.0,87.8" fill="none" stroke="#f97316" stroke-width="2" stroke-linecap="round"/><text x="36" y="112" font-size="10" fill="#666">2026-02-18</text><text x="406" y="112" font-size="10" fill="#666" text-anchor="end">2026-03-03</text></svg>