<svg xmlns="http://www.w3.org/2000/svg" width="420" height="120" aria-label="Reliability sparkline"><style>text{font-family: 'Inter', system-ui, -apple-system, sans-serif;}</style><line x1="36" x2="406" y1="92" y2="92" stroke="#e0e0e0" stroke-width="1"/><path d="M36.0,26.7 L64.5,45.4 L92.9,58.8 L121.4,55.9 L149.8,66.6 L178.3,56.3 L206.8,61.0 L235.2,32.3 L263.7,60.6 L292.2,60.8 L320.6,65.7 L349.1,25.1 L377.5,33.6 L406.0,21.8" fill="none" stroke="#0d6efd" stroke-width="2" stroke-linecap="round"/><path d="M36.0,84.2 L64.5,92.0 L92.9,89.8 L121.4,91.3 L149.8,90.4 L178.3,61.2 L206.8,71.7 L235.2,68.8 L263.7,73.7 L292.2,90.4 L320.6,92.0 L349.1,78.4 L377.5,60.8 L406.0,55.9" fill="none" stroke="#f97316" stroke-width="2" stroke-linecap="round"/><text x="36" y="112" font-size="10" fill="#666">2026-03-08</text><text x="406" y="112" font-size="10" fill="#666" text-anchor="end">2026-03-21</text></svg>