<svg xmlns="http://www.w3.org/2000/svg" width="420" height="120" aria-label="Reliability sparkline"><style>text{font-family: 'Inter', system-ui, -apple-system, sans-serif;}</style><line x1="36" x2="406" y1="92" y2="92" stroke="#e0e0e0" stroke-width="1"/><path d="M36.0,23.4 L64.5,23.1 L92.9,36.5 L121.4,43.0 L149.8,62.1 L178.3,74.2 L206.8,51.7 L235.2,26.7 L263.7,45.4 L292.2,58.8 L320.6,55.9 L349.1,66.6 L377.5,56.3 L406.0,55.7" fill="none" stroke="#0d6efd" stroke-width="2" stroke-linecap="round"/><path d="M36.0,85.1 L64.5,88.7 L92.9,87.8 L121.4,83.5 L149.8,70.4 L178.3,53.4 L206.8,66.6 L235.2,84.2 L263.7,92.0 L292.2,89.8 L320.6,91.3 L349.1,90.4 L377.5,61.2 L406.0,67.0" fill="none" stroke="#f97316" stroke-width="2" stroke-linecap="round"/><text x="36" y="112" font-size="10" fill="#666">2026-03-01</text><text x="406" y="112" font-size="10" fill="#666" text-anchor="end">2026-03-14</text></svg>