<svg xmlns="http://www.w3.org/2000/svg" width="420" height="120" aria-label="Reliability sparkline"><style>text{font-family: 'Inter', system-ui, -apple-system, sans-serif;}</style><line x1="36" x2="406" y1="92" y2="92" stroke="#e0e0e0" stroke-width="1"/><path d="M36.0,69.6 L64.5,56.9 L92.9,53.4 L121.4,59.4 L149.8,34.7 L178.3,62.6 L206.8,65.1 L235.2,54.4 L263.7,32.3 L292.2,20.4 L320.6,50.5 L349.1,55.0 L377.5,56.9 L406.0,54.0" fill="none" stroke="#0d6efd" stroke-width="2" stroke-linecap="round"/><path d="M36.0,60.8 L64.5,66.7 L92.9,72.7 L121.4,61.2 L149.8,66.3 L178.3,76.4 L206.8,62.9 L235.2,64.7 L263.7,67.6 L292.2,56.9 L320.6,64.3 L349.1,63.5 L377.5,62.2 L406.0,65.5" fill="none" stroke="#f97316" stroke-width="2" stroke-linecap="round"/><text x="36" y="112" font-size="10" fill="#666">2026-02-06</text><text x="406" y="112" font-size="10" fill="#666" text-anchor="end">2026-02-19</text></svg>