<svg xmlns="http://www.w3.org/2000/svg" width="420" height="120" aria-label="Reliability sparkline"><style>text{font-family: 'Inter', system-ui, -apple-system, sans-serif;}</style><line x1="36" x2="406" y1="92" y2="92" stroke="#e0e0e0" stroke-width="1"/><path d="M36.0,56.6 L64.5,77.5 L92.9,55.5 L121.4,60.8 L149.8,46.1 L178.3,29.8 L206.8,23.4 L235.2,23.1 L263.7,36.5 L292.2,43.0 L320.6,62.1 L349.1,74.2 L377.5,51.7 L406.0,22.9" fill="none" stroke="#0d6efd" stroke-width="2" stroke-linecap="round"/><path d="M36.0,89.1 L64.5,80.6 L92.9,64.6 L121.4,68.4 L149.8,91.3 L178.3,90.4 L206.8,85.1 L235.2,88.7 L263.7,87.8 L292.2,83.5 L320.6,70.4 L349.1,53.4 L377.5,66.6 L406.0,85.1" fill="none" stroke="#f97316" stroke-width="2" stroke-linecap="round"/><text x="36" y="112" font-size="10" fill="#666">2026-02-23</text><text x="406" y="112" font-size="10" fill="#666" text-anchor="end">2026-03-08</text></svg>