<svg xmlns="http://www.w3.org/2000/svg" width="420" height="120" aria-label="Reliability sparkline"><style>text{font-family: 'Inter', system-ui, -apple-system, sans-serif;}</style><line x1="36" x2="406" y1="92" y2="92" stroke="#e0e0e0" stroke-width="1"/><path d="M36.0,43.0 L64.5,62.1 L92.9,74.2 L121.4,51.7 L149.8,26.7 L178.3,45.4 L206.8,58.8 L235.2,55.9 L263.7,66.6 L292.2,56.3 L320.6,61.0 L349.1,32.3 L377.5,60.6 L406.0,62.1" fill="none" stroke="#0d6efd" stroke-width="2" stroke-linecap="round"/><path d="M36.0,83.5 L64.5,70.4 L92.9,53.4 L121.4,66.6 L149.8,84.2 L178.3,92.0 L206.8,89.8 L235.2,91.3 L263.7,90.4 L292.2,61.2 L320.6,71.7 L349.1,68.8 L377.5,73.7 L406.0,92.0" fill="none" stroke="#f97316" stroke-width="2" stroke-linecap="round"/><text x="36" y="112" font-size="10" fill="#666">2026-03-04</text><text x="406" y="112" font-size="10" fill="#666" text-anchor="end">2026-03-17</text></svg>