<svg xmlns="http://www.w3.org/2000/svg" width="420" height="120" aria-label="Reliability sparkline"><style>text{font-family: 'Inter', system-ui, -apple-system, sans-serif;}</style><line x1="36" x2="406" y1="92" y2="92" stroke="#e0e0e0" stroke-width="1"/><path d="M36.0,59.4 L64.5,34.7 L92.9,62.6 L121.4,65.1 L149.8,54.4 L178.3,32.3 L206.8,20.4 L235.2,50.5 L263.7,55.0 L292.2,56.9 L320.6,50.3 L349.1,66.8 L377.5,60.4 L406.0,67.4" fill="none" stroke="#0d6efd" stroke-width="2" stroke-linecap="round"/><path d="M36.0,61.2 L64.5,66.3 L92.9,76.4 L121.4,62.9 L149.8,64.7 L178.3,67.6 L206.8,56.9 L235.2,64.3 L263.7,63.5 L292.2,62.2 L320.6,58.7 L349.1,59.4 L377.5,90.4 L406.0,89.5" fill="none" stroke="#f97316" stroke-width="2" stroke-linecap="round"/><text x="36" y="112" font-size="10" fill="#666">2026-02-09</text><text x="406" y="112" font-size="10" fill="#666" text-anchor="end">2026-02-22</text></svg>