<svg xmlns="http://www.w3.org/2000/svg" width="420" height="120" aria-label="Reliability sparkline"><style>text{font-family: 'Inter', system-ui, -apple-system, sans-serif;}</style><line x1="36" x2="406" y1="92" y2="92" stroke="#e0e0e0" stroke-width="1"/><path d="M36.0,68.4 L64.5,86.7 L92.9,68.4 L121.4,69.6 L149.8,56.9 L178.3,53.4 L206.8,59.4 L235.2,34.7 L263.7,62.6 L292.2,65.1 L320.6,54.4 L349.1,32.3 L377.5,20.4 L406.0,52.4" fill="none" stroke="#0d6efd" stroke-width="2" stroke-linecap="round"/><path d="M36.0,92.0 L64.5,82.1 L92.9,66.5 L121.4,60.8 L149.8,66.7 L178.3,72.7 L206.8,61.2 L235.2,66.3 L263.7,76.4 L292.2,62.9 L320.6,64.7 L349.1,67.6 L377.5,56.9 L406.0,63.9" fill="none" stroke="#f97316" stroke-width="2" stroke-linecap="round"/><text x="36" y="112" font-size="10" fill="#666">2026-02-03</text><text x="406" y="112" font-size="10" fill="#666" text-anchor="end">2026-02-16</text></svg>