<svg xmlns="http://www.w3.org/2000/svg" width="420" height="120" aria-label="Reliability sparkline"><style>text{font-family: 'Inter', system-ui, -apple-system, sans-serif;}</style><line x1="36" x2="406" y1="92" y2="92" stroke="#e0e0e0" stroke-width="1"/><path d="M36.0,55.9 L64.5,58.8 L92.9,30.5 L121.4,18.2 L149.8,68.2 L178.3,74.4 L206.8,71.1 L235.2,68.2 L263.7,64.1 L292.2,15.3 L320.6,52.3 L349.1,50.3 L377.5,49.0 L406.0,38.5" fill="none" stroke="#0d6efd" stroke-width="2" stroke-linecap="round"/><path d="M36.0,79.5 L64.5,92.0 L92.9,82.9 L121.4,68.4 L149.8,91.3 L178.3,74.4 L206.8,89.8 L235.2,79.7 L263.7,91.3 L292.2,79.5 L320.6,90.4 L349.1,92.0 L377.5,59.5 L406.0,65.3" fill="none" stroke="#f97316" stroke-width="2" stroke-linecap="round"/><text x="36" y="112" font-size="10" fill="#666">2026-04-09</text><text x="406" y="112" font-size="10" fill="#666" text-anchor="end">2026-04-22</text></svg>