<svg xmlns="http://www.w3.org/2000/svg" width="420" height="120" aria-label="Reliability sparkline"><style>text{font-family: 'Inter', system-ui, -apple-system, sans-serif;}</style><line x1="36" x2="406" y1="92" y2="92" stroke="#e0e0e0" stroke-width="1"/><path d="M36.0,20.4 L64.5,50.5 L92.9,55.0 L121.4,56.9 L149.8,50.3 L178.3,66.8 L206.8,60.4 L235.2,58.5 L263.7,61.0 L292.2,79.3 L320.6,60.0 L349.1,64.7 L377.5,51.8 L406.0,32.5" fill="none" stroke="#0d6efd" stroke-width="2" stroke-linecap="round"/><path d="M36.0,56.9 L64.5,64.3 L92.9,63.5 L121.4,62.2 L149.8,58.7 L178.3,59.4 L206.8,90.4 L235.2,87.9 L263.7,89.5 L292.2,82.1 L320.6,68.0 L349.1,71.3 L377.5,91.4 L406.0,90.2" fill="none" stroke="#f97316" stroke-width="2" stroke-linecap="round"/><text x="36" y="112" font-size="10" fill="#666">2026-02-15</text><text x="406" y="112" font-size="10" fill="#666" text-anchor="end">2026-02-28</text></svg>