<svg xmlns="http://www.w3.org/2000/svg" width="420" height="120" aria-label="Reliability sparkline"><style>text{font-family: 'Inter', system-ui, -apple-system, sans-serif;}</style><line x1="36" x2="406" y1="92" y2="92" stroke="#e0e0e0" stroke-width="1"/><path d="M36.0,62.1 L64.5,74.2 L92.9,51.7 L121.4,26.7 L149.8,45.4 L178.3,58.8 L206.8,55.9 L235.2,66.6 L263.7,56.3 L292.2,61.0 L320.6,32.3 L349.1,60.6 L377.5,60.8 L406.0,76.0" fill="none" stroke="#0d6efd" stroke-width="2" stroke-linecap="round"/><path d="M36.0,70.4 L64.5,53.4 L92.9,66.6 L121.4,84.2 L149.8,92.0 L178.3,89.8 L206.8,91.3 L235.2,90.4 L263.7,61.2 L292.2,71.7 L320.6,68.8 L349.1,73.7 L377.5,90.4 L406.0,92.0" fill="none" stroke="#f97316" stroke-width="2" stroke-linecap="round"/><text x="36" y="112" font-size="10" fill="#666">2026-03-05</text><text x="406" y="112" font-size="10" fill="#666" text-anchor="end">2026-03-18</text></svg>