<svg xmlns="http://www.w3.org/2000/svg" width="420" height="120" aria-label="Reliability sparkline"><style>text{font-family: 'Inter', system-ui, -apple-system, sans-serif;}</style><line x1="36" x2="406" y1="92" y2="92" stroke="#e0e0e0" stroke-width="1"/><path d="M36.0,55.5 L64.5,60.8 L92.9,46.1 L121.4,29.8 L149.8,23.4 L178.3,23.1 L206.8,36.5 L235.2,43.0 L263.7,62.1 L292.2,74.2 L320.6,51.7 L349.1,26.7 L377.5,45.4 L406.0,55.0" fill="none" stroke="#0d6efd" stroke-width="2" stroke-linecap="round"/><path d="M36.0,64.6 L64.5,68.4 L92.9,91.3 L121.4,90.4 L149.8,85.1 L178.3,88.7 L206.8,87.8 L235.2,83.5 L263.7,70.4 L292.2,53.4 L320.6,66.6 L349.1,84.2 L377.5,92.0 L406.0,90.0" fill="none" stroke="#f97316" stroke-width="2" stroke-linecap="round"/><text x="36" y="112" font-size="10" fill="#666">2026-02-25</text><text x="406" y="112" font-size="10" fill="#666" text-anchor="end">2026-03-10</text></svg>