<svg xmlns="http://www.w3.org/2000/svg" width="420" height="120" aria-label="Reliability sparkline"><style>text{font-family: 'Inter', system-ui, -apple-system, sans-serif;}</style><line x1="36" x2="406" y1="92" y2="92" stroke="#e0e0e0" stroke-width="1"/><path d="M36.0,55.9 L64.5,53.7 L92.9,56.6 L121.4,77.5 L149.8,55.5 L178.3,60.8 L206.8,46.1 L235.2,29.8 L263.7,23.4 L292.2,23.1 L320.6,36.5 L349.1,43.0 L377.5,62.1 L406.0,76.4" fill="none" stroke="#0d6efd" stroke-width="2" stroke-linecap="round"/><path d="M36.0,90.2 L64.5,87.3 L92.9,89.1 L121.4,80.6 L149.8,64.6 L178.3,68.4 L206.8,91.3 L235.2,90.4 L263.7,85.1 L292.2,88.7 L320.6,87.8 L349.1,83.5 L377.5,70.4 L406.0,55.7" fill="none" stroke="#f97316" stroke-width="2" stroke-linecap="round"/><text x="36" y="112" font-size="10" fill="#666">2026-02-21</text><text x="406" y="112" font-size="10" fill="#666" text-anchor="end">2026-03-06</text></svg>