<svg xmlns="http://www.w3.org/2000/svg" width="420" height="120" aria-label="Reliability sparkline"><style>text{font-family: 'Inter', system-ui, -apple-system, sans-serif;}</style><line x1="36" x2="406" y1="92" y2="92" stroke="#e0e0e0" stroke-width="1"/><path d="M36.0,23.1 L64.5,36.5 L92.9,43.0 L121.4,62.1 L149.8,74.2 L178.3,51.7 L206.8,26.7 L235.2,45.4 L263.7,58.8 L292.2,55.9 L320.6,66.6 L349.1,56.3 L377.5,61.0 L406.0,40.5" fill="none" stroke="#0d6efd" stroke-width="2" stroke-linecap="round"/><path d="M36.0,88.7 L64.5,87.8 L92.9,83.5 L121.4,70.4 L149.8,53.4 L178.3,66.6 L206.8,84.2 L235.2,92.0 L263.7,89.8 L292.2,91.3 L320.6,90.4 L349.1,61.2 L377.5,71.7 L406.0,69.5" fill="none" stroke="#f97316" stroke-width="2" stroke-linecap="round"/><text x="36" y="112" font-size="10" fill="#666">2026-03-02</text><text x="406" y="112" font-size="10" fill="#666" text-anchor="end">2026-03-15</text></svg>