<svg xmlns="http://www.w3.org/2000/svg" width="420" height="120" aria-label="Reliability sparkline"><style>text{font-family: 'Inter', system-ui, -apple-system, sans-serif;}</style><line x1="36" x2="406" y1="92" y2="92" stroke="#e0e0e0" stroke-width="1"/><path d="M36.0,34.7 L64.5,62.6 L92.9,65.1 L121.4,54.4 L149.8,32.3 L178.3,20.4 L206.8,50.5 L235.2,55.0 L263.7,56.9 L292.2,50.3 L320.6,66.8 L349.1,60.4 L377.5,58.5 L406.0,68.4" fill="none" stroke="#0d6efd" stroke-width="2" stroke-linecap="round"/><path d="M36.0,66.3 L64.5,76.4 L92.9,62.9 L121.4,64.7 L149.8,67.6 L178.3,56.9 L206.8,64.3 L235.2,63.5 L263.7,62.2 L292.2,58.7 L320.6,59.4 L349.1,90.4 L377.5,87.9 L406.0,90.4" fill="none" stroke="#f97316" stroke-width="2" stroke-linecap="round"/><text x="36" y="112" font-size="10" fill="#666">2026-02-10</text><text x="406" y="112" font-size="10" fill="#666" text-anchor="end">2026-02-23</text></svg>