<?xml version="1.0"?><svg viewBox="0 0 720 220" width="100%" height="220" xmlns="http://www.w3.org/2000/svg"><rect width="100%" height="100%" fill="#fff"/><line x1="36" y1="196" x2="708" y2="196" stroke="#eee"/><text x="28" y="199" text-anchor="end" font-size="10" fill="#666" font-family="system-ui,Arial">0</text><line x1="36" y1="136" x2="708" y2="136" stroke="#eee"/><text x="28" y="139" text-anchor="end" font-size="10" fill="#666" font-family="system-ui,Arial">10</text><line x1="36" y1="76" x2="708" y2="76" stroke="#eee"/><text x="28" y="79" text-anchor="end" font-size="10" fill="#666" font-family="system-ui,Arial">20</text><line x1="36" y1="16" x2="708" y2="16" stroke="#eee"/><text x="28" y="19" text-anchor="end" font-size="10" fill="#666" font-family="system-ui,Arial">30</text><rect x="40.0" y="122.6" width="20.0" height="67.4" fill="#e67e22"/><rect x="40.0" y="85.9" width="20.0" height="36.7" fill="#8e44ad"/><rect x="68.0" y="129.0" width="20.0" height="61.0" fill="#e67e22"/><rect x="68.0" y="128.5" width="20.0" height="0.4" fill="#8e44ad"/><rect x="96.0" y="134.2" width="20.0" height="55.8" fill="#e67e22"/><rect x="96.0" y="124.4" width="20.0" height="9.8" fill="#8e44ad"/><rect x="124.0" y="135.4" width="20.0" height="54.6" fill="#e67e22"/><rect x="124.0" y="122.8" width="20.0" height="12.6" fill="#8e44ad"/><rect x="152.0" y="140.5" width="20.0" height="49.5" fill="#e67e22"/><rect x="152.0" y="134.8" width="20.0" height="5.7" fill="#8e44ad"/><rect x="180.0" y="156.1" width="20.0" height="33.9" fill="#e67e22"/><rect x="180.0" y="152.3" width="20.0" height="3.8" fill="#8e44ad"/><rect x="208.0" y="175.9" width="20.0" height="14.1" fill="#e67e22"/><rect x="208.0" y="172.1" width="20.0" height="3.8" fill="#8e44ad"/><rect x="236.0" y="174.0" width="20.0" height="16.0" fill="#e67e22"/><rect x="236.0" y="167.0" width="20.0" height="7.0" fill="#8e44ad"/><rect x="264.0" y="99.7" width="20.0" height="90.3" fill="#e67e22"/><rect x="264.0" y="95.2" width="20.0" height="4.5" fill="#8e44ad"/><rect x="292.0" y="99.2" width="20.0" height="90.8" fill="#e67e22"/><rect x="292.0" y="95.6" width="20.0" height="3.6" fill="#8e44ad"/><rect x="320.0" y="128.6" width="20.0" height="61.4" fill="#e67e22"/><rect x="320.0" y="127.1" width="20.0" height="1.5" fill="#8e44ad"/><rect x="348.0" y="140.6" width="20.0" height="49.4" fill="#e67e22"/><rect x="348.0" y="130.3" width="20.0" height="10.3" fill="#8e44ad"/><rect x="376.0" y="100.0" width="20.0" height="90.0" fill="#e67e22"/><rect x="376.0" y="95.5" width="20.0" height="4.5" fill="#8e44ad"/><rect x="404.0" y="37.7" width="20.0" height="152.3" fill="#e67e22"/><rect x="404.0" y="37.7" width="20.0" height="0.0" fill="#8e44ad"/><rect x="432.0" y="82.2" width="20.0" height="107.8" fill="#e67e22"/><rect x="432.0" y="68.2" width="20.0" height="13.9" fill="#8e44ad"/><rect x="460.0" y="122.4" width="20.0" height="67.6" fill="#e67e22"/><rect x="460.0" y="102.6" width="20.0" height="19.8" fill="#8e44ad"/><rect x="488.0" y="151.1" width="20.0" height="38.9" fill="#e67e22"/><rect x="488.0" y="122.3" width="20.0" height="28.8" fill="#8e44ad"/><rect x="516.0" y="138.2" width="20.0" height="51.8" fill="#e67e22"/><rect x="516.0" y="80.9" width="20.0" height="57.3" fill="#8e44ad"/><rect x="544.0" y="128.2" width="20.0" height="61.8" fill="#e67e22"/><rect x="544.0" y="76.7" width="20.0" height="51.4" fill="#8e44ad"/><rect x="572.0" y="109.0" width="20.0" height="81.0" fill="#e67e22"/><rect x="572.0" y="51.5" width="20.0" height="57.5" fill="#8e44ad"/><rect x="600.0" y="109.7" width="20.0" height="80.3" fill="#e67e22"/><rect x="600.0" y="109.7" width="20.0" height="0.0" fill="#8e44ad"/><rect x="628.0" y="109.8" width="20.0" height="80.2" fill="#e67e22"/><rect x="628.0" y="107.8" width="20.0" height="2.0" fill="#8e44ad"/><rect x="656.0" y="112.1" width="20.0" height="77.9" fill="#e67e22"/><rect x="656.0" y="104.9" width="20.0" height="7.3" fill="#8e44ad"/><rect x="684.0" y="104.9" width="20.0" height="85.1" fill="#e67e22"/><rect x="684.0" y="46.2" width="20.0" height="58.6" fill="#8e44ad"/><text x="36" y="214" font-size="10" fill="#666" font-family="system-ui,Arial">0</text><text x="120" y="214" font-size="10" fill="#666" font-family="system-ui,Arial">3</text><text x="204" y="214" font-size="10" fill="#666" font-family="system-ui,Arial">6</text><text x="288" y="214" font-size="10" fill="#666" font-family="system-ui,Arial">9</text><text x="372" y="214" font-size="10" fill="#666" font-family="system-ui,Arial">12</text><text x="456" y="214" font-size="10" fill="#666" font-family="system-ui,Arial">15</text><text x="540" y="214" font-size="10" fill="#666" font-family="system-ui,Arial">18</text><text x="624" y="214" font-size="10" fill="#666" font-family="system-ui,Arial">21</text><text x="710" y="16" text-anchor="end" font-size="10" fill="#666" font-family="system-ui,Arial">LBGI (purple) + HBGI (orange) by hour</text></svg>